<?xml version="1.0" standalone="no"?>
<!DOCTYPE svg PUBLIC "-//W3C//DTD SVG 1.1//EN" "http://www.w3.org/Graphics/SVG/1.1/DTD/svg11.dtd" >
<svg>
<metadata>
Created by FontForge 20090914 at Wed Jan 22 17:44:40 2014
 By www-data
Created on the 15 - 25 July in 1998.  Created by Jason Matthew Everett, KidChaos2@aol.com  Snail Mail address is 3515 Apple Street, Lincoln, NE  68503   402 466 1952.  Copyright control by Chaos Fonts, 1998.
</metadata>
<defs>
<font id="Digifit" horiz-adv-x="758" >
  <font-face 
    font-family="Digifit"
    font-weight="400"
    font-stretch="normal"
    units-per-em="1000"
    panose-1="0 0 0 0 0 0 0 0 0 0"
    ascent="800"
    descent="-200"
    x-height="618"
    cap-height="802"
    bbox="-5.99805 -510.004 1784 972"
    underline-thickness="20"
    underline-position="-123"
    unicode-range="U+0020-U+007E"
  />
<missing-glyph horiz-adv-x="800" 
d="M50 0v800h700v-800h-700zM700 50v700h-600v-700h600z" />
    <glyph glyph-name=".notdef" horiz-adv-x="800" 
d="M50 0v800h700v-800h-700zM700 50v700h-600v-700h600z" />
    <glyph glyph-name="space" unicode=" " horiz-adv-x="500" 
 />
    <glyph glyph-name="exclam" unicode="!" horiz-adv-x="337" 
d="M306 176c0 -15.333 -8.33105 -32.335 -24.998 -51.002c-20 -22.667 -43 -34 -69 -34c-25.333 0 -48.333 10.333 -69 31c-18 18 -27 36 -27 54v201c-46.667 0 -79.334 10 -98.001 30c-12 12.667 -18 28.334 -18 47.001v347h222
c23.333 -7.33301 43.166 -19.666 59.499 -36.999s24.5 -35.333 24.5 -54v-534zM210.002 2.99805c28 0 52 -10 72 -30s30 -44 30 -72s-10 -52 -30 -72s-44 -30 -72 -30s-52 10 -72 30s-30 44 -30 72s10 52 30 72s44 30 72 30z" />
    <glyph glyph-name="quotedbl" unicode="&#x22;" horiz-adv-x="368" 
d="M192 720c10.667 26 20.001 44.002 28.001 54.002c13.333 16 30 24 50 24s36.667 -7.33301 50 -22s22.666 -33.334 27.999 -56.001c0.666992 -2 1 -5.33301 1 -10c0 -26 -20.667 -54.667 -62 -86c-38 -28.667 -66.333 -43 -85 -43c-4 0 -6.16699 1.33301 -6.5 4
s1.5 6.66699 5.5 12c13.333 18 20 33.667 20 47c0 10.667 -5.16699 22.167 -15.5 34.5s-15.5 22.166 -15.5 29.499c0 5.33301 0.666992 9.33301 2 12zM9.00098 723.002c10.667 26 20.001 44.002 28.001 54.002c13.333 16 30 24 50 24s36.667 -7.33301 50 -22
s22.666 -33.334 27.999 -56.001c0.666992 -2 1 -5.33301 1 -10c0 -26 -20.667 -54.667 -62 -86c-38 -28.667 -66.333 -43 -85 -43c-4 0 -6.16699 1.33301 -6.5 4s1.5 6.66699 5.5 12c13.333 18 20 33.667 20 47c0 10.667 -5.16699 22.167 -15.5 34.5
s-15.5 22.166 -15.5 29.499c0 5.33301 0.666992 9.33301 2 12z" />
    <glyph glyph-name="numbersign" unicode="#" horiz-adv-x="472" 
d="M438 445h-83v-58h-96v58h-89v-58h-96v58h-71v115h71v57h-71v116h71v70h96v-70h89v70h96v-70h83v-116h-83v-57h83v-115zM253 566v45h-77v-45h77z" />
    <glyph glyph-name="dollar" unicode="$" horiz-adv-x="569" 
d="M542 191c0 -114.667 -11.167 -185.666 -33.5 -212.999s-82.5 -41 -180.5 -41c0 -18 0.333008 -33.167 1 -45.5l2 -35.5c0 -19.333 -4.66699 -31.833 -14 -37.5s-30.666 -8.5 -63.999 -8.5c-34.667 0 -56 2.16699 -64 6.5s-12 17.833 -12 40.5c0 8 0.333008 22 1 42
s1 32.667 1 38h-20c-7.33301 0 -15.333 -0.333008 -24 -1c-36 0 -64.667 4 -86 12c-30.667 11.333 -46 31.666 -46 60.999v149c0 12 5.16699 23.167 15.5 33.5s21.5 15.5 33.5 15.5l342 -1v78h-314c-32 0 -54 13 -66 39c-8.66699 18.667 -13 47.334 -13 86.001v29.5
c0 9.66699 0.333008 19.167 1 28.5c0 94 9.66699 153.667 29 179c15.333 20.667 50 31 104 31c9.33301 0 19.166 -0.166992 29.499 -0.5s20.833 -0.5 31.5 -0.5c0 18 -0.333008 33.333 -1 46l-2 37c0 19.333 4.5 31.666 13.5 36.999s30.167 8 63.5 8
c36.667 0 58.5 -2.66699 65.5 -8s10.5 -24.666 10.5 -57.999c0 -5.33301 -0.166992 -12.5 -0.5 -21.5s-0.5 -19.5 -0.5 -31.5v-9h48c54.667 0 91 -4.66699 109 -14c26.667 -14 40 -43.333 40 -88c0 -30.667 -7.33301 -54.334 -22 -71.001s-32.667 -25 -54 -25h-292v-78h292
c31.333 0 53 -15 65 -45c8.66699 -21.333 13 -53.333 13 -96c0 -8.66699 -0.333008 -20.667 -1 -36s-1 -26 -1 -32z" />
    <glyph glyph-name="percent" unicode="%" horiz-adv-x="811" 
d="M773 645c0 -53.333 -4 -90.665 -12 -111.998c-14 -36.667 -42.333 -55 -85 -55h-200v-577c0 -41.333 -17.667 -70 -53 -86c-23.333 -10.667 -57.333 -16 -102 -16c-8.66699 0 -16.667 0.166992 -24 0.5s-14 0.5 -20 0.5h-43.5c-13.667 0 -26.834 -0.333008 -39.501 -1
c-52.667 0 -85.334 10.167 -98.001 30.5s-19 75.166 -19 164.499c0 10 -0.166992 19.667 -0.5 29s-0.5 18.666 -0.5 27.999c0 52 9.66699 85.667 29 101c25.333 20 82.666 30 171.999 30v532c0 36.667 16 62 48 76c23.333 10 60.333 15 111 15
c14.667 0 29.334 -0.166992 44.001 -0.5s29.334 -0.5 44.001 -0.5h55.5c17.667 0 34.834 0.333008 51.501 1c58.667 0 96 -8 112 -24c20 -20 30 -65.333 30 -136zM54 720.001c0 21.333 7.66699 39.666 23 54.999s33.666 23 54.999 23s39.666 -7.66699 54.999 -23
s23 -33.666 23 -54.999s-7.66699 -39.666 -23 -54.999s-33.666 -23 -54.999 -23s-39.666 7.66699 -54.999 23s-23 33.666 -23 54.999zM540 -119.999c0 21.333 7.66699 39.666 23 54.999s33.666 23 54.999 23s39.666 -7.66699 54.999 -23s23 -33.666 23 -54.999
s-7.66699 -39.666 -23 -54.999s-33.666 -23 -54.999 -23s-39.666 7.66699 -54.999 23s-23 33.666 -23 54.999z" />
    <glyph glyph-name="ampersand" unicode="&#x26;" horiz-adv-x="670" 
d="M641 49c0 -52 -9.33203 -93.499 -27.999 -124.499s-44.667 -46.5 -78 -46.5h-407c-51.333 0 -86 23.667 -104 71c-12.667 33.333 -19 90.333 -19 171c0 11.333 -0.333008 26.666 -1 45.999s-1 33 -1 41c0 33.333 5 59.666 15 78.999c13.333 25.333 38.333 48.333 75 69
c-41.333 14 -67 27.333 -77 40s-15 36.667 -15 72v34c0 12 0.333008 24.667 1 38c0 60.667 1.33301 99 4 115c8.66699 51.333 38.334 77 89.001 77h432c26 0 48.333 -12.5 67 -37.5s28 -51.167 28 -78.5c0 -31.333 -8 -57 -24 -77c-20.667 -26 -44.334 -39 -71.001 -39h-325
v-63h36c12 0 24.333 0.333008 37 1c50.667 0 87.667 -4.33301 111 -13c32 -12 48 -34.667 48 -68c0 -34.667 -20 -58 -60 -70c-26 -8 -67 -12 -123 -12h-49v-57h325c37.333 0 65.666 -13.667 84.999 -41s29 -69.666 29 -126.999zM267.001 -207.999v917.999
c0 25.333 7.33301 50 22 74s28 36 40 36c8.66699 0 14 -8.66699 16 -26v-924c0.666992 -2 1 -5.66699 1 -11c0 -17.333 -8 -37.166 -24 -59.499s-29.667 -33.5 -41 -33.5c-9.33301 0 -14 8.66699 -14 26z" />
    <glyph glyph-name="quotesingle" unicode="'" horiz-adv-x="187" 
d="M6 720c10.667 26 20.001 44.002 28.001 54.002c13.333 16 30 24 50 24s36.667 -7.33301 50 -22s22.666 -33.334 27.999 -56.001c0.666992 -2 1 -5.33301 1 -10c0 -26 -20.667 -54.667 -62 -86c-38 -28.667 -66.333 -43 -85 -43c-4 0 -6.16699 1.33301 -6.5 4
s1.5 6.66699 5.5 12c13.333 18 20 33.667 20 47c0 10.667 -5.16699 22.167 -15.5 34.5s-15.5 22.166 -15.5 29.499c0 5.33301 0.666992 9.33301 2 12z" />
    <glyph glyph-name="parenleft" unicode="(" horiz-adv-x="225" 
d="M197 -198h-119.001c-23.333 9.33301 -41.666 20.333 -54.999 33c-16 15.333 -24 33 -24 53v822c0 22.667 11.333 43.667 34 63c19.333 16.667 37.333 25 54 25h110v-101h-107v-791h107v-104z" />
    <glyph glyph-name="parenright" unicode=")" horiz-adv-x="229" 
d="M197 -115c0 -18.667 -7.5 -35.5 -22.5 -50.5s-33.833 -26.833 -56.5 -35.5h-119v104h107v794h-107v101h110c16 0 34 -8.33301 54 -25c22.667 -19.333 34 -40.333 34 -63v-825z" />
    <glyph glyph-name="asterisk" unicode="*" horiz-adv-x="500" 
d="M241 510c0 20 -4.33301 42.335 -13 67.002c-11.333 32 -17 54 -17 66c0 16 3.66699 28.5 11 37.5s17.333 13.5 30 13.5c10 0 18.833 -4.5 26.5 -13.5s11.5 -21.167 11.5 -36.5c0 -16 -4 -36.333 -12 -61s-13.667 -49 -17 -73c16.667 10 33 23.667 49 41
c20.667 24 37 40 49 48c11.333 6 22.333 9 33 9s19.334 -3.66699 26.001 -11c6.66699 -6 10.667 -14.667 12 -26c0 -10.667 -5.33301 -21.334 -16 -32.001c-10.667 -8.66699 -37.667 -18 -81 -28c-25.333 -6 -46 -12.333 -62 -19c14 -8 37.333 -15 70 -21
s55.334 -14.667 68.001 -26s19 -23 19 -35c0 -10 -3.5 -18.5 -10.5 -25.5s-15.5 -10.5 -25.5 -10.5c-10.667 0 -21.5 3.16699 -32.5 9.5s-27.167 21.833 -48.5 46.5c-12.667 14 -29.334 29 -50.001 45c0 -17.333 3.66699 -37.666 11 -60.999c12 -38 18 -64.333 18 -79
c0 -12 -3.66699 -22.667 -11 -32s-16 -14 -26 -14c-12 0 -22.167 4.16699 -30.5 12.5s-12.5 19.833 -12.5 34.5c0 15.333 4 34 12 56l14 46l5 37c-18 -12 -34.667 -26.333 -50 -43c-12 -12.667 -22.5 -23.334 -31.5 -32.001s-16.833 -15.167 -23.5 -19.5s-15 -6.5 -25 -6.5
c-11.333 0 -20.833 3.66699 -28.5 11s-11.5 15.666 -11.5 24.999c0 8 3 16.167 9 24.5s16.333 16.166 31 23.499l60 15c20 4 39.667 10.333 59 19c-19.333 8.66699 -40.333 15.334 -63 20.001c-40.667 9.33301 -65.334 17 -74.001 23c-14.667 10.667 -22 23.667 -22 39
c0 9.33301 3.66699 17.5 11 24.5s15.666 10.5 24.999 10.5c10.667 0 22.334 -3.33301 35.001 -10c4.66699 -3.33301 11.167 -8.5 19.5 -15.5s16.833 -15.5 25.5 -25.5c17.333 -20.667 35.333 -36.667 54 -48z" />
    <glyph glyph-name="plus" unicode="+" horiz-adv-x="640" 
d="M278 -228v458.999c0 25.333 7.33301 50 22 74s28 36 40 36c8.66699 0 14 -8.66699 16 -26v-465c0.666992 -2 1 -5.66699 1 -11c0 -17.333 -8 -37.166 -24 -59.499s-29.667 -33.5 -41 -33.5c-9.33301 0 -14 8.66699 -14 26zM53 80.999h458.999
c25.333 0 50 -7.33301 74 -22s36 -28 36 -40c0 -8.66699 -8.66699 -14 -26 -16h-465c-2 -0.666992 -5.66699 -1 -11 -1c-17.333 0 -37.166 8 -59.499 24s-33.5 29.667 -33.5 41c0 9.33301 8.66699 14 26 14z" />
    <glyph glyph-name="comma" unicode="," horiz-adv-x="187" 
d="M6 -72c10.667 26 20.001 44.002 28.001 54.002c13.333 16 30 24 50 24s36.667 -7.33301 50 -22s22.666 -33.334 27.999 -56.001c0.666992 -2 1 -5.33301 1 -10c0 -26 -20.667 -54.667 -62 -86c-38 -28.667 -66.333 -43 -85 -43c-4 0 -6.16699 1.33301 -6.5 4
s1.5 6.66699 5.5 12c13.333 18 20 33.667 20 47c0 10.667 -5.16699 22.167 -15.5 34.5s-15.5 22.166 -15.5 29.499c0 5.33301 0.666992 9.33301 2 12z" />
    <glyph glyph-name="hyphen" unicode="-" horiz-adv-x="640" 
d="M53 81h458.999c25.333 0 50 -7.33301 74 -22s36 -28 36 -40c0 -8.66699 -8.66699 -14 -26 -16h-465c-2 -0.666992 -5.66699 -1 -11 -1c-17.333 0 -37.166 8 -59.499 24s-33.5 29.667 -33.5 41c0 9.33301 8.66699 14 26 14z" />
    <glyph glyph-name="period" unicode="." horiz-adv-x="194" 
d="M3 -123c0 21.333 7.66699 39.666 23 54.999s33.666 23 54.999 23s39.666 -7.66699 54.999 -23s23 -33.666 23 -54.999s-7.66699 -39.666 -23 -54.999s-33.666 -23 -54.999 -23s-39.666 7.66699 -54.999 23s-23 33.666 -23 54.999z" />
    <glyph glyph-name="slash" unicode="/" horiz-adv-x="517" 
d="M30 -123l362.999 921c25.333 0 50 -7.33301 74 -22s36 -28 36 -40c0 -8.66699 -8.66699 -14 -26 -16l-369 -921c-2 -0.666992 -5.66699 -1 -11 -1c-17.333 0 -37.166 8 -59.499 24s-33.5 29.667 -33.5 41c0 9.33301 8.66699 14 26 14z" />
    <glyph glyph-name="zero" unicode="0" horiz-adv-x="742" 
d="M713 -104c0 -23.333 -11.998 -44.667 -35.998 -64c-21.333 -16.667 -41.333 -25 -60 -25h-524c-24.667 0 -46.834 9.83301 -66.501 29.5s-29.5 41.834 -29.5 66.501v804c0 25.333 8.66699 47.666 26 66.999s35.666 29 54.999 29h553c22.667 0 42.667 -10.667 60 -32
c14.667 -18 22 -34.333 22 -49v-826zM537.002 302.999c0 57.333 -11.001 92.001 -33.001 104.001c-16 8.66699 -63.333 13 -142 13h-33c-10.667 0 -20.667 0.333008 -30 1c-38.667 0 -64.667 -6 -78 -18c-16.667 -15.333 -25 -48 -25 -98
c0 -50.667 6.33301 -82.334 19 -95.001s39 -19 79 -19h27.5c9.66699 0 19.834 0.333008 30.501 1h10c17.333 0 33 -0.333008 47 -1l41 -2c32.667 0 54.667 6.33301 66 19c14 15.333 21 47 21 95z" />
    <glyph glyph-name="one" unicode="1" horiz-adv-x="410" 
d="M373 -75c0 -44.667 -19.667 -78 -59 -100c-32 -18 -74.333 -27 -127 -27c-68.667 0 -119 15.667 -151 47c-22.667 22 -34 48.667 -34 80v452c0 40.667 20 68 60 82c22.667 8 56 12 100 12c0 42.667 0.5 91 1.5 145s1.5 84.333 1.5 91c0 18 8 36.333 24 55
c20 24 46.333 36 79 36c28 0 52.5 -9.5 73.5 -28.5s31.5 -39.833 31.5 -62.5v-782z" />
    <glyph glyph-name="two" unicode="2" horiz-adv-x="731" 
d="M707 -75c0 -53.333 -28.333 -89.333 -85 -108c-38 -12.667 -100 -19 -186 -19c-14.667 0 -29 0.166992 -43 0.5s-28 0.5 -42 0.5h-40.5c-13.667 0 -27.5 -0.333008 -41.5 -1c-109.333 0 -182 10.833 -218 32.5s-54 53.167 -54 94.5v351c0 37.333 18 63 54 77
c18.667 3.33301 37.334 7 56.001 11c2 1.33301 13 19 33 53c16 28 41.333 42 76 42h264v66h-403c-26.667 0 -46.334 7.66699 -59.001 23c-14.667 17.333 -22 50.333 -22 99c0 45.333 12 82.666 36 111.999s56.333 44 97 44h417c62.667 0 106.667 -24.333 132 -73
c18.667 -35.333 28 -87.666 28 -156.999c0 -74.667 -9 -125 -27 -151l-82 -51l-24 -72c-14.667 -20 -36 -30 -64 -30h-293v-73h381c20.667 0 44.167 -11.833 70.5 -35.5s39.5 -48.5 39.5 -74.5v-161z" />
    <glyph glyph-name="three" unicode="3" horiz-adv-x="781" 
d="M748 578v-43.498c0 -13.667 0.333008 -26.5 1 -38.5c0 -43.333 -5.66699 -72.5 -17 -87.5s-41.666 -30.833 -90.999 -47.5c43.333 -24.667 72.666 -51.334 87.999 -80.001c12 -22.667 18 -54 18 -94c0 -22.667 -0.333008 -41.834 -1 -57.501
s-1.33398 -30.5 -2.00098 -44.5c0 -96.667 -7 -163.667 -21 -201c-20.667 -56 -62 -84 -124 -84h-478c-38.667 0 -69.167 18.167 -91.5 54.5s-33.5 85.166 -33.5 146.499c0 66.667 11.5 116.334 34.5 149.001s56.167 49 99.5 49h382v67h-52
c-51.333 0 -87.333 4.66699 -108 14c-30.667 14 -46 41.333 -46 82s12 67.667 36 81c18 10 51 15 99 15c11.333 0 22.833 -0.166992 34.5 -0.5s23.834 -0.5 36.501 -0.5v74h-382c-20.667 0 -42 9 -64 27c-32 26 -48 62.333 -48 109c0 32 11.167 62.667 33.5 92
s48.5 44 78.5 44h508c49.333 0 81 -19.333 95 -58c10 -27.333 15 -83 15 -167z" />
    <glyph glyph-name="four" unicode="4" horiz-adv-x="711" 
d="M686 299c0 -92 -31.4971 -138.667 -94.4971 -140s-94.5 -25 -94.5 -71v-167c0 -26 -12.667 -53 -38 -81s-51.333 -42 -78 -42h-145c-22 0 -45.5 11.667 -70.5 35s-37.5 47.666 -37.5 72.999v259h-131v529c0 26 9.16699 49.5 27.5 70.5s42.833 31.5 73.5 31.5
c27.333 0 51.666 -10 72.999 -30c19.333 -18 29 -37 29 -57v-247c0 -16 6.16699 -30.667 18.5 -44s29.166 -20 50.499 -20c19.333 0 35.666 6.33301 48.999 19s20 27.667 20 45v350c0 20.667 7.5 37.834 22.5 51.501s36.5 20.5 64.5 20.5c26.667 0 48.334 -10 65.001 -30
c14.667 -17.333 22 -36.333 22 -57v-335c79.333 0 128.166 -8.83301 146.499 -26.5s27.5 -63.167 27.5 -136.5z" />
    <glyph glyph-name="five" unicode="5" horiz-adv-x="738" 
d="M718 664c0 -44.667 -3.66504 -76.001 -10.998 -94.001c-10.667 -26 -31.667 -39 -63 -39h-419v-74h361c60 0 97.333 -18.667 112 -56c8.66699 -22 13 -79 13 -171c0 -8.66699 0.333008 -21.667 1 -39s1 -30.333 1 -39c0 -46 -6.33301 -79 -19 -99
c-18 -28 -51 -42 -99 -42c0 -101.333 -9.83301 -163.333 -29.5 -186s-71.5 -34 -155.5 -34h-12h-11c-12.667 0 -25.667 0.166992 -39 0.5s-27 0.5 -41 0.5h-13c-130.667 0 -210.334 4.66699 -239.001 14c-34 11.333 -51 40.333 -51 87v240c0 16.667 9.16699 32 27.5 46
s36.166 21 53.499 21h442v66h-405c-28 0 -54.667 12.167 -80 36.5s-38 46.5 -38 66.5v324c0 22 12.833 45.833 38.5 71.5s52.167 38.5 79.5 38.5h515c26 0 45.333 -9 58 -27c15.333 -21.333 23 -58.666 23 -111.999z" />
    <glyph glyph-name="six" unicode="6" horiz-adv-x="727" 
d="M696 637c0 -41.333 -9.33594 -77 -28.0029 -107c-21.333 -34 -50.666 -51 -87.999 -51h-377v-281h303v67c-11.333 0 -27.666 -0.333008 -48.999 -1s-36.666 -1 -45.999 -1c-44.667 0 -76.667 4.33301 -96 13c-26 12 -39 34 -39 66c0 20.667 6.83301 38.834 20.5 54.501
s29.5 23.5 47.5 23.5h339v-436c-8 -82 -42.667 -136 -104 -162c-45.333 -19.333 -129 -29 -251 -29c-114 0 -192 7.66699 -234 23c-64.667 24 -97 72.667 -97 146v686c0 49.333 23 89.333 69 120c34.667 23.333 65.667 35 93 35h406c40 0 72.333 -16.667 97 -50
c22.667 -30.667 34 -69.334 34 -116.001z" />
    <glyph glyph-name="seven" unicode="7" horiz-adv-x="719" 
d="M692 -6c0 -90 -6.16504 -145.001 -18.498 -165.001s-45.166 -30 -98.499 -30c-14 0 -26.833 0.166992 -38.5 0.5s-22.5 0.5 -32.5 0.5h-12h-24c-7.33301 0 -14 -0.333008 -20 -1c-43.333 0 -77 5.33301 -101 16c-36 16 -54 44.667 -54 86v577h-200
c-42 0 -70 18.333 -84 55c-8.66699 22.667 -13 60 -13 112c0 70.667 10 115.667 30 135c17.333 16.667 55.666 25 114.999 25c15.333 0 31.666 -0.166992 48.999 -0.5s35.666 -0.5 54.999 -0.5h43c14.667 0 29.667 0.333008 45 1c50.667 0 87.667 -5 111 -15
c32 -13.333 48 -38.666 48 -75.999v-532c88.667 0 145.667 -10 171 -30c20 -16 30 -50 30 -102c0 -8.66699 -0.166992 -17.667 -0.5 -27s-0.5 -19 -0.5 -29z" />
    <glyph glyph-name="eight" unicode="8" horiz-adv-x="754" 
d="M721 -97c0 -28.667 -13.334 -53.668 -40.001 -75.001c-23.333 -18.667 -44.333 -28 -63 -28h-510c-31.333 0 -58.666 16 -81.999 48c-19.333 26.667 -29 50 -29 70v361c0 35.333 29.667 67.333 89 96c-36.667 15.333 -59.5 30.333 -68.5 45s-13.5 41.334 -13.5 80.001v35
c0 12.667 0.333008 26 1 40v36c0 56 5.66699 98 17 126c18 44 51.667 66 101 66h480c51.333 0 86.333 -22.667 105 -68c12 -29.333 18 -72.666 18 -129.999v-38c0 -12.667 0.333008 -28.667 1 -48s1 -32.333 1 -39c0 -28.667 -4 -50 -12 -64
c-10 -16.667 -30.667 -35.334 -62 -56.001c5.33301 -6 16 -15.667 32 -29c23.333 -19.333 35 -39.333 35 -60v-368zM520.999 514.999h-302v-22c8 -14 15.333 -24 22 -30c10.667 -10 23 -15 37 -15h207l24 27c3.33301 4.66699 7.33301 18 12 40zM506.999 181.999
l0.000976562 30c-14 20 -25.833 32.5 -35.5 37.5s-25.834 7.5 -48.501 7.5c-12.667 0 -24.667 -0.166992 -36 -0.5s-22 -0.5 -32 -0.5c-9.33301 0 -21.5 0.333008 -36.5 1s-25.167 1 -30.5 1c-24.667 0 -42 -4 -52 -12c-13.333 -10.667 -24 -32 -32 -64h303z" />
    <glyph glyph-name="nine" unicode="9" 
d="M718 -107c0 -29.333 -11.666 -53.334 -34.999 -72.001c-18.667 -15.333 -36.334 -23 -53.001 -23h-545c-37.333 0 -62.666 19.333 -75.999 58c-8.66699 24.667 -13 61.334 -13 110.001v29v25c0 42.667 4.33301 76 13 100c14 38.667 39.333 58 76 58h420v301h-331v-66h191
c16 0 33.333 -7 52 -21c23.333 -18 35 -40.333 35 -67c0 -22.667 -8.5 -43.167 -25.5 -61.5s-32.5 -27.5 -46.5 -27.5h-295c-28 0 -50.667 14 -68 42c-13.333 21.333 -20 39.333 -20 54v375c0 25.333 11 48.333 33 69c19.333 18 37.666 27 54.999 27h545
c24 0 45.333 -12.333 64 -37c16 -21.333 24 -41 24 -59v-814z" />
    <glyph glyph-name="colon" unicode=":" horiz-adv-x="202" 
d="M0 381c0 21.333 7.66699 39.666 23 54.999s33.666 23 54.999 23s39.666 -7.66699 54.999 -23s23 -33.666 23 -54.999s-7.66699 -39.666 -23 -54.999s-33.666 -23 -54.999 -23s-39.666 7.66699 -54.999 23s-23 33.666 -23 54.999zM3 75c0 21.333 7.66699 39.666 23 54.999
s33.666 23 54.999 23s39.666 -7.66699 54.999 -23s23 -33.666 23 -54.999s-7.66699 -39.666 -23 -54.999s-33.666 -23 -54.999 -23s-39.666 7.66699 -54.999 23s-23 33.666 -23 54.999z" />
    <glyph glyph-name="semicolon" unicode=";" horiz-adv-x="187" 
d="M0 444c0 21.333 7.66699 39.666 23 54.999s33.666 23 54.999 23s39.666 -7.66699 54.999 -23s23 -33.666 23 -54.999s-7.66699 -39.666 -23 -54.999s-33.666 -23 -54.999 -23s-39.666 7.66699 -54.999 23s-23 33.666 -23 54.999zM3 132
c10.667 26 20.001 44.002 28.001 54.002c13.333 16 30 24 50 24s36.667 -7.33301 50 -22s22.666 -33.334 27.999 -56.001c0.666992 -2 1 -5.33301 1 -10c0 -26 -20.667 -54.667 -62 -86c-38 -28.667 -66.333 -43 -85 -43c-4 0 -6.16699 1.33301 -6.5 4s1.5 6.66699 5.5 12
c13.333 18 20 33.667 20 47c0 10.667 -5.16699 22.167 -15.5 34.5s-15.5 22.166 -15.5 29.499c0 5.33301 0.666992 9.33301 2 12z" />
    <glyph glyph-name="equal" unicode="=" horiz-adv-x="606" 
d="M27 282h458.999c25.333 0 50 -7.33301 74 -22s36 -28 36 -40c0 -8.66699 -8.66699 -14 -26 -16h-465c-2 -0.666992 -5.66699 -1 -11 -1c-17.333 0 -37.166 8 -59.499 24s-33.5 29.667 -33.5 41c0 9.33301 8.66699 14 26 14zM26.999 81h458.999
c25.333 0 50 -7.33301 74 -22s36 -28 36 -40c0 -8.66699 -8.66699 -14 -26 -16h-465c-2 -0.666992 -5.66699 -1 -11 -1c-17.333 0 -37.166 8 -59.499 24s-33.5 29.667 -33.5 41c0 9.33301 8.66699 14 26 14z" />
    <glyph glyph-name="question" unicode="?" 
d="M723 312c0 -31.333 -15.668 -58 -47.001 -80c-25.333 -18 -47.666 -27 -66.999 -27h-263v50c18.667 48 36.834 77.833 54.501 89.5s51.5 17.5 101.5 17.5v99h-306v-99c36 0 62.667 -6.16699 80 -18.5s26 -32.166 26 -59.499c0 -31.333 -10.667 -53.333 -32 -66
c-14.667 -8.66699 -36.334 -13 -65.001 -13h-19.5c-6.33301 0 -12.5 0.333008 -18.5 1c-61.333 0 -105 10.167 -131 30.5s-39 50.166 -39 89.499v349c0 30.667 11.667 59.667 35 87s47.333 41 72 41h491c22.667 0 49 -14.667 79 -44c32.667 -32 49 -62.333 49 -91v-356z
M359.999 36c29.333 35.333 66.666 53 111.999 53c34 0 64.667 -11 92 -33c17.333 -14 30.5 -30.5 39.5 -49.5s13.5 -39.833 13.5 -62.5c0 -17.333 -2.5 -33.333 -7.5 -48s-13.167 -29 -24.5 -43c-14 -17.333 -31 -30.666 -51 -39.999s-41 -14 -63 -14
c-33.333 0 -63.666 11 -90.999 33c-35.333 29.333 -53 66.666 -53 111.999c0 34 11 64.667 33 92z" />
    <glyph glyph-name="at" unicode="@" horiz-adv-x="869" 
d="M836 -99c0 -25.333 -12.5 -48.667 -37.5 -70s-48.5 -32 -70.5 -32h-604c-34.667 0 -64.667 15.667 -90 47c-20.667 26 -31 48.333 -31 67v814c0 22 12.333 41 37 57c20 12.667 37.333 19 52 19h636c30 0 56 -11 78 -33c20 -20 30 -40.667 30 -62v-807zM690 -17.001
v585.003c0 10.667 -4.33301 20.667 -13 30s-19 14 -31 14h-280l-14.5 -24.5c-3.66699 -6.33301 -5.5 -10.5 -5.5 -12.5c0 -6 4 -13 12 -21s17 -12 27 -12h133c33.333 0 56.666 -12 69.999 -36c9.33301 -16.667 14 -42.334 14 -77.001
c0 -7.33301 -0.333008 -17.666 -1 -30.999s-1 -22.333 -1 -27c0 -84.667 -7.5 -133.334 -22.5 -146.001s-71.833 -19 -170.5 -19c-8.66699 0 -21.667 -0.333008 -39 -1s-30 -1 -38 -1c-36.667 0 -62.667 4.66699 -78 14c-21.333 12.667 -32 36.334 -32 71.001
c0 29.333 10 50 30 62c14.667 8.66699 36.667 13 66 13c6 0 15.333 -0.333008 28 -1s21.667 -1 27 -1c16.667 0 28.834 1.66699 36.501 5s11.5 10.333 11.5 21c0 6.66699 -1.66699 13.667 -5 21c-5.33301 9.33301 -8.66602 15.666 -9.99902 18.999h-191
c-10.667 0 -21.834 -6.83301 -33.501 -20.5s-17.5 -25.834 -17.5 -36.501v-325c0 -18.667 6.83301 -33.834 20.5 -45.501s30.167 -17.5 49.5 -17.5h458z" />
    <glyph glyph-name="A" unicode="A" horiz-adv-x="773" 
d="M731 -106c0 -22.667 -10.667 -43.666 -32 -62.999s-48.333 -29 -81 -29c-28.667 0 -54.5 11.167 -77.5 33.5s-34.5 46.833 -34.5 73.5v240c0 34 -12.167 59.667 -36.5 77s-56.166 26 -95.499 26c-44 0 -79 -8.5 -105 -25.5s-39 -42.833 -39 -77.5v-233
c0 -26.667 -8.66699 -50.667 -26 -72c-22.667 -28 -54.334 -42 -95.001 -42c-32 0 -58.667 11.667 -80 35s-32 49.666 -32 78.999v771c0 30.667 10 57.667 30 81s41.333 35 64 35h444c38 0 80.167 -23.5 126.5 -70.5s69.5 -91.5 69.5 -133.5v-705zM499 447.001v29h-277v-29
l28.5 -15c9 -4.66699 16.5 -7 22.5 -7h175c11.333 0 21 2.5 29 7.5s15.333 9.83301 22 14.5z" />
    <glyph glyph-name="B" unicode="B" horiz-adv-x="723" 
d="M684 -137c0 -12.667 -7.5 -25.501 -22.5 -38.501s-29.167 -19.5 -42.5 -19.5h-499c-36.667 0 -67.667 18.333 -93 55c-20 29.333 -30 54.333 -30 75v745c0 24.667 9 49.334 27 74.001c24 32.667 56 49 96 49h470c20.667 0 41.5 -8.83301 62.5 -26.5
s31.5 -35.5 31.5 -53.5v-289c-35.333 0 -62.166 -6.33301 -80.499 -19s-27.5 -34 -27.5 -64c0 -33.333 11.667 -56.333 35 -69c17.333 -9.33301 41.666 -14 72.999 -14v-405zM513 474.999v46h-285v-36l13.5 -22c3.66699 -6 7.5 -11.333 11.5 -16h237zM503 194.999
l-2.99902 28l-26 23h-222c-8 -7.33301 -13.333 -14.333 -16 -21s-5.33398 -16.667 -8.00098 -30h275z" />
    <glyph glyph-name="C" unicode="C" horiz-adv-x="773" 
d="M748 619c0 -49.333 -13.668 -92.498 -41.001 -129.498s-62.333 -55.5 -105 -55.5h-317c-21.333 0 -35 -6.83301 -41 -20.5s-9 -35.167 -9 -64.5v-36c0 -8 -0.166992 -15.833 -0.5 -23.5s-0.5 -15.167 -0.5 -22.5c0 -28.667 4.33301 -47.334 13 -56.001
s21.334 -13 38.001 -13h295c38.667 0 77 -21.333 115 -64c31.333 -35.333 47 -77.666 47 -126.999c0 -54 -18.5 -102.833 -55.5 -146.5s-79.833 -65.5 -128.5 -65.5h-354c-57.333 0 -107.333 25.667 -150 77c-38 46 -57 93.333 -57 142v656c0 33.333 15 64.666 45 93.999
c26.667 26 51 39 73 39h487c32.667 -6.66699 57 -15.334 73 -26.001c48.667 -32 73 -84.667 73 -158z" />
    <glyph glyph-name="D" unicode="D" horiz-adv-x="742" 
d="M713 -53c0 -26.667 -13.668 -55.667 -41.001 -87c-31.333 -35.333 -64.666 -53 -99.999 -53h-575v996h575c38 0 72 -15.667 102 -47c26 -27.333 39 -53.333 39 -78v-731zM537.999 436c0 12.667 -3.16699 21.668 -9.5 27.001s-16.166 8 -29.499 8h-288v-274h277h23
c9.33301 1.33301 16.166 4.16602 20.499 8.49902s6.5 13.833 6.5 28.5v85.5v116.5z" />
    <glyph glyph-name="E" unicode="E" horiz-adv-x="738" 
d="M722 -103c0 -18 -11.001 -38.333 -33.001 -61c-24.667 -25.333 -49 -38 -73 -38h-507c-28 0 -54.333 13.333 -79 40c-22 24 -33 46.333 -33 67v833c0 14 3.66699 27 11 39c10.667 17.333 26.334 26 47.001 26h522c22.667 -6.66699 39.334 -14 50.001 -22
c34 -24.667 51 -60.667 51 -108c0 -38 -12.5 -70.5 -37.5 -97.5s-53.5 -40.5 -85.5 -40.5h-348v-73h37c34 0 57.833 -3.5 71.5 -10.5s28.167 -25.167 43.5 -54.5v-116h-130v-65h384c29.333 0 55.666 -11.333 78.999 -34c20 -19.333 30 -37 30 -53v-232z" />
    <glyph glyph-name="F" unicode="F" horiz-adv-x="723" 
d="M704 641c0 -50 -9.16602 -88.498 -27.499 -115.498s-45.166 -40.5 -80.499 -40.5h-411v-65h375c21.333 0 39.666 -8.33301 54.999 -25s23 -34.334 23 -53.001c0 -22 -8.83301 -40.833 -26.5 -56.5s-34.834 -23.5 -51.501 -23.5h-375v-382c0 -15.333 -7.33301 -31 -22 -47
c-18.667 -20.667 -41.667 -31 -69 -31c-26 0 -48.667 9.66699 -68 29s-29 40.666 -29 63.999v742c0 46.667 20 87.334 60 122.001c33.333 29.333 64 44 92 44h454c31.333 0 56 -14.833 74 -44.5s27 -68.834 27 -117.501z" />
    <glyph glyph-name="G" unicode="G" horiz-adv-x="746" 
d="M707 -300l-126.997 0.00195312c-24.667 0 -43.334 1.66699 -56.001 5s-24.667 12.333 -36 27c-6.66699 8.66699 -10.834 19.834 -12.501 33.501s-2.83398 26.5 -3.50098 38.5h-350c-28 0 -55.333 12.667 -82 38c-28.667 27.333 -43 58.666 -43 93.999v732
c0 38 15 70.667 45 98c27.333 24.667 55 37 83 37h433c28 0 52.333 -12 73 -36c18 -20.667 27 -39.334 27 -56.001v-178c0 -26.667 -15 -49.667 -45 -69c-24 -15.333 -44.667 -23 -62 -23h-369v-221h277v121h177c22 -12.667 38.667 -25.334 50 -38.001c14 -16 21 -34 21 -54
v-549z" />
    <glyph glyph-name="H" unicode="H" horiz-adv-x="750" 
d="M707 -104c0 -27.333 -12.334 -51.3311 -37.001 -71.998c-22 -18.667 -44 -28 -66 -28c-29.333 0 -53.833 11 -73.5 33s-29.5 44.333 -29.5 67v346h-149v-375c0 -28.667 -16 -48.667 -48 -60c-22 -8 -50 -12 -84 -12c-16 0.666992 -25.333 1 -28 1h-15
c-42.667 0 -78.667 5.33301 -108 16c-48 17.333 -72 47.666 -72 90.999v815c0 18 8 34.667 24 50c19.333 18.667 44.333 28 75 28c24.667 0 47.5 -7.33301 68.5 -22s31.5 -33.334 31.5 -56.001v-306h291v299c0 18 7.66699 36.333 23 55c20.667 25.333 49.334 38 86.001 38
c30 0 56 -11 78 -33s33 -47 33 -75v-800z" />
    <glyph glyph-name="I" unicode="I" horiz-adv-x="391" 
d="M360 -87c0 -48 -20.333 -81.334 -61 -100.001c-27.333 -12.667 -67.333 -19 -120 -19c-66.667 0 -115.667 14 -147 42c-22.667 20.667 -34 46.334 -34 77.001v803c0 16 7.66699 33 23 51c20 23.333 44.667 35 74 35c26 0 48.667 -9 68 -27s29 -37.667 29 -59v-243
l116 -26c34.667 -20 52 -49.667 52 -89v-445z" />
    <glyph glyph-name="J" unicode="J" horiz-adv-x="642" 
d="M603 -114c0 -35.333 -15.667 -60 -47 -74c-22 -10 -53.333 -15 -94 -15c-10 0 -19.667 0.166992 -29 0.5s-18 0.5 -26 0.5c-89.333 0 -145.333 9.66699 -168 29c-19.333 16.667 -29 56.334 -29 119.001v60c0 84 8.66699 138.333 26 163c14 19.333 43.667 29 89 29
c10.667 0 22 -0.166992 34 -0.5s24.333 -0.5 37 -0.5v281h-303c-44.667 0 -73.667 18.667 -87 56c-6.66699 19.333 -10 57.333 -10 114c0 50.667 3.66699 86.667 11 108c10.667 31.333 32 47 64 47h406c34 0 64.333 -16.333 91 -49c23.333 -28.667 35 -54.334 35 -77.001
v-791z" />
    <glyph glyph-name="K" unicode="K" horiz-adv-x="773" 
d="M744 102c0 -104 -2.99902 -170 -8.99902 -198c-14.667 -69.333 -77.667 -104 -189 -104h-22c-48 0 -85.333 6 -112 18c-44 20 -66 56 -66 108v246h-119v-276c0 -25.333 -10.333 -47.666 -31 -66.999s-48.667 -29 -84 -29c-32.667 0 -60 11 -82 33s-33 48 -33 78v885h178
c30 -18 49.667 -34.333 59 -49c5.33301 -8 8 -19 8 -33v-297h126v282c0 19.333 11 40.333 33 63s43.333 34 64 34h178c30 0 55 -14.333 75 -43c14.667 -21.333 22 -39.333 22 -54v-223c0 -14 -6 -28.667 -18 -44c-14.667 -18.667 -36 -36 -64 -52
c35.333 -16.667 59.666 -41.667 72.999 -75c10 -24.667 15 -59.334 15 -104.001c0 -10 -0.333008 -26 -1 -48s-1 -39 -1 -51z" />
    <glyph glyph-name="L" unicode="L" horiz-adv-x="731" 
d="M710 -5c0 -98.667 -16.668 -156.666 -50.001 -173.999c-30 -15.333 -133.333 -23 -310 -23h-107c-107.333 0 -173.666 5 -198.999 15c-31.333 12.667 -47 44 -47 94v794c0 28.667 12.667 53.667 38 75c22 18.667 44.333 28 67 28c30 0 56 -12.667 78 -38
c18.667 -22 28 -43.667 28 -65v-524h415c40 0 66 -23 78 -69c6 -22.667 9 -60.334 9 -113.001z" />
    <glyph glyph-name="M" unicode="M" horiz-adv-x="1300" 
d="M1273 -111c0 -40 -15 -67.002 -45 -81.002c-21.333 -10 -54.666 -15 -99.999 -15c-8.66699 0 -17.334 0.166992 -26.001 0.5s-17 0.5 -25 0.5h-22c-7.33301 0 -15 -0.333008 -23 -1c-51.333 0 -89.333 5.66699 -114 17c-40 18 -60 51.667 -60 101v566h-149v-588
c0 -21.333 -8 -40.666 -24 -57.999c-19.333 -20.667 -44.666 -31 -75.999 -31c-26.667 0 -50 9 -70 27s-30 38.667 -30 62v588h-134v-566c0 -45.333 -20.667 -77.333 -62 -96c-30.667 -14 -74.334 -21 -131.001 -21c-66 0 -114.333 11 -145 33
c-26.667 19.333 -40 47.333 -40 84v744c0 29.333 12.333 60 37 92c28.667 37.333 61 56 97 56h853c34 0 59.833 -10.667 77.5 -32s26.5 -65.666 26.5 -132.999v-50c68 0 117.333 -12.667 148 -38c24.667 -20.667 37 -50 37 -88v-573z" />
    <glyph glyph-name="N" unicode="N" horiz-adv-x="765" 
d="M730 -87c0 -51.333 -23.332 -85.668 -69.999 -103.001c-25.333 -9.33301 -65 -14 -119 -14c-61.333 0 -106.333 7 -135 21c-36 17.333 -54 47 -54 89v571h-140v-593c0 -19.333 -8 -37.666 -24 -54.999c-20 -22 -46.667 -33 -80 -33c-30.667 0 -56.334 10.333 -77.001 31
c-18 18 -27 37 -27 57v815c0 28.667 13.667 54 41 76c23.333 18.667 44.333 28 63 28h474c34 0 67.667 -19.333 101 -58c31.333 -36.667 47 -71.667 47 -105v-727z" />
    <glyph glyph-name="O" unicode="O" horiz-adv-x="715" 
d="M682 -100c0 -30 -12.667 -55.333 -38 -76c-22 -18 -43.667 -27 -65 -27h-486c-22 0 -43.5 12.167 -64.5 36.5s-31.5 48.833 -31.5 73.5v771c0 22.667 10.333 48 31 76c24 32.667 50.333 49 79 49h442c26.667 0 55.5 -14.167 86.5 -42.5s46.5 -58.5 46.5 -90.5v-770z
M520 251l-0.000976562 221h-339v-214c15.333 -36 31.333 -57.333 48 -64s57 -10 121 -10c69.333 0 112.333 4 129 12c8.66699 4 22.334 22.333 41.001 55z" />
    <glyph glyph-name="P" unicode="P" horiz-adv-x="769" 
d="M746 549c0 -145.333 -13.333 -233.332 -40 -263.999c-29.333 -34 -111 -51 -245 -51h-43c-58 0 -97.667 4.66699 -119 14c-31.333 14 -47 42 -47 84c0 25.333 8.5 46.5 25.5 63.5s38.5 25.5 64.5 25.5h210v67h-338v-585c0 -25.333 -9 -48.333 -27 -69
c-20.667 -24 -48 -36 -82 -36s-61.333 10.667 -82 32c-17.333 17.333 -26 36.666 -26 57.999v810c0 30 13 55.667 39 77c22.667 18.667 44.667 28 66 28h551c43.333 0 71 -24.667 83 -74c6.66699 -27.333 10 -87.333 10 -180z" />
    <glyph glyph-name="Q" unicode="Q" horiz-adv-x="761" 
d="M728 -203l-2.00098 -42.002l-14 -29l-25 -12h-87c-15.333 4.66699 -26 11.334 -32 20.001c-10.667 15.333 -16 36 -16 62h-453c-18 0 -39 11.667 -63 35c-26 25.333 -39 48.333 -39 69v786c0 26.667 14.833 52.834 44.5 78.501s58.834 38.5 87.501 38.5h474
c35.333 0 66 -16.333 92 -49c22 -27.333 33 -52.333 33 -75v-882zM529.999 86.998v380h-350v-278h197c53.333 0 80 -34 80 -102h73z" />
    <glyph glyph-name="R" unicode="R" horiz-adv-x="777" 
d="M746 511l-0.000976562 -34.001c0 -11.333 0.333008 -22.666 1 -33.999c0 -90 -17.667 -148.333 -53 -175c-30.667 -23.333 -80.334 -35 -149.001 -35v-98c83.333 0 136.333 -12 159 -36c18.667 -20 28 -66 28 -138c0 -61.333 -7.16699 -104.833 -21.5 -130.5
s-39.5 -38.5 -75.5 -38.5h-226c-31.333 0 -52.666 16.667 -63.999 50c-8.66699 25.333 -13 67 -13 125c0 13.333 0.333008 34.666 1 63.999s1 51.666 1 66.999c0 22 -0.166992 45.667 -0.5 71s-0.5 52 -0.5 80v38.5c0 11 0.333008 17.833 1 20.5
c6.66699 34 30.334 57.333 71.001 70c52.667 16 89.334 37.667 110.001 65v45h-354v-67h38c28.667 0 48 -2.16699 58 -6.5s23.333 -17.166 40 -38.499v-83h-91v-414c0 -21.333 -9.83301 -40.5 -29.5 -57.5s-44.834 -25.5 -75.501 -25.5c-32 0 -57.5 9.83301 -76.5 29.5
s-28.5 42.5 -28.5 68.5v760c0 60.667 24.333 103 73 127c35.333 17.333 89.333 26 162 26c22 0 43.667 -0.333008 65 -1l64 -2c116 0 190.5 -1.33301 223.5 -4s57.5 -9 73.5 -19c36.667 -23.333 62 -52.666 76 -87.999c10 -25.333 15 -59 15 -101
c0 -9.33301 -0.333008 -23 -1 -41s-1 -31.333 -1 -40z" />
    <glyph glyph-name="S" unicode="S" 
d="M724 154c0 -114.667 -7.66309 -193.997 -22.9961 -237.997c-24.667 -71.333 -76.334 -107 -155.001 -107h-438c-48.667 0 -81 20.667 -97 62c-10 26 -15 71 -15 135v38c0 39.333 3.33301 68 10 86c10 28 29.333 42 58 42h460v104h-423c-42.667 0 -72.334 19 -89.001 57
c-12 27.333 -18 66.666 -18 117.999c0 10 0.333008 24 1 42s1 30 1 36v28c0 10 -0.333008 20.667 -1 32c0 62 6 108.667 18 140c18.667 49.333 53 74 103 74h512c25.333 0 47.666 -12.5 66.999 -37.5s29 -57.833 29 -98.5c0 -32.667 -7.33301 -60.667 -22 -84
c-16.667 -26.667 -39 -40 -67 -40h-408v-104h378c37.333 0 65.666 -12.333 84.999 -37c24 -30.667 36 -83.334 36 -158.001c0 -12 -0.333008 -28.333 -1 -49s-1 -34.334 -1 -41.001z" />
    <glyph glyph-name="T" unicode="T" horiz-adv-x="742" 
d="M720 639c0 -54 -9.33301 -93.666 -28 -118.999c-14.667 -20 -35 -30 -61 -30h-179v-687h-134c-19.333 11.333 -35 23 -47 35c-18.667 18.667 -28 37 -28 55v597c-14 0 -29.667 -0.166992 -47 -0.5s-36 -0.833008 -56 -1.5c-53.333 0 -89.333 8.33301 -108 25
c-24 21.333 -36 64.666 -36 129.999c0 60.667 11.667 104 35 130c18 20 44 30 78 30h500c42.667 0 73 -18.667 91 -56c13.333 -27.333 20 -63.333 20 -108z" />
    <glyph glyph-name="U" unicode="U" horiz-adv-x="754" 
d="M718 -73c0 -50.667 -25.334 -86.333 -76.001 -107c-36.667 -14.667 -89.667 -22 -159 -22c-16.667 0 -35 0.5 -55 1.5s-41.333 1.83301 -64 2.5c-19.333 0 -45 -0.5 -77 -1.5s-48.667 -1.5 -50 -1.5c-95.333 0 -160.666 15 -195.999 45c-29.333 24.667 -44 62 -44 112
v751c0 22 6.33301 41.667 19 59c18 25.333 45.667 38 83 38c26 0 49.833 -8 71.5 -24s32.5 -35.333 32.5 -58v-544h155v537c0 36.667 15.667 61.667 47 75c22 9.33301 55.333 14 100 14h29c75.333 0 124.833 -8 148.5 -24s35.5 -40.333 35.5 -73v-780z" />
    <glyph glyph-name="V" unicode="V" horiz-adv-x="773" 
d="M734 -75c0 -24 -12 -50 -36 -78c-27.333 -32 -57.333 -48 -90 -48h-368c-43.333 0 -74.333 24.667 -93 74c-12.667 34 -19 77.333 -19 130c0 11.333 0.166992 21 0.5 29s0.833008 14.667 1.5 20c-37.333 0 -68.333 10 -93 30c-26.667 22 -40 51 -40 87v523
c0 36 20 63.333 60 82c34 16 74.333 24 121 24c130 0 195 -40 195 -120v-420c0 -18 6.33301 -33.667 19 -47c8 -8.66699 23.667 -20 47 -34h103v545c0 17.333 8 34.333 24 51c19.333 20.667 43.333 31 72 31c27.333 0 51 -10.667 71 -32c16.667 -18 25 -34.667 25 -50v-797z
" />
    <glyph glyph-name="W" unicode="W" horiz-adv-x="1285" 
d="M1256 133c0 -32.667 -16.001 -52.9971 -48.001 -60.9971s-48 -44 -48 -108c0 -39.333 -12.667 -76.5 -38 -111.5s-54.333 -52.5 -87 -52.5h-780c-47.333 0 -81.333 22.667 -102 68c-16 34.667 -24 79 -24 133c0 26 -22 49.667 -66 71s-66 56.333 -66 105v486
c0 50 19.667 87 59 111c32.667 20 75.334 30 128.001 30c46.667 0 85.667 -8 117 -24c47.333 -24 71 -63 71 -117v-486h170v542c0 21.333 9.16699 40.166 27.5 56.499s43.5 24.5 75.5 24.5c27.333 0 51.333 -7.83301 72 -23.5s31 -34.834 31 -57.501v-542h132v483
c0 37.333 13.667 68.666 41 93.999c33.333 30.667 82 46 146 46c48 0 88.667 -8.33301 122 -25c44.667 -22.667 67 -56 67 -100v-542z" />
    <glyph glyph-name="X" unicode="X" horiz-adv-x="746" 
d="M728 88l0.00292969 -106c0 -28.667 0.333008 -55.667 1 -81c-8.66699 -42.667 -29 -71.334 -61 -86.001c-27.333 -12.667 -74 -19 -140 -19c-39.333 0 -75.333 8.33301 -108 25c-43.333 22 -65 54.667 -65 98v314h-153v-295c0 -58 -8 -97.667 -24 -119
c-10.667 -14 -27.334 -21 -50.001 -21h-16c-42 0 -70.333 16.333 -85 49c-11.333 24.667 -17 68.667 -17 132c0 16.667 0.333008 45.5 1 86.5s1 61.833 1 62.5v70c0 54.667 4.33301 89.667 13 105s36 36 82 62c-50.667 26.667 -79.334 43.667 -86.001 51
c-16 16 -24 35.333 -24 58v249c0 26.667 15 48 45 64c10 5.33301 25.333 11 46 17c25.333 0 48.166 -10.5 68.499 -31.5s30.5 -42.5 30.5 -64.5v-197h146v190c0 46.667 21 77 63 91c24 8 66 12 126 12c79.333 0 132.333 -14.333 159 -43c19.333 -20.667 29 -57 29 -109
c0 -9.33301 -0.166992 -18.833 -0.5 -28.5s-0.5 -19.5 -0.5 -29.5l-1 -168c-8 -24 -24.5 -41.5 -49.5 -52.5s-55.5 -16.5 -91.5 -16.5c35.333 -8 71 -15.667 107 -23c28.667 -11.333 47 -35.666 55 -72.999c0 -18 -0.166992 -38 -0.5 -60s-0.5 -49.333 -0.5 -82v-31z" />
    <glyph glyph-name="Y" unicode="Y" 
d="M731 384c0 -37.333 -17.334 -64.001 -52.001 -80.001c-26.667 -12 -64.334 -18 -113.001 -18v-373c0 -26 -10.5 -51.167 -31.5 -75.5s-42.833 -36.5 -65.5 -36.5h-202c-20.667 0 -40 8.33301 -58 25c-26.667 25.333 -40 49.333 -40 72v254c-46 0 -82.333 5.33301 -109 16
c-37.333 14.667 -56 39 -56 73v480c0 13.333 8 29 24 47c22 24 50 36 84 36c30.667 0 57.834 -9.5 81.501 -28.5s35.5 -42.167 35.5 -69.5v-292h120v277c0 48 22.667 80.667 68 98c26.667 10 67.334 15 122.001 15c7.33301 0.666992 13.333 1 18 1
c58 0 101.5 -8.66699 130.5 -26s43.5 -41.666 43.5 -72.999v-322z" />
    <glyph glyph-name="Z" unicode="Z" horiz-adv-x="777" 
d="M746 -6c0.666992 -6.66699 1.00195 -13.665 1.00195 -20.998c0 -42.667 -4.66699 -76.667 -14 -102c-16 -43.333 -44 -65 -84 -65h-555c-25.333 0 -47.833 10.833 -67.5 32.5s-29.5 43.167 -29.5 64.5v450c0 27.333 13 51.333 39 72c21.333 17.333 40.666 26 57.999 26
h413l22 22v53h-435c-36.667 0 -63.334 16 -80.001 48c-12 23.333 -18 53.666 -18 90.999c0 52.667 12.667 90.667 38 114c17.333 16 37.333 24 60 24h555c30.667 0 54 -12 70 -36c19.333 -28.667 29 -76.667 29 -144c0 -11.333 -0.166992 -23.5 -0.5 -36.5
s-0.833008 -26.833 -1.5 -41.5c0 -4.66699 0.5 -16 1.5 -34s1.5 -29.667 1.5 -35c0 -52.667 -6.33301 -94 -19 -124c-18.667 -44 -50.667 -66 -96 -66h-390l-22 -23v-82h427c40 0 67.667 -20 83 -60c9.33301 -24.667 14 -59.334 14 -104.001v-23z" />
    <glyph glyph-name="bracketleft" unicode="[" horiz-adv-x="225" 
d="M199 -198h-197v993h197v-100h-106v-790h106v-103z" />
    <glyph glyph-name="backslash" unicode="\" horiz-adv-x="517" 
d="M474 -123c17.333 0 26 -4.66797 26 -14.001c0 -11.333 -11.5 -25.166 -34.5 -41.499s-42.833 -24.5 -59.5 -24.5c-2.66699 0 -6 0.666992 -10 2l-369 921c-17.333 2 -26 7.33301 -26 16c0 12 12.167 25.333 36.5 40s48.833 22 73.5 22z" />
    <glyph glyph-name="bracketright" unicode="]" horiz-adv-x="225" 
d="M199 -198h-197v103h106v790h-106v100h197v-993z" />
    <glyph glyph-name="underscore" unicode="_" horiz-adv-x="1307" 
d="M32 -123h1194c25.333 0 50 -7.33301 74 -22s36 -28 36 -40c0 -8.66699 -8.66699 -14 -26 -16h-1200c-2 -0.666992 -5.66699 -1 -11 -1c-17.333 0 -37.166 8 -59.499 24s-33.5 29.667 -33.5 41c0 9.33301 8.66699 14 26 14z" />
    <glyph glyph-name="grave" unicode="`" horiz-adv-x="187" 
d="M6 720c10.667 26 20.001 44.002 28.001 54.002c13.333 16 30 24 50 24s36.667 -7.33301 50 -22s22.666 -33.334 27.999 -56.001c0.666992 -2 1 -5.33301 1 -10c0 -26 -20.667 -54.667 -62 -86c-38 -28.667 -66.333 -43 -85 -43c-4 0 -6.16699 1.33301 -6.5 4
s1.5 6.66699 5.5 12c13.333 18 20 33.667 20 47c0 10.667 -5.16699 22.167 -15.5 34.5s-15.5 22.166 -15.5 29.499c0 5.33301 0.666992 9.33301 2 12z" />
    <glyph glyph-name="a" unicode="a" horiz-adv-x="731" 
d="M704 -97c0 -27.333 -16 -52.668 -48 -76.001c-26 -18.667 -45.667 -28 -59 -28h-471c-34.667 0 -65.667 16 -93 48c-24 28 -36 54 -36 78v414c0 28.667 14 48.667 42 60c21.333 8.66699 52.666 13 93.999 13c10 0 24.333 -0.333008 43 -1s31.334 -1 38.001 -1
c8.66699 0 22.167 0.333008 40.5 1s32.166 1 41.499 1c42.667 0 74 -4.33301 94 -13c28 -12 42 -34.333 42 -67c0 -21.333 -7.66699 -38.666 -23 -51.999s-31.333 -20 -48 -20h-164v-71h278l29 21v238l-1 6h-242c-58 0 -87 31.667 -87 95c0 35.333 14.333 59 43 71
c21.333 8.66699 61 13 119 13c14 0 28.5 -0.166992 43.5 -0.5s30.5 -0.5 46.5 -0.5h41.5c13.667 0 27.167 0.333008 40.5 1c72.667 0 121.334 -5.66699 146.001 -17c33.333 -15.333 50 -48.333 50 -99v-614z" />
    <glyph glyph-name="b" unicode="b" horiz-adv-x="715" 
d="M689 -48c0 -63.333 -29.666 -106.667 -88.999 -130c-40.667 -16 -101.334 -24 -182.001 -24c-14 0 -27.5 0.166992 -40.5 0.5s-25.5 0.5 -37.5 0.5h-56c-79.333 0 -139.666 5.66699 -180.999 17c-66 18 -99 51.333 -99 100l3 932c0 24.667 5 44 15 58
c16 22 44.333 33 85 33c42.667 0 70.667 -11.333 84 -34c11.333 -19.333 17 -58 17 -116c0 -11.333 -0.333008 -33 -1 -65s-1 -58.667 -1 -80h339c41.333 0 76.666 -18.333 105.999 -55c25.333 -31.333 38 -61 38 -89v-548zM376.001 299.999
c0 44.667 -1.33203 70 -3.99902 76c-8.66699 8.66699 -18.334 20 -29.001 34h-130v-222h116c22.667 0 36.167 4.66699 40.5 14s6.5 42 6.5 98z" />
    <glyph glyph-name="c" unicode="c" horiz-adv-x="742" 
d="M720 -96c0 -17.333 -9 -37.334 -27 -60.001c-20.667 -26 -41.667 -39 -63 -39h-534c-29.333 0 -54.333 16.333 -75 49c-16 25.333 -24 47 -24 65v650c0 15.333 7.33301 32.333 22 51c19.333 24.667 43.666 37 72.999 37h511c30.667 0 57 -13.333 79 -40
c20 -24 30 -48.333 30 -73c0 -36 -13 -65 -39 -87c-21.333 -18 -44.666 -27 -69.999 -27h-372v-226h387c26.667 0 51 -12.333 73 -37c19.333 -21.333 29 -40.666 29 -57.999v-205z" />
    <glyph glyph-name="d" unicode="d" horiz-adv-x="750" 
d="M718 -80c0 -31.333 -13 -60.3311 -39 -86.998c-22.667 -23.333 -41.667 -35 -57 -35h-507c-22.667 0 -48 15.167 -76 45.5s-42 58.166 -42 83.499v618c0 26 13 51 39 75s49.667 36 71 36h398v103c0 97.333 5.33301 157.166 16 179.499s40.667 33.5 90 33.5
c28.667 0 53.667 -9.33301 75 -28s32 -41.667 32 -69v-955zM380 -5.99805v250h-118c-6.66699 -6 -11.667 -10.667 -15 -14c-10 -11.333 -15 -21.333 -15 -30v-184c10.667 -6 20.667 -13.333 30 -22h118z" />
    <glyph glyph-name="e" unicode="e" horiz-adv-x="738" 
d="M707 93c0 -39.333 -13.998 -65.334 -41.998 -78.001c-20.667 -9.33301 -58.334 -14 -113.001 -14h-29c-10 0 -20.333 0.333008 -31 1h-9h-44c-72 0 -118.5 8.33301 -139.5 25s-31.5 42.667 -31.5 78c0 34 11.667 57.333 35 70c17.333 9.33301 44 14 80 14
c9.33301 0 18.5 -0.166992 27.5 -0.5s18.167 -0.5 27.5 -0.5c23.333 0 40.833 2.33301 52.5 7s17.5 14.667 17.5 30c0 10.667 -5.33301 19.5 -16 26.5s-19.667 10.5 -27 10.5h-249v-286h403c20 0 37.167 -8.16699 51.5 -24.5s21.5 -37.166 21.5 -62.499
c0 -22.667 -6 -42.834 -18 -60.501s-28 -26.5 -48 -26.5h-541c-14.667 0 -33 11 -55 33s-33 42.333 -33 61v614c0 22.667 13.167 47.834 39.5 75.501s54.5 41.5 84.5 41.5h491c27.333 0 50.666 -11.667 69.999 -35c16.667 -20 25 -40 25 -60v-439z" />
    <glyph glyph-name="f" unicode="f" horiz-adv-x="368" 
d="M346 641c0 -76.667 -6.50098 -120.833 -19.501 -132.5s-61.167 -17.5 -144.5 -17.5v-89c56.667 0 95 -5.33301 115 -16c24.667 -13.333 37 -40.666 37 -81.999c0 -38.667 -12.333 -65 -37 -79c-16.667 -9.33301 -41.667 -14 -75 -14h-28v-318
c0 -24.667 -10.5 -46.667 -31.5 -66s-43.167 -29 -66.5 -29c-27.333 0 -50.666 10.5 -69.999 31.5s-29 42.167 -29 63.5v719c0 37.333 17 64.666 51 81.999c26 13.333 57.667 20 95 20c0 68.667 3.33301 113 10 133c10.667 32.667 35.667 49 75 49c51.333 0 85 -15 101 -45
c12 -22.667 18 -66.667 18 -132c0 -10.667 -0.166992 -21.667 -0.5 -33s-0.5 -23 -0.5 -35v-10z" />
    <glyph glyph-name="g" unicode="g" horiz-adv-x="711" 
d="M686 -267c0 -38.667 -16.001 -72.666 -48.001 -101.999c-28 -25.333 -54.333 -38 -79 -38h-457c-41.333 0 -69.333 17.667 -84 53c-9.33301 22.667 -14 59.667 -14 111v33v38c0 58.667 6.83301 96.167 20.5 112.5s34.834 24.5 63.501 24.5h394v268h-302v-64h204v-168
h-317c-16.667 9.33301 -28 16 -34 20c-19.333 13.333 -29 30 -29 50v457c0 13.333 7.83301 27.166 23.5 41.499s31.167 21.5 46.5 21.5h485c40.667 0 73.667 -20.667 99 -62c18.667 -30.667 28 -57 28 -79v-717z" />
    <glyph glyph-name="h" unicode="h" horiz-adv-x="707" 
d="M677 -124c0 -20 -8.66406 -37.332 -25.9971 -51.999c-14.667 -12 -32.334 -18 -53.001 -18c-22 0 -40.667 8.5 -56 25.5s-23 34.167 -23 51.5v376h-164v-368c0 -34.667 -16.667 -58.667 -50 -72c-22 -8.66699 -54 -13 -96 -13h-30c-78.667 0 -128.667 8 -150 24
s-32 41 -32 75v898c1.33301 8 2 14 2 18c2 12.667 4 22.667 6 30c5.33301 16.667 11.666 28 18.999 34c3.33301 6 7.33301 10.833 12 14.5s10 7.16699 16 10.5c18 10 32.667 14 44 12c4.66699 1.33301 11.5 1 20.5 -1s17.5 -4.66699 25.5 -8c18 -8.66699 29.667 -18 35 -28
c3.33301 -3.33301 6.66602 -8 9.99902 -14c1.33301 -3.33301 3.66602 -10.333 6.99902 -21c0.666992 -2.66699 1.16699 -7.5 1.5 -14.5s0.833008 -13.167 1.5 -18.5v-9.5v-4.5v-179h372c30.667 0 57.334 -12.333 80.001 -37c18.667 -20.667 28 -39.334 28 -56.001v-655z" />
    <glyph glyph-name="i" unicode="i" horiz-adv-x="337" 
d="M308 -199l-222.002 0.00195312c-23.333 7.33301 -43.166 19.666 -59.499 36.999s-24.5 35.333 -24.5 54v651c0 15.333 8.33301 32.333 25 51c20 22.667 43 34 69 34c25.333 0 48.333 -10.333 69 -31c18 -18 27 -36 27 -54v-201c46.667 0 79.334 -10 98.001 -30
c12 -12.667 18 -28.334 18 -47.001v-464zM107.998 888.002c28 0 51.667 -9.66699 71 -29s29 -43 29 -71s-9.66699 -51.667 -29 -71s-43 -29 -71 -29s-51.667 9.66699 -71 29s-29 43 -29 71s9.66699 51.667 29 71s43 29 71 29z" />
    <glyph glyph-name="j" unicode="j" horiz-adv-x="476" 
d="M431 -274c0 -53.333 -23 -88.667 -69 -106c-28 -10.667 -72.667 -16 -134 -16c-76.667 0 -133.167 12.167 -169.5 36.5s-54.5 62.833 -54.5 115.5c0 48.667 13.667 85 41 109c32 28 90.667 42 176 42v598c0 26 10.333 48.333 31 67s45 28 73 28
c27.333 0 51.833 -9.33301 73.5 -28s32.5 -41 32.5 -67v-779zM324 891.999c28 0 51.667 -9.66699 71 -29s29 -43 29 -71s-9.66699 -51.667 -29 -71s-43 -29 -71 -29s-51.667 9.66699 -71 29s-29 43 -29 71s9.66699 51.667 29 71s43 29 71 29z" />
    <glyph glyph-name="k" unicode="k" horiz-adv-x="727" 
d="M694 473c0 -12.667 0.333984 -29.002 1.00098 -49.002s1 -33.333 1 -40c0 -33.333 -5.83301 -55.833 -17.5 -67.5s-37.5 -17.5 -77.5 -17.5v-72c34.667 -17.333 53.667 -27.333 57 -30c15.333 -11.333 23 -38 23 -80c0 -12 -0.166992 -23.333 -0.5 -34
s-0.5 -20.667 -0.5 -30v-12c0 -103.333 -6.33301 -169.166 -19 -197.499s-44.667 -42.5 -96 -42.5h-144c-19.333 0 -39 10.333 -59 31c-22.667 23.333 -34 49 -34 77v196h-130v-224c0 -20 -9.16699 -38.167 -27.5 -54.5s-42.5 -24.5 -72.5 -24.5
c-27.333 0 -50.333 6.66699 -69 20c-21.333 15.333 -32 35 -32 59v947c0 17.333 8 34 24 50c20 20 45.667 30 77 30c27.333 0 50.833 -7.83301 70.5 -23.5s29.5 -34.5 29.5 -56.5v-471h130v187c0 51.333 21.667 86 65 104c28.667 12 71.667 18 129 18
c99.333 0 154.666 -22 165.999 -66c4 -15.333 6 -57.666 6 -126.999z" />
    <glyph glyph-name="l" unicode="l" horiz-adv-x="326" 
d="M296 -120c0 -36 -16.334 -59.667 -49.001 -71c-17.333 -6 -50.333 -9 -99 -9h-18c-36 0 -63.667 4 -83 12c-32.667 13.333 -49 37.333 -49 72v931c0 12.667 6.33301 26.667 19 42c16 19.333 35.667 29 59 29c20.667 0 38.834 -7.83301 54.501 -23.5
s23.5 -31.5 23.5 -47.5v-201c24 -4.66699 48 -9 72 -13c46.667 -17.333 70 -47 70 -89v-632z" />
    <glyph glyph-name="m" unicode="m" horiz-adv-x="1269" 
d="M1240 114c0 -16 0.331055 -38.335 0.998047 -67.002s1 -49 1 -61c0 -64.667 -10.667 -109.667 -32 -135c-27.333 -32.667 -80.666 -49 -159.999 -49c-54.667 0 -95.667 6.66699 -123 20c-34 16.667 -51 45.667 -51 87v365h-150v-393c0 -16 -9.16699 -33.167 -27.5 -51.5
s-39.166 -27.5 -62.499 -27.5c-25.333 0 -47.666 10 -66.999 30s-29 41 -29 63v379h-179v-367c0 -35.333 -16 -63.333 -48 -84s-75.667 -31 -131 -31c-75.333 0 -128 17.333 -158 52c-18 20.667 -27 46.334 -27 77.001v575c0 40.667 19 76 57 106c31.333 24.667 60 37 86 37
h878c32.667 0 61.667 -12.333 87 -37c23.333 -22.667 35 -46 35 -70v-165c43.333 0 71.666 -8.66699 84.999 -26c11.333 -15.333 17 -47.666 17 -96.999c0 -9.33301 -0.333008 -28.333 -1 -57s-1 -53 -1 -73z" />
    <glyph glyph-name="n" unicode="n" horiz-adv-x="734" 
d="M704 -86c0 -50.667 -19.666 -83.998 -58.999 -99.998c-22.667 -9.33301 -63 -14 -121 -14c-64.667 0 -109.334 5.33301 -134.001 16c-36 15.333 -54 45.666 -54 90.999v347h-115v-347c0 -26 -9 -49.333 -27 -70c-21.333 -24.667 -50 -37 -86 -37
c-32.667 0 -60.334 10 -83.001 30c-18.667 16.667 -28 37.667 -28 63v636c0 25.333 12.333 49.666 37 72.999s53.334 35 86.001 35h433c38.667 0 74 -17.333 106 -52c30 -32.667 45 -66 45 -100v-571z" />
    <glyph glyph-name="o" unicode="o" horiz-adv-x="761" 
d="M710 -85c0 -48.667 -18.333 -80.668 -55 -96.001c-28.667 -12 -83.334 -18 -164.001 -18h-15h-13h-12c-12.667 0 -25.667 0.166992 -39 0.5s-26.666 0.5 -39.999 0.5h-12c-22.667 0 -52.667 -0.333008 -90 -1s-63 -1 -77 -1c-72 0 -121 8 -147 24
c-32.667 20 -49 60 -49 120v582c0 28.667 12.667 55.334 38 80.001s49 37 71 37h495c18.667 0 40.667 -11 66 -33c28.667 -24.667 43 -50 43 -76v-619zM383 60.999l-0.000976562 196h-168v-269h102c22.667 12.667 37.334 22 44.001 28c14.667 12.667 22 27.667 22 45z" />
    <glyph glyph-name="p" unicode="p" horiz-adv-x="715" 
d="M695 75c0 -32 -11.998 -53.6689 -35.998 -65.002c-18.667 -8.66699 -50.667 -13 -96 -13c-12 0 -24.167 0.166992 -36.5 0.5s-24.833 0.5 -37.5 0.5h-11c-8 0 -21.167 -0.333008 -39.5 -1s-32.166 -1 -41.499 -1c-52 0 -87.667 7.66699 -107 23
c-16 12.667 -24 31.667 -24 57c0 16 8.16699 31.5 24.5 46.5s32.166 22.5 47.499 22.5h161v84h-316v-245c47.333 0 81.666 -8 102.999 -24c26 -19.333 39 -59.666 39 -120.999c0 -8.66699 -0.166992 -17.5 -0.5 -26.5s-0.5 -18.167 -0.5 -27.5
c0 -86.667 -8.33301 -140.5 -25 -161.5s-62.334 -31.5 -137.001 -31.5h-24c-38.667 0 -68 4.33301 -88 13c-32.667 14 -49 40 -49 78v799c0 30 14.667 56 44 78c24 18 46.667 27 68 27h449c38.667 0 71.667 -16.667 99 -50c22.667 -27.333 34 -52.666 34 -75.999v-386z" />
    <glyph glyph-name="q" unicode="q" horiz-adv-x="761" 
d="M738 -231c0 -64 -8.33301 -109.333 -25 -136c-14 -22 -34.333 -33 -61 -33h-200c-18 0 -38 11 -60 33s-33 44.667 -33 68v450h157v101h-307v-101c66 0 99 -24.667 99 -74c0 -34.667 -12.333 -58.334 -37 -71.001c-15.333 -8 -38.666 -12 -69.999 -12h-25
c-71.333 0 -119 13.333 -143 40c-19.333 21.333 -29 59.666 -29 114.999c0 13.333 0.666992 37.833 2 73.5s2 57.5 2 65.5c0 8.66699 -0.333008 24.834 -1 48.501s-1 42.167 -1 55.5c0 80 11 135 33 165c18.667 25.333 46.667 38 84 38h472c56.667 0 97 -28.667 121 -86
c16.667 -40 25 -92.333 25 -157c0 -18 -0.333008 -32.667 -1 -44s-1.33398 -21.666 -2.00098 -30.999c0 -103.333 -2.66699 -167.333 -8 -192c-13.333 -60.667 -75 -91 -185 -91v-64c85.333 0 138.833 -9.16699 160.5 -27.5s32.5 -62.833 32.5 -133.5z" />
    <glyph glyph-name="r" unicode="r" horiz-adv-x="619" 
d="M590 448c0 -54.667 -4.00098 -93.665 -12.001 -116.998c-12.667 -37.333 -37.667 -56 -75 -56h-308v-381c0 -25.333 -10.333 -48 -31 -68c-18 -17.333 -40.667 -26 -68 -26c-25.333 0 -47.666 10 -66.999 30c-16.667 17.333 -25 33.666 -25 48.999v638
c0 21.333 12.333 45 37 71s49 39 73 39h389c38 0 63.333 -22 76 -66c7.33301 -24.667 11 -62.334 11 -113.001z" />
    <glyph glyph-name="s" unicode="s" horiz-adv-x="723" 
d="M695 -114c0 -23.333 -11.001 -44.334 -33.001 -63.001c-19.333 -16.667 -37.333 -25 -54 -25h-531c-33.333 0 -56.333 16.667 -69 50c-8 21.333 -12 54 -12 98v35v20c0 7.33301 -0.333008 15.333 -1 24c0 38.667 4.33301 68.667 13 90c13.333 32 36.333 48 69 48h422v102
h-415c-36.667 0 -61.667 16.333 -75 49c-8.66699 21.333 -13 54.666 -13 99.999v33c0 58.667 2.33301 97.334 7 116.001c8.66699 34 28.334 51 59.001 51h568c19.333 0 34.833 -7.5 46.5 -22.5s17.5 -32.833 17.5 -53.5c0 -25.333 -7.33301 -45.666 -22 -60.999
s-33.667 -23 -57 -23h-393v-102h386c21.333 0 42.333 -10.667 63 -32c16 -16 24 -34.333 24 -55v-379z" />
    <glyph glyph-name="t" unicode="t" horiz-adv-x="353" 
d="M354 549c0 -26.667 -8.83301 -50.167 -26.5 -70.5s-37.5 -30.5 -59.5 -30.5h-84c-0.666992 -2.66699 -1 -7.16699 -1 -13.5v-15.5v-31.5c0 -9.66699 0.333008 -18.167 1 -25.5c0 -41.333 12 -71.333 36 -90c20 -15.333 48.667 -23 86 -23v-342
c0 -39.333 -17 -67.666 -51 -84.999c-26 -13.333 -61 -20 -105 -20c-52 0 -91 10 -117 30c-22.667 17.333 -34 41 -34 71v887c0 27.333 11.333 51.333 34 72c14.667 13.333 36 26.666 64 39.999h70v-255h101c22 0 42.333 -10.333 61 -31c16.667 -18 25 -40.333 25 -67z" />
    <glyph glyph-name="u" unicode="u" horiz-adv-x="734" 
d="M701 -54c0 -28 -12.668 -57.999 -38.001 -89.999c-28.667 -36.667 -59.667 -55 -93 -55h-471c-28.667 0 -53.667 13 -75 39c-18 22 -27 43 -27 63v646c0 21.333 8.83301 40.166 26.5 56.499s41.5 24.5 71.5 24.5c28.667 0 53.334 -9.66699 74.001 -29s31 -41.333 31 -66
v-363h116v348c0 35.333 16.667 62.5 50 81.5s78 28.5 134 28.5c80 0 136.333 -17.333 169 -52c21.333 -22.667 32 -51.667 32 -87v-545z" />
    <glyph glyph-name="v" unicode="v" horiz-adv-x="750" 
d="M712 -100c0 -25.333 -12.666 -49.002 -37.999 -71.002c-22.667 -19.333 -43.334 -29 -62.001 -29h-379c-42.667 0 -71.667 22.333 -87 67c-9.33301 27.333 -14 69.333 -14 126c-28.667 5.33301 -50 12.333 -64 21c-43.333 26.667 -65 70.334 -65 131.001v23v19v15v13
c0 12.667 -0.166992 25.834 -0.5 39.501s-0.5 27.834 -0.5 42.501v14c0 14 -0.333008 33.667 -1 59s-1 43.666 -1 54.999c-0 63.333 9.33301 108 28 134c24.667 34 72.334 51 143.001 51c60 0 104.333 -10 133 -30s43 -48 43 -84v-329h179v357c0 26.667 10.5 49 31.5 67
s42.5 27 64.5 27c23.333 0 44.666 -10 63.999 -30c17.333 -18 26 -34.667 26 -50v-638z" />
    <glyph glyph-name="w" unicode="w" horiz-adv-x="1269" 
d="M1250 332l-0.000976562 -66.0029c0 -74 -5 -122.333 -15 -145c-12 -28 -41 -47.667 -87 -59c0.666992 -4.66699 1.16699 -10.167 1.5 -16.5s0.5 -14.833 0.5 -25.5c0 -55.333 -7.66699 -101 -23 -137c-23.333 -55.333 -62.333 -83 -117 -83h-743
c-52.667 0 -88.667 29.333 -108 88c-10.667 32.667 -16 78.667 -16 138c-58.667 0 -98 15.667 -118 47c-15.333 24 -23 68 -23 132c0 10.667 0.333008 29.5 1 56.5s1 48.167 1 63.5c0 20.667 -0.333008 40.834 -1 60.501l-2 59.5c0 64 9.33301 109.667 28 137
c25.333 37.333 74 56 146 56c46.667 0 87.334 -12 122.001 -36c38 -26.667 57 -60.667 57 -102v-314h182v350c0 26.667 12 49 36 67c18.667 14 35.667 21 51 21c21.333 0 41.333 -8.33301 60 -25s28 -32.667 28 -48v-365h167v328c0 32.667 15 60.667 45 84
c34.667 26.667 81.667 40 141 40c78 0 130.667 -20.667 158 -62c20 -30 30 -79.667 30 -149c0 -17.333 -0.333008 -36.666 -1 -57.999s-1 -33.666 -1 -36.999z" />
    <glyph glyph-name="x" unicode="x" horiz-adv-x="746" 
d="M721 17c0 -107.333 -14.3359 -172.999 -43.0029 -196.999c-17.333 -14.667 -64.666 -22 -141.999 -22c-59.333 0 -103 6 -131 18c-38.667 16.667 -58 47.667 -58 93v200h-143v-193c0 -26.667 -10 -52.667 -30 -78s-41 -38 -63 -38c-42 0 -70.667 21 -86 63
c-10 28 -15 70.333 -15 127v34c0 67.333 10.667 119.666 32 156.999c13.333 23.333 37.333 42.666 72 57.999c-49.333 0 -83 18.333 -101 55c-12 24.667 -18 62 -18 112c0 8 0.166992 16 0.5 24s0.5 15.667 0.5 23c0 62 3.33301 103 10 123
c12.667 37.333 40.334 56 83.001 56c25.333 0 47.333 -7.33301 66 -22s28 -33.667 28 -57v-222h150v200c0 54.667 29.667 86.667 89 96c20.667 3.33301 53 5 97 5c104.667 0 163.334 -26.667 176.001 -80c4 -17.333 6 -65.666 6 -144.999c0 -80 -12.333 -133.667 -37 -161
c-17.333 -19.333 -51.333 -31.333 -102 -36c77.333 -14 117.333 -22 120 -24c26 -18.667 39 -75 39 -169z" />
    <glyph glyph-name="y" unicode="y" 
d="M710 -244c0 -30.667 -14.668 -57.335 -44.001 -80.002c-24 -18.667 -45.333 -28 -64 -28h-476c-46 0 -77.333 20.667 -94 62c-10.667 26.667 -16 65.334 -16 116.001c0 62.667 10 108.334 30 137.001c18 26 44.667 39 80 39h426v86h-455c-26.667 0 -49.667 12.667 -69 38
c-16.667 22 -25 43 -25 63v347c0 48.667 20 80.667 60 96c22.667 8.66699 63.667 13 123 13c68 0 117 -10.333 147 -31c25.333 -17.333 38 -43.333 38 -78v-282h181v296c0 19.333 7.83301 36.833 23.5 52.5s38.834 29.5 69.501 41.5h65v-888z" />
    <glyph glyph-name="z" unicode="z" horiz-adv-x="746" 
d="M714 -6c0 -69.333 -3.66602 -114.666 -10.999 -135.999c-14 -40 -45.667 -60 -95 -60h-498c-42.667 0 -72.667 19.667 -90 59c-12.667 29.333 -19 72.333 -19 129c0 19.333 0.333008 37.666 1 54.999l2 52c0 26.667 -0.333008 48.167 -1 64.5
s-1.33398 31.833 -2.00098 46.5c0 54.667 6 95 18 121c16 35.333 45.333 53 88 53h381l22 22v81h-447c-19.333 0 -35.333 8 -48 24s-19 33.667 -19 53c0 21.333 6.5 39.5 19.5 54.5s28.833 22.5 47.5 22.5h557c43.333 0 71.333 -19 84 -57c6.66699 -20 10 -59.667 10 -119
c0 -60.667 -5 -103 -15 -127c-14 -32.667 -40.333 -49 -79 -49h-403l-22 -22v-81h410c44 0 74.667 -17 92 -51c12 -23.333 18 -55 18 -95c0 -8 -0.166992 -15.333 -0.5 -22s-0.5 -12.667 -0.5 -18z" />
    <glyph glyph-name="braceleft" unicode="{" horiz-adv-x="314" 
d="M288 -201l-119 -0.000976562c-25.333 10 -44 20.667 -56 32c-15.333 14 -23 31.667 -23 53v306c0 40.667 -11.667 70.334 -35 89.001l-44 21c29.333 4 50.333 16 63 36c10.667 16.667 16 40 16 70v304c0 22.667 11.333 43.667 34 63c19.333 16.667 37.333 25 54 25h110
v-100h-107v-796h107v-103z" />
    <glyph glyph-name="bar" unicode="|" horiz-adv-x="104" 
d="M0 -208v917.999c-0 25.333 7.33301 50 22 74s28 36 40 36c8.66699 0 14 -8.66699 16 -26v-924c0.666992 -2 1 -5.66699 1 -11c0 -17.333 -8 -37.166 -24 -59.499s-29.667 -33.5 -41 -33.5c-9.33301 0 -14 8.66699 -14 26z" />
    <glyph glyph-name="braceright" unicode="}" horiz-adv-x="314" 
d="M277 300l-44 -20.998c-23.333 -18.667 -35 -48.334 -35 -89.001v-306c0 -20.667 -7.66699 -38.334 -23 -53.001c-12 -11.333 -30.667 -22 -56 -32h-119v103h107v796h-107v100h110c16 0 34 -8.33301 54 -25c22.667 -19.333 34 -40.333 34 -63v-304
c0 -29.333 5.33301 -52.333 16 -69c13.333 -20.667 34.333 -33 63 -37z" />
    <glyph glyph-name="asciitilde" unicode="~" horiz-adv-x="1835" 
d="M1444 834c-7.33301 5.33301 -16.667 11 -28 17c-3.33301 1.33301 -7.66602 3.33301 -12.999 6c-30 0 -51.333 -13.667 -64 -41l-14 -49c-5.33301 18.667 -9 32.667 -11 42c-8 30.667 -12 46.667 -12 48c0 14 5.16699 29.833 15.5 47.5s23.166 26.5 38.499 26.5
c10.667 0 25.5 -10.333 44.5 -31s33.5 -42.667 43.5 -66zM1784 -103c0 -18 -3.33398 -35.668 -10.001 -53.001l-27 -50v-34c-7.33301 -24.667 -27 -49.667 -59 -75c-41.333 -32 -104.333 -66 -189 -102l78 64c34 34 51 73.667 51 119c0 32.667 -13.667 60.334 -41 83.001
s-63.666 34 -108.999 34c-22 0 -39.667 -2 -53 -6c-16 -6.66699 -31.667 -13.667 -47 -21c32.667 79.333 99 119 199 119c4.66699 0 12.667 3.33301 24 10s22.333 10 33 10c15.333 0 34 -8.66699 56 -26c12 -9.33301 22 -14 30 -14c11.333 0 24.833 -6 40.5 -18
s23.5 -25.333 23.5 -40zM1429 600.999c0 -12 -3.00098 -25.665 -9.00098 -40.998c-0.666992 -2.66699 -2.33398 -6.33398 -5.00098 -11.001c-12 -56.667 -29 -91.334 -51 -104.001c-28.667 -6.66699 -51.334 -14 -68.001 -22l-31 -27
c-16.667 -10 -38.334 -19.667 -65.001 -29c12 -16 20.333 -30.333 25 -43s7 -25.334 7 -38.001c0 -48.667 -28.333 -92 -85 -130l-121 -73c-0.666992 2.66699 -2.33398 5 -5.00098 7c18 8.66699 33 24.667 45 48c10 20 15 38 15 54c0 13.333 -3.16699 25.833 -9.5 37.5
s-14.166 23.167 -23.499 34.5c-16.667 -37.333 -37.667 -64.333 -63 -81c-6 -4 -9 -15 -9 -33c0 -34 9 -63.5 27 -88.5s42.333 -37.5 73 -37.5c45.333 0 81.333 28.5 108 85.5s58.334 85.5 95.001 85.5c26.667 0 44.334 -12 53.001 -36c5.33301 -14 8 -38 8 -72
c0 -15.333 -0.5 -34.5 -1.5 -57.5s-2.83301 -37.5 -5.5 -43.5c-6 34.667 -13.667 61.667 -23 81c-15.333 30.667 -35.666 46 -60.999 46c-26.667 0 -49.667 -14.333 -69 -43c-54.667 -80.667 -96.334 -128.334 -125.001 -143.001c23.333 -30 52 -56 86 -78
c44.667 -28.667 88.334 -43 131.001 -43c21.333 0 40.666 4.66699 57.999 14c18.667 12.667 33.334 22.334 44.001 29.001l-44 -74c-8.66699 -12 -38 -33.667 -88 -65c-56.667 -35.333 -97 -53 -121 -53c-10.667 3.33301 -25.334 6.5 -44.001 9.5s-45 4.5 -79 4.5
c-22.667 0 -45.334 -13 -68.001 -39s-34 -52 -34 -78c0 -6.66699 3.5 -16.334 10.5 -29.001s14.5 -24.334 22.5 -35.001c-32 12.667 -57 34.334 -75 65.001c-14.667 25.333 -22 51 -22 77c0 16.667 4.16699 37.834 12.5 63.501s20.5 48.5 36.5 68.5
c-19.333 7.33301 -33.333 12 -42 14s-15.667 3 -21 3c-6 -1.33301 -11.667 -2 -17 -2c-4.66699 0 -10.167 1 -16.5 3s-17.833 7.66699 -34.5 17c-25.333 14 -51.666 21 -78.999 21c-68.667 0 -121.334 -17 -158.001 -51c-34 -31.333 -51 -72.333 -51 -123
c0 -12.667 1.33301 -24 4 -34c5.33301 -14 9.33301 -25 12 -33c-29.333 29.333 -56 64.333 -80 105c-29.333 49.333 -44 91 -44 125c0 18.667 8.66699 39 26 61c20 26 43.667 39 71 39h93l10 8c2.66699 3.33301 4 8.66602 4 15.999c0 12.667 -8 25.334 -24 38.001
c-50.667 40 -80.667 67.333 -90 82c-9.33301 -9.33301 -16.833 -16 -22.5 -20s-12.5 -6 -20.5 -6c-12.667 4 -22 8.33301 -28 13c-19.333 16 -29 40.333 -29 73c4.66699 30 9.66699 60.333 15 91c-8 -8 -19 -45.667 -33 -113c-11.333 -52.667 -38 -79 -80 -79
c-17.333 0 -32.666 11 -45.999 33c-10.667 18 -16 39 -16 63c0.666992 4.66699 1.5 10.834 2.5 18.501s1.5 17.5 1.5 29.5c4 -14 8.33301 -27.667 13 -41c11.333 -18.667 32.333 -28 63 -28c31.333 0 47 12.667 47 38c0 20 -13.167 51 -39.5 93s-39.5 83 -39.5 123
c0 32 9.33301 63.667 28 95c16.667 28 46 63 88 105c-8 1.33301 -17.667 0.666016 -29 -2.00098s-18.333 -4 -21 -4c-12 0 -26.333 1.66699 -43 5c-40 8 -62.333 12 -67 12c-24 0 -49.333 -14 -76 -42c-30 -31.333 -45 -66.666 -45 -105.999c0 -12 1.33301 -23 4 -33
c-13.333 16 -25.5 44.667 -36.5 86s-16.5 74.666 -16.5 99.999c0 70.667 23 122.334 69 155.001c8 5.33301 40.667 19 98 41c5.33301 2 12.833 9.5 22.5 22.5s20.834 19.5 33.501 19.5c8 0 30 -10 66 -30c22.667 -12.667 40 -21.667 52 -27h37c0 22.667 13 43.667 39 63
c22.667 16.667 45.834 27.334 69.501 32.001s56.167 18 97.5 40c16 8.66699 33.667 13 53 13c8.66699 0 25.834 -4.83301 51.501 -14.5s44.5 -14.5 56.5 -14.5c33.333 0 80 12.833 140 38.5s94.667 38.5 104 38.5c38 0 67 -13.667 87 -41c18 -24.667 27 -55.667 27 -93
c0 -16.667 -2 -33.667 -6 -51c33.333 0 59.166 -10.167 77.499 -30.5s27.5 -46.5 27.5 -78.5c0 -29.333 -3 -52.333 -9 -69c-6.66699 -14.667 -13 -29.334 -19 -44.001c6 0 14.333 -0.666992 25 -2s17 -2 19 -2c34 0 64.333 9.66699 91 29c32.667 23.333 49 55 49 95
c0 24.667 -5.83301 45.667 -17.5 63s-21.167 34 -28.5 50c25.333 -26 45 -48.667 59 -68c26.667 -36 40 -66.333 40 -91zM214.997 373.001c0 -20.667 -6.49902 -39.5 -19.499 -56.5s-30.5 -25.5 -52.5 -25.5c-16 0 -30.333 6.33301 -43 19s-22.334 29.334 -29.001 50.001
c7.33301 -1.33301 14.333 -2.33301 21 -3s14 -1 22 -1c30 0 51.167 8.16699 63.5 24.5s18.5 45.166 18.5 86.499c4 -10 8.16699 -24.833 12.5 -44.5s6.5 -36.167 6.5 -49.5zM943.998 889.001h-12h12zM1129 390.001h-14h14zM636.998 -154.999h-12h12zM1410 868.001
l-23.999 27c-10 10 -19.667 15 -29 15s-18.833 -7 -28.5 -21s-14.5 -25.333 -14.5 -34c0 -6.66699 1.5 -15 4.5 -25s5.16699 -18.667 6.5 -26c2.66699 18.667 7.66699 33 15 43c11.333 16 27.666 24 48.999 24c6 0 13 -1 21 -3zM1211 649.001c0 50 -33.333 81 -100 93
c22.667 -9.33301 40 -18 52 -26c22 -14.667 33 -37 33 -67c0 -22.667 -4.33301 -42.667 -13 -60c-4 -8 -13 -21.333 -27 -40l18 -8c11.333 20.667 19.333 35.667 24 45c8.66699 16.667 13 37.667 13 63zM1105 808.001c0 35.333 -11.9971 64.334 -35.9971 87.001
c-20.667 19.333 -42.334 29 -65.001 29c-6 0 -12.333 -0.833008 -19 -2.5s-15.334 -5.83398 -26.001 -12.501c13.333 4 25.666 6 36.999 6c26.667 0 48.667 -8.66699 66 -26s26 -41.333 26 -72c0 -29.333 -12.333 -68.666 -37 -117.999c-12 -24 -18 -43.333 -18 -58
c0 -8 1.66699 -18 5 -30c1.33301 -4.66699 2 -9.33398 2 -14.001c0 30 14.667 74.333 44 133c14 28 21 54 21 78zM1184 649.002c0 17.333 -4.99902 31.332 -14.999 41.999c-3.33301 4 -9.33301 8.66699 -18 14c9.33301 -8 14 -21 14 -39
c0 -17.333 -3.33301 -33.166 -10 -47.499s-15.334 -27.5 -26.001 -39.5c2 -1.33301 7 -5 15 -11l30 41c6.66699 12.667 10 26 10 40zM1122 671.001c0 18.667 -8.66797 32.3311 -26.001 40.998c-1.33301 -5.33301 -3 -10.666 -5 -15.999s-3 -11.666 -3 -18.999
c0 -8 1 -15.333 3 -22s3.66699 -12.667 5 -18c8.66699 6 14.334 10.667 17.001 14c6 6 9 12.667 9 20zM1151 662.998c-1.33301 6.66699 -3.00098 12.6689 -5.00098 18.002c-4 9.33301 -10.667 19.666 -20 30.999c8 -11.333 12 -24 12 -38c0 -25.333 -10.667 -47 -32 -65
c4 -3.33301 7 -7.33301 9 -12c14.667 14 24.334 26.167 29.001 36.5s7 20.166 7 29.499zM1074 814c0 24 -7.66699 44.333 -23 61s-35.333 25 -60 25c-6 0 -10.833 -0.333008 -14.5 -1s-13.167 -2.66699 -28.5 -6c28 0 49.667 -4.66699 65 -14c23.333 -14 35 -38.667 35 -74
c0 -24 -6.83301 -51.667 -20.5 -83s-20.5 -53 -20.5 -65c0 -13.333 1 -22.833 3 -28.5s7.33301 -14.834 16 -27.501c-4.66699 12 -7 25 -7 39c0 24 9.16699 55.333 27.5 94s27.5 65.334 27.5 80.001zM1405 599c0 12 -1.66992 24.6689 -5.00293 38.002
s-7.33301 24.666 -12 33.999c0 -50 -13.667 -89.667 -41 -119c-30 -32 -71.667 -48 -125 -48c-42.667 0 -78 17 -106 51s-42 74 -42 120c-6.66699 -13.333 -13.334 -28.333 -20.001 -45c-0.666992 -2.66699 -2 -6.33398 -4 -11.001c0 -38.667 21.667 -62 65 -70v-11h-30
c-9.33301 2.66699 -16.666 5 -21.999 7c-10 4 -26.333 11.667 -49 23c3.33301 -6.66699 13 -17.334 29 -32.001c8 -7.33301 12 -22.666 12 -45.999c0 -16 -1 -26.5 -3 -31.5s-6 -10.5 -12 -16.5c3.33301 -2 10.666 -9 21.999 -21c8.66699 -8.66699 16.334 -13 23.001 -13
c7.33301 2 13.333 3.33301 18 4c-8 26.667 -13.667 46 -17 58c-6.66699 22.667 -10 38.334 -10 47.001c0 2 1.33301 4 4 6s4.33398 3.66699 5.00098 5c10 -44 18.333 -75 25 -93c12.667 -32 38.667 -48 78 -48c34 0 60 14.667 78 44c-16 4 -28.5 10.5 -37.5 19.5
s-14.833 19.833 -17.5 32.5h11c8 -13.333 18.833 -24 32.5 -32s26.834 -12 39.501 -12c19.333 0 39.833 9.5 61.5 28.5s32.5 38.167 32.5 57.5c-8 -2 -14.333 -3.33301 -19 -4c-17.333 -3.33301 -30.333 -5 -39 -5v11c26.667 0 45.834 6.16699 57.501 18.5
s17.5 30.166 17.5 53.499zM972.998 849.002l-11 7.00098c-30 -18 -52 -36 -66 -54c-10.667 -13.333 -16 -24.333 -16 -33c0 -6.66699 2.66699 -11.834 8 -15.501s9.33301 -6.5 12 -8.5c0 26 6.33301 46.667 19 62c8.66699 10 26.667 24 54 42zM991.998 811.003
l0.000976562 9.00098h-10l-44 -32c-16.667 -13.333 -25 -26.333 -25 -39c0 -2.66699 1.66699 -5.83398 5 -9.50098s9.66602 -9.16699 18.999 -16.5v8c-0.666992 2.66699 -1 7 -1 13c0 14.667 5.16699 28.5 15.5 41.5s23.833 21.5 40.5 25.5zM1033 815.004
c0 25.333 -10.667 43.3311 -32 53.998c-13.333 6.66699 -29 10 -47 10c-6 0 -13.667 -0.666992 -23 -2s-16 -2 -20 -2c30 0 50 -2 60 -6c24 -10 36 -32 36 -66c0 -17.333 -5 -43 -15 -77c-4.66699 -16 -7 -30.333 -7 -43c0 -33.333 11 -65.666 33 -96.999
c-9.33301 14.667 -16 27.334 -20 38.001s-6 21.667 -6 33c0 18 6.83301 46.833 20.5 86.5s20.5 63.5 20.5 71.5zM988.999 790.002c-14 -6.66699 -26 -18 -36 -34l-6 -12c0 -4 1.16699 -9.33301 3.5 -16s7.5 -15.667 15.5 -27c0 20 5.66699 41 17 63
c5.33301 10 7.33301 18.667 6 26zM928.999 864.002h-11.001c-20.667 -5.33301 -40 -21 -58 -47c-6 -8 -13 -20.333 -21 -37c0 -5.33301 3.33301 -10.166 10 -14.499s11.334 -7.5 14.001 -9.5c0 15.333 5.5 33.666 16.5 54.999s27.5 39 49.5 53zM855.998 861.002
c-21.333 -5.33301 -42.666 -10.3311 -63.999 -14.998c-16.667 -6.66699 -37.334 -24.334 -62.001 -53.001v-10c11.333 4 29.333 13.667 54 29c28 17.333 52 33.666 72 48.999zM835.998 823.004l-24 -20c-6.66699 -7.33301 -11 -18 -13 -32h27c0 14.667 3.33301 32 10 52z
M1758 -130.996c0 17.333 -3 30.668 -9 40.001c-8 12.667 -21 19 -39 19c-18.667 0 -38.667 -8 -60 -24c-14 -10.667 -26 -22.667 -36 -36c6.66699 -4.66699 13.167 -10.5 19.5 -17.5s11.166 -14.833 14.499 -23.5c6.66699 3.33301 13.334 5.66602 20.001 6.99902s13 2 19 2
c27.333 0 45 -10.333 53 -31l12 30.5c4 10.333 6 21.5 6 33.5zM784.998 775.006l0.000976562 15c-4 -2.66699 -8 -5.5 -12 -8.5s-10 -6.5 -18 -10.5c4 1.33301 8.66699 2.33301 14 3s10.666 1 15.999 1zM1685 -49.9941c-19.333 12.667 -37.002 19.001 -53.002 19.001
c-24 0 -46 -8.33301 -66 -25c-17.333 -14.667 -29.666 -31.667 -36.999 -51c14 0 25.833 -1 35.5 -3s20.167 -7 31.5 -15c12 14 23 25.667 33 35c16.667 15.333 35.334 28.666 56.001 39.999zM988.997 557.007l-18 -8.00098l-23 -4c10 4.66699 16 7.33398 18 8.00098
c7.33301 2.66699 15 4 23 4zM1044 486.006c0 18 -4.16699 31.167 -12.5 39.5s-22.166 12.5 -41.499 12.5c-6.66699 0 -12 -0.5 -16 -1.5s-8 -1.83301 -12 -2.5c23.333 0 42.333 -5 57 -15c11.333 -8 19.666 -19 24.999 -33zM766.997 849.006l-15.001 1.00195
c-23.333 -6 -40.666 -11.667 -51.999 -17c-35.333 -16.667 -53 -37.334 -53 -62.001c4 -5.33301 7 -9 9 -11c7.33301 -7.33301 14 -11 20 -11c4 0 11.167 2 21.5 6s19.833 9.33301 28.5 16c-8 5.33301 -12 11.666 -12 18.999c0 9.33301 5.16699 19.5 15.5 30.5
s22.833 20.5 37.5 28.5zM1028 459.008c0 12 -7.16699 24.5 -21.5 37.5s-27.5 19.5 -39.5 19.5c-4.66699 0 -8.5 -0.666992 -11.5 -2s-5.5 -2.33301 -7.5 -3c40 0 64.333 -23 73 -69c4.66699 7.33301 7 13 7 17zM709.996 861.008c-20.667 6.66699 -36.667 10.002 -48 10.002
c-18 0 -37.833 -7.33301 -59.5 -22s-32.5 -30.334 -32.5 -47.001c0 -6.66699 1.33301 -11.834 4 -15.501s6 -7.5 10 -11.5c2 19.333 4.83301 32.166 8.5 38.499s14.5 16.833 32.5 31.5h16v-11c-13.333 -6 -22.833 -13.167 -28.5 -21.5s-8.5 -17.833 -8.5 -28.5
c0 -17.333 8.33301 -30.666 25 -39.999c8 -2 16.333 -3.66699 25 -5c-4.66699 -0.666992 -8.66699 -0.666992 -12 0l24 -1c-10 0 -18.833 4.83301 -26.5 14.5s-11.5 20.167 -11.5 31.5c0 20 8.33301 36.667 25 50c11.333 9.33301 30.333 18.333 57 27zM1220 285.01
c0 26 -11.832 46.999 -35.499 62.999s-49.834 24 -78.501 24c-20.667 0 -38 -5 -52 -15c-18.667 -13.333 -28 -26.333 -28 -39c1.33301 -2 2.5 -5.33301 3.5 -10s2.16699 -11 3.5 -19c12 14 23.5 24.5 34.5 31.5s24.5 10.5 40.5 10.5c26 0 48 -8.66699 66 -26
c16 -15.333 27 -36.666 33 -63.999c2.66699 6 5.5 13.667 8.5 23s4.5 16.333 4.5 21zM1325 135.009c-7.33301 12.667 -14.001 21.668 -20.001 27.001c-9.33301 7.33301 -21.666 11 -36.999 11c-12 0 -23 -4.66699 -33 -14c-6.66699 -6.66699 -14.667 -17.334 -24 -32.001
c8 11.333 18.833 19.833 32.5 25.5s23.5 8.5 29.5 8.5c20 0 37.333 -8.66699 52 -26zM994.996 429.01c0 14.667 -2.66699 27.3301 -8 37.9971s-16 19.334 -32 26.001h-11c17.333 -2 29 -6.16699 35 -12.5s9 -18.166 9 -35.499c0 -16 -0.666992 -25.167 -2 -27.5
s-9.33301 -10.166 -24 -23.499l22 14c7.33301 5.33301 11 12.333 11 21zM1562 -35.9941c-6.66699 3.33301 -11.668 5.00195 -15.001 5.00195c-22.667 0 -46 -7.5 -70 -22.5s-43.667 -36.167 -59 -63.5c8 5.33301 16.833 9.16602 26.5 11.499s20.167 3.5 31.5 3.5
c7.33301 0 15.333 -0.333008 24 -1s13.334 -0.666992 14.001 0c3.33301 9.33301 8 19.666 14 30.999s17.333 23.333 34 36zM1106 390.008c-23.333 0 -40 2 -50 6l-6 3c-10 0 -20.833 -6.83301 -32.5 -20.5s-17.5 -24.834 -17.5 -33.501
c0 -13.333 4.66699 -26.666 14 -39.999c0 25.333 7.83301 45.833 23.5 61.5s38.5 23.5 68.5 23.5zM1729 -229.992c0 10.667 -3.16797 20.5 -9.50098 29.5s-14.166 13.5 -23.499 13.5c-22 0 -33.167 -16.167 -33.5 -48.5s-22.5 -73.5 -66.5 -123.5
c46 26.667 71.333 41.667 76 45c38 25.333 57 53.333 57 84zM1329.99 49.0078l-2 29c0.666992 -4 1.33398 -6.83301 2.00098 -8.5s1 1.5 1 9.5s-6.66699 21.333 -20 40c-10.667 15.333 -23.334 23 -38.001 23c-5.33301 0 -12.666 -2 -21.999 -6c-4 -2 -10.333 -5 -19 -9
c34 0 55.333 -2.33301 64 -7c17.333 -9.33301 28.666 -33 33.999 -71zM1186.99 229.008c0 18.667 -9.00195 36.334 -27.002 53.001c-20 18.667 -42 28 -66 28c-9.33301 0 -17.666 -2.66699 -24.999 -8c-4.66699 -3.33301 -11.667 -10 -21 -20c42 0 70.5 -6 85.5 -18
s22.5 -29 22.5 -51c0 -12 -2.16699 -22.333 -6.5 -31s-12.166 -18.334 -23.499 -29.001c24 6 41 18 51 36c6.66699 12 10 25.333 10 40zM558.992 771.008c-9.33301 10 -13.999 20 -13.999 30c0 9.33301 4 21.666 12 36.999h-13c-14.667 -8 -26.334 -16.167 -35.001 -24.5
s-13 -17.166 -13 -26.499c0 -8 4 -15.667 12 -23c2.66699 -2 6.66699 -4.66699 12 -8c4.66699 0 10.667 1.66699 18 5zM1128.99 213.008c0 16.667 -6.66797 30.332 -20.001 40.999c-6.66699 5.33301 -17 11 -31 17h-11l-5 -7c10.667 -4 19.334 -14 26.001 -30s10 -29 10 -39
c0 -13.333 -1.5 -24.666 -4.5 -33.999s-8.16699 -19.333 -15.5 -30l36 36c10 12.667 15 28 15 46zM517.992 745.006c-13.333 0 -23.667 2.99902 -31 8.99902s-11 16.667 -11 32c0 5.33301 1.83301 11.833 5.5 19.5s5.83398 13.5 6.50098 17.5
c-18.667 -10.667 -28 -27 -28 -49c0 -11.333 3 -20.666 9 -27.999s13 -11 21 -11c7.33301 0 11.666 0.333008 12.999 1zM484.991 719.005c-16 5.33301 -27.833 11.666 -35.5 18.999s-11.5 18 -11.5 32c0 4 0.666992 10.667 2 20c-6 -6 -12.667 -14.667 -20 -26
s-11 -18 -11 -20c0 -7.33301 3.83301 -16.666 11.5 -27.999s14.167 -17 19.5 -17c8.66699 0 16.667 2 24 6zM924.991 615.005c0 38.667 -8.33594 69.334 -25.0029 92.001c-22.667 31.333 -60.334 47 -113.001 47c-28 0 -50.333 -3 -67 -9
c-40.667 -14.667 -64.667 -22 -72 -22c-22.667 0 -39.334 6.66699 -50.001 20s-20 20 -28 20c-21.333 0 -49.666 -23.667 -84.999 -71c-32.667 -43.333 -49 -70.333 -49 -81c0 -17.333 12.667 -38.333 38 -63c18.667 -18 33.334 -38.667 44.001 -62v-11
c-6.66699 6.66699 -16.334 13.167 -29.001 19.5s-23.334 9.5 -32.001 9.5c-8 0 -14.833 -2.83301 -20.5 -8.5s-8.5 -11.5 -8.5 -17.5c0 -13.333 5.66699 -22.666 17 -27.999c7.33301 -3.33301 19.333 -5 36 -5v-10c-6 -2.66699 -11 -4.66699 -15 -6s-9 -2 -15 -2
c-10.667 0 -17.5 0.833008 -20.5 2.5s-8.5 8.16699 -16.5 19.5c0 -18 -0.666992 -29.667 -2 -35s-2.33301 -10 -3 -14c0 -12 2.5 -28.5 7.5 -49.5s10.5 -42.5 16.5 -64.5c1.33301 -11.333 0.333008 -21 -3 -29s-5 -15.333 -5 -22c0 -8.66699 0.833008 -17.334 2.5 -26.001
s3.5 -17.334 5.5 -26.001c11.333 4.66699 26 9.66699 44 15c5.33301 1.33301 12.666 3.33301 21.999 6c4.66699 0 10.5 -2.83301 17.5 -8.5s11.5 -8.5 13.5 -8.5c12.667 3.33301 24.834 6.16602 36.501 8.49902s21.167 3.5 28.5 3.5c4 0 8.5 -0.5 13.5 -1.5
s17.833 -8.83301 38.5 -23.5c10.667 -7.33301 17.334 -11 20.001 -11s5 0.666992 7 2s3.33301 2.33301 4 3c0 6.66699 -0.166992 13.5 -0.5 20.5s-0.5 14.5 -0.5 22.5c0 26.667 3 46.667 9 60c8.66699 19.333 24.334 30.666 47.001 33.999c34 5.33301 59.333 13.333 76 24
c24.667 16 37 40.333 37 73c0 16.667 -4.33301 32.334 -13 47.001c-10.667 17.333 -23.667 26 -39 26c-8.66699 0 -17 -1.66699 -25 -5c-2 -0.666992 -8 -4 -18 -10c10.667 -3.33301 16 -7.33301 16 -12c0 -12 -6.33301 -20.833 -19 -26.5s-26.334 -8.5 -41.001 -8.5
c-10.667 0 -16.667 0.666992 -18 2c-1.33301 3.33301 -2.66602 6 -3.99902 8c14 0 25.5 2.33301 34.5 7s14.833 13.334 17.5 26.001h11c-1.33301 1.33301 -5.66602 8.33301 -12.999 21s-11.666 20.667 -12.999 24c30 -9.33301 50.667 -14 62 -14
c40.667 0 74.334 12 101.001 36s40 54.667 40 92zM1332.99 -194.995c-10 -2 -20.167 -4.33301 -30.5 -7s-18.833 -4 -25.5 -4c4.66699 -6 8.66699 -17.333 12 -34c19.333 16.667 30.5 27 33.5 31zM943.988 233.005c0 12.667 -2.00098 25.334 -6.00098 38.001
c-6 18.667 -15 36 -27 52c9.33301 -16 16.5 -31.167 21.5 -45.5s7.5 -27.166 7.5 -38.499c0 -40.667 -22 -70.334 -66 -89.001c-63.333 -26.667 -98 -43 -104 -49c44.667 6 79.334 13.667 104.001 23c46.667 17.333 70 53.666 70 108.999zM406.987 701.005
c-4 4.66699 -7.33203 10.5 -9.99902 17.5s-4.33398 11.167 -5.00098 12.5c-6.66699 -3.33301 -14.667 -5 -24 -5c-14.667 0 -34.5 8.16699 -59.5 24.5s-42.5 24.5 -52.5 24.5c-9.33301 0 -17 -2 -23 -6s-11 -10.667 -15 -20c22.667 0 47.667 -5 75 -15
c60 -22 98 -33 114 -33zM917.988 246.005c0 6 -1.5 14 -4.5 24l-9.5 31c0 -71.333 -14.333 -111.333 -43 -120c-48.667 -14 -84 -38.333 -106 -73c15.333 21.333 49.333 41.333 102 60c40.667 14 61 40 61 78zM1272.99 -240.995c0 12.667 -4.83496 23.667 -14.502 33
s-21.5 14 -35.5 14c-3.33301 -3.33301 -6.33301 -5 -9 -5c4.66699 -6 7.83398 -12.667 9.50098 -20s2.5 -16.333 2.5 -27c0 -5.33301 -0.166992 -11 -0.5 -17s-0.5 -12 -0.5 -18c10.667 5.33301 21.334 10.333 32.001 15c10.667 6 16 14.333 16 25zM886.986 287.005
c0 8.66699 -1 17.002 -3 25.002c0 -33.333 -5 -55 -15 -65l-61 -39c-30.667 -20.667 -51.667 -43.334 -63 -68.001c-2.66699 -10.667 -5 -21.334 -7 -32.001c1.33301 4 2 7.33301 2 10v-21c0 43.333 24.5 74.5 73.5 93.5s73.5 51.167 73.5 96.5zM480.986 520.007l-36 20.999
c-7.33301 6 -13.666 15 -18.999 27v-19c5.33301 -9.33301 13.666 -15.666 24.999 -18.999c18.667 -6 28.667 -9.33301 30 -10zM984.986 -31.9941c0 13.333 -6 29 -18 47s-23.667 32 -35 42l-7 -4v-108l22 -2c8.66699 0.666992 15 1.66699 19 3c12.667 4.66699 19 12 19 22z
M1212.99 -245.994c0 18 -8.66602 35.334 -25.999 52.001c-13.333 13.333 -29 24 -47 32c12 -18 18 -36.333 18 -55c0 -18 -4 -35.5 -12 -52.5s-19.667 -33.167 -35 -48.5l27 -3c21.333 0 39.166 7.16699 53.499 21.5s21.5 32.166 21.5 53.499zM418.987 490.007
c-0.666992 4 -1.33301 7.33398 -2 10.001c-4.66699 22 -7 44.667 -7 68l-15 -38c-4.66699 -12 -7 -23 -7 -33v-24l12 -35c4 15.333 8.33301 28.666 13 39.999c1.33301 3.33301 3.33301 7.33301 6 12zM436.988 685.008c-51.333 4.66699 -96.499 11.834 -135.499 21.501
l-113.5 28.5c-16.667 0 -33.5 -4.83301 -50.5 -14.5s-36.833 -26.167 -59.5 -49.5c-16.667 -16.667 -28.834 -35 -36.501 -55s-11.5 -40 -11.5 -60c0 -16.667 0.333008 -28.834 1 -36.501s1.66699 -15.167 3 -22.5c0 64.667 15.5 117.167 46.5 157.5s67.5 60.5 109.5 60.5
c23.333 0 54.333 -8 93 -24s67 -24 85 -24c12 0 23.667 2 35 6zM1138.99 -210.992c0 21.333 -5.33301 38.999 -16 52.999c-7.33301 9.33301 -20 20.333 -38 33c4.66699 -14 7 -29 7 -45c0 -27.333 -8.33301 -51.666 -25 -72.999s-40.334 -35 -71.001 -41l41 -21
c6.66699 -2.66699 12.667 -4 18 -4c20.667 0 39.834 9.83301 57.501 29.5s26.5 42.5 26.5 68.5zM1073.99 -146.993c0 24.667 -5.16797 41.832 -15.501 51.499s-31.166 18.5 -62.499 26.5c4 -6.66699 7 -12 9 -16c6 -12.667 9 -24 9 -34
c0 -16.667 -5.16699 -31.5 -15.5 -44.5s-23.5 -20.167 -39.5 -21.5c-2 -14 -5.66699 -24.667 -11 -32c-2.66699 -3.33301 -9 -8.66602 -19 -15.999c0.666992 0 7.16699 -2.33301 19.5 -7s23.5 -7 33.5 -7c26.667 0 48.667 9.33301 66 28s26 42.667 26 72zM425.988 664.005
c-4 0 -14.666 -2.00098 -31.999 -6.00098s-32 -6 -44 -6c-7.33301 0 -13.833 0.5 -19.5 1.5s-34.834 10.833 -87.501 29.5c-20.667 7.33301 -37.667 11 -51 11c-34.667 0 -67.5 -18.167 -98.5 -54.5s-46.5 -79.166 -46.5 -128.499c0 -7.33301 0.833008 -13.5 2.5 -18.5
s2.5 -11.833 2.5 -20.5c0 51.333 12 96 36 134c28 44 64.667 66 110 66c21.333 0 41.666 -6.83301 60.999 -20.5s41.333 -20.5 66 -20.5c26.667 0 49.667 4.66699 69 14c10.667 6 21.334 12.333 32.001 19zM994.989 -112.996c0 8.66699 -1.5 16.3311 -4.5 22.998
s-7.5 12.334 -13.5 17.001c-8 0 -16 0.166992 -24 0.5s-16 0.833008 -24 1.5c-8 0 -15.167 -2.16699 -21.5 -6.5s-17.5 -15.166 -33.5 -32.499l32 -37c12.667 -14 24.667 -21 36 -21c17.333 0 31 7.33301 41 22c8 12 12 23 12 33zM409.989 634.001
c-14 -5.33301 -28.166 -10.332 -42.499 -14.999s-30.833 -7 -49.5 -7s-40 5.66699 -64 17s-41 17 -51 17c-30 0 -59.167 -14.333 -87.5 -43s-44.833 -63.334 -49.5 -104.001v-20c11.333 42.667 30.333 76.667 57 102c29.333 28.667 56.333 43 81 43
c22 0 48.667 -8.33301 80 -25c16 -8.66699 28.667 -13 38 -13c11.333 0 23.666 4 36.999 12zM399.99 605.002c-12 -7.33301 -24 -14 -36 -20c-19.333 -9.33301 -34 -14 -44 -14c-18.667 0 -42.667 7 -72 21c-15.333 7.33301 -28.666 11 -39.999 11
c-26.667 0 -52.667 -13.667 -78 -41c-20.667 -22 -36.667 -48.333 -48 -79c11.333 28 29.333 49.333 54 64c18.667 11.333 36 17 52 17c17.333 -2 34.5 -3.83301 51.5 -5.5s30.833 -2.5 41.5 -2.5c26.667 0 49 3 67 9c23.333 8 40.666 21.333 51.999 40zM429.99 131.002
c-2 6 -3 10.999 -3 14.999s1 9.66699 3 17c-6.66699 5.33301 -12.167 11.5 -16.5 18.5s-6.5 14.833 -6.5 23.5c0 11.333 2.16699 25.333 6.5 42s6.16602 27.334 5.49902 32.001l-33 125c-8 39.333 -12 75 -12 107l-13.5 -45.5c-4.33301 -15 -6.5 -24.5 -6.5 -28.5
c0 -11.333 5.16699 -34.833 15.5 -70.5s15.5 -77.5 15.5 -125.5c2.66699 5.33301 5.83398 11 9.50098 17s10.167 11.667 19.5 17c-3.33301 -21.333 -7.33301 -39 -12 -53s-7 -21.667 -7 -23c0 -22 8 -44.667 24 -68h11zM943.99 -187.999
c-22 4 -37.499 10.168 -46.499 18.501s-22.833 28.166 -41.5 59.499l-53 -11l28 -56c17.333 -26 38.666 -39 63.999 -39c10 0 18.333 2.16699 25 6.5s14.667 11.5 24 21.5zM360.991 280.002c0 34 -3.33301 67.999 -10 101.999c-4 17.333 -7.66699 35 -11 53
c0 12 2.16699 25.667 6.5 41s7.16602 26 8.49902 32l-17 -55.5c-4 -13.667 -6 -21.5 -6 -23.5c6.66699 -36 12.334 -68.833 17.001 -98.5s7 -53.834 7 -72.501c0 -16.667 -1.33301 -30.667 -4 -42c4 10.667 6.5 20.334 7.5 29.001s1.5 20.334 1.5 35.001zM617.991 153.001
c-42.667 0 -75.165 0.666992 -97.498 2s-42.5 4 -60.5 8c-1.33301 -1.33301 -2 -2.33301 -2 -3c-3.33301 -4.66699 -6.66602 -8.33398 -9.99902 -11.001c5.33301 -9.33301 10.666 -15.666 15.999 -18.999s14.666 -5 27.999 -5c21.333 0 44 4 68 12
c29.333 10 48.666 15.333 57.999 16zM336.993 250.001c0 26 -2.33301 50.3301 -7 72.9971c-11.333 55.333 -17 84 -17 86c0 14.667 1 27 3 37c3.33301 11.333 5.33301 18.333 6 21c-6.66699 -17.333 -12.667 -39 -18 -65s-8 -46 -8 -60
c0 -13.333 4.33301 -40.666 13 -81.999s15.667 -69.666 21 -84.999c2.66699 12.667 4.5 22.834 5.5 30.501s1.5 22.5 1.5 44.5zM735.993 -91.002c0 2 -5 10.668 -15 26.001l-18 26v-20c2 -5.33301 3.5 -14 4.5 -26s8.5 -30.333 22.5 -55c0 5.33301 1 14.666 3 27.999
s3 20.333 3 21zM825.993 -206.001c-11.333 28 -19.999 48.334 -25.999 61.001c-10.667 22 -28 36 -52 42c-0.666992 -10 -1.33398 -16.667 -2.00098 -20s-1.66699 -6.33301 -3 -9c0 -24.667 9 -44.334 27 -59.001c14.667 -12 29.667 -18 45 -18
c4 1.33301 7.66699 2.33301 11 3zM317.994 493l-45.5 -80.501c-14.333 -26.333 -21.5 -49.833 -21.5 -70.5c0 -26 6.5 -55.667 19.5 -89s27.5 -59.333 43.5 -78c0 20.667 -7 51 -21 91s-21 67.667 -21 83c0 34.667 7 66.334 21 95.001zM633.994 0.999023
c-19.333 23.333 -47.168 37.501 -83.501 42.501s-57.166 14.167 -62.499 27.5l38 -7c-5.33301 5.33301 -20.333 14.666 -45 27.999l-15 9c-2.66699 0 -6 -3.33301 -10 -10s-6 -11.667 -6 -15c0 -26 19.333 -47 58 -63c28.667 -12 56 -18 82 -18c5.33301 0 12 0.666992 20 2z
M940.992 -288l-16 11.001c-6.66699 -6.66699 -16.667 -23.667 -30 -51c-16.667 -34 -25 -59.667 -25 -77c0 -6 0.5 -12.167 1.5 -18.5l2.5 -15.5c0 26.667 6.33301 55.667 19 87s28.667 52.666 48 63.999zM969.992 -317.999l-18 15.999l-40 -60
c-16.667 -25.333 -25 -41.666 -25 -48.999l1 -10c9.33301 28 20.333 50.333 33 67s29 28.667 49 36zM906.992 -265c-3.33301 1.33301 -7.00098 3.66406 -11.001 6.99707c-11.333 -20.667 -19.666 -36.667 -24.999 -48c-16.667 -35.333 -25 -61.333 -25 -78
c0 -5.33301 1.5 -12.166 4.5 -20.499s4.83301 -15.166 5.5 -20.499c0 38 5 70.667 15 98c7.33301 20.667 19.333 41.334 36 62.001zM436.991 63.998v51.001c-12 -1.33301 -20 -2 -24 -2c-12 0 -20.167 5.66699 -24.5 17s-6.5 36 -6.5 74
c-2 -9.33301 -4.83301 -20.333 -8.5 -33s-5.5 -22.334 -5.5 -29.001c0 -28.667 6.33301 -50.667 19 -66c10 -12 21 -18 33 -18c2 0 7.66699 2 17 6zM191.991 386.999c-3.33301 -12 -11.667 -22.333 -25 -31s-28.333 -13 -45 -13l-26 3c9.33301 -6 16.5 -10 21.5 -12
s11.5 -3 19.5 -3c14 0 25.667 5.33301 35 16s16 24 20 40zM203.99 370.999c-2.66699 -12.667 -10.168 -24.833 -22.501 -36.5s-26.833 -17.5 -43.5 -17.5c-7.33301 0 -13.666 0.666992 -18.999 2l-16 4c6 -3.33301 16 -8.33301 30 -15l6 -3c21.333 0 38 9 50 27
c8 11.333 13 24.333 15 39zM317.989 119c0 -16 -6.5 -29 -19.5 -39s-26.833 -15 -41.5 -15c-13.333 0 -25.666 4.33301 -36.999 13c-3.33301 2.66699 -10 9 -20 19c7.33301 -28 18.666 -48 33.999 -60c4.66699 -4 12 -7.33301 22 -10c16 0 30.333 11 43 33s19 41.667 19 59z
M658.989 -144l-73 22.499c-25.333 7.66699 -52 11.5 -80 11.5c-38 0 -68.833 -9.16699 -92.5 -27.5s-35.5 -41.166 -35.5 -68.499c0 -16 2.83301 -33.5 8.5 -52.5s12.5 -35.833 20.5 -50.5c-6 21.333 -9 43.333 -9 66c0 36.667 8.66699 66 26 88c20 25.333 51 38 93 38
c18.667 0 44 -3.66699 76 -11zM621.989 -146.001l-88 11.999c-33.333 -5.33301 -61.666 -18 -84.999 -38s-35 -45 -35 -75c3.33301 -12.667 6.16602 -25.667 8.49902 -39s3.5 -24 3.5 -32c0 52.667 8.66699 92.334 26 119.001c22.667 35.333 61.667 53 117 53
c6 0 12.333 -0.833008 19 -2.5s10.667 -2.5 12 -2.5c6 0 13.333 1.66699 22 5zM654.989 -173.002c-9.33301 1.33301 -19.666 3 -30.999 5l-40 7c-50.667 0 -88.667 -18.667 -114 -56c-18 -26.667 -27 -56 -27 -88c0 -10.667 0.5 -19.5 1.5 -26.5s3.16699 -18.5 6.5 -34.5
c0 54 11 98.333 33 133c27.333 43.333 68.666 65 123.999 65c8 0 14.667 -0.333008 20 -1s14.333 -2 27 -4zM766.989 548.998l-18.9961 7c-10.667 4 -20.667 6 -30 6c-12.667 0 -22.5 -3.5 -29.5 -10.5s-10.5 -13.167 -10.5 -18.5c0 -7.33301 3.33301 -13.666 10 -18.999
c9.33301 -6 15.666 -10.333 18.999 -13c-4 0 -9.33301 0.5 -16 1.5s-11.334 1.5 -14.001 1.5c-12.667 0 -23.834 -3.5 -33.501 -10.5s-15.834 -17.167 -18.501 -30.5c-1.33301 1.33301 -7.33301 4.5 -18 9.5s-17.334 7.5 -20.001 7.5c-8 0 -17.167 -4.33301 -27.5 -13
s-18.166 -18.334 -23.499 -29.001c8 40.667 24.667 73 50 97s57.333 36 96 36c16 0 32.333 -2.5 49 -7.5s28.667 -9.83301 36 -14.5zM721.993 452.998l-11 -8.99805c-4 -3.33301 -10.333 -5 -19 -5c-16 0 -27.667 3 -35 9c-2 1.33301 -6.33301 7.66602 -13 18.999
c2 0 4.5 0.666992 7.5 2s6.16699 2.66602 9.5 3.99902l12.5 -5c5 -2 10.833 -3 17.5 -3c10 0 20.333 2.66699 31 8v-20zM491.993 486c-7.33301 -12 -17.334 -17.998 -30.001 -17.998c-3.33301 -0.666992 -6.16602 -0.833984 -8.49902 -0.500977
s-6.83301 4.16602 -13.5 11.499v10c9.33301 0 20 -0.5 32 -1.5s18.667 -1.5 20 -1.5zM599.992 330.002l-10.501 13.999c-3.66699 4.66699 -8.16699 7 -13.5 7c-1.33301 0 -3.66602 -1.66699 -6.99902 -5c-6 -6 -10.333 -10 -13 -12c5.33301 12.667 10.333 21.334 15 26.001
s9.66699 7 15 7c2.66699 0 5 -0.833008 7 -2.5s4.33301 -3.16699 7 -4.5v-30zM592.991 305.001c-5.33301 -16.667 -12.834 -28.833 -22.501 -36.5s-21.167 -11.5 -34.5 -11.5c-10 0 -20.833 5.66699 -32.5 17s-19.167 23 -22.5 35l13 -11.5c3.33301 -3 6.33301 -4.5 9 -4.5
c4 0 9.16699 2.83301 15.5 8.5s11.5 8.5 15.5 8.5c2.66699 0 11 -4.33301 25 -13c6.66699 -4 12 -6 16 -6c2.66699 0 6.33398 2.33301 11.001 7z" />
    <glyph glyph-name=".null" horiz-adv-x="0" 
 />
    <glyph glyph-name="nonmarkingreturn" horiz-adv-x="500" 
 />
  </font>
</defs>
</svg>
