<?xml version="1.0" standalone="no"?>
<!DOCTYPE svg PUBLIC "-//W3C//DTD SVG 1.1//EN" "http://www.w3.org/Graphics/SVG/1.1/DTD/svg11.dtd" >
<svg>
<metadata>
Created by FontForge 20090914 at Wed Jan 22 17:55:34 2014
 By www-data
Copyright: MR.FISK.1998
</metadata>
<defs>
<font id="TheEvilCop" horiz-adv-x="848" >
  <font-face 
    font-family="The Evil Cop"
    font-weight="400"
    font-stretch="normal"
    units-per-em="2048"
    panose-1="0 0 0 0 0 0 0 0 0 0"
    ascent="1638"
    descent="-410"
    x-height="1093"
    cap-height="1151"
    bbox="0 -15 1240 1696.13"
    underline-thickness="0"
    underline-position="0"
    unicode-range="U+0020-U+00F6"
  />
<missing-glyph horiz-adv-x="0" 
 />
    <glyph glyph-name=".notdef" horiz-adv-x="0" 
 />
    <glyph glyph-name="space" unicode=" " horiz-adv-x="608" 
d="M400 912v0v0z" />
    <glyph glyph-name="exclam" unicode="!" horiz-adv-x="800" 
d="M320 888l32 -160l16 -176l8 -112l40 -40l56 104l24 128l32 192v144l-96 -24l-80 -24zM376 272l-72 -64l96 -96l48 16l16 144h-88z" />
    <glyph glyph-name="comma" unicode="," horiz-adv-x="656" 
d="M259 412h-21.999l-42 42c0 99.333 17.667 152.333 53 159c98.667 7.33301 151.667 0.333008 159 -21l-21 -31v-12l53 -21l-53 -276l-54 -86l-117 -74l-43 -107l-31 21c21.333 198.667 60.666 323 117.999 373v33z" />
    <glyph glyph-name="period" unicode="." horiz-adv-x="544" 
d="M170 629h53c14 -28 42.333 -42 85 -42l86 -75v-31l-54 -53l-96 -64l-63 10l-21 54l-43 32l11 127z" />
    <glyph glyph-name="slash" unicode="/" horiz-adv-x="816" 
d="M639 1231c32.667 -6.66699 55.667 -29.667 69 -69v-48l-99 -89l-137 -187l-20 -79l-99 -216l-98 -138l-108 -227l-29 40l10 127l187 453l89 167l118 177l79 79z" />
    <glyph glyph-name="zero" unicode="0" horiz-adv-x="752" 
d="M177 168v-22l41 -42h33v22l-52 21l-11 21h-11zM375 910v-22c21.333 7.33301 32 0.333008 32 -21h21v33l-10 10h-43zM229 523v-115l21 -53l-11 -51v-11c35.333 -14 56.333 -42 63 -84h11l115 178l42 167v32l-21 42l11 30v12l-21 21l-11 83l-73 115h-22l-31 -10v-22l21 -11
v-134l-52 -63zM188 847l-20.999 -10.001l-10 10l62 114l10 -10h11l21 31c34 7.33301 54.667 -3 62 -31h32l21 21h41l21 -32h21l10 -31l42 -21v-21l42 -42c41.333 -76 58.666 -142 51.999 -198l42 -21v-145c-97.333 -167.333 -139.333 -265 -126 -293l-41 -52v-32l52 -11v-9
l-83 10l-52 52h-11c0 -27.333 -31.333 -44.666 -94 -51.999c-69.333 0 -111 17.333 -125 52l-42 63l-31 146l10 250l11 63l52 115v52l21 10v22z" />
    <glyph glyph-name="one" unicode="1" horiz-adv-x="616" 
d="M281 1275c84 6.66699 126.001 -14.332 126.001 -62.999l-11 -62v-42l21 -11l42 -73c41.333 -104.667 58.666 -181.334 51.999 -230.001l-31 -197l10 -94l-20 10h-11l-11 -167l-9 10h-12l11 -62l-11 -95l21 -74c7.33301 -54.667 -3 -82 -31 -82l-51 52l-53 219l-41 586
h-33l-62 -126l-21 -115l-31 11l-21 62v146l21 125z" />
    <glyph glyph-name="two" unicode="2" horiz-adv-x="968" 
d="M333 1097l74.001 -0.000976562l65 -49l29 -138l-21 -84l-178 -386v-74h22c14 34.667 42 55.334 84 62.001l198 199c6.66699 28 73 42 199 42l51 -11l63 -125l-95 -72h-40l-32 31v21h-32l-31 -94l-63 -52l-51 10h-22l-11 -31l-52 -52
c-62.667 -49.333 -111.334 -74 -146.001 -74l-83 11l-62 42v114l20 83l74 241l94 198v32h-22l-73 -94l-105 -62l-62 21l21 134l105 115z" />
    <glyph glyph-name="three" unicode="3" 
d="M260 1108l20.999 -11h43l52 52l62 -31l63 10l62 -10l73 -73l-21 -83l-62 -73v-21l-84 -62l-10 -32v-11c34.667 -21.333 97.334 -28.333 188.001 -21l83 -21l42 -42v-51l-31 -63l-63 -104l-115 -136l-9 10h-12l-10 -21l-30 11h-12l-42 -31v-21l-166 10l-42 63
c7.33301 48 42.333 79 105 93l20 -11h32l84 84l62 104v12l-156 42l-53 62v93l105 157v12h-64c-6.66699 -21.333 -27.667 -28.333 -63 -21l-114 -84h-94l-20 21l10 62l105 104z" />
    <glyph glyph-name="four" unicode="4" horiz-adv-x="816" 
d="M177 1139c20.667 6.66699 72.668 -17.666 156.001 -72.999l11 -230l21 -63h32l73 21l32 63l73 31l103 -10l21 -42c-14 -76 -14 -138.333 0 -187c-14 -84 -31.333 -126 -52 -126l10 -73l-21 -62l11 -74l-20 32h-12c-20.667 -21.333 -27.334 -56.333 -20.001 -105l-32 -31
l-31 -167c-41.333 20.667 -69 167 -83 439l11 103l-11 21l21 10v12l-10 10h-22c-48.667 -14 -73 -31.333 -73 -52l-52 11h-11l-31 -32l-104 42l-52 52l-21 53c-6.66699 201.333 21 343.666 83 426.999z" />
    <glyph glyph-name="five" unicode="5" horiz-adv-x="904" 
d="M281 972l21.001 -11h22l10 21l83 -10h22l31 31c187.333 -83.333 302 -125 344 -125l18 -54l24 -8c-76 14 -152.333 14 -229 0l-146 42h-43l-84 -52l11 -84l-32 -63v-43c90.667 14 171 10.667 241 -10c69.333 -42 100.666 -73.333 93.999 -94l-32 -93l-104 -105v-20
l-21 -21l-84 -21c-34 14 -78.667 14 -134 0l-53 21l11 30l115 63l73 104v33l-31 20h-75l-104 -20c-69.333 -14 -111 13.667 -125 83l11 198c62.667 132 118 194.667 166 188z" />
    <glyph glyph-name="six" unicode="6" horiz-adv-x="1112" 
d="M312 335v-32h12l21 31v64h-22zM396 722v-32h22v53h-11zM365 377v-22h21l-11 -30v-22l21 -21h12v73l30 -52h22l73 52v85c-20.667 0 -31 14 -31 42h-54l-21 -84zM532 606l31 -21v-20l-41 11zM605 241v-22h22l21 42v33h-12l-10 -42zM605 596l52 -21v-20
c-34 -7.33301 -54.333 -0.333008 -61 21zM344 1128c55.333 -34.667 97 -45 125 -31l105 -63l-11 -72v-22l21 -10l-42 -83l-30 11l31 30v53h-22l-20 -41v-53h-42v-22l21 -10c6.66699 -34 -4 -54.667 -32 -62v-32l32 -10v-31l-10 11h-22l-10 -11v-22l10 -10h12l10 21
c-0.666992 -28 13 -45.667 41 -53l-10 -9v-43l62 -42l42 11l42 -63h11l32 73l82 -73h12l21 63l72 -21l73 -73l42 10l31 -62v-62l-52 -52v-21c-28 0 -70 -31.333 -126 -94h-94l-31 -32h-62l-52 42l-42 11h-43c-6.66699 -49.333 -31 -74 -73 -74
c-34 -13.333 -54.333 0.666992 -61 42h-22v-21l-42 -10c-20 -14 -65 14 -135 84c-34.667 41.333 -55.667 114.333 -63 219l11 218c6.66699 76.667 17 115 31 115l11 188l62 115z" />
    <glyph glyph-name="seven" unicode="7" horiz-adv-x="1112" 
d="M480 1045l10.002 -11.001h22l10 21h135l105 -83l-11 -10v-11l32 -11l-21 -30l-21 -125v-54l31 -52l105 -31l83 -63l94 -42l-31 -30l-104 -21l-94 21h-21l-21 -31l10 -21l-10 -63l-10 11h-22l-10 -63l-31 -21l10 -21l-42 -31c14 -28 14 -45.667 0 -53
c-62 0 -96.333 28 -103 84l10 83v22l-10 52h-22l-32 -32c-55.333 7.33301 -97 0.666016 -125 -20.001l-103 10v83c27.333 6.66699 44.666 27.334 51.999 62.001l52 32l20 -11h22l21 31l61 -10h22l53 42l-11 52l11 21v53l-21 147h-22l-52 -21l-168 -136l-187 10
c-28 7.33301 -42 18 -42 32c7.33301 68.667 132.666 148.334 375.999 239.001z" />
    <glyph glyph-name="eight" unicode="8" horiz-adv-x="832" 
d="M177 335v-32h22v32h-22zM156 440v-32l21 -21h11l21 83v33h-11l-21 -53zM312 910v-64l21 -21l126 -20h84l21 31v11l-42 74l-73 41h-52l-10 32h-12zM563 679l32 -10v-20l-41 10zM135 303v-9.99805h11v105l-21 11v61l42 126v94l52 83v33l-31 62
c-6.66699 97.333 17.666 166.666 72.999 207.999l114 -10l52 -73h22l21 21l20 -11h32v12l-83 41l21 31l93 -21c-7.33301 -14 27.334 -42 104.001 -84l63 -104v-31l-136 -115c-62.667 -34.667 -128.667 -55.334 -198 -62.001l-32 -42c14 -7.33301 -3.33301 -56 -52 -146
l-21 -115v-85l31 -52h64l157 209v64l-42 83l11 41l40 -31h22l42 31v21l51 -84h12l10 42l31 -31v-52l-74 -114l-52 -157l-104 -84l-126 -52l-166 21c-34.667 20.667 -55.667 45 -63 73z" />
    <glyph glyph-name="nine" unicode="9" horiz-adv-x="856" 
d="M302 1170l105 -21l83 11l84 -52l83 -94l-42 -93c-20 -7.33301 -40.333 3 -61 31h-12l-10 -21v-22c62.667 -188 87 -323.667 73 -407l21 -42c28 -7.33301 42 -18 42 -32l-32 -30v-22l53 11l10 -42h22l-10 94l72 -230v-41l-42 -31l-11 -94l-31 -11l-72 84h-22l-21 -21
l-9 10h-22c0 -20.667 -17.333 -31 -52 -31v-52l-32 -21l-51 10c-28 21.333 -42 56.333 -42 105l11 83l41 52h32v63l-32 -10l-31 157l11 72v64h-22l-63 -21l-93 31c-56 48.667 -87.333 101 -94 157l10 30l-10 167l52 115l42 52zM448 1032l-48 -24l-64 -48l-32 -48l-32 -80
v-88l72 -32l64 56l32 56v104l40 64l24 32l-96 16v-24z" />
    <glyph glyph-name="colon" unicode=":" horiz-adv-x="600" 
d="M206 512c19.333 13.333 65.333 0.333984 138 -38.999c6 -32.667 -13.667 -65.334 -59 -98.001l-10 -49l-79 -59c-65.333 -6.66699 -104.333 16.333 -117 69c0 71.333 42.333 130 127 176zM245 1014l49 0.000976562l158 -108l-10 -39
c-59.333 -58.667 -105.333 -91.334 -138 -98.001l-19 -39l-50 -40l-68 10l10 235z" />
    <glyph glyph-name="question" unicode="?" horiz-adv-x="912" 
d="M240 992l112 72l224 8l168 -96l-120 -184l-96 -112v-160l-32 -160l-40 40l8 80l-56 168l40 160l40 72v80h-80l-72 -32l-64 -80l-8 72zM432 256l-32 -40l48 -104l88 80l8 64l-88 16z" />
    <glyph glyph-name="at" unicode="@" horiz-adv-x="1264" 
d="M561 1242l-19.0029 8.99805c6 32.667 25.667 49 59 49h38v-20h21l10 20l284 -79c26 0 65.333 -39.333 118 -118l-10 -19v-11h20l20 -98v-176l-40 -69v-30l-128 -187l-108 -69c-45.333 -6.66699 -77.666 3.33301 -96.999 30h-21l-49 -30l-88 10l-69 59l-29 138
c19.333 84.667 42.333 143.334 69 176.001c52 66 94.667 92.333 128 79c44.667 13.333 90 0 136 -40l-19 -58l-39 10h-40c-13.333 -39.333 -39.666 -68.666 -78.999 -87.999l-29 -99v-11l19 -78h31l29 39v98l10 40l20 10c64.667 6 100.334 -4 107.001 -30l-19 -107v-11
l9 -10h31l59 69l39 89v129c6.66699 26 -16.333 94.667 -69 206l-68 89l-79 20h-100l-88 -50l-9 10h-21l-79 -49h-8l98 127l49 20v11zM382.997 1063h9.99902l-49 -87l-50 -128l-19 -168l-40 -147v-149l168 -138h89l118 20l168 59l19 -10l-20 -48
c-59.333 -13.333 -108.666 -43 -147.999 -89l-79 -29h-146l-138 49c-52.667 32.667 -79 105 -79 217c-19.333 242 46 458 196 648zM413.996 1093l97.9971 117.998l49 20v11l-19 9c6 32.667 25.667 49 59 49h38v-20h21l10 20l284 -79c26 0 65.333 -39.333 118 -118l-10 -19
v-11h20l20 -98v-176l-40 -69v-30l-128 -187l-108 -69c-45.333 -6.66699 -77.666 3.33301 -96.999 30h-21l-49 -30l-88 10l-69 59l-29 138c19.333 84.667 42.333 143.334 69 176.001c52 66 94.667 92.333 128 79c44.667 13.333 90 0 136 -40l-19 -58l-39 10h-40
c-13.333 -39.333 -39.666 -68.666 -78.999 -87.999l-29 -99v-11l19 -78h31l29 39v98l10 40l20 10c64.667 6 100.334 -4 107.001 -30l-19 -107v-11l9 -10h31l59 69l39 89v129c6.66699 26 -16.333 94.667 -69 206l-68 89l-79 20h-100l-88 -50l-9 10h-21z" />
    <glyph glyph-name="A" unicode="A" horiz-adv-x="888" 
d="M448 856l-7.99902 -176.001l98 47l9 9v29l-43 283l-48 -80c35.333 -141.333 32.666 -178.666 -8.00098 -111.999zM321.001 1190l-19 0.00292969l19 122l38 47l56 38c-12.667 56.667 -9.33398 88 9.99902 94c49.333 0 99.333 -53.333 150 -160
c56.667 -144.667 88 -267.334 94 -368.001l28 -57l-9 -273v-29c18.667 -25.333 25 -66.333 19 -123l19 -37c6 -56 -3.66699 -100 -29 -132v-29l48 -38c6 -30.667 -0.333008 -46 -19 -46v-39l37 10c-6 -62.667 3.66699 -100.334 29 -113.001v-56l-28 9l-47 85
c-81.333 233.333 -116 368.666 -104 405.999l-37 66l9 28v10l-9 38h-30l-28 -29v-18l-94 -76l-76 -141c6.66699 -32 0.333984 -54.333 -18.999 -67v-123l29 -29v-55c-24.667 -6.66699 -49.667 12 -75 56l-19 340h-20l-18 -104l-19 -28v-47l-19 -28v-57l-47 -76l-38 -132
c-24.667 0 -37 28.333 -37 85l38 330l123 396l28 66l56 57l10 66v161z" />
    <glyph glyph-name="B" unicode="B" horiz-adv-x="784" 
d="M339 822v-20l9 -28h11l103 151v29l-47 19h-67l-9 -9v-96l19 -9zM301 548v-67l28 -85l29 -37h10l104 94l66 113v30l-19 9h-190zM132 1115l-28.001 132c-6.66699 74.667 -0.333984 112 18.999 112h36c63.333 -38 104.333 -113.333 123 -226l28 -29l170 -38
c56.667 -18.667 88.334 -53 95.001 -103c0 -62.667 -38 -147.334 -114 -254.001v-11c94.667 12.667 167.334 -3 218.001 -47v-121l-38 -104l-47 -76l-66 -56h-38l-38 -48c-38 6.66699 -66.333 -2.66602 -85 -27.999c-56 -12.667 -96.667 0 -122 38l10 65v39
c-31.333 0 -53.333 91 -66 273l-19 29l9 93v20c-18.667 25.333 -25 88.333 -19 189c0 18.667 -25 25 -75 19l-28 28l9 37l66 47v20z" />
    <glyph glyph-name="C" unicode="C" horiz-adv-x="632" 
d="M188 1085l226.001 -0.000976562c38 0 63.333 -12.333 76 -37v-65l-47 -10l-18 10h-58l-66 -48l-9 -94l-29 -57l-28 -9v-48l38 -47l56 -38c38 6 66.333 -0.333008 85 -19h48l85 47h37l-9 -37l-57 -56c-6 -19.333 -28 -29 -66 -29l-46 10l-38 -10l-28 19l-47 -9l-57 38h-66
c-50.667 44 -66.334 75.333 -47.001 94l-29 19l10 27v48l-19 19c12.667 24.667 12.667 49.667 0 75l19 56l-10 38c38 62.667 69.333 100.334 94 113.001z" />
    <glyph glyph-name="D" unicode="D" horiz-adv-x="712" 
d="M282 482v-20.001l10 -56h19l10 38l66 75c-12.667 62.667 -12.667 116.334 0 161.001v19l-9 19h-20c6 -31.333 -0.333008 -50 -19 -56l-28 103h-10l-19 -47c12.667 -88 12.667 -166.667 0 -236zM339 1067v-29c62.667 -75.333 91 -141.333 85 -198l-10 -112v-86h11
c0 50 12.333 87.667 37 113v58l-28 151l-66 85v18h-29zM131 1350h27.999l67 -76c94 -12.667 178.667 -37.667 254 -75l76 -57l28 -66l19 -10v-28l28 -28c-31.333 -37.333 -40.666 -62.333 -27.999 -75h-19v-20h19c0 -62 -15.667 -99.333 -47 -112v-48l28 -9v-28
c-25.333 -18.667 -38 -40.667 -38 -66l-47 -38l-38 -151l-56 -66l-85 -160l-38 -9c-24.667 6 -33.667 15.333 -27 28h-11l-9 -28l-56 18v47c0 18.667 12.667 28 38 28v29l-19 10c0 50 -12.667 87.667 -38 113l10 27v39l-19 19l9 112v11l-18 9v18l17 -10h11v30h-19l-19 85
l19 36v11l-28 56l9 37v30l-28 94v225z" />
    <glyph glyph-name="E" unicode="E" horiz-adv-x="696" 
d="M452 1255l47 -8.99902l57 -66l-10 -28c-31.333 12.667 -75.333 0.333984 -132 -36.999l-56 -48l-10 -28l-47 -28v-29l76 -114h10l66 57l85 38h65l-9 -47l-38 -28l-113 -179v-77l9 -9h48l66 28l56 -19l-142 -102l-85 -67l-75 -84l-103 18l-19 38
c-6 30.667 0.333008 46 19 46v67l-57 57l48 103h19v76h-11v-19l-46 104l9 28v48l-19 47c-31.333 -6 -50 0.333008 -56 19v46c50 25.333 78.333 53.666 85 84.999l66 9c12.667 25.333 53.667 53.666 123 84.999c31.333 -6 56 0.333008 74 19z" />
    <glyph glyph-name="F" unicode="F" horiz-adv-x="864" 
d="M631 1285v-11h20v11h-20zM386 1368l28 -9h67l10 19h28c18.667 31.333 40.667 50.333 66 57l37 -10h20l28 28l84 -9l38 -38l9 -38l-19 -55l-85 -19v-20l38 10l-94 -47h-37c6 24.667 15.333 34 28 28v10h-38l-76 -38l-18 10h-10l-19 -19v-58l47 -113h29l85 38
c106.667 18.667 160 -3.33301 160 -66v-56l-57 -9l-85 -57l-85 -94l-9 -85l-37 9l-9 57h-20c6 -38 -13 -53.667 -57 -47v-76l-38 -75v-57c-18.667 -6 -28 -40.667 -28 -104v-20c18.667 -6 28 -28 28 -66l-9 -84l-93 38l-48 142v131l19 47
c-12.667 31.333 -12.667 53.333 0 66l18 -57h11l18 76v20l-28 19c-6 -12.667 -28 -9.66699 -66 9l-66 -9l-28 28v37l37 37l85 29l66 47l29 57v48l-10 9h-10v-19l-27 151h-39l-47 -37l-94 9l-19 28l57 75l123 47z" />
    <glyph glyph-name="G" unicode="G" horiz-adv-x="936" 
d="M235 737v-39h20l9 95v29h-10zM310 586v-19.999l10 -9h20l9 9v20c-18.667 25.333 -25 53.666 -19 84.999h-10zM377 1246l83.9971 -10h11l9 19h47l75 -56c-6 -81.333 -15.333 -122 -28 -122c-43.333 6 -74.666 28 -93.999 66h-20c-18.667 -6 -28 -40.667 -28 -104l-28 -56
l-19 -10v-20h10l29 38l18 -9l-10 -47v-29h29l95 66l38 10l18 28l28 -19l170 -9l28 -38v-28l-47 -18c0 -25.333 -12.667 -38 -38 -38v-20h19l-10 -8v-30c12.667 6.66699 28.667 -15.333 48 -66c24.667 6.66699 40.334 -2.66602 47.001 -27.999v-75
c0 -24.667 -12.667 -40.334 -38 -47.001l-9 -38c-31.333 25.333 -62.666 38 -93.999 38h-20l-85 -28l-66 -76l-46 48c-6 30.667 3.66699 49 29 55l17 -9h11v20l-19 9l47 46v77l-9 56h-105l-76 -19c-18.667 0 -28 -25 -28 -75v-124l19 -19h94l19 -37l-9 -9v-20h19l-29 -46
l-75 -38h-27l-19 29h-11l-9 -38h-37l-47 38l-19 -10l-47 29c-38 24.667 -66.333 78 -85 160v75l28 28v66l28 75l19 133l38 66l-9 28l19 47l47 47l9 38z" />
    <glyph glyph-name="H" unicode="H" horiz-adv-x="936" 
d="M216 898v-20l10 -19h19v76h-19zM216 1123h9.99805l-10 -122v-10l10 -28h19v133l-9 47c-6 12.667 -15.333 12.667 -28 0l-10 198l-19 47c-6 37.333 0.333008 59 19 65l37 -9l47 -57c18.667 -6 28 -53 28 -141c32 -19.333 54.333 -66.666 67 -141.999l-10 -74v-105l28 -10
h39l10 19l17 -9h39l38 19v20l-19 19v84c-25.333 32 -38 114 -38 246l-37 28l-29 104v56c56 6 99.667 -3.66699 131 -29c50.667 -56.667 76 -91.334 76 -104.001l123 -113l-10 -8v-11l47 -236l-9 -168v-49l66 -217v-36h-27l-38 56h-11l-9 -160l-37 28h-10
c12.667 -31.333 -3 -53.333 -47 -66c12.667 -18.667 9.33398 -40.667 -9.99902 -66l10 -132l-19 -29c-56 25.333 -96.667 79 -122 161l19 103l19 28l-10 142c6.66699 24.667 16.334 37 29.001 37v49l-19 47h-20c-6 -25.333 -75.333 -38 -208 -38l-19 -28l10 -236
c6 -25.333 -0.333008 -38 -19 -38c-18 -6 -36.667 3.33301 -56 28c-24.667 56.667 -37 141.667 -37 255l-19 19l-95 19l29 65l66 38l19 37c-12.667 138.667 -10 230 8 274z" />
    <glyph glyph-name="I" unicode="I" horiz-adv-x="600" 
d="M198 784l-28 29c6 50 -0.333008 90.667 -19 122c12.667 12 12.667 71.667 0 179l19 37l37 -9l113 -274l85 -94l66 -132v-38l19 -19c-12.667 -68.667 -38 -99.667 -76 -93l-18 9h-10l-9 -38c-32 -6 -51 -24.667 -57 -56h-28v-39l37 -38l-37 -36
c-62.667 6 -109.667 53 -141 141l19 169l28 38l-9 66l9 38v38z" />
    <glyph glyph-name="J" unicode="J" horiz-adv-x="800" 
d="M518 643v-48h11l18 28v29l-9 38h-10zM537 530v-30h20l19 29v10l-10 47h-10zM565 596v-11h11v11h-11zM575 340h19v-28l-75 10zM565 454v-29.001h20c-6 24.667 0.333008 40.334 19 47.001v10h-29zM75 405.999l37.002 -10h30v58l-29 104l10 103l28 19h27l29 -38
c44 -88 66 -154 66 -198h20l85 103l9 76l28 66c-12.667 44 -12.667 75.333 0 94v96c-18.667 18.667 -25 53.334 -19 104.001l-75 84l-38 104v28l47 9l65 -9l104 -76l47 -85l95 -47c37.333 -50.667 65.666 -126.334 84.999 -227.001v-102l-29 -29l-28 -160l-28 -76l-66 -47
l-18 10h-29l-19 -29l-37 29h-20l-38 -48l-27 10h-10l-10 -19c-24.667 12.667 -49.334 12.667 -74.001 0l-57 19l-57 -10l-19 19l-18 -9c-19.333 25.333 -41.333 38 -66 38l-10 19z" />
    <glyph glyph-name="K" unicode="K" horiz-adv-x="880" 
d="M188 954v-67l9 -9h11l9 9v58l-9 9h-20zM603 840h9l-28 -46h-18zM641 878l-10 -28h-8zM131 1378c31.333 12.667 78.666 -15.668 141.999 -85.001l9 -38l66 -104l29 -198h29l19 38l85 38c56 6 96.333 -0.333008 121 -19l-66 -84v-11l19 -18l-9 -56l-28 19h-10l-9 -76
l-18 38h-20c18.667 -38 12.334 -66.333 -18.999 -85v-10l104 -66c31.333 12.667 75.333 9.33398 132 -9.99902l38 -38l75 -28l-47 -84l9 -66l-19 -19l-46 10l-66 47l-47 19h-113l-66 28l-10 28h-10l-28 -18l-66 28h-19l-10 -10v-57h19c6 -50 -0.333008 -75 -19 -75v-57
l47 -85l38 -29h38c6 -18 -3.33301 -36.333 -28 -55l-66 9l-9 29l-75 84c-38 69.333 -54 164 -48 284l-19 18l10 377l38 28v77l-10 38h-10l-10 -85l-27 151l-38 113z" />
    <glyph glyph-name="L" unicode="L" horiz-adv-x="824" 
d="M169 1302l74.999 -37.001c56.667 -107.333 88.334 -179.666 95.001 -216.999l38 -48l28 -9l-10 -37v-20l38 -47l-9 -84v-10l19 -10l-10 -93l10 -28c-24.667 0 -34 15.667 -28 47h-20l-9 -10v-19l19 -19l-10 -37h-27l10 56v10h-20v-19l-29 -19l-9 -47v-58h28v-37h11l47 47
l132 47c68.667 6 99.667 -16 93 -66l66 -28l-18 -65v-58h18l-94 -75l-103 10h-10l-10 -19l-121 19l-38 47l-19 -9l-19 9v28h-20l-9 -37c-50 0 -87.333 40.667 -112 122c-25.333 63.333 -38 154.666 -38 273.999c6 238.667 15.333 364.334 28 377.001l-9 113
c0 31.333 15.333 50 46 56z" />
    <glyph glyph-name="M" unicode="M" horiz-adv-x="1304" 
d="M178 633v-29h11l19 38v29l-10 19h-10zM217 1001l-38.001 38.0029c-12.667 62.667 15.666 97 84.999 103h37l113 -132l85 -28l57 -38l47 -38l47 -66h11c-6.66699 18.667 2.66602 62.667 27.999 132v95h-19c6.66699 68.667 25.667 122 57 160l65 -19l113 -104
c18.667 -12.667 25 -28.334 19 -47.001h20l9 19l9 -142l47 -47l28 10l38 -38c50 -56.667 78.333 -104 85 -142c18.667 -56.667 25 -116.334 19 -179.001l19 -47c12 -62.667 -0.666992 -97 -38 -103l9 -85l-8 9h-11l-9 -47v-29c6 -100.667 15.333 -151 28 -151l-9 -75l-46 19
l-85 95v37l-57 142v46l19 10v29h-19l-19 28l10 18v29c-12.667 63.333 -28.667 104.333 -48 123l10 27v11c-18.667 12.667 -28 37.667 -28 75l-48 29l-18 -10l-19 10l-29 56h-20l-18 -28l-9 9h-20l-9 -18v-11l19 -56v-18l-18 19h-11
c12.667 -44.667 0.333984 -76.334 -36.999 -95.001c-25.333 -25.333 -28.666 -53.666 -9.99902 -84.999l-19 -19l-85 -19l-28 -28l-9 -47l-48 -28l-46 56c12.667 125.333 28.334 188 47.001 188v58l-18 9l-29 85h-10c0 -50 -12.667 -78.333 -38 -85l-19 -57l10 -56h-29
l-28 -28c0 -44.667 -12.667 -79.334 -38 -104.001l-19 -180l-74 29l-28 85l9 253l19 38c0 69.333 15.667 176.333 47 321v29zM1207 378.003l19 -38c-18.667 -12 -28 -62 -28 -150l-18 47l19 65l-10 9z" />
    <glyph glyph-name="N" unicode="N" horiz-adv-x="944" 
d="M142 652l-28.998 10.001v27h19l19 28v11l-28 19v65l19 9v29l-19 66l19 169l28 95l38 28l74 -38c56.667 -88 78.667 -154 66 -198l29 -38l103 -75l57 -76h10l10 10v29l-19 19v74l19 19v20l-19 57l-19 9v56l47 66c37.333 6 59 -0.333008 65 -19l76 -170l-10 -18v-20
c69.333 32 126 -37 170 -207l-19 -27v-85l-75 -85c-12.667 -25.333 -12.667 -63.333 0 -114l-57 -9l-56 -57l-10 -56l-103 9c-24.667 38 -40.334 91.667 -47.001 161l10 27v48l-10 38l-66 66h-29l-19 -66l-38 -38l10 -226l-38 -29
c-106.667 31.333 -172.334 100.666 -197.001 207.999l9 8v20l-19 19c12.667 30.667 12.667 61.667 0 93l29 10v29z" />
    <glyph glyph-name="O" unicode="O" horiz-adv-x="808" 
d="M122 566l27.998 -66.001h10v20l-9 57l-38 28l10 37l8 -19h11l18 28v39h-37l9 93l28 76l57 85l57 56l56 19l75 -9v-46l-85 -95l-47 -141v-77l19 -9c0 -62.667 -12.667 -97 -38 -103v-10l19 -10v-47l37 -57h77l66 66l28 10v171l-37 122c-32 38 -66.667 63.333 -104 76
l47 27l27 -19h20v20h-19l10 84l159 -151c12.667 0 50.334 -88 113.001 -264c6.66699 -50 -2.66602 -84.333 -27.999 -103c-44 -6 -66 -25 -66 -57h-47l-47 -28l-18 10h-20c-12.667 -19.333 -75.667 -41.666 -189 -66.999c-30.667 6.66699 -61.667 29 -93 67l-29 -10l-56 104
z" />
    <glyph glyph-name="P" unicode="P" horiz-adv-x="888" 
d="M334 611v-138l88 -276h11v30l-49 207l-30 30l10 48v31l-19 68h-11zM452 936v-9.99902h20l-10 -59v-20h20c0 39.333 29.667 68.666 89 87.999v41l-79 10h-30zM246 1192l-20 39.999c-6 38.667 0.666992 64.667 20 78l98 -30l108 -128l226 -30l79 -49v-29l20 -20l10 10
l10 -49l-50 -98c-19.333 -26 -42.333 -39 -69 -39l-88 -99h-20l-128 -98v-31c46 -183.333 65.667 -327.666 59 -432.999h11l30 79l28 -49l-10 -29v-21c20 0 30 -13 30 -39c6.66699 -64.667 -16.333 -103.667 -69 -117l-78 59c-78.667 196.667 -131 383.667 -157 561l-50 59
l50 68l-10 79l10 79v30l-20 40h-31l-59 -20c-52 -6.66699 -78 3 -78 29l20 49c39.333 39.333 82 65.333 128 78v70z" />
    <glyph glyph-name="Q" unicode="Q" horiz-adv-x="960" 
d="M235 828v-30l40 -69l108 -79h31l9 10v11c-32.667 0 -55.667 16.333 -69 49h-29l-10 29l-49 40l-10 39h-21zM216 1035v-159h20l10 10v11l-20 10l10 28l50 20c51.333 6.66699 87 0 107 -20l39 10l30 -19h20v20l-49 89l-59 49l-49 69h-40zM108 1123l-28.999 -8.99902l-10 9
c26 104.667 81.667 167 167 187h108l69 -69l-10 -19v-40l10 -10h10l10 19l68 -49l40 10l88 -89c39.333 20 69 0.333008 89 -59h39l20 -19l20 -79h10l10 20l29 -20v-88l-40 -108l-19 -10v-40l49 -40l59 -187l-10 -28h-58l-167 108l-109 49l-19 -10l-20 10h-21l-10 -19
l-59 -10h-97l-99 59l-59 59c-32.667 39.333 -42.334 65.666 -29.001 78.999l-30 19l-29 59l10 29v21l-20 78l39 167v20z" />
    <glyph glyph-name="R" unicode="R" horiz-adv-x="1024" 
d="M314 1123l-0.000976562 -20c32.667 0 52.334 -39.333 59.001 -118l30 -30h11v20c26 19.333 39 42.333 39 69l20 10v60l-79 19h-70zM618.999 680v-10l79 -60h40l20 10v21l-88 39h-51zM136.999 1300l69.0029 0.000976562l39 -50c151.333 -12.667 240 -12.667 266 0
c13.333 -26 39.666 -39 78.999 -39l49 -89l-23 -106l-46 -70l10 -10l-39 -78v-30l-19 30h-21l-10 -50l-9 10h-10l-10 -10v-30h19l40 -40h30l20 20c45.333 13.333 100.666 -3 165.999 -49l109 10l69 -49l59 -128l-10 -19l-117 10c-66 6.66699 -118.667 29.667 -158 69
l-49 -10l-69 39c-32.667 -13.333 -52.334 -13.333 -59.001 0h-40l-10 -69l-20 -10l10 -137l-19 39h-20l-10 -30l-29 30v138l-29 29h-11l10 -147l-20 -40c13.333 -26 13.333 -42.333 0 -49v-21l20 -10l19 -88l-39 -68l-68 29c-39.333 85.333 -52.333 157.666 -39 216.999
l-20 30l20 28v70l-20 108l-49 69c12.667 38.667 12.667 64.667 0 78l29 59l-10 30l10 19v41l-19 10l-20 69l-59 9c-13.333 26 3 62 49 108c-13.333 39.333 -10.333 82 9 128z" />
    <glyph glyph-name="S" unicode="S" horiz-adv-x="960" 
d="M206 571l19 -10v-28l-38 10zM225 640l30 -20v-38h-29l-19 29zM285 581h29l-10 -58l-38 10zM186 1250l20 -9h20l10 19l50 20c143.333 0 218.333 -13 225 -39l-39 -49v-19l-69 -20l-50 -59v-11c13.333 -26 30 -39 50 -39v-29l-40 -39v-21l69 -29
c32.667 12.667 91.667 -0.666016 177 -39.999l50 10l49 -39l20 9l39 -39l20 10l59 -99c6.66699 -32 -3.33301 -87.333 -30 -166l-39 -69l-79 -39c-45.333 -6.66699 -74.666 -0.333984 -87.999 18.999l20 39l128 88v31h-21l-19 -20l-29 20h-30l-20 -30l-48 10h-21l-20 -49
h-88l-79 -39h-48c-6.66699 32 -0.333984 51.333 18.999 58l-9 29l147 109l20 49v30h-59c-20 20 -43 26.667 -69 20l-49 39l-20 -9l-39 19l-59 -10l-30 30h-20l-49 89l10 215z" />
    <glyph glyph-name="T" unicode="T" horiz-adv-x="1072" 
d="M353 1034l50 -10l-40 -38l-28 19zM432 1290l69 -20l40 10l39 -20h11l10 20c32 -13.333 87.333 -13.333 166 0l128 -39l65 -25l-26 -83l-295 -39v-80c26 0 55.667 -55.667 89 -167v-226l-20 -39c-25.333 13.333 -35 52.666 -29 117.999h-10l-20 -29v-41l29 -29l-9 -177
l-30 -49v-29l-78 69l-79 236c-6 32 0.666992 48 20 48v149l-20 10l-19 128c-6.66699 12.667 -16.667 12.667 -30 0l-29 78l-40 -9l-10 9h-20c-59.333 -39.333 -105.333 -55.666 -138 -48.999c-52 -6.66699 -78 0 -78 20l20 58l69 20l79 59l98 29l10 49z" />
    <glyph glyph-name="U" unicode="U" horiz-adv-x="904" 
d="M166 1191l40.001 -0.000976562c32.667 -6 55.667 -25.667 69 -59h19c85.333 -118 121.666 -186.667 108.999 -206h11l9 9v11l-39 69l10 29v11l-20 19l-10 79l10 117c20 39.333 53 69 99 89l28 -20l-49 -78v-20c26 -39.333 39 -92 39 -158l40 -10l10 -19l-10 -9v-41
l29 -19l-10 -29v-11l10 -79l40 -68c-6.66699 -40 3 -82.667 29 -128h11v89l-49 89l19 18v21l-19 10l19 38v11l-39 40v48h29l49 -108h30v49l39 -20l66 -147l-7 -177l-89 -167l-49 -49h-29l60 67v31h-21l-30 -39l-48 19l-187 -10l-69 40v29l-20 20l-9 -10l-50 79v49
c-32.667 46 -68.667 187.333 -108 424c-6.66699 38.667 6 64.334 38 77.001z" />
    <glyph glyph-name="V" unicode="V" 
d="M570 848v-11h31l9 10v40h-10c-6.66699 -26 -16.667 -39 -30 -39zM698 719h20l-30 -108h-9zM117 1191c13.333 6.66699 39.667 -2.99902 79 -28.999l266 -246h30l20 78l39 60v49l40 118l39 39c45.333 6.66699 74.666 -3 87.999 -29l-20 -48v-21l30 -69
c-13.333 -45.333 -13.333 -78 0 -98l-30 -29c0 -59.333 -13 -95.333 -39 -108l10 -40l-9 10h-21c13.333 -32.667 13.333 -52.334 0 -59.001l-9 20h-11l-39 -59l-10 -59v-70l30 -50v-28l-79 -59l-20 -89c-19.333 0 -29 -16.333 -29 -49h-39l-29 39
c-33.333 33.333 -43.333 122 -30 266l-29 40v39l-69 79l-30 59l-29 29l-20 -10l-20 20l-98 227c6.66699 51.333 19.334 77 38.001 77z" />
    <glyph glyph-name="W" unicode="W" horiz-adv-x="1376" 
d="M186 1063c32.667 20 134.333 -65.332 305 -255.999h21c-6.66699 144.667 13 223.667 59 237l186 -79l99 -89l19 -78h31l39 167l30 29l-10 10l10 187l39 79c52 6.66699 87.667 -3 107 -29l119 -237v-146l-20 -128l-30 -40v-49l-29 -79l-19 20l30 166v21h-21v-30l-29 10
h-20l-20 -98l-29 -20v-40l39 -20l39 -49l-29 -29v-11l39 -19v-29l-59 -49l-79 -20l-107 89l-59 20l-10 19h-21l-19 -59l-59 -39l-9 69h-21l-49 -49v-30l-89 -158l10 -9l-10 -30c-52 -6.66699 -78 0 -78 20c-45.333 72 -65 134.333 -59 187
c-46 65.333 -118 196.666 -216 393.999l-59 167l10 98z" />
    <glyph glyph-name="X" unicode="X" 
d="M157 1241l77.999 -40.001h30l59 -59l89 -29l19 -30h21v20l108 157l89 69l87 -29l-9 -78c-13.333 13.333 -37.333 -2 -72 -46l-86 -200v-50l30 -79l-10 -19v-11l39 -39l-10 -9v-11l20 -79l30 -29l29 -89l-10 -48v-60l30 -30l-10 -18l-9 10h-21l-29 -20l-127 49l-49 39
c-20 0 -26.667 29.667 -20 89l-10 10l-29 -10l-20 20h-31l-10 -30l-78 -49l-10 -20l10 -19c-39.333 -13.333 -52.666 -39.666 -39.999 -78.999l-68 20l-29 49l49 166l20 30c32.667 0 55.667 13 69 39l59 138v21l-30 9l20 19v21l-49 39l-20 40l-79 49
c-46 65.333 -69 108 -69 128c0 52 16.333 78 49 78z" />
    <glyph glyph-name="Y" unicode="Y" horiz-adv-x="992" 
d="M649 641v-11l10 -20h11l9 10v41h-10zM147 1152h69.002l39 -39l128 -40l69 -39c26 -13.333 65.333 -69.333 118 -168l-10 -18v-21l30 -20c-6.66699 -26 -0.333984 -42.333 18.999 -49l-19 -28v-21c19.333 -13.333 25.666 -29.666 18.999 -48.999h21l40 108v39l98 207v21
h-11l-39 -49h-19l49 77v51l-10 9h-10c0 -32.667 -13.333 -55.334 -40 -68.001h-9l30 67v11h-21l-29 -49h-9l39 127v40h-19l29 68l69 50l78 -20c6.66699 -52 0 -87.667 -20 -107v-21h11l10 20l33 -113l-34 -270l-79 -109l-10 -88c-32.667 -20 -52.334 -43 -59.001 -69l-28 10
h-21v-40l-30 -10l10 -29l-29 -10c6 -13.333 -17 -43 -69 -89l-89 -167l-10 -89l-39 -59l10 -10l-20 -98l-29 10c-6 52 4 87.667 30 107v50c-39.333 26.667 -65.666 69.334 -78.999 128.001l20 39l-10 39c26 6.66699 39 39.667 39 99v60l-19 10l29 136v90l-19 10l-40 69h-20
v-20l-29 10c6.66699 25.333 16.667 34.666 30 27.999v21c-20 6.66699 -26.667 16.667 -20 30h-21l-20 -40l-48 89l-79 79l10 28v11l-19 10z" />
    <glyph glyph-name="Z" unicode="Z" horiz-adv-x="1016" 
d="M137 374l20 -39v-39l-39 30zM245 305l10 -49v-19l-38 20zM216 464v-21c19.333 6.66699 29 -3 29 -29h11l10 9v41l-10 10h-21zM413 680v-10l19 -20h11l39 39v21h-10l-10 -20zM875 975v-48l-19 -10h-39v38c26.667 -6.66699 46 0 58 20zM325 887l-117.998 40l-40 -10l-29 10
l-30 39c0 38.667 13.333 64.667 40 78l256 49l39 20l48 -10h41l10 19l128 50c51.333 0 103.333 -16.667 156 -50l39 -78v-39l-88 -49v-11l20 -10l-60 -18l-88 -50c-66 -65.333 -92.333 -104.666 -79 -117.999l-89 -78v-21h31l59 59l48 -30l69 -19l30 -40h11v40
c52 -6.66699 78 -0.333984 78 18.999l39 -9l69 -69l-10 -19v-40l29 -10l-9 -29l-50 -20v-10l40 9c-6.66699 -25.333 -43 -38 -109 -38l-118 -59l-69 -69l-78 -29l-99 -89l-78 49l10 29v50l-10 20h-30l-20 -79c-12.667 13.333 -25.334 13.333 -38.001 0l-20 69l-20 19l-10 -9
v28h20v41h-21l-39 -79l-38 69l10 87l49 99l39 29v21h-11c-58.667 -65.333 -91.334 -118 -98.001 -158l-29 10l50 127l167 256v11z" />
    <glyph glyph-name="a" unicode="a" 
d="M432 720v-41l10 -9h40l30 19v21c-20 -6.66699 -30 0 -30 20h-40zM432 1221l69 -0.000976562l107 -53c53.333 -43.333 90 -153.666 110 -330.999c12.667 -26 29 -29.333 49 -10c20 0 30 -13 30 -39v-29l-50 -39l-19 -99l-109 -49l-49 -59
c-19.333 6.66699 -42.333 -3.33301 -69 -30l-97 10l-69 30l-20 20l-39 157l10 58l49 69l215 -39h41l29 10v60c-6.66699 19.333 -42.667 65 -108 137h-60l-148 -59l-118 -118l-49 -79l-48 20c-6.66699 71.333 3 113.666 29 126.999v31l-39 39l39 117l59 59
c78.667 52.667 163.667 82.334 255 89.001z" />
    <glyph glyph-name="b" unicode="b" horiz-adv-x="816" 
d="M324 720v-80l10 -10h11l79 58l58 100v60l-29 19h-60l-40 -49zM147 1319c26 13.333 68.667 -12.6689 128 -78.002c32.667 -33.333 52.334 -82.666 59.001 -147.999l-10 -48v-21l20 -30c104.667 13.333 186.667 13.333 246 0l19 -29h20c20 -39.333 53 -65.666 99 -78.999
l49 -138l-20 -48h-28l-10 69h-21v-31l20 -39l-40 -147l-59 -49l-59 -10l-97 10h-31l-88 -20l-68 30l-10 20h-21l-39 -20c-32 -6.66699 -51.333 3.33301 -58 30l-10 206l20 167v178c-6.66699 85.333 -26.667 131.333 -60 138c-12.667 45.333 3.66602 74.333 48.999 87z" />
    <glyph glyph-name="c" unicode="c" horiz-adv-x="808" 
d="M285 1044c85.333 -6.66699 173.666 -29.667 264.999 -69c-32.667 -26 -42.667 -47 -30 -63l-47 -15l-10 20h-31c0 -20 -16.333 -30 -49 -30l-49 -69v-89l39 -40h21l88 30l188 98h18l-19 -28v-21l39 -20l-20 -38c13.333 -20 10 -43 -10 -69l10 -30l-19 -19h-69
c-39.333 0 -65.666 -13.333 -78.999 -40l-108 -19l-59 19l-49 -9l-108 78c-72 85.333 -105 157.666 -99 216.999v58l10 30l50 39v29c0 26.667 42.333 43.334 127 50.001z" />
    <glyph glyph-name="d" unicode="d" horiz-adv-x="880" 
d="M285 848v-21c6 -59.333 15.667 -92 29 -98h40l50 29l59 59l10 30v148h-21l-10 -19l-68 29h-30l-30 -39v-79zM521 1005v-60l10 -10h11l9 20v50l-9 20h-11zM619 936v-20h21l20 19v41h-21zM619 1084v-80h31l29 69v31l-9 10h-11l-10 -59l-19 29h-11zM166 1073l30 -9.99902h40
l30 30l19 -10l128 10l59 -20l9 -19h11l10 19v100l-29 10l9 28v40l-29 89v89l-69 236l30 29c58 6 100.333 -0.666992 127 -20l59 -99l59 -39l39 -108l39 -59v-119c26.667 -12.667 40 -29 40 -49l-20 -107v-11l20 -20v-77l-30 -30l-29 -108l-19 49
c-6.66699 45.333 0 74.666 20 87.999v89l-10 10h-11v-89l-29 -88v-60l9 -40h21l10 20h28v-28c-45.333 -6.66699 -68 -16.667 -68 -30l-30 -98v-31l20 -20l19 -108l30 -30l-20 -8v-31l20 -10l-10 -28l-68 10l-20 29h-19c-52.667 46 -92 108.333 -118 187h-11l-59 -29l-29 9
h-11l-19 -19c-137.333 0 -219.333 69 -246 207l10 176z" />
    <glyph glyph-name="e" unicode="e" horiz-adv-x="784" 
d="M608 1016l16.001 -47.998l-32 -8l-56 -40c-74.667 -10.667 -102 -24.334 -82 -41.001l-78 -23l-37 -102l42 -45h22l95 34l199 110h19l-20 -31v-24l41 -22l-21 -43c14 -22.667 11 -48.667 -9 -78l9 -34l-20 -21h-73c-42 0 -70.333 -15 -85 -45l-115 -22l-61 22l-54 -10
l-115 88c-76 96 -110.667 177.333 -104 244v65l10 34l-19 56l32 88c277.333 165.333 442.666 130.666 495.999 -104.001zM480.001 1016c-149.333 106.667 -221.333 85.334 -216 -63.999c186.667 -10.667 258.667 10.666 216 63.999z" />
    <glyph glyph-name="f" unicode="f" horiz-adv-x="824" 
d="M472 1152c26 0 42.333 -26.333 49 -79v-9h-48l-10 50zM108 808l-19 0.00195312c-6.66699 19.333 16.333 38.666 69 57.999l18 -9h41l49 39c13.333 6.66699 13.333 16.667 0 30l20 19v41l-30 19v99l-30 138l10 186l19 -50h11l39 20v11h-19l9 19
c104.667 0 157 -13.333 157 -40l10 10l49 -10l59 -29l20 -49l49 -50l-20 -48c13.333 -32.667 13.333 -52.334 0 -59.001l-166 128h-40v-60l19 -158l20 -19l108 -10l49 -20l69 -39l20 -49l-10 -49h-29l-79 -49l-20 -29l-49 -20v-50l59 -69l-10 -9v-21l40 -49l-20 -58l-20 -10
l-58 20l-98 98c-46 46 -65.667 79 -59 99h-31l-29 -20c-104.667 0 -170 16.333 -196 49l19 29v20zM826 49.002v-28h-9z" />
    <glyph glyph-name="g" unicode="g" horiz-adv-x="744" 
d="M432 287v-31h11c6.66699 20 16.667 26.667 30 20v30h-31zM285 976v-79.999l9 -10h21l20 128h18l-9 -58v-30l9 -20h41l20 20v30l-40 89v58c46 -6.66699 79 -0.333984 99 18.999v11l-40 10h-60l-10 -39l-39 -40l-20 -78zM491 395.001v-100.001h21
c-13.333 26.667 3 69.334 49 128.001v21l-29 10h-11zM659 423h10l-20 -58h-9zM669 522h9l-9 -58h-19zM373 1231l108 -10.001l79 -39l-10 -108l-29 -10v-30l79 -148l49 -29v-29h-30v-60l20 -30h20l39 -98l-29 -88l-29 128h-21l10 -147l-10 -89l-29 -49l-10 -69l-89 -79
l-59 -98l-49 -30v-39c-39.333 -13.333 -69 -39.666 -89 -78.999l-28 30h-20v19h-60l-20 -29h-8l39 97l9 -10h11l49 40l49 78l108 434v60l-9 10h-51l-19 -20h-58c0 19.333 -29.667 29 -89 29l-69 69l10 29v11l-20 19l-20 69c13.333 45.333 13.333 91 0 137
c13.333 59.333 30 92.333 50 99v29z" />
    <glyph glyph-name="h" unicode="h" horiz-adv-x="1000" 
d="M314 858l-10 -20v-60l20 -10l39 -148h11v51l-20 19l10 29v20l-39 119h-11zM304 838v-60l20 -10l39 -148h11v51l-20 19l10 29v20l-39 119h-11zM462 749v-50l10 -29h10v89h-10zM491 651v-11h11v11h-11zM127 1497c20 6 55.999 -4 107.999 -30
c46 -26 82.333 -81.667 109 -167l19 10l20 -10l-10 -19v-21c6.66699 -32.667 26.334 -39 59.001 -19c39.333 -39.333 55.666 -69 48.999 -89l-9 -29l9 -59l-19 -59v-11l39 -19h21l39 19l78 -19h11v19h68l98 -68v-20l69 -49l20 -79l39 -59l-29 -58v-21h19l-29 -48l-89 -30
l-18 10l9 38v11h-30v-39l-40 -59l-77 10c-26.667 32.667 -40 104.667 -40 216l-39 99h-50c-20 -20 -26.667 -92.333 -20 -217c-13.333 -32.667 -29.666 -52.334 -48.999 -59.001v-20l-59 -19h-49l-29 59l-10 79l-39 68c0 52.667 -13.333 95.334 -40 128.001l-69 384l-59 168
z" />
    <glyph glyph-name="i" unicode="i" horiz-adv-x="472" 
d="M294 858v-31l10 -49h11v80h-21zM127 1132l98 -29l79 -71v-77l30 -20v-49l39 -20c20 -58 -3 -100.333 -69 -127v-99l40 -30l-30 -58c-32 0 -74.333 29.667 -127 89c-39.333 59.333 -69 200.333 -89 423z" />
    <glyph glyph-name="j" unicode="j" horiz-adv-x="784" 
d="M107 551l20 -49l-10 -58l-48 39c-6.66699 39.333 6 62 38 68zM147 532l39 -20.001h21l177 79l79 79l19 39l20 138v40l-29 69v69l-20 30v77l20 20h48l128 -167l29 -128l30 -40l10 -157v-68l-79 -89l-10 -29l-59 -40l-19 10h-30l-89 -69h-48v30h-11l-49 -30l-38 10l29 19
c13.333 6.66699 13.333 16.334 0 29.001l39 49v11l-9 10h-31v-20l-39 -19v-21l19 -10l-29 -38h-29l10 9v50l-88 20l-20 29z" />
    <glyph glyph-name="k" unicode="k" horiz-adv-x="976" 
d="M225 1025v-50h11l59 59v40l-19 20h-21zM177 986h-29l10 77v31l-20 246c13.333 78 13.333 130.333 0 157l49 39c71.333 -46 117 -118.333 137 -217l-10 -8v-51h11v20c12.667 -46 35.334 -69 68.001 -69l20 -69h20c151.333 118 253 174 305 168l59 -10v-29l-69 -69l-16 -50
l-181 -137v-50h11l19 20h9c13.333 -19.333 -3 -48.666 -49 -87.999v-50l197 -59l79 -40l39 -118c32.667 -26 55.667 -65.333 69 -118h20l-10 -19h-39l-78 50l-30 -10l-217 98l-78 10l-40 30h-30c-33.333 -13.333 -43.333 -30 -30 -50l-19 20h-30
c-13.333 -32.667 -13.333 -55.667 0 -69l-49 -69v-39l-59 -40c-38.667 13.333 -61.334 39.666 -68.001 78.999l10 9v31l-20 59l-40 39l10 58l50 59c-13.333 72 -13.333 131 0 177l19 20v31z" />
    <glyph glyph-name="l" unicode="l" horiz-adv-x="648" 
d="M147 1487l59 -20c72 -59.333 126 -127 162 -203l104 -53l-40 -9v-30l10 -10h21v20l38 -50c26.667 6.66699 43 -3 49 -29c-12.667 -26 -12.667 -75 0 -147l-49 -98l-49 -50l-49 -108l-50 -138l10 -79l-29 -29l-48 10l-30 59c-32.667 124.667 -42.667 200 -30 226l-19 50
l10 146l8 -10h11l10 30v30c-19.333 0 -29 39.667 -29 119h-11l-10 -69l-38 19l9 49v79l-29 40l-40 177c0 52 16.333 78 49 78z" />
    <glyph glyph-name="m" unicode="m" horiz-adv-x="1144" 
d="M432 689l30 -49c-13.333 -38.667 -13.333 -77.667 0 -117l-29 49l-19 10zM413 1083l48.998 -9.99805h109c20 20 43 26.667 69 20l20 20l48 -10h40l30 19l38 -19l49 10l40 -30h118l59 -98l-10 -58l-28 9h-21l10 -39c-39.333 -52.667 -65.666 -131.334 -78.999 -236.001
c-13.333 -26.667 -29.666 -40 -48.999 -40c0 -46 -13.333 -82 -40 -108c-90.667 32.667 -139.334 108 -146.001 226l10 78v60l-20 59h-11l-108 -29c12.667 -144.667 9.33398 -223.334 -9.99902 -236.001v-139l39 -50l-10 -28h-38l-49 69
c-26.667 39.333 -43 170.666 -49 393.999l-30 49h-40l-69 -30v-20l88 -158l-19 -87l-20 -30l-98 -59l-10 -30l10 -29l-30 -20l-68 69c-19.333 6.66699 -29 65.667 -29 177c-46 6.66699 -69 26.334 -69 59.001l9 49l30 59l20 10c12.667 6 12.667 28.667 0 68l29 30
c98.667 32.667 161 42.667 187 30z" />
    <glyph glyph-name="n" unicode="n" horiz-adv-x="1048" 
d="M186 1221c59.333 -13.333 95.332 -29.665 107.999 -48.998l148 -40l39 10l79 -39l20 10l29 -20l183 -37c101.333 -67.333 152 -133.666 152 -198.999v-29l-39 -10v-50l20 -30l-10 -58l-19 10h-11l-29 -19l-19 29h-21l-88 -79l-59 -78l-59 39
c-19.333 59.333 -25.666 121.666 -18.999 186.999l-40 108h-10c-13.333 -104.667 -30 -173.334 -50 -206.001l-69 -50l-29 -59l-39 40h-10l-10 -128l-20 -30c-91.333 13.333 -140.333 79 -147 197c-6 45.333 4 74.666 30 87.999v50l-10 157l-39 197
c-6.66699 58.667 6 88 38 88z" />
    <glyph glyph-name="o" unicode="o" horiz-adv-x="696" 
d="M265 828v-21l49 -88h40l40 29v21l-59 128h-21l-29 -59zM432 887v-11l10 -10h31v41h-31zM176 1093l88.999 -29.999l118 10l79 -39c32.667 -39.333 55.667 -95.333 69 -168l19 -19l30 10v-20l49 -59l-10 -58l-49 -59l-10 -40l-28 40h-11l-10 -69l-69 -49h-88l-59 19l-19 30
h-20l-39 49h-20c-39.333 59.333 -65.666 131.666 -78.999 216.999v176z" />
    <glyph glyph-name="p" unicode="p" horiz-adv-x="904" 
d="M353 867v-10h31l79 108v21l-20 9h-30l-60 -68l10 -50zM88 778l29 -19.998h31l19 40l-9 29l19 99l59 196l49 -9h40l20 29c32 6.66699 48 0 48 -20h60l10 20l137 -20l32 -18l135 -50c20 -6.66699 43 -39.667 69 -99v-58l-79 -197c-58 0 -90.333 16.333 -97 49h-11l-30 -59
c-65.333 -58.667 -108 -78.334 -128 -59.001l-19 -39l-19 39h-31l-59 -29v-30l-39 -39l-20 -79v-90c20 -12.667 26.667 -55.334 20 -128.001l20 -29l-40 -29l-18 10l-30 -10l-59 99l-39 206l9 9v139l-49 30l20 18v41l-49 -10v39h-20z" />
    <glyph glyph-name="q" unicode="q" horiz-adv-x="1136" 
d="M383 897v-80.001c0 -39.333 26.333 -65.666 79 -78.999h11l108 69v277l-20 30h-20l-50 -89zM137 462.999l0.00195312 -10h21l19 20l335 59l30 19v70l-40 10h-21l-9 -20c-111.333 -26 -183.333 39.667 -216 197c-6.66699 183.333 55.666 324.333 186.999 423
c78 6.66699 117 0 117 -20h31c-13.333 46 3 69 49 69l48 -10l79 -69l49 -81c-6.66699 -116 -3.33398 -177.333 9.99902 -184l-29 -167v-89l-20 -19v-41l10 -10h30l10 20l58 -20l20 10l108 -19l59 -40l-19 -87c-40 12.667 -132 -30 -276 -128l-29 9h-11v-19l-59 -40v-50h30
l-20 -38v-11l20 -79v-58l-68 10l-69 138l10 9v20l-30 59l-29 -9c-112 6 -171 15.667 -177 29l-30 -10l-29 20l-138 -10l-30 10l-39 49v29z" />
    <glyph glyph-name="r" unicode="r" horiz-adv-x="688" 
d="M157 1182h67.999l60 -50l49 -10h30c6.66699 20 29.667 30 69 30c19.333 -20 52 -26.667 98 -20l59 -78l10 -50l-10 -38v-21l19 -98v-29l-28 10l-59 118l-40 30h-20v-60c32.667 -26.667 52.334 -79.334 59.001 -158.001c-13.333 -18.667 -13.333 -38 0 -58l-40 -59v-39
l-28 19h-21v-49l-28 10h-11v-59l-30 -59l-29 -20c-78 39.333 -127 52.333 -147 39l-10 79l10 39v60l-20 29c-6 38.667 4 61.334 30 68.001v90l-30 19l-29 69z" />
    <glyph glyph-name="s" unicode="s" horiz-adv-x="688" 
d="M88 591l49 -10l-10 -19h-48zM97 670h20v-30h20l-49 -29h-9zM206 1162l98 -30h79c59.333 -19.333 95.333 -42.333 108 -69v-58l-39 -39l-39 -10l-29 10h-70l-39 -30v-20l167 -138l49 -10v-20l50 -39l9 10c20 0 26.667 -29.667 20 -89l20 -20l-20 -87l-98 -49l-39 19
l-59 -10l-10 40h-59l-19 29l-128 30l39 78l98 39v21l-39 39l-39 10c-13.333 26 -30 39 -50 39l-69 89l10 186c0 26 26.333 42.333 79 49z" />
    <glyph glyph-name="t" unicode="t" horiz-adv-x="880" 
d="M479 833v-44l11 -10h22v97h-22zM117 1004l-21 21v31l171 32v108l-43 234c-7.33301 92 -0.333008 138 21 138l31 -11l22 11l128 -128c28 -42.667 42 -117.334 42 -224.001l32 -32l139 -11l85 -42l64 -11l32 -32l-10 -31l-139 -43l-107 -74v-55l64 -202l43 -43h33v64
c34.667 7.33301 55.667 -17.667 63 -75l-11 -63l-53 -74c-49.333 -14.667 -109.333 3 -180 53l-32 64l-86 85l-32 118l-42 64l-54 32h-33l-42 -22c-14 28.667 -38.667 32.334 -74 11.001l-43 32c7.33301 34.667 18 52 32 52v23z" />
    <glyph glyph-name="u" unicode="u" horiz-adv-x="768" 
d="M0 1120l52 -32l-32 -42h-20v74zM159 1216c35.333 7.33301 85 -17.667 149 -75c36 -49.333 61 -188 75 -416l85 -96h55v55c-28.667 64 -60.667 199 -96 405v138l42 85h31l-10 -20v-33l21 -43l-11 -31v-86l43 -160c42.667 -42.667 89 -117.334 139 -224.001l-11 -53l11 -32
l-64 -96l-128 -42c-191.333 56.667 -312 259.334 -362 608.001v95z" />
    <glyph glyph-name="v" unicode="v" horiz-adv-x="856" 
d="M138 1227l95.999 -11l64 -53c56.667 -92.667 99.334 -188.667 128.001 -288h22l11 106c42.667 85.333 56.667 156.666 42 213.999l22 32c42 -14.667 55.667 -32.667 41 -54h12l32 150l85 96h21l-11 -53v-22l11 -85l32 -22l10 -170v-63l-21 -43l-53 -267
c14 -64 14 -103 0 -117v-33l21 -21c21.333 -56.667 0 -85 -64 -85h-63l-53 32c-57.333 78.667 -118 142.667 -182 192c-6.66699 36 -42 86 -106 150l-64 128l-64 192c-7.33301 48.667 3 80.334 31 95.001z" />
    <glyph glyph-name="w" unicode="w" horiz-adv-x="1120" 
d="M127 1099c21.333 14 57.001 -4 107.001 -54c106.667 -142 160 -227.333 160 -256h11l75 160l75 32c77.333 21.333 112.333 0 105 -64c-6.66699 -34.667 -17.334 -52 -32.001 -52v-44c50 0 85.667 -17.667 107 -53h22c28.667 135.333 43 274 43 416l11 21l74 22
c42 14 95 -28.667 159 -128l-10 -117l-11 -42l-32 -32v-12l21 -11l-21 -41l-21 -182c-28 14.667 -38.333 32.667 -31 54h-12l-21 -107v-33l10 -11h12v75l31 -43c14 -27.333 -3.66699 -98 -53 -212c6.66699 -56.667 -4 -99.334 -32 -128.001l10 -53l-32 -32
c-84.667 42.667 -137.667 117.334 -159 224.001l-32 32v21l-42 43h-22l-42 53h-23l11 -64l-32 -21c-21.333 -78.667 -46.333 -132 -75 -160v-64l-21 -22l-52 11l-43 43l-21 149c-36 42.667 -75.333 131.667 -118 267l-10 96l-64 192z" />
    <glyph glyph-name="x" unicode="x" horiz-adv-x="888" 
d="M618 854v-22c21.333 0 32 -14.333 32 -43h22l11 54v33h-33zM127 1227l53.002 -22.002l64 11c7.33301 -21.333 60.666 -32 159.999 -32l75 -64h33c-7.33301 14 17.667 42.333 75 85c34.667 -28 109 -42 223 -42l-43 -85c-14 -85.333 -31.667 -145.666 -53 -180.999
c14 -50 14 -85.667 0 -107l-32 -32v-43l74 -171l-10 -10v-65l64 -64l-22 -31l-127 43l-192 139l-21 32h-54l-11 -32c-28.667 -7.33301 -71.334 -46.666 -128.001 -117.999l-32 -117c-49.333 -14 -81 3.66699 -95 53l11 127l32 64c56.667 36 85 75.333 85 118l43 32l-11 21
l11 21v23l-22 21l22 20v44l-54 32l11 20v23l-32 10l-21 54l-96 128l21 41z" />
    <glyph glyph-name="y" unicode="y" horiz-adv-x="904" 
d="M596 684v-23l11 -10h12l21 74l-11 22l22 21v33h-12zM159 1109l95.999 0.000976562c142 -70.667 213 -113.334 213 -128.001h12l21 54l-10 64l106 202l138 -32l64 -42l-43 -21v-43l32 -86l-10 -31v-86l21 -21l-21 -202c-57.333 -85.333 -86 -142.333 -86 -171l-32 -32h-9
l10 95l22 22v22h-44l-11 -85l-21 -22l-20 11h-23l-64 -139l-20 43h-22c-14.667 -114 -32.667 -185 -54 -213l11 -86l-21 -10c-63.333 0 -98.666 56.667 -105.999 170l11 191l53 214v43l-192 182l-43 64z" />
    <glyph glyph-name="z" unicode="z" horiz-adv-x="1080" 
d="M202 1131l41.998 -10.999h23l138 64c114 42.667 242 71 384 85h63c28.667 -14 43 -31.667 43 -53l43 -11l-11 -41l-256 -246l-75 -149v-22l22 -11h22l21 32l150 21h41l43 -42l117 -64v-31c-28 0 -45.667 -14.333 -53 -43l-52 11h-23l-10 -22l10 -21l-96 -75h-9l10 31v44
h-22c-7.33301 -42.667 -28.666 -71 -63.999 -85v-33h21l-64 -85l-64 -10l-41 10l21 21l20 -11h23l42 32v12h-33l-21 -22c-49.333 -14 -84.666 4 -105.999 54h-22l-32 -32l-52 21l-54 -11l-64 43l32 159l118 235l64 74v33h-23l-10 -21l-287 32
c-28.667 7.33301 -46.667 28.666 -54 63.999c36 56 64.333 80.667 85 74z" />
    <glyph glyph-name="Adieresis" unicode="&#xc4;" horiz-adv-x="888" 
d="M448 856l-7.99902 -176.001l98 47l9 9v29l-43 283l-48 -80c35.333 -141.333 32.666 -178.666 -8.00098 -111.999zM321.001 1190l-19 0.00292969l19 122l38 47l56 38c-12.667 56.667 -9.33398 88 9.99902 94c49.333 0 99.333 -53.333 150 -160
c56.667 -144.667 88 -267.334 94 -368.001l28 -57l-9 -273v-29c18.667 -25.333 25 -66.333 19 -123l19 -37c6 -56 -3.66699 -100 -29 -132v-29l48 -38c6 -30.667 -0.333008 -46 -19 -46v-39l37 10c-6 -62.667 3.66699 -100.334 29 -113.001v-56l-28 9l-47 85
c-81.333 233.333 -116 368.666 -104 405.999l-37 66l9 28v10l-9 38h-30l-28 -29v-18l-94 -76l-76 -141c6.66699 -32 0.333984 -54.333 -18.999 -67v-123l29 -29v-55c-24.667 -6.66699 -49.667 12 -75 56l-19 340h-20l-18 -104l-19 -28v-47l-19 -28v-57l-47 -76l-38 -132
c-24.667 0 -37 28.333 -37 85l38 330l123 396l28 66l56 57l10 66v161zM656.001 1504l8 -128l112 -8l24 112l-40 40zM104.001 1544l-24 -72l64 -48l96 56v56l-40 40z" />
    <glyph glyph-name="Aring" unicode="&#xc5;" horiz-adv-x="888" 
d="M448 856l-7.99902 -176.001l98 47l9 9v29l-43 283l-48 -80c35.333 -141.333 32.666 -178.666 -8.00098 -111.999zM321.001 1190l-19.001 0.00195312l19 122l38 47l33 9c21.333 10.667 40 21.334 56 32.001c32 0 74.333 -23 127 -69
c56.667 -144.667 88 -267.334 94 -368.001l28 -57l-9 -273v-29c18.667 -25.333 25 -66.333 19 -123l19 -37c6 -56 -3.66699 -100 -29 -132v-29l48 -38c6 -30.667 -0.333008 -46 -19 -46v-39l37 10c-6 -62.667 3.66699 -100.334 29 -113.001v-56l-28 9l-47 85
c-81.333 233.333 -116 368.666 -104 405.999l-37 66l9 28v10l-9 38h-30l-28 -29v-18l-94 -76l-76 -141c6.66699 -32 0.333984 -54.333 -18.999 -67v-123l29 -29v-55c-24.667 -6.66699 -49.667 12 -75 56l-19 340h-20l-18 -104l-19 -28v-47l-19 -28v-57l-47 -76l-38 -132
c-24.667 0 -37 28.333 -37 85l38 330l123 396l28 66l56 57l10 66v161zM304 1600l-112 -64l276 -72l211 72l-49 88l-276 8l97 -40l65 -16l-48 -40l-147 16z" />
    <glyph glyph-name="Odieresis" unicode="&#xd6;" horiz-adv-x="808" 
d="M122 566l27.998 -66.001h10v20l-9 57l-38 28l10 37l8 -19h11l18 28v39h-37l9 93l28 76l57 85l57 56l56 19l75 -9v-46l-85 -95l-47 -141v-77l19 -9c0 -62.667 -12.667 -97 -38 -103v-10l19 -10v-47l37 -57h77l66 66l28 10v171l-37 122c-32 38 -66.667 63.333 -104 76
l47 27l27 -19h20v20h-19l10 84l159 -151c12.667 0 50.334 -88 113.001 -264c6.66699 -50 -2.66602 -84.333 -27.999 -103c-44 -6 -66 -25 -66 -57h-47l-47 -28l-18 10h-20c-12.667 -19.333 -75.667 -41.666 -189 -66.999c-30.667 6.66699 -61.667 29 -93 67l-29 -10l-56 104
zM103.998 1264l-8 -96l88 -32l40 72l-16 48zM543.998 1200l-16 -88l72 -48l88 48l8 56l-40 40l-80 16z" />
    <glyph glyph-name="adieresis" unicode="&#xe4;" 
d="M432 720v-41l10 -9h40l30 19v21c-20 -6.66699 -30 0 -30 20h-40zM432 1221l69 -0.000976562l107 -53c53.333 -43.333 90 -153.666 110 -330.999c12.667 -26 29 -29.333 49 -10c20 0 30 -13 30 -39v-29l-50 -39l-19 -99l-109 -49l-49 -59
c-19.333 6.66699 -42.333 -3.33301 -69 -30l-97 10l-69 30l-20 20l-39 157l10 58l49 69l215 -39h41l29 10v60c-6.66699 19.333 -42.667 65 -108 137h-60l-148 -59l-118 -118l-49 -79l-48 20c-6.66699 71.333 3 113.666 29 126.999v31l-39 39l39 117l59 59
c78.667 52.667 163.667 82.334 255 89.001zM200 1520l-72 -72l24 -88h80l88 64l-32 56l-48 48zM528 1504l-32 -88l80 -64l80 16l48 88l-32 48l-48 32z" />
    <glyph glyph-name="aring" unicode="&#xe5;" 
d="M432 720v-41l10 -9h40l30 19v21c-20 -6.66699 -30 0 -30 20h-40zM432 1221l69 -0.000976562l107 -53c53.333 -43.333 90 -153.666 110 -330.999c12.667 -26 29 -29.333 49 -10c20 0 30 -13 30 -39v-29l-50 -39l-19 -99l-109 -49l-49 -59
c-19.333 6.66699 -42.333 -3.33301 -69 -30l-97 10l-69 30l-20 20l-39 157l10 58l49 69l215 -39h41l29 10v60c-6.66699 19.333 -42.667 65 -108 137h-60l-148 -59l-118 -118l-49 -79l-48 20c-6.66699 71.333 3 113.666 29 126.999v31l-39 39l39 117l59 59
c78.667 52.667 163.667 82.334 255 89.001zM368 1536l-80 -56l8 -112l128 -32l72 24l24 120l-72 64z" />
    <glyph glyph-name="odieresis" unicode="&#xf6;" horiz-adv-x="696" 
d="M265 828v-21l49 -88h40l40 29v21l-59 128h-21l-29 -59zM432 887v-11l10 -10h31v41h-31zM176 1093l88.999 -29.999l118 10l79 -39c32.667 -39.333 55.667 -95.333 69 -168l19 -19l30 10v-20l49 -59l-10 -58l-49 -59l-10 -40l-28 40h-11l-10 -69l-69 -49h-88l-59 19l-19 30
h-20l-39 49h-20c-39.333 59.333 -65.666 131.666 -78.999 216.999v176zM159.999 1432l-56 -64l40 -72l128 48v64zM447.999 1352l-24 -72l88 -56l72 32l24 80l-24 48l-64 16z" />
    <glyph glyph-name="glyph50" horiz-adv-x="832" 
d="M116 1269c149.333 -28 241.999 -59.999 277.999 -95.999h22l43 160l96 139h41l11 -32l64 -43l64 -74c14 -42 -0.333008 -98.667 -43 -170c7.33301 -28.667 0.333008 -46.334 -21 -53.001l11 -107l-11 -43v-54l53 -213l32 -64l-42 -53l-160 -10v-76l21 -43v-84l-42 32
l-53 160l-75 107l-117 106c0 36 -32 86 -96 150l-21 85l-96 192c-7.33301 56 6.33398 84 41.001 84z" />
    <glyph glyph-name="glyph66" horiz-adv-x="856" 
d="M302 1170l105 -21l83 11l84 -52l83 -94l-42 -93c-20 -7.33301 -40.333 3 -61 31h-12l-10 -21v-22c62.667 -188 87 -323.667 73 -407l21 -42c28 -7.33301 42 -18 42 -32l-32 -30v-22l53 11l10 -42h22l-10 94l72 -230v-41l-42 -31l-11 -94l-31 -11l-72 84h-22l-21 -21
l-9 10h-22c0 -20.667 -17.333 -31 -52 -31v-52l-32 -21l-51 10c-28 21.333 -42 56.333 -42 105l11 83l41 52h32v63l-32 -10l-31 157l11 72v64h-22l-63 -21l-93 31c-56 48.667 -87.333 101 -94 157l10 30l-10 167l52 115l42 52z" />
  </font>
</defs>
</svg>
