<?xml version="1.0" standalone="no"?>
<!DOCTYPE svg PUBLIC "-//W3C//DTD SVG 1.1//EN" "http://www.w3.org/Graphics/SVG/1.1/DTD/svg11.dtd" >
<svg>
<metadata>
Created by FontForge 20090914 at Wed Jan 22 17:55:52 2014
 By www-data
</metadata>
<defs>
<font id="Grunge" horiz-adv-x="1217" >
  <font-face 
    font-family="Grunge"
    font-weight="400"
    font-stretch="normal"
    units-per-em="2048"
    panose-1="2 11 5 0 0 0 0 0 0 0"
    ascent="1638"
    descent="-410"
    x-height="1272"
    cap-height="3348"
    bbox="-0.00390625 -994.999 3840 4239"
    underline-thickness="50"
    underline-position="-75"
    unicode-range="U+0020-U+201D"
  />
<missing-glyph horiz-adv-x="1536" 
d="M256 0v1280h1024v-1280h-1024zM1247 33v1214h-958v-1214h958z" />
    <glyph glyph-name=".notdef" horiz-adv-x="1536" 
d="M256 0v1280h1024v-1280h-1024zM1247 33v1214h-958v-1214h958z" />
    <glyph glyph-name="space" unicode=" " horiz-adv-x="424" 
 />
    <glyph glyph-name="exclam" unicode="!" horiz-adv-x="627" 
d="M276 1714c7.33301 21.333 12.335 50.501 15.002 87.501s4 81.5 4 133.5h55c-14.667 -90.667 -24.5 -153.834 -29.5 -189.501s-7.5 -76.834 -7.5 -123.501c0 -68 2.16699 -140.333 6.5 -217l14 -238.5c5 -82.333 9 -164.166 12 -245.499s4.5 -179.333 4.5 -294
c-22 5.33301 -38.667 18 -50 38s-22.333 48.833 -33 86.5s-19.667 63.5 -27 77.5l-74 -92c0 54.667 -4.83301 104.5 -14.5 149.5s-22 87.833 -37 128.5l-46.5 130.5c-16 46.333 -26.333 88.5 -31 126.5c0 72 1.16699 130.333 3.5 175l9 167
c3.66699 66.667 5.5 118.334 5.5 155.001c0 99.333 -18.333 185.666 -55 258.999c37.333 0 64.666 -13.167 81.999 -39.5s34.166 -65.5 50.499 -117.5s34 -91.167 53 -117.5s49.167 -39.5 90.5 -39.5zM608.002 203.001c-58.667 -37.333 -109.167 -67.498 -151.5 -90.498
s-87 -41.333 -134 -55s-99.167 -20.5 -156.5 -20.5c-36.667 36.667 -55 79.667 -55 129c0 25.333 4.66699 54.666 14 87.999l27.5 100c9 33.333 13.5 62.666 13.5 87.999c101.333 0 185 -9 251 -27s117.333 -45.667 154 -83c17.333 -16 27.833 -33 31.5 -51s5.5 -44 5.5 -78
zM184.002 203.003l37 -111h19l-19 111h-37z" />
    <glyph glyph-name="quotedbl" unicode="&#x22;" horiz-adv-x="608" 
d="M498 1419l73.001 19.002c-21.333 -21.333 -35.833 -38 -43.5 -50s-11.5 -26 -11.5 -42c0 -28.667 8.16699 -67.5 24.5 -116.5s26.5 -84.167 30.5 -105.5l-165 74c-3.33301 -10.667 -13.5 -32.167 -30.5 -64.5s-25.5 -59.833 -25.5 -82.5c-36.667 54.667 -55 122 -55 202
c0 36 4.66699 80.333 14 133l27.5 158c9 52.667 13.5 97 13.5 133c34 -8 58.333 -20.167 73 -36.5s24.167 -37.833 28.5 -64.5s9.16602 -53.334 14.499 -80.001s16 -52.334 32 -77.001zM240.001 1143c0 -32.667 -8 -55.667 -24 -69s-38.833 -24.833 -68.5 -34.5
s-48.167 -18.167 -55.5 -25.5c-31.333 70.667 -51.5 158.167 -60.5 262.5s-13.5 225.5 -13.5 363.5c64 -10 101.833 -42.5 113.5 -97.5s22.667 -126.667 33 -215s35.5 -149.833 75.5 -184.5z" />
    <glyph glyph-name="numbersign" unicode="#" horiz-adv-x="1751" 
d="M1511 1382c-26.667 -94 -45.4951 -166.497 -56.4951 -217.497s-16.5 -113.5 -16.5 -187.5l313 -19v-36c-40 0 -91.5 -5 -154.5 -15s-115.833 -23.667 -158.5 -41c44.667 -3.33301 80.167 -18.166 106.5 -44.499s53 -67.5 80 -123.5s46.833 -94 59.5 -114
s35 -36.333 67 -49c-27.333 -31.333 -71.5 -54.833 -132.5 -70.5l-182.5 -46.5c-60.667 -15.333 -109.334 -40 -146.001 -74s-55 -87.333 -55 -160c-57.333 0 -96.666 -10.333 -117.999 -31s-37.333 -53.334 -48 -98.001c0 -10 -1.5 -18.167 -4.5 -24.5
s-7.16699 -11.333 -12.5 -15s-12 -8.83398 -20 -15.501h-18c-24.667 48 -37 85 -37 111c0 31.333 5 59.666 15 84.999s27.167 63.833 51.5 115.5s38.833 89.167 43.5 112.5c-36.667 12 -116.334 18 -239.001 18c-20.667 -24 -34.834 -50 -42.501 -78
s-15.167 -65.167 -22.5 -111.5s-16.5 -83.166 -27.5 -110.499s-29.5 -50 -55.5 -68c-24.667 19.333 -55.834 32 -93.501 38s-62.667 11.667 -75 17s-23.5 23.666 -33.5 54.999c36.667 75.333 55 137 55 185c0 24.667 -3 43 -9 55s-21.333 18 -46 18l-461 56
c0 12 -12.333 30.333 -37 55h350c-26.667 19.333 -53.834 36.5 -81.501 51.5s-56.5 29.667 -86.5 44l-71 33.5c32.667 0 81.667 -3 147 -9s102.333 -9 111 -9l-148 110c16.667 6 70.834 22.5 162.501 49.5s167 54.5 226 82.5s109.333 67.833 151 119.5
s64.5 115.5 68.5 191.5c12 6 25.5 13.5 40.5 22.5s26.167 13.5 33.5 13.5c12 0 22.167 -5 30.5 -15s17.166 -26 26.499 -48s17.666 -39.333 24.999 -52s17 -23.334 29 -32.001c0 -122.667 36.667 -184 110 -184c36.667 16.667 63 42.5 79 77.5s33.667 86.167 53 153.5
s40 119.333 62 156s55.667 61 101 73c0 -18 0.666992 -28.833 2 -32.5s7 -11.167 17 -22.5l18 74c12.667 -12.667 31 -19 55 -19zM1419 1327l-92 -184l19 -19l92 185zM1309 1069v-92h18v92h-18zM1143 793.003c0 -32.667 -13 -53.167 -39 -61.5s-68.333 -12.5 -127 -12.5
c0 33.333 13.167 54 39.5 62s68.5 12 126.5 12zM1604 682.003c-123.333 0 -185 30.667 -185 92zM608.005 737.003c0 -44 -14.666 -73.334 -43.999 -88.001s-82 -22 -158 -22c5.33301 21.333 17.666 37.5 36.999 48.5s49.333 22.833 90 35.5s65.667 21.334 75 26.001z
M1087.01 608.002c-8 -24 -27.5 -39.166 -58.5 -45.499s-72.833 -9.5 -125.5 -9.5c14.667 14.667 35 23 61 25s50.5 3.66699 73.5 5s39.5 9.66602 49.5 24.999zM1604.01 553.003c-1.33301 0 -25.333 -6.5 -72 -19.5s-84 -22.167 -112 -27.5s-59 -8 -93 -8
c1.33301 0 25.333 6.5 72 19.5s84 22.167 112 27.5s59 8 93 8zM1124.01 424.003l-37 -129l37 -19l19 130z" />
    <glyph glyph-name="dollar" unicode="$" horiz-adv-x="1253" 
d="M829 2267c-13.333 -13.333 -23.6592 -31.668 -30.9922 -55.001s-12.833 -55 -16.5 -95s-5.83398 -86 -6.50098 -138s-1 -134 -1 -246l55 -56c30.667 45.333 47.667 103.666 51 174.999s6.5 134.833 9.5 190.5s19.833 93.834 50.5 114.501
c35.333 0 62.666 -14.5 81.999 -43.5s29 -63.833 29 -104.5c0 -40 -9.33301 -100 -28 -180s-28 -130.667 -28 -152c-14 -7.33301 -22.5 -25.166 -25.5 -53.499s-6.83301 -47.166 -11.5 -56.499c6.66699 -2.66699 31.167 -14.167 73.5 -34.5s78.666 -35 108.999 -44
s67.833 -13.5 112.5 -13.5l-18 -203c-28.667 19.333 -55.334 31.666 -80.001 36.999s-41.167 10.666 -49.5 15.999s-20.5 24.333 -36.5 57c-5.33301 0 -9.33301 -1.5 -12 -4.5s-4.33398 -7 -5.00098 -12s-1 -11.5 -1 -19.5h-56c-4.66699 4.66699 -8.66699 19.667 -12 45
s-11.666 41 -24.999 47c-60.667 -61.333 -103.667 -166 -129 -314l112 -58c35.333 -18 68.5 -38.333 99.5 -61s55.833 -49.667 74.5 -81s28 -69 28 -113c0 -70 -15.5 -126.5 -46.5 -169.5s-78.667 -84.833 -143 -125.5s-107.166 -69.334 -128.499 -86.001
s-32 -43.334 -32 -80.001c0 -41.333 30.667 -102.666 92 -183.999c-44.667 4.66699 -73.334 21.167 -86.001 49.5s-22.167 71 -28.5 128s-18.666 100 -36.999 129s-53.833 43.5 -106.5 43.5c-17.333 -28.667 -30.166 -62.667 -38.499 -102s-13.333 -77.666 -15 -114.999
s-2.5 -81.666 -2.5 -132.999l56 -19c-24.667 0 -43.834 -5.5 -57.501 -16.5s-27.334 -27.167 -41.001 -48.5s-26.334 -37.333 -38.001 -48s-27.834 -16 -48.501 -16c-24.667 17.333 -40 41 -46 71s-9 74 -9 132v203c0 42 -4.66699 74.167 -14 96.5s-29.833 39.5 -61.5 51.5
s-80.167 18 -145.5 18c0 45.333 -5.5 84 -16.5 116s-27.333 68.833 -49 110.5s-37.667 78.834 -48 111.501s-15.5 73.667 -15.5 123c66 -24.667 126 -51.667 180 -81s110.667 -64 170 -104c15.333 16 23.666 38.5 24.999 67.5s3 58.167 5 87.5s10.333 51.333 25 66
c-26 22 -65.5 50 -118.5 84s-92.5 64.833 -118.5 92.5s-39 61.167 -39 100.5c-8 4 -19.167 13.5 -33.5 28.5s-26.666 26.333 -36.999 34s-23.833 11.5 -40.5 11.5c52.667 24 104.334 74.333 155.001 151s94.667 132 132 166s101.666 51 192.999 51
c9.33301 86 17.166 147.667 23.499 185s19 78.333 38 122.999c19 44.667 47.167 81.334 84.5 110c37.333 28.667 86.666 43 147.999 43zM958.007 2046l-18 -387h18l37 387h-37zM645.007 1806h55v166zM590.007 1475l37 -203l18 18l-18 185h-37zM756.007 1475v-277h18v277h-18
zM295.007 1364l55 -92l19 18l-37 92zM479.007 1051v-222h37v222h-37zM590.007 1051v-111h37v111h-37zM719.007 699.998c0 64.667 -1.33301 121.168 -4 169.501s-7.66699 90.166 -15 125.499c-18.667 -18.667 -35.5 -45.167 -50.5 -79.5s-22.5 -69.166 -22.5 -104.499
c0 -28.667 8.83301 -54.334 26.5 -77.001s39.5 -34 65.5 -34zM442.007 239.999l19 276h-19v-276z" />
    <glyph glyph-name="percent" unicode="%" horiz-adv-x="1843" 
d="M995 1253c-33.333 -73.333 -79.002 -187.669 -137.002 -343.002s-110.167 -283.666 -156.5 -384.999s-106.166 -199.166 -179.499 -293.499s-161.333 -171.5 -264 -231.5c0 83.333 14.833 159.5 44.5 228.5s75.5 153.5 137.5 253.5s107.833 180.167 137.5 240.5
s46.167 126.833 49.5 199.5c-12 -12 -27 -20.667 -45 -26s-44.5 -8.5 -79.5 -9.5s-98.167 -1.5 -189.5 -1.5c-62 27.333 -105.167 62 -129.5 104s-36.5 93.333 -36.5 154c0 39.333 5.83301 81.5 17.5 126.5s26.167 91.667 43.5 140l50 138.5
c36.667 38.667 55 69.334 55 92.001c-41.333 0 -79 -13.333 -113 -40s-61.833 -59.834 -83.5 -99.501s-35.834 -79.167 -42.501 -118.5c12 -36.667 18 -116.334 18 -239.001c-24.667 101.333 -37 193.333 -37 276c0 34 1.83301 60.333 5.5 79s14.167 41.667 31.5 69
c24.667 30.667 54.834 53.834 90.501 69.501s82 26.334 139 32.001s134.167 8.5 231.5 8.5c18.667 -18.667 53.667 -46.334 105 -83.001s89.666 -70 114.999 -100s38 -67.333 38 -112c0 -20.667 -4.5 -42.667 -13.5 -66l-27.5 -70c-9.33301 -23.333 -14 -45.333 -14 -66
c0 -7.33301 3.66699 -19 11 -35s16 -29 26 -39c38 85.333 77.833 163.833 119.5 235.5s87.834 143.167 138.501 214.5s105.667 143.333 165 216l185 219c0 -73.333 -14.667 -141.333 -44 -204s-69 -126.167 -119 -190.5l-144.5 -185
c-46.333 -59 -79.166 -111.833 -98.499 -158.5zM626.998 1309v-91.999c-14 18 -23.833 49 -29.5 93s-12.834 76.833 -21.501 98.5s-28.667 37.5 -60 47.5c-24.667 -50.667 -37 -87.334 -37 -110.001c0 -16.667 3.16699 -42.667 9.5 -78s9.5 -58.666 9.5 -69.999
c0 -40 -8.5 -68.5 -25.5 -85.5s-51.5 -25.5 -103.5 -25.5h-56c0 184.667 61.667 307.667 185 369c40.667 -10 72.334 -26.333 95.001 -49s34 -55.334 34 -98.001zM1714 1069c17.333 -24 27.8398 -46.002 31.5068 -66.002s5.5 -47 5.5 -81c0 -49.333 -10.833 -97 -32.5 -143
s-53.834 -103.5 -96.501 -172.5s-73.334 -123.833 -92.001 -164.5l129 -73c-7.33301 -14.667 -20 -28 -38 -40l-52.5 -34c-17 -10.667 -30.833 -24.334 -41.5 -41.001s-16 -40 -16 -70c-40.667 0 -77.834 -2.33301 -111.501 -7s-70.167 -10.667 -109.5 -18l-115 -20.5
c-37.333 -6.33301 -66.666 -9.5 -87.999 -9.5c-94.667 0 -168.334 43 -221.001 129c0 71.333 5.66699 136 17 194s27.666 122.333 48.999 193s37.166 128.334 47.499 173.001s15.5 91.334 15.5 140.001c57.333 76 122.166 135 194.499 177s148.833 63 229.5 63
c50.667 0 101.667 -10.667 153 -32s98.666 -53.666 141.999 -96.999zM1511 1106c-26 -4 -63.667 -14.5 -113 -31.5s-83.833 -28.333 -103.5 -34s-45.5 -8.5 -77.5 -8.5c33.333 33.333 72.333 54 117 62s103.667 12 177 12zM590.005 1069l-37 -92l18 -19l56 93zM1659 847.996
l-19 -74l19 -18l37 92h-37zM1401 828.996c-56.667 0 -102.666 -8.33301 -137.999 -25s-63.333 -37 -84 -61s-45 -58.5 -73 -103.5s-52.667 -79.833 -74 -104.5c18.667 -28 41 -50.5 67 -67.5s53 -25.5 81 -25.5c68 0 118.167 19.167 150.5 57.5s52.166 83.5 59.499 135.5
s11 116.667 11 194zM1511.01 718.996v-184h19v184h-19zM1327.01 368.996c-24.667 4 -64.3311 7.33301 -118.998 10s-98.5 7 -131.5 13s-60.167 16.667 -81.5 32l37 -74c14.667 -14.667 26.167 -25.5 34.5 -32.5s17.166 -12.5 26.499 -16.5s19.666 -6 30.999 -6
c10 0 27 7.5 51 22.5s47.333 27.333 70 37s50 14.5 82 14.5z" />
    <glyph glyph-name="ampersand" unicode="&#x26;" horiz-adv-x="1604" 
d="M903 1880c-24.667 -50.667 -37.002 -81.3291 -37.002 -91.9961c0 -32 9.33301 -64.5 28 -97.5l55.5 -99.5c18.333 -33.333 27.5 -66 27.5 -98c0 -24.667 -1.83301 -45 -5.5 -61s-14.167 -32.667 -31.5 -50c-11.333 -19.333 -46.5 -49.333 -105.5 -90
s-105.333 -81 -139 -121s-50.5 -92.333 -50.5 -157c20 0 49 -8.83301 87 -26.5s66.5 -30 85.5 -37s47.5 -10.5 85.5 -10.5c22.667 15.333 45.5 37 68.5 65l83.5 98c32.667 37.333 67.5 65.666 104.5 84.999s80.5 29 130.5 29c-24.667 -25.333 -40 -53.333 -46 -84
s-9 -70.334 -9 -119.001c19.333 -18.667 33.333 -34.334 42 -47.001s13 -27.667 13 -45c0 -24.667 -6.5 -48.834 -19.5 -72.501s-33.833 -56.5 -62.5 -98.5s-49.834 -77.333 -63.501 -106s-20.5 -59.334 -20.5 -92.001c23.333 -30 55.333 -58.333 96 -85l136 -88.5
c50 -32.333 88.333 -66.166 115 -101.499s40 -79 40 -131c0 -24.667 -12 -73.667 -36 -147c-50.667 13.333 -123.667 50.833 -219 112.5s-173.166 107.5 -233.499 137.5s-130.833 45 -211.5 45c-54.667 36.667 -97.667 55 -129 55c-24 0 -62.167 -6.83301 -114.5 -20.5
s-89.833 -22.834 -112.5 -27.501s-57.667 -7 -105 -7l-239 166c-24.667 71.333 -37 126.666 -37 165.999c0 38.667 5.66699 76.334 17 113.001s26 74.167 44 112.5l61 128.5c22.667 47.333 37.334 82.666 44.001 105.999c-15.333 23.333 -28.333 56.5 -39 99.5
s-16.334 65.167 -17.001 66.5c0 26.667 2.16699 52.834 6.5 78.501s11.333 58 21 97s16.834 71.833 21.501 98.5s7 58.334 7 95.001c20 24 34.5 55.167 43.5 93.5l25.5 109c8 34.333 21.667 64.5 41 90.5s50 45 92 57c74.667 37.333 142.334 56 203.001 56
c52.667 0 99 -12.333 139 -37s79.667 -61.667 119 -111zM534.998 1917l-83.501 -83.501c-34.333 -34.333 -61.666 -65.166 -81.999 -92.499s-36.666 -56.333 -48.999 -87s-20.833 -66 -25.5 -106c7.33301 16.667 18.166 50.834 32.499 102.501s28.5 94.167 42.5 127.5
s34 62.666 60 87.999s61 42.333 105 51zM755.997 1843c0 -41.333 -10 -74.499 -30 -99.499s-49.333 -45.5 -88 -61.5s-73.5 -29.333 -104.5 -40s-55.167 -23.334 -72.5 -38.001c0 14.667 8.5 33.167 25.5 55.5s39.333 45.833 67 70.5s59.5 47.5 95.5 68.5
s71.667 35.833 107 44.5zM828.997 1382c0 104.667 18.667 184.667 56 240zM718.997 1567c-14.667 -9.33301 -39.499 -21.165 -74.499 -35.498s-65.333 -28.333 -91 -42s-48.334 -30.334 -68.001 -50.001s-34.167 -44.834 -43.5 -75.501l37 -55
c59.333 0 101.333 13.333 126 40s45.667 65.5 63 116.5s34.333 84.833 51 101.5zM1198 958.006c0 -37.333 -4.33203 -65.333 -12.999 -84s-22.834 -43 -42.501 -73s-31.834 -57.333 -36.501 -82c8.66699 44 21.334 87.5 38.001 130.5s34.667 79.167 54 108.5z
M349.999 535.006c18 98 31.833 177.668 41.5 239.001s14.5 116.666 14.5 165.999l-74 -55c-49.333 -74.667 -74 -148.334 -74 -221.001c0 -37.333 8.66699 -68.166 26 -92.499s39.333 -36.5 66 -36.5zM699.999 737.007l-165 74c0 -26 -3.33301 -49.667 -10 -71
s-15.667 -46.5 -27 -75.5s-20.333 -58 -27 -87s-10 -61.833 -10 -98.5c159.333 128 239 214 239 258zM773.999 645.007l-129 -129l19 -37l129 148zM1419 147.007v74l-276 203z" />
    <glyph glyph-name="quotesingle" unicode="'" horiz-adv-x="479" 
d="M479 1272c0 -46 -13 -93.834 -39 -143.501s-58 -93.5 -96 -131.5s-72.667 -63 -104 -75c-24.667 0 -43.167 2 -55.5 6s-18.5 14 -18.5 30l46 99c12.667 27.333 23.5 58.833 32.5 94.5s13.5 81.834 13.5 138.501l-258 277c24.667 -24.667 49.334 -37 74.001 -37
c18 0 37.667 14 59 42s41.666 49.5 60.999 64.5s53 22.5 101 22.5zM387 1217c-8 8 -15.332 37.832 -21.999 89.499s-16.834 96.334 -30.501 134.001s-39.167 67.5 -76.5 89.5c32.667 -22 55.667 -49.833 69 -83.5s24.833 -76.5 34.5 -128.5s18.167 -85.667 25.5 -101z" />
    <glyph glyph-name="parenleft" unicode="(" horiz-adv-x="700" 
d="M645 2046c-16.667 -8 -26.8359 -22.335 -30.5029 -43.002s-7 -51.5 -10 -92.5s-9 -71.667 -18 -92s-26.167 -30.5 -51.5 -30.5c-78.667 -96 -135.334 -195.167 -170.001 -297.5s-52 -212.166 -52 -329.499c0 -41.333 2 -83.833 6 -127.5s9 -86.334 15 -128.001l20 -142
c7.33301 -53 12.333 -92.5 15 -118.5c19.333 -58.667 62.833 -138 130.5 -238s115.334 -174.167 143.001 -222.5s46.834 -109.833 57.501 -184.5c-26.667 0 -45.5 7.16699 -56.5 21.5s-27.5 39.833 -49.5 76.5s-41.667 59.334 -59 68.001
c-84.667 17.333 -148 49.833 -190 97.5s-73.167 113 -93.5 196s-38.166 159.333 -53.499 229s-38.333 128.834 -69 177.501c-6 -12 -9 -30.167 -9 -54.5s-3 -42.833 -9 -55.5v442c0 127.333 7.33301 239.5 22 336.5s45.334 184.167 92.001 261.5s113 136 199 176
c6 24.667 15.5 42 28.5 52s32.333 16.167 58 18.5s70.5 3.5 134.5 3.5zM128.998 1198c8.66699 24 18.167 60.166 28.5 108.499l36.5 166.5c14 62.667 27 115.334 39 158.001s26.333 82.667 43 120zM183.998 1198l-18 -129h18l37 129h-37z" />
    <glyph glyph-name="parenright" unicode=")" horiz-adv-x="737" 
d="M313 1991l108.498 -150.503c59 -81 103.667 -145.667 134 -194s56 -101.666 77 -159.999s31.5 -117.5 31.5 -177.5c0 -35.333 -12.333 -90.666 -37 -165.999c-37.333 -74.667 -56 -136.334 -56 -185.001c0 -25.333 2.33301 -53.166 7 -83.499s11.5 -66.333 20.5 -108
s16 -76.5 21 -104.5s7.5 -58.333 7.5 -91c0 -34.667 -12.333 -89.667 -37 -165c-35.333 -35.333 -76.666 -89.333 -123.999 -162s-82.833 -124.667 -106.5 -156s-57.5 -60.666 -101.5 -87.999c-20 16 -40 38.5 -60 67.5s-41.167 49.5 -63.5 61.5s-61.166 18 -116.499 18
c46.667 77.333 91 155.666 133 234.999s78.833 158.5 110.5 237.5s57.5 161.5 77.5 247.5s30 171.667 30 257c0 122 -18.667 239 -56 351c-52.667 134.667 -96.667 240.334 -132 317.001s-77.333 143 -126 199l-55 -56l55 240l240 -221zM331.998 1640l-19 166l-110 111z
M552.998 1198l37 277l-148 221zM515.998 810.997v-313h37v313h-37zM331.998 626.997l-37 -148l18 -18l56 166h-37zM386.998 294.997l37 18l18 222zM312.998 331.997l-129 -129l19 -19l129 148h-19z" />
    <glyph glyph-name="asterisk" unicode="*" horiz-adv-x="1733" 
d="M885 903l-0.000976562 -74.0029c34 13.333 83.333 38.666 148 75.999s127.667 81.833 189 133.5s108.666 104.834 141.999 159.501v-258c-29.333 -12 -57.666 -26.5 -84.999 -43.5s-57.5 -37.833 -90.5 -62.5l-79 -60c-19.667 -15.333 -45.5 -33.666 -77.5 -54.999
c44 8 92.833 13.833 146.5 17.5s114.667 6.16699 183 7.5s130.666 2.5 186.999 3.5s117.833 3.83301 184.5 8.5l-93 -92c25.333 -16 41 -36.167 47 -60.5s9 -59.5 9 -105.5l-535 -19l37 -129l-37 19c0 -40.667 8.16699 -74.167 24.5 -100.5s38.833 -54.5 67.5 -84.5l37 -55
c-6.66699 0 -28.5 11.5 -65.5 34.5s-70.667 48 -101 75s-48.5 51.833 -54.5 74.5c-12 8 -27.333 21.333 -46 40s-34.5 32.167 -47.5 40.5s-30.833 12.5 -53.5 12.5l-19 -37l111 -129c-10.667 0 -22.5 4.66699 -35.5 14l-39.5 27.5c-13.333 9 -25.333 13.5 -36 13.5l-18 -295
c-33.333 25.333 -57.166 56.833 -71.499 94.5s-24.5 86.834 -30.5 147.501s-11.167 106.5 -15.5 137.5s-14.5 58.167 -30.5 81.5c-10 -10 -33.833 -37 -71.5 -81s-70.167 -79.667 -97.5 -107s-58.666 -52 -93.999 -74s-70.333 -33 -105 -33c0 44 8.33301 81.167 25 111.5
s41.167 63.333 73.5 99s54.833 63.834 67.5 84.501c-31.333 6.66699 -70.5 12 -117.5 16s-99 9 -156 15s-106 16.333 -147 31s-79.167 37 -114.5 67c60.667 6 114 12.833 160 20.5s87.667 16 125 25s76 19.667 116 32s90.667 29.5 152 51.5l-240 239
c15.333 4.66699 32.666 7.5 51.999 8.5l49.5 2.5c13.667 0.666992 22.834 3.33398 27.501 8.00098c0 15.333 -11 36.666 -33 63.999s-37.333 47.5 -46 60.5s-13 32.833 -13 59.5c115.333 -14 238.333 -100 369 -258c36.667 36.667 55 73.667 55 111
c0 18.667 -1.5 36 -4.5 52l-15 78.5l-14 73.5c-2.33301 12.667 -3.5 30.667 -3.5 54c47.333 0 80.333 -6.66699 99 -20s31.5 -44.5 38.5 -93.5s10.5 -134.167 10.5 -255.5zM736.999 773.997c-19.333 49.333 -55.833 92.3311 -109.5 128.998s-115.5 55 -185.5 55l277 -239
c0 4.66699 3 13.334 9 26.001s9 22.334 9 29.001zM1069 589.995h258v18h-258v-18z" />
    <glyph glyph-name="plus" unicode="+" horiz-adv-x="1401" 
d="M682 848c-10.667 53.333 -18.1719 108.002 -22.5049 164.002s-8.16602 109.5 -11.499 160.5s-10.5 99.333 -21.5 145s-29.5 91.834 -55.5 138.501l37 -129l-129 -37l37 -387c-16.667 -46 -44.667 -82.333 -84 -109s-84.166 -45.834 -134.499 -57.501
s-108.666 -20.167 -174.999 -25.5s-107.166 -9 -122.499 -11l37 -202h516l55 -424c24.667 0 37 36.667 37 110c0 18 18.333 36.667 55 56c25.333 -25.333 41 -54 47 -86s9 -77.333 9 -136h55c-4.66699 45.333 -19 102.666 -43 171.999s-41.333 123 -52 161s-16 87 -16 147
c194.667 48.667 348.334 73 461.001 73l-18 -18c32 0 60 5.16699 84 15.5s54.5 27.166 91.5 50.499s64.5 38.333 82.5 45l-111 36c-16 98.667 -89.667 148 -221 148h-387zM1235 682.002c-5.33301 10.667 -12.335 18.833 -21.002 24.5s-21.5 11.667 -38.5 18
s-27.833 10.5 -32.5 12.5c-36.667 -36.667 -73.667 -55 -111 -55c-14.667 0 -34.667 3.5 -60 10.5s-47.666 13.833 -66.999 20.5l-50.5 17c-14.333 4.66699 -28.833 7 -43.5 7c-27.333 0 -47.666 -4.83301 -60.999 -14.5s-30 -29.167 -50 -58.5z" />
    <glyph glyph-name="comma" unicode="," horiz-adv-x="608" 
d="M479 369c4.66699 -9.33301 9.50098 -21.332 14.501 -35.999s10.833 -26.667 17.5 -36s14.667 -16.333 24 -21l73 56c0 -103.333 -9.66699 -188 -29 -254s-46.5 -120.667 -81.5 -164s-78.667 -85.5 -131 -126.5l-200.5 -156.5c0 53.333 7.83301 91.666 23.5 114.999
s45.167 59.833 88.5 109.5s67.333 91.834 72 126.501c-16.667 12 -35.334 44.167 -56.001 96.5s-42.834 92.333 -66.501 120s-62.5 41.5 -116.5 41.5c-24.667 23.333 -37 41.666 -37 54.999c0 16.667 7 29.834 21 39.501s36.167 21.667 66.5 36s50.166 26.166 59.499 35.499
c10 -27.333 20.333 -46.5 31 -57.5s25 -16.5 43 -16.5c18.667 0 48.834 6.16699 90.501 18.5s72.834 18.5 93.501 18.5z" />
    <glyph glyph-name="hyphen" unicode="-" horiz-adv-x="1032" 
d="M866 737l56.001 -72.998c-80.667 0 -149.5 -2.33301 -206.5 -7s-125.5 -11.667 -205.5 -21s-148.5 -16.333 -205.5 -21s-115.5 -7 -175.5 -7c0 26 -3.5 42.667 -10.5 50s-19 11.666 -36 12.999s-32 4.66602 -45 9.99902s-25.5 18 -37.5 38
c0 29.333 5.16699 53.5 15.5 72.5s23.833 33.167 40.5 42.5s35 14 55 14c28.667 0 57 -2.5 85 -7.5s60.333 -11.167 97 -18.5s72.667 -14 108 -20s61.333 -9 78 -9c113.333 36.667 297.666 55 552.999 55z" />
    <glyph glyph-name="period" unicode="." horiz-adv-x="719" 
d="M553 295c-24.667 -16 -40.0029 -35.332 -46.0029 -57.999s-9 -52.667 -9 -90c0 -18.667 1.66699 -35.834 5 -51.501s10 -40.167 20 -73.5s17.5 -59.166 22.5 -77.499s7.5 -36.833 7.5 -55.5c0 -28.667 -9.33301 -55.667 -28 -81s-46.334 -47.333 -83.001 -66
c-53.333 0 -91.166 6.33301 -113.499 19s-59.833 37.167 -112.5 73.5s-94 54.5 -124 54.5c-15.333 10 -26 30 -32 60s-10.333 71.333 -13 124s-6 89.667 -10 111c50 15.333 100.667 23.833 152 25.5l144 4.5c44.667 1.33301 87.334 10 128.001 26v55
c-50.667 24.667 -87.667 37 -111 37c-21.333 0 -40.833 -2.83301 -58.5 -8.5s-49.167 -16.834 -94.5 -33.501s-80.333 -27.334 -105 -32.001c-7.33301 7.33301 -12.166 18.333 -14.499 33s-3.5 34.334 -3.5 59.001c50 0 88.5 2 115.5 6s64.833 10.167 113.5 18.5
s83 12.5 103 12.5c36.667 0 66.334 -5.16699 89.001 -15.5s42 -35.833 58 -76.5zM275.997 0.000976562h19l37 111z" />
    <glyph glyph-name="slash" unicode="/" horiz-adv-x="1161" 
d="M977 1733l109.998 35.9961c-28.667 -62 -56.334 -127.333 -83.001 -196s-49.334 -132.5 -68.001 -191.5s-35 -115.167 -49 -168.5s-33.333 -132 -58 -236c-60 -73.333 -108 -146.666 -144 -219.999s-68.667 -155.333 -98 -246l-86 -268.5
c-28 -88.333 -59.667 -169.166 -95 -242.499h-93c74.667 138 137.5 270 188.5 396s80.5 239.667 88.5 341c-66.667 -80.667 -124 -155.5 -172 -224.5s-90.167 -143 -126.5 -222s-59.833 -157.5 -70.5 -235.5h-92l-18 203h-111c42 130 90.667 252.667 146 368
s115.833 228.166 181.5 338.499s128.834 210.666 189.501 300.999l257 374.5c54.667 4.66699 97.834 22.334 129.501 53.001s63.667 79.667 96 147s57.5 115.833 75.5 145.5s46.667 55.834 86 78.501c-11.333 -23.333 -35.666 -57.666 -72.999 -102.999
s-65.166 -83.666 -83.499 -114.999s-27.5 -69 -27.5 -113zM902.998 1456c0 20 3.16602 38.168 9.49902 54.501s15.333 35.333 27 57s20.834 42.167 27.501 61.5s10 41.666 10 66.999c0 -64.667 -4 -116.667 -12 -156s-28.667 -67.333 -62 -84zM884.997 1382h-92l-240 -571
c4.66699 50.667 20 96.5 46 137.5s66 92.667 120 155s94.333 113.333 121 153s41.667 81.5 45 125.5zM294.997 534.997c18.667 77.333 39.001 152.168 61.001 224.501s52.667 146.166 92 221.499s86.666 135.333 141.999 180zM110.998 312.999
c0 56 8.66699 107.669 26 155.002s37.666 91.666 60.999 132.999l78 136c0 -48.667 -7.5 -89.834 -22.5 -123.501s-40.167 -82.667 -75.5 -147s-57.666 -115.5 -66.999 -153.5z" />
    <glyph glyph-name="zero" unicode="0" horiz-adv-x="1161" 
d="M1051 1382c12 -61.333 20.998 -111.667 26.998 -151s9 -81 9 -125c0 -106.667 -16.667 -211 -50 -313s-80.666 -199.833 -141.999 -293.5s-132.333 -180.167 -213 -259.5c-37.333 -8 -67.5 -20 -90.5 -36s-50.167 -38.333 -81.5 -67s-59.166 -49.5 -83.499 -62.5
s-55.833 -19.5 -94.5 -19.5c-184 0 -288.667 24.667 -314 74c0 142.667 19 282.5 57 419.5s90.667 268.833 158 395.5s144.5 246 231.5 358s177.833 212.667 272.5 302c38 0 73.167 -6.83301 105.5 -20.5s59.5 -30.5 81.5 -50.5s43.167 -42.833 63.5 -68.5zM994.998 1327
c-23.333 0 -41.333 5.99902 -54 17.999s-28.5 32.333 -47.5 61s-38 50.334 -57 65.001s-45.833 22 -80.5 22c68 0 117.333 -12.167 148 -36.5s61 -67.5 91 -129.5zM644.998 644.998c17.333 33.333 44.1631 79.332 80.4961 137.999l83 136.5c19 32.333 36.5 69 52.5 110
s24 78.833 24 113.5c0 40 -7.66699 74.333 -23 103s-44.666 55.667 -87.999 81c0 -16 -5.66699 -26.833 -17 -32.5s-30 -9.83398 -56 -12.501s-44.667 -6 -56 -10c-14 -33.333 -44.333 -96.666 -91 -189.999s-85.167 -173.833 -115.5 -241.5
s-55.666 -139.167 -75.999 -214.5s-30.5 -148.666 -30.5 -219.999c57.333 0 104.333 10.167 141 30.5s65.334 44.333 86.001 72s49.334 73.167 86.001 136.5zM773.995 589.997l63 110.5c20 34.333 38.5 69 55.5 104s32.167 76 45.5 123s20 94.167 20 141.5l-221 -461
c24.667 0 37 -6 37 -18zM220.995 294.997v55l-55 129zM257.995 110.997c-38 0 -67.5 2.83398 -88.5 8.50098s-37 15.667 -48 30s-18.667 33.666 -23 57.999s-6.5 59.5 -6.5 105.5zM368.995 128.998c17.333 18 42.1689 35.6699 74.502 53.0029s56.166 32.666 71.499 45.999
s28 35.666 38 66.999c-24 -4.66699 -52.833 -12.334 -86.5 -23.001s-65.834 -18.667 -96.501 -24s-68 -8 -112 -8z" />
    <glyph glyph-name="one" unicode="1" horiz-adv-x="958" 
d="M829 1898c-8 -48.667 -15.4951 -113.997 -22.4951 -195.997l-19 -215.5c-5.66699 -61.667 -12 -119.5 -19 -173.5s-17.5 -110.667 -31.5 -170c25.333 20.667 42.333 48.834 51 84.501l26.5 108c9 36.333 26.167 64.166 51.5 83.499
c0 -116.667 0.333008 -195.334 1 -236.001s2 -68 4 -82s6.66699 -24.667 14 -32c-43.333 -56.667 -80.833 -122.667 -112.5 -198s-58 -153.5 -79 -234.5s-38.833 -160.167 -53.5 -237.5l-50 -270h55c0 -14 -8 -27.333 -24 -40s-26.333 -24 -31 -34c-14 0 -27 8 -39 24
s-23.667 26.667 -35 32l-55 -111c0 50.667 -7.83301 84 -23.5 100s-44.834 28.667 -87.501 38s-73.334 18.666 -92.001 27.999c8 24.667 16.167 65.5 24.5 122.5s18.166 100.5 29.499 130.5s30.333 50 57 60l18 -239c4 24 12.667 45.167 26 63.5s31.5 39 54.5 62
s40 42.833 51 59.5s16.5 34.667 16.5 54c0 12 -12.333 42.667 -37 92c5.33301 64.667 12.833 147.667 22.5 249l28.5 294c9.33301 94.667 16.666 178 21.999 250l-110 -129c-18.667 36.667 -49.334 55 -92.001 55c-15.333 0 -32.833 -4.5 -52.5 -13.5
s-44.667 -22.833 -75 -41.5s-58.166 -34.667 -83.499 -48s-47.333 -22 -66 -26l-18 -18c0 47.333 13.167 88.5 39.5 123.5s53.166 61.5 80.499 79.5s72.333 44.667 135 80s106.667 63.666 132 84.999c65.333 98.667 124 177.167 176 235.5s116 108.833 192 151.5z" />
    <glyph glyph-name="two" unicode="2" horiz-adv-x="1309" 
d="M1106 1438c-54.667 -87.333 -115.167 -175.004 -181.5 -263.004l-232 -294.5l-237.5 -296.5c-70 -89.333 -135.667 -179.666 -197 -270.999l940 -18l111 -111c-25.333 0 -53.166 4.66699 -83.499 14l-91 28c-30.333 9.33301 -58.166 14 -83.499 14
c-36.667 0 -73.667 -18.667 -111 -56c15.333 -15.333 35.333 -26 60 -32s56.5 -10.333 95.5 -13s67.167 -6 84.5 -10c-70.667 -22 -144.5 -38.667 -221.5 -50s-153 -19.5 -228 -24.5l-269.5 -17.5c-64 0 -117.333 0.333008 -160 1s-86.5 2.33398 -131.5 5.00098
s-89.167 6.66699 -132.5 12c0 27.333 5.5 46.5 16.5 57.5s27 20.333 48 28s36.167 16.167 45.5 25.5c-33.333 17.333 -53.833 40.833 -61.5 70.5s-11.5 73.834 -11.5 132.501l682 718c0 78 -1.33301 132 -4 162s-10.5 52.167 -23.5 66.5s-34.5 24.5 -64.5 30.5
c-74.667 0 -143.167 -13.667 -205.5 -41s-117.833 -61.666 -166.5 -102.999s-109 -98 -181 -170c0 -40 -1.16699 -71.5 -3.5 -94.5s-7.5 -34.5 -15.5 -34.5h-92c18 70.667 47.167 135.167 87.5 193.5s87.666 113.5 141.999 165.5s117.5 108.5 189.5 169.5
s122.667 106.167 152 135.5c73.333 16.667 151.666 27 234.999 31s183.333 6 300 6v-166zM866 1438c-36.667 36.667 -73.333 55 -110 55c-28.667 0 -52.667 -4.5 -72 -13.5s-38.333 -22.833 -57 -41.5h239zM995.001 1438l19 73h-74zM811.001 239.996
c-40.667 -8 -83.8311 -13.167 -129.498 -15.5s-100.834 -3.5 -165.501 -3.5c29.333 0 76.666 3.16699 141.999 9.5s116.333 9.5 153 9.5z" />
    <glyph glyph-name="three" unicode="3" horiz-adv-x="1475" 
d="M1235 1346l-37.0088 0.00292969c34 -34 57.833 -60.833 71.5 -80.5s20.5 -42.167 20.5 -67.5c0 -30.667 -7.5 -62 -22.5 -94s-39.667 -79.667 -74 -143s-60.666 -122.333 -78.999 -177s-27.5 -113.334 -27.5 -176.001c-14.667 -29.333 -40.667 -60.666 -78 -93.999
l-112 -101c-37.333 -34 -67.166 -71.833 -89.499 -113.5s-33.5 -92.5 -33.5 -152.5c-52.667 -10 -103.5 -24.5 -152.5 -43.5l-155 -59c-54.333 -20.333 -105.5 -35.166 -153.5 -44.499c8.66699 32.667 23.834 62.5 45.501 89.5s55.834 64.833 102.501 113.5h295
c12 12 18 42.667 18 92c-73.333 0 -130.166 -2.5 -170.499 -7.5s-102.5 -14.167 -186.5 -27.5s-143 -20 -177 -20c-114.667 0 -194.667 30.667 -240 92c26.667 0 48.167 -3.33301 64.5 -10s34.833 -16 55.5 -28s36 -18 46 -18c23.333 0 48 12.333 74 37
c-9.33301 12.667 -25 31.167 -47 55.5s-39.5 45.833 -52.5 64.5s-24.333 43.167 -34 73.5s-14.5 64.166 -14.5 101.499c19.333 0 35.166 -4.5 47.499 -13.5s26.5 -22.833 42.5 -41.5s31.833 -32.5 47.5 -41.5s37.5 -13.5 65.5 -13.5l221 55
c0 -4 -3.33301 -8.83301 -10 -14.5l-19.5 -16.5c-6.33301 -5.33301 -12.166 -11.833 -17.499 -19.5s-8 -15.5 -8 -23.5c0 -6.66699 5.83301 -12.834 17.5 -18.501l37.5 -18.5c124 35.333 230.167 97.166 318.5 185.499s160.5 198.5 216.5 330.5
c-8.66699 18 -27 28.667 -55 32s-95.667 5 -203 5c0 -16.667 -6.5 -26.834 -19.5 -30.501s-34 -5.5 -63 -5.5s-53.333 -2 -73 -6s-35.5 -14.333 -47.5 -31c0 47.333 11.833 89.833 35.5 127.5s51.834 70.334 84.501 98.001s76.334 61.834 131.001 102.501
s93.667 72.667 117 96c-38.667 28 -88.5 48.833 -149.5 62.5s-122 22 -183 25s-134.167 4.5 -219.5 4.5c-26 -4.66699 -43 -13.834 -51 -27.501s-16.667 -36.834 -26 -69.501s-20.666 -55.667 -33.999 -69l-74 74c-10 -16 -16.333 -32.333 -19 -49
s-5.33398 -47.667 -8.00098 -93s-6 -78 -10 -98h-18c-24.667 48 -37 85 -37 111c0 36.667 7.66699 76.5 23 119.5l46 129c15.333 43 23 82.833 23 119.5c15.333 0 31.333 8.66699 48 26s31.334 33.333 44.001 48v92c34.667 -34.667 74.834 -58.667 120.501 -72
s97.834 -20 156.501 -20c37.333 0 66.666 1 87.999 3s65.5 6.66699 132.5 14s115.667 12.5 146 15.5s61.833 4.5 94.5 4.5c147.333 0 221 -55.333 221 -166c0 -74 -12.333 -135.333 -37 -184zM1197.99 1143l-0.000976562 74c-49.333 0 -88.166 -3 -116.499 -9
s-50.833 -21.667 -67.5 -47zM939.99 1087l184 -55v19l-184 55v-19zM939.99 553.003l111.003 166c-4.66699 0 -10.834 -13.5 -18.501 -40.5s-18.334 -52.167 -32.001 -75.5s-33.834 -40 -60.501 -50zM534.993 369.003l184 37h-129z" />
    <glyph glyph-name="four" unicode="4" horiz-adv-x="1659" 
d="M1290 2378c-98.667 -68 -198.666 -151.164 -299.999 -249.497s-196.833 -199 -286.5 -302l-316.5 -377l-221 -269.5c71.333 -24.667 126.666 -37 165.999 -37c23.333 0 51.666 3.5 84.999 10.5s60.333 15.833 81 26.5c-6 8.66699 -18.667 26 -38 52
s-33.166 45.333 -41.499 58s-12.5 25 -12.5 37c0 13.333 4 28.166 12 44.499l24 47.5l195 219c70.667 76.667 141 146.5 211 209.5s142.667 118.667 218 167s150 83.5 224 105.5c5.33301 -12 14.333 -36 27 -72s26.167 -64.333 40.5 -85s34.833 -36 61.5 -46
c4 17.333 7.66699 55.166 11 113.499s7.5 103.5 12.5 135.5s15.833 53.333 32.5 64c0 -62 3 -194 9 -396s9 -371 9 -507c24.667 -12 80 -18 166 -18c0 -27.333 -8.33301 -46.5 -25 -57.5s-41 -20.5 -73 -28.5s-54.667 -16.333 -68 -25l129 -111
c-41.333 -8 -67 -25.333 -77 -52s-15 -64.334 -15 -113.001c0 -64.667 -2 -118.834 -6 -162.501s-14.333 -81.834 -31 -114.501h-55c0 156.667 -1 257.5 -3 302.5s-7.33301 79.5 -16 103.5l-129 -56c-24.667 -100 -37 -167.333 -37 -202c0 -43.333 3.16699 -91 9.5 -143
l18.5 -156.5c6 -52.333 9 -100.166 9 -143.499c0 -72.667 -7.5 -136 -22.5 -190s-44.167 -107.333 -87.5 -160l-111 55l-18 940l-480 19c-48 32 -109.833 52.167 -185.5 60.5s-167.167 12.5 -274.5 12.5c-16.667 0 -30.167 3.83301 -40.5 11.5s-15.5 16.167 -15.5 25.5
c0 12.667 9.33301 34.334 28 65.001s28 52 28 64c100 72 202.667 174 308 306l278.5 352.5c80.333 103 167.833 196 262.5 279s204.667 145.5 330 187.5zM1290 2028v-369h19v369h-19zM1419 1382v480l-73 -480h73zM774.001 1677l166 129
c0 -28.667 -5.83301 -47.334 -17.5 -56.001s-30 -13.667 -55 -15s-44.667 -5.16602 -59 -11.499s-25.833 -21.833 -34.5 -46.5zM756.001 1327l276 55v295zM1124 1659v-221h37v221h-37zM756.001 1622l-185 -184l19 -19l184 185zM627.001 1382l-111 -129l19 -18l110 129z
M774.001 1180l-184 -37c9.33301 9.33301 31.833 17.833 67.5 25.5s74.5 11.5 116.5 11.5zM1309 1143l110 -19v19l-92 37zM1180 111.003c0 22.667 2.16699 47.333 6.5 74l14 83.5c5 29 9 58.167 12 87.5s4.5 64.333 4.5 105l-93 -111c4.66699 -18.667 8.5 -57.667 11.5 -117
s11.5 -100 25.5 -122h19z" />
    <glyph glyph-name="five" unicode="5" horiz-adv-x="2064" 
d="M719 2157c0 -32.667 -3.99902 -58.3379 -11.999 -77.0049s-23.333 -51.667 -46 -99s-34 -81 -34 -101c0 -21.333 1.83301 -36.5 5.5 -45.5s14.167 -18.5 31.5 -28.5c184 0 373.833 -3 569.5 -9s312.834 -9 351.501 -9c101.333 0 190.5 1.33301 267.5 4
s147.5 7.33398 211.5 14.001c-32.667 0 -64 -5.83301 -94 -17.5s-71 -29.667 -123 -54s-99 -43 -141 -56s-88.333 -19.5 -139 -19.5c-46.667 -69.333 -99.334 -129.666 -158.001 -180.999s-116.667 -77 -174 -77c-13.333 0 -44 12.333 -92 37
c-36.667 36.667 -67.334 55 -92.001 55c-22.667 0 -44.167 -1.83301 -64.5 -5.5s-43.166 -9.16699 -68.499 -16.5l-60.5 -17.5c-15 -4.33301 -36.5 -9.5 -64.5 -15.5c-16 -16 -24.667 -38.667 -26 -68s-2.83301 -60.166 -4.5 -92.499s-10.167 -58.833 -25.5 -79.5
c36.667 -36.667 86 -55 148 -55c24 0 63 6.16699 117 18.5s94.667 18.5 122 18.5c65.333 0 114.666 -24.667 147.999 -74l645 18c-77.333 -195.333 -186.833 -362 -328.5 -500s-306.667 -245.5 -495 -322.5s-393.166 -128.5 -614.499 -154.5
c-56.667 10 -114.667 38.333 -174 85s-93.333 92.334 -102 137.001c35.333 -70 71.666 -118.333 108.999 -145s80.666 -40 129.999 -40c30.667 0 60 3 88 9s70.5 17 127.5 33s106.667 28.333 149 37s80.833 13 115.5 13l36 19c-36 36.667 -72.667 55 -110 55
c-22.667 0 -41 -1.66699 -55 -5l-87 -21c-44 -10.667 -80.833 -18.167 -110.5 -22.5s-62.167 -6.5 -97.5 -6.5c0 28.667 -5.33301 48.334 -16 59.001s-26.667 19.667 -48 27s-37.5 17.333 -48.5 30s-16.5 35.334 -16.5 68.001v92
c66.667 -27.333 138.834 -49.5 216.501 -66.5s152.834 -25.5 225.501 -25.5c90.667 0 174.167 11.833 250.5 35.5s140.166 61.167 191.499 112.5l129 258c-30 30 -64 54.5 -102 73.5s-77.5 33 -118.5 42s-84.167 13.5 -129.5 13.5c-46 0 -90.833 -3.5 -134.5 -10.5
s-85.667 -15.667 -126 -26s-81.333 -21.833 -123 -34.5l-132.5 -40l-37 -129c0 45.333 -5.16699 76.166 -15.5 92.499s-32.166 26.5 -65.499 30.5s-98.333 6 -195 6c-10 40.667 -16 109 -18 205s-5.16699 173.667 -9.5 233s-19.833 118.666 -46.5 177.999
s-69.667 106 -129 140c41.333 10 85.666 19 132.999 27s95 16.5 143 25.5s92.5 20.333 133.5 34s88.833 33.834 143.5 60.501l74 351h92zM903.001 1733c-24 -11.333 -46.165 -18.167 -66.498 -20.5s-49.333 -4.5 -87 -6.5s-66.167 -5.33301 -85.5 -10
c25.333 16.667 56.166 27 92.499 31s85.166 6 146.499 6zM516.003 1677c-38 0 -71.168 -2.16699 -99.501 -6.5s-72.666 -12.5 -132.999 -24.5s-105.833 -20 -136.5 -24l148 -627h147l37 480h-92c-6 11.333 -13.667 24.833 -23 40.5s-14 26.5 -14 32.5
c0 11.333 10.5 21.5 31.5 30.5s41.5 16.833 61.5 23.5s37.167 15.5 51.5 26.5s21.5 27.167 21.5 48.5zM1567 663.995l82.5 111.5c27 36.333 52.333 73.666 76 111.999s43 77.333 58 117s22.5 79.5 22.5 119.5l-331 -55c30 -11.333 51.5 -29.666 64.5 -54.999
s20.833 -61.5 23.5 -108.5s4 -127.5 4 -241.5zM1475 810.995l-74 -184l37 -19l73 185z" />
    <glyph glyph-name="six" unicode="6" horiz-adv-x="1364" 
d="M1124 1788c0 -92.667 -1.83496 -170.674 -5.50195 -234.007s-13.5 -127.166 -29.5 -191.499s-41 -119.166 -75 -164.499l22 115.5c6.66699 33.667 11.834 61.334 15.501 83.001s7.5 49.334 11.5 83.001s6 68.834 6 105.501c0 52.667 -2 98.667 -6 138
s-14.333 79.333 -31 120c-74 74 -160 111 -258 111c-52.667 0 -102.667 -7.83301 -150 -23.5s-95.666 -38.5 -144.999 -68.5c-50 -44 -99.667 -95.667 -149 -155s-92.333 -119.833 -129 -181.5s-60.667 -115.5 -72 -161.5l645 516c86 -34.667 129 -108.334 129 -221.001h-55
c0 42.667 -3.16699 77.834 -9.5 105.501s-21.5 41.5 -45.5 41.5c-49.333 0 -80.333 -6 -93 -18c4 -30.667 14.333 -58.167 31 -82.5s46 -60.666 88 -108.999s72.667 -87.833 92 -118.5s29 -62.667 29 -96c0 -24 -2 -44.167 -6 -60.5s-14.333 -32.833 -31 -49.5l-110 37h36
c0 56.667 -16.5 103.667 -49.5 141s-71.5 70 -115.5 98c-119.333 -50.667 -211 -137.5 -275 -260.5s-101.667 -257.167 -113 -402.5l19 -37l111 110v-18c34.667 34.667 73.834 58.667 117.501 72s96.5 20 158.5 20c44 0 89.5 -3.5 136.5 -10.5s99.833 -16.667 158.5 -29
s103.5 -21.166 134.5 -26.499s59.833 -8 86.5 -8c49.333 -16 74 -46.667 74 -92c0 -26.667 -6.16699 -70.167 -18.5 -130.5s-18.5 -102.833 -18.5 -127.5c-76 -104.667 -154.167 -196 -234.5 -274s-173.833 -140.833 -280.5 -188.5s-230 -71.5 -370 -71.5
c-111.333 112 -188.333 237.333 -231 376s-64 296 -64 472c0 62.667 3.16699 128.167 9.5 196.5s15.5 150.166 27.5 245.499c33.333 98.667 76.666 189.334 129.999 272.001s119.833 155 199.5 217s172.5 108 278.5 138c112.667 0 204 -18.667 274 -56s120 -86.333 150 -147
zM91.998 1142.99v-148h19v148h-19zM1235 810.993c-34 46.667 -63.666 80.8311 -88.999 102.498s-63.333 36.5 -114 44.5v-479c38 16.667 66.667 41.334 86 74.001s39.666 77.834 60.999 135.501s40 98.5 56 122.5zM939.999 884.99l-55 55h-56zM939.999 736.99
c-26.667 36.667 -61 64.333 -103 83s-87.667 28 -137 28c-44 0 -87.5 -9.83301 -130.5 -29.5s-79.5 -48 -109.5 -85s-48 -78.833 -54 -125.5l18 -18c148 0 256 3.33301 324 10s115.5 20.167 142.5 40.5s43.5 52.5 49.5 96.5zM478.999 183.989
c9.33301 -17.333 21 -27.833 35 -31.5s33 -5.5 57 -5.5c42 0 88.5 14.5 139.5 43.5s96.833 63.833 137.5 104.5c-9.33301 0 -62.833 -3.16699 -160.5 -9.5s-191.5 -9.5 -281.5 -9.5l18 -36h-129c11.333 -24 24.333 -42.833 39 -56.5s33 -23.167 55 -28.5s52 -8 90 -8v37z
" />
    <glyph glyph-name="seven" unicode="7" horiz-adv-x="1585" 
d="M1143 2378c168.667 0 278.167 -1.66309 328.5 -4.99609s88.166 -14 113.499 -32c-32 -75.333 -65.833 -148.666 -101.5 -220c-35.667 -71.333 -69.5 -127 -101.5 -167c-34 -84 -89.833 -179.167 -167.5 -285.5l-229.5 -311.5
c-75.333 -101.333 -135.5 -200.333 -180.5 -297s-67.5 -198 -67.5 -304c-20.667 0 -36.5 5.33301 -47.5 16s-22.833 27.667 -35.5 51s-21.667 37.666 -27 42.999c-26.667 -22.667 -46 -60 -58 -112s-22.167 -100 -30.5 -144s-23.166 -79.833 -44.499 -107.5
s-57 -41.5 -107 -41.5l-276 -461l-37 37c46.667 72.667 86.334 148.667 119.001 228s70.334 185.833 113.001 319.5s72.834 226 90.501 277s45.167 114.167 82.5 189.5c58 62 109 128.167 153 198.5s96.333 165 157 284s104.5 203 131.5 252s64.167 105.167 111.5 168.5
c-120.667 0 -226.834 -2.16699 -318.501 -6.5s-167.334 -10.166 -227.001 -17.499s-117.5 -18 -173.5 -32c5.33301 -10.667 11.666 -17.334 18.999 -20.001s17.166 -4.83398 29.499 -6.50098s20.833 -4.83398 25.5 -9.50098c-10 -13.333 -26.167 -30 -48.5 -50
s-39.666 -36.667 -51.999 -50s-23.166 -31.5 -32.499 -54.5s-14 -51.5 -14 -85.5c-40.667 0 -70.5 -9.16699 -89.5 -27.5s-34.333 -44 -46 -77s-23.834 -57.667 -36.501 -74s-35.334 -24.5 -68.001 -24.5c18 70.667 52.167 173.667 102.5 309s88.833 251.666 115.5 348.999
s40 197.666 40 301c75.333 24.667 136.666 37 183.999 37c46.667 0 99.834 -6.16699 159.501 -18.5l179 -37c59.667 -12.333 112.834 -18.5 159.501 -18.5c46 0 82.333 1.83301 109 5.5s58 14.167 94 31.5zM387 2249v37h-55v-74c24.667 24.667 43 37 55 37zM479 2249l74 37
h-74v-37zM1161 1898l313.999 388c-19.333 -9.33301 -46.666 -18 -81.999 -26s-63 -19 -83 -33s-32.667 -37.333 -38 -70l18 -19c-18 -36.667 -54.667 -55 -110 -55c24.667 -12.667 37 -31 37 -55c0 -22 -9.33301 -48.333 -28 -79s-28 -47.667 -28 -51zM1051 2157
c20 0 40.333 5 61 15s31 23.333 31 40l-166 -55h74zM1032 1585l-74 -110l19 -19l74 111z" />
    <glyph glyph-name="eight" unicode="8" horiz-adv-x="1530" 
d="M1401 1567c3.33301 -10 9.33105 -26.166 17.998 -48.499s15 -39.166 19 -50.499s8 -25 12 -41s6 -31 6 -45c0 -10 -1.5 -19.667 -4.5 -29s-7.16699 -18.5 -12.5 -27.5l-20 -35.5l-239 -239l98.5 -79c36.333 -29.333 68.833 -60 97.5 -92s52.334 -68.833 71.001 -110.5
s28 -89.167 28 -142.5c-59.333 -32 -134 -96.5 -224 -193.5s-164.833 -169.333 -224.5 -217s-137.5 -76.834 -233.5 -87.501c-73.333 -36.667 -159.333 -55 -258 -55c-81.333 0 -162.333 14.833 -243 44.5s-172 70.167 -274 121.5c0 45.333 9.16699 86.166 27.5 122.499
s47 79.833 86 130.5s66.833 89.834 83.5 117.501s25 57.5 25 89.5c0 30 -31 85.333 -93 166c6 111.333 32 210.666 78 297.999s106.833 164.333 182.5 231s167.167 130 274.5 190c46 28 103.833 50.333 173.5 67s140.834 25 213.501 25c68 0 131.5 -9.5 190.5 -28.5
s106.167 -46.167 141.5 -81.5zM828.998 1511l277 56h-184zM1364 1456c-13.333 28.667 -29.832 54.332 -49.499 76.999s-46.167 34 -79.5 34l37 -111c-24 -64.667 -57.833 -125 -101.5 -181s-88.5 -103.667 -134.5 -143s-84 -66.333 -114 -81h73
c20.667 18 59 44.833 115 80.5s100.167 66.334 132.5 92.001s60.666 58.167 84.999 97.5s36.5 84.333 36.5 135zM1106 1401c-12.667 12 -43.333 17.998 -92 17.998c17.333 -8 27.833 -16.167 31.5 -24.5s5.5 -18.5 5.5 -30.5c0 -11.333 -6.16699 -24.833 -18.5 -40.5
l-37 -47.5c-12.333 -16 -18.5 -29.667 -18.5 -41c7.33301 10.667 24 23.334 50 38.001s45.667 30.334 59 47.001s20 43.667 20 81zM461 1346l-111 -129l37 -19l111 129zM922 1346h-110.999c-13.333 -8.66699 -48.5 -24.5 -105.5 -47.5s-101.5 -48.5 -133.5 -76.5
s-50.667 -66.667 -56 -116c4.66699 2 47.167 14.5 127.5 37.5s141.166 48.5 182.499 76.5s73.333 70 96 126zM442.001 939.997c-4.66699 9.33301 -21.167 26.833 -49.5 52.5s-42.5 45.167 -42.5 58.5c-5.33301 -10 -17 -24 -35 -42s-32 -34.667 -42 -50s-15 -34 -15 -56
c44.667 0 86.5 4 125.5 12s58.5 16.333 58.5 25zM553.001 865.997l-111 -73l19 -19l110 74zM1290 810.997c-24.667 24.667 -67.6709 37.001 -129.004 37.001c-41.333 0 -79.166 -10 -113.499 -30s-85.666 -54.333 -153.999 -103s-127.666 -84.834 -177.999 -108.501
s-104.5 -35.5 -162.5 -35.5l-53.5 -34.5c-20.333 -13 -38.333 -26.167 -54 -39.5s-29.334 -29.5 -41.001 -48.5s-17.5 -39.5 -17.5 -61.5c0 -8.66699 4 -20.834 12 -36.501s16.333 -28.167 25 -37.5c108 6 219.333 31.333 334 76s218.834 104.334 312.501 179.001
s166.834 155.667 219.501 243zM1346 626.998l73 18v92zM257.997 515.998l-37 -92l37 -18l18 110h-18zM1180 423.998c-85.333 -68.667 -176.334 -120.334 -273.001 -155.001s-208.667 -63 -336 -85l128.5 58l145.5 64.5c54.667 23.667 112.334 46.334 173.001 68.001
s114.667 38.167 162 49.5zM202.996 202.998c-12 9.33301 -27.333 25.667 -46 49s-28 50 -28 80z" />
    <glyph glyph-name="nine" unicode="9" horiz-adv-x="1124" 
d="M1124 1456c-64 -257.333 -135.501 -491.501 -214.501 -702.501s-173.167 -400.833 -282.5 -569.5c-33.333 0 -56.166 -7 -68.499 -21s-21.5 -35.5 -27.5 -64.5s-13 -51.5 -21 -67.5s-24.333 -26.333 -49 -31c0 70.667 -1.83301 116.834 -5.5 138.501
s-14.167 36.834 -31.5 45.501l258 682c-46.667 0 -89.167 6.66699 -127.5 20s-87 35.5 -146 66.5s-106 54.333 -141 70s-75.167 25.167 -120.5 28.5l-17.5 50.5c-7 19.667 -11.833 35 -14.5 46s-4 21.833 -4 32.5c0 54.667 15.667 105.667 47 153s69.833 89 115.5 125
s102.334 75.167 170.001 117.5s110.167 70.166 127.5 83.499c69.333 0 130.5 -7.33301 183.5 -22s98.333 -32 136 -52s79.667 -44 126 -72s82.166 -47 107.499 -57zM460.999 1456c-43.333 -32 -84.6699 -67.332 -124.003 -105.999s-71.666 -83 -96.999 -133
c0 25.333 12.333 57.166 37 95.499s54.334 71.833 89.001 100.5s66.334 43 95.001 43zM865.995 1364c-8 24 -19.333 42.333 -34 55s-27.667 19 -39 19c-21.333 0 -49.833 -6.16699 -85.5 -18.5s-62.5 -18.5 -80.5 -18.5c-58.667 -24.667 -101 -66.5 -127 -125.5
s-39 -121.833 -39 -188.5c46.667 0 88.834 8.33301 126.501 25s71.5 38.167 101.5 64.5s63.667 60.833 101 103.5s62.666 70.667 75.999 84zM976.995 1290c0 -26.667 -10 -47.167 -30 -61.5s-53.5 -33.833 -100.5 -58.5s-77.167 -46 -90.5 -64
c42 70 115.667 131.333 221 184zM810.995 922l-74 -240h19l73 240h-18z" />
    <glyph glyph-name="colon" unicode=":" horiz-adv-x="700" 
d="M608 1954c0 -83.333 -10.168 -157.5 -30.501 -222.5s-59.166 -113.833 -116.499 -146.5c-36 0 -78 -6.16699 -126 -18.5s-79.667 -18.5 -95 -18.5c-37.333 0 -62 18.667 -74 56c0 55.333 15.333 103.333 46 144s76.667 90.667 138 150l185 19v37h73zM460.999 1788l55 -19
l19 93zM386.999 1124c0 -29.333 5.16797 -51.333 15.501 -66s23.5 -26.167 39.5 -34.5l53 -27.5c19.333 -10 32.666 -22.667 39.999 -38c7.33301 11.333 13 22.833 17 34.5s8.33301 18.167 13 19.5s19 2 43 2c0 -53.333 -8.5 -94 -25.5 -122s-45.5 -65.167 -85.5 -111.5
s-64.333 -85.166 -73 -116.499c-8 -4 -22.833 -13.5 -44.5 -28.5s-40.167 -26.333 -55.5 -34s-31.333 -11.5 -48 -11.5c-7.33301 0 -19 3.83301 -35 11.5s-28.667 16.167 -38 25.5c-25.333 25.333 -44 48.666 -56 69.999s-18 41 -18 59c0 28.667 8.33301 57.334 25 86.001
s40.667 62.167 72 100.5s56 71.166 74 98.499s28.667 55 32 83h55z" />
    <glyph glyph-name="semicolon" unicode=";" horiz-adv-x="700" 
d="M608 1401c0 -83.333 -10.166 -157.499 -30.499 -222.499s-59.166 -113.833 -116.499 -146.5c-36 0 -78 -6.16699 -126 -18.5s-79.667 -18.5 -95 -18.5c-37.333 0 -62 18.667 -74 56c0 31.333 5.66699 60.5 17 87.5s26.166 52.667 44.499 77s38.666 47.666 60.999 69.999
l61.5 60.5l185 18v37h73zM461.001 1235l55 -18l19 92zM387.001 571.001c0 -29.333 5.33203 -51.5 15.999 -66.5s23.834 -26.333 39.501 -34l52.5 -26.5c19.333 -10 32.666 -22.667 39.999 -38c8 12 13.833 23.5 17.5 34.5s7.83398 17.167 12.501 18.5s19 2 43 2
c0 -53.333 -8.5 -94 -25.5 -122s-45.5 -65.167 -85.5 -111.5s-64.333 -85.166 -73 -116.499c-8 -4 -22.833 -13.5 -44.5 -28.5s-40.167 -26.333 -55.5 -34s-31.333 -11.5 -48 -11.5c-7.33301 0 -19 3.83301 -35 11.5s-28.667 16.167 -38 25.5
c-25.333 25.333 -44 48.666 -56 69.999s-18 41 -18 59c0 28.667 8.33301 57.334 25 86.001s40.667 62.167 72 100.5s56 71.166 74 98.499s28.667 55 32 83h55z" />
    <glyph glyph-name="less" unicode="&#x3c;" horiz-adv-x="2175" 
d="M2175 1640l-91.9941 -73v55c-39.333 0 -74.333 -5.83301 -105 -17.5s-58.834 -25.334 -84.501 -41.001l-87.5 -52.5c6 -6 11 -12.167 15 -18.5s7.33301 -10.833 10 -13.5s6.66699 -4 12 -4s17.5 9.16699 36.5 27.5s31.5 27.5 37.5 27.5
c7.33301 0 14.666 -5.5 21.999 -16.5s12.333 -17.833 15 -20.5l-203 -111l74 -73c-12.667 -41.333 -35.167 -70.666 -67.5 -87.999s-79.333 -34.333 -141 -51s-109.834 -35.5 -144.501 -56.5s-58.334 -54.167 -71.001 -99.5c-56 -8.66699 -108.167 -22.667 -156.5 -42
s-99 -44.833 -152 -76.5l-153 -90.5c-49 -28.667 -91.833 -51.334 -128.5 -68.001c20.667 -10 35 -25.667 43 -47s12 -67 12 -137c72.667 -43.333 168.167 -72.666 286.5 -87.999s226.5 -28.333 324.5 -39s187.5 -34.667 268.5 -72s144.167 -100 189.5 -188
c-24.667 32 -65.834 63.667 -123.501 95s-128 57.166 -211 77.499s-174.167 30.5 -273.5 30.5c27.333 -17.333 63.166 -44.5 107.499 -81.5s81 -66.5 110 -88.5s61.667 -41 98 -57s78.5 -26.333 126.5 -31c0 -30.667 -20.667 -50.667 -62 -60s-88 -14 -140 -14l-215 80.5
c-68 26.333 -155 61.833 -261 106.5l-244 104.5l-220 95.5c-30 22 -72 50.5 -126 85.5l-194 126.5l-183.5 123l-123.5 89c62 124.667 144.833 211.5 248.5 260.5s246.5 89 428.5 120s329 65.833 441 104.5s212.333 110.334 301 215.001
c20.667 -4 52.334 -7.33301 95.001 -10s76.667 -7 102 -13s45.666 -16.667 60.999 -32c8.66699 5.33301 33.834 22.333 75.501 51s76 51.167 103 67.5s58.167 31.333 93.5 45s67.666 20.5 96.999 20.5c61.333 0 104.333 -12.333 129 -37zM1604.01 1493
c-8.66699 -30 -24.334 -51.332 -47.001 -63.999s-51.167 -21.5 -85.5 -26.5l-102.5 -14.5c-34 -4.66699 -60.333 -12.667 -79 -24c61.333 37.333 118.333 68.166 171 92.499s100.334 36.5 143.001 36.5zM1198.01 1143l258 74h-110c-12.667 -12.667 -40.5 -27 -83.5 -43
s-64.5 -26.333 -64.5 -31zM793.006 1106c-16 4.66699 -31.167 9.83301 -45.5 15.5s-28.833 10.667 -43.5 15s-28 6.5 -40 6.5c-46.667 0 -89.167 -11.167 -127.5 -33.5s-71 -49.666 -98 -81.999s-60.333 -78.833 -100 -139.5s-60.5 -92.334 -62.5 -95.001h93
c0 13.333 -3.16699 25 -9.5 35s-9.5 16.667 -9.5 20c21.333 30 47.333 52.667 78 68s58.167 24.833 82.5 28.5s62.666 8.5 114.999 14.5s89.5 12 111.5 18l-55 55c0 22 5.33301 37 16 45s27.834 14.167 51.501 18.5s38.167 7.83301 43.5 10.5zM147.006 829l221.999 257.999
c-34.667 -6.66699 -72 -19 -112 -37s-74.333 -39.833 -103 -65.5s-43 -52.834 -43 -81.501c0 -7.33301 3.83301 -19.166 11.5 -35.499s15.834 -29.166 24.501 -38.499zM793.005 589.999c-9.33301 14 -26.333 22.666 -51 25.999s-47.5 7 -68.5 11s-36.5 16.333 -46.5 37
c54 0 90.167 -1.16699 108.5 -3.5s31 -8.16602 38 -17.499s13.5 -27 19.5 -53zM1419 183.998c-24.667 34 -56.335 60.168 -95.002 78.501s-90.167 35.666 -154.5 51.999s-111.166 29.5 -140.499 39.5s-59 27.333 -89 52c100.667 0 189.334 -18 266.001 -54
s147.667 -92 213 -168z" />
    <glyph glyph-name="equal" unicode="=" horiz-adv-x="1456" 
d="M1235 1327l-74.002 -110.001l111 -93c-139.333 -61.333 -280.666 -92 -423.999 -92c-47.333 0 -102.833 1.5 -166.5 4.5l-211 9.5c-77 3.33301 -153.833 5 -230.5 5c-3.33301 24 -14.833 45.5 -34.5 64.5s-47.167 41.5 -82.5 67.5s-61.666 49.5 -78.999 70.5
s-26 45.5 -26 73.5c56 0 126.5 3.5 211.5 10.5s161 13.833 228 20.5s128.333 12.334 184 17.001s118.167 7 187.5 7c142.667 0 278 -18.333 406 -55zM1180 1327c-16 -10 -32.333 -16.3311 -49 -18.998s-47.667 -5.33398 -93 -8.00098s-78 -6 -98 -10
c24 11.333 46.167 18.166 66.5 20.499s49.333 4.5 87 6.5s66.5 5.33301 86.5 10zM865.998 1198c-208.667 0 -344.332 -1.66699 -406.999 -5s-111.334 -14 -146.001 -32c76.667 -24.667 126 -37 148 -37c44 0 83.833 3.5 119.5 10.5s83.5 18.167 143.5 33.5
s107.333 25.333 142 30zM848 1087h147v19h-147v-19zM1382 793.001c4.66699 -4.66699 11.166 -12.168 19.499 -22.501s16.833 -18.5 25.5 -24.5s18.334 -9 29.001 -9c-86.667 -38.667 -180.834 -66 -282.501 -82s-217.334 -27 -347.001 -33l-383 -18
c-125.667 -6 -230.5 -17 -314.5 -33c-9.33301 20 -14.666 40.5 -15.999 61.5s-2.83301 41.833 -4.5 62.5s-7.16699 41 -16.5 61c29.333 4 82 7.33301 158 10s139.5 7 190.5 13s94.5 16.667 130.5 32c-42 21.333 -88.667 37.333 -140 48s-114.666 21.834 -189.999 33.501
s-125 21.5 -149 29.5c93.333 0 181 -5.33301 263 -16s183.833 -26.5 305.5 -47.5s237.167 -37.167 346.5 -48.5s234.333 -17 375 -17z" />
    <glyph glyph-name="greater" unicode="&#x3e;" horiz-adv-x="2304" 
d="M2230 1401c0 -55.333 -12.3389 -99.9893 -37.0059 -133.989s-49.334 -57.667 -74 -71c-24.667 -13.333 -66.334 -33.5 -125.001 -60.5s-96.667 -49.167 -114 -66.5c4.66699 -25.333 13.334 -44 26.001 -56s27.667 -20.167 45 -24.5s38.333 -8.83301 63 -13.5
s41.334 -10.334 50.001 -17.001l37 37l19 -37c-125.333 0 -235.833 -23.5 -331.5 -70.5s-206 -122.5 -331 -226.5s-216.833 -177 -275.5 -219s-133.334 -72.667 -224.001 -92c-38.667 -10.667 -83.167 -22 -133.5 -34s-93.166 -23.667 -128.499 -35
s-71.333 -27.5 -108 -48.5s-73 -49.5 -109 -85.5l19 -36c-4 -8 -9.16699 -15.5 -15.5 -22.5s-13.5 -13.167 -21.5 -18.5s-14.333 -10.333 -19 -15c-18.667 0 -48.834 6.16699 -90.501 18.5s-72.834 18.5 -93.501 18.5c42 4.66699 75.833 14.667 101.5 30
s53.834 38.333 84.501 69s56.834 53.667 78.501 69s50.167 27 85.5 35c113.333 24.667 225.333 63.167 336 115.5s214 112.166 310 179.499s188 141 276 221l-19 18l-368.5 -149l-413.5 -166.5c-125.333 -48.333 -248.666 -91.333 -369.999 -129s-241 -67.5 -359 -89.5
l184 111c-24.667 24.667 -37 43 -37 55c0 8.66699 3.16699 17.167 9.5 25.5s16.5 19.5 30.5 33.5s25.5 26.5 34.5 37.5s15.167 21.833 18.5 32.5c120.667 0 230.334 18.167 329.001 54.5s217.167 93.666 355.5 171.999s247.166 136.166 326.499 173.499
s172.333 63.666 279 78.999l37 37c-76 0 -138.167 5.83301 -186.5 17.5s-116 30.167 -203 55.5s-147.833 38 -182.5 38c-21.333 0 -37.666 -1.83301 -48.999 -5.5s-25.666 -14.167 -42.999 -31.5c0 75.333 -15.667 120.833 -47 136.5s-85.333 30 -162 43
s-129.667 39.167 -159 78.5l-388 92c64 0 148.833 13.833 254.5 41.5s174.5 44.5 206.5 50.5c-45.333 28.667 -121.833 67.5 -229.5 116.5s-184.834 90.167 -231.501 123.5c102.667 -12.667 198.834 -33.334 288.501 -62.001s201.5 -69.667 335.5 -123
s244.167 -95.333 330.5 -126s179.833 -56 280.5 -76c29.333 -44.667 67.166 -74.167 113.499 -88.5s110 -26.833 191 -37.5s145.833 -26.834 194.5 -48.501s85.334 -61.834 110.001 -120.501c28 0 61.333 16.333 100 49s66.667 53 84 61v74c-136 50 -254.5 100 -355.5 150
l-465 236c-209 107.333 -384 190.666 -525 249.999s-282.167 105.333 -423.5 138l-166 129l18 19c146 -80.667 296.333 -155.834 451 -225.501s333.334 -145.334 536.001 -227.001l539 -223c156.667 -67 305.334 -136.833 446.001 -209.5zM810.994 1475.01l-129 18l92 -18
h37zM1160.99 1419.01l479 -184l19 18l-479 185zM1879.99 1235.01c-10 14.667 -24.833 23.001 -44.5 25.001s-39.167 3.66699 -58.5 5s-34 9.66602 -44 24.999c12 -12 21 -24.833 27 -38.5s9 -37.5 9 -71.5c25.333 0 44.833 3.83301 58.5 11.5s31.167 22.167 52.5 43.5z
M1326.99 1180.01l-37 18l-203 55zM1252.99 885.012l129 37h-92z" />
    <glyph glyph-name="question" unicode="?" 
d="M1217 1659c-12.667 -86.667 -40.332 -156.331 -82.999 -208.998s-104.5 -108.667 -185.5 -168s-143.667 -112.166 -188 -158.499s-76.5 -107.5 -96.5 -183.5c0 -44.667 10.5 -80.667 31.5 -108s52.833 -58.5 95.5 -93.5s75.167 -68.5 97.5 -100.5s33.5 -72.667 33.5 -122
l184 -18c0 -56 -11.5 -106.333 -34.5 -151s-57.833 -96.334 -104.5 -155.001s-80.334 -104.334 -101.001 -137.001c-120 0 -217 6.83301 -291 20.5s-124.333 37.5 -151 71.5c0 36.667 7.33301 72.5 22 107.5s37.667 78.333 69 130s55.833 94.667 73.5 129
s30.5 72.166 38.5 113.499c23.333 -24.667 41.666 -37 54.999 -37c10.667 0 22.667 4.66699 36 14l39.5 27.5c13 9 24.833 13.5 35.5 13.5c-14 27.333 -45.5 57.166 -94.5 89.499s-85.5 61.166 -109.5 86.499s-36 65 -36 119c0 82.667 15.5 155 46.5 217
s78.833 135.333 143.5 220s114.667 159.334 150 224.001s57 139.334 65 224.001c-12.667 6.66699 -26.834 11 -42.501 13s-43.334 3.33301 -83.001 4s-114.5 1 -224.5 1c-69.333 0 -124.666 -15.333 -165.999 -46s-82.166 -76.334 -122.499 -137.001s-75 -105.5 -104 -134.5
s-70.167 -45.833 -123.5 -50.5l111 239c-16.667 0 -32.834 -5.16699 -48.501 -15.5s-35.5 -26.166 -59.5 -47.499s-43.333 -37 -58 -47v-37h-37v92c124.667 134.667 262.834 251.167 414.501 349.5s308.5 159.833 470.5 184.5c28.667 -38.667 55.834 -80.334 81.501 -125
c25.667 -44.667 53.334 -95.5 83.001 -152.5s56.167 -104 79.5 -141s52.666 -75.5 87.999 -115.5zM922.002 2083c-74 0 -136.168 -6.33398 -186.501 -19.001s-105.166 -31 -164.499 -55c18 0 38.167 2.33301 60.5 7s43.333 9.33398 63 14.001s38.167 8.5 55.5 11.5
s37.666 4.5 60.999 4.5c24.667 0 45.334 -2 62.001 -6s33 -14.333 49 -31v74zM1032 1548c-4.66699 15.333 -7.83203 38.168 -9.49902 68.501s-3.83398 52.666 -6.50098 66.999s-9.66699 24.5 -21 30.5l-18 -166h55zM958.003 461.004h74v37h-74v-37zM793.003 350.004
l-222 -18.001v18l-55 -55c0 -31.333 0.833008 -56.333 2.5 -75s7 -37.667 16 -57s21.167 -36.666 36.5 -51.999l-55 92c31.333 8.66699 66 29.5 104 62.5s65.667 55.333 83 67s47.333 17.5 90 17.5zM866.003 295.003h92v55z" />
    <glyph glyph-name="at" unicode="@" horiz-adv-x="1806" 
d="M1585 1217c0 -87.333 1.83887 -155.669 5.50586 -205.002s13.667 -92.5 30 -129.5s41.5 -60.833 75.5 -71.5c1.33301 -4 5.16602 -14.5 11.499 -31.5s11.166 -30.833 14.499 -41.5s6 -22.167 8 -34.5s3 -25.5 3 -39.5c0 -34.667 -7 -68.5 -21 -101.5
s-33 -64.167 -57 -93.5s-50.833 -57.833 -80.5 -85.5l-99.5 -88.5c-50.667 -10 -91.334 -29.333 -122.001 -58s-67.334 -66.167 -110.001 -112.5s-88.334 -81.833 -137.001 -106.5c-198.667 0 -384.834 32.833 -558.501 98.5s-313.167 168.167 -418.5 307.5
c0 132.667 15.833 254 47.5 364s71.667 206.333 120 289s110 173.667 185 273s123.5 165.333 145.5 198c73.333 37.333 165.333 56 276 56c37.333 0 76.833 -2.16699 118.5 -6.5s80 -10.166 115 -17.499s73.833 -18 116.5 -32c21.333 -32 51.5 -60.333 90.5 -85l106 -64.5
c31.667 -18.333 60.167 -41.666 85.5 -69.999s42 -65.5 50 -111.5zM590.006 1346l258 202h-74zM1161.01 1475c-138.667 -10 -261.502 -41.6641 -368.502 -94.9971s-186.833 -132.333 -239.5 -237l37 -37l-166 -148c0 -138.667 0.833008 -240.5 2.5 -305.5
s6.33398 -120.667 14.001 -167s20.167 -83.833 37.5 -112.5s42.333 -54.667 75 -78c73.333 -36.667 165.333 -55 276 -55c99.333 0 185.333 18.333 258 55l-55 55c0 15.333 4.66699 30 14 44l27.5 42c9 14 13.5 28.333 13.5 43c-28.667 0 -53.834 -6.5 -75.501 -19.5
s-45.834 -32.833 -72.501 -59.5s-48.667 -46.834 -66 -60.501s-38 -22.5 -62 -26.5c-131.333 0 -235.666 31 -312.999 93c0 114.667 14.833 218 44.5 310s67.334 171.667 113.001 239s97.5 130 155.5 188c95.333 0 168.166 -3 218.499 -9s88 -16.833 113 -32.5
s43.5 -38.834 55.5 -69.501c-2.66699 -22 -6.16699 -67 -10.5 -135s-12.166 -125.5 -23.499 -172.5s-30.666 -91.833 -57.999 -134.5h55c49.333 113.333 74 260.666 74 441.999c0 182 -24.667 329.667 -74 443zM1475 922c24 73.333 36 122.336 36 147.003
c0 67.333 -20.333 125.666 -61 174.999s-94 95.333 -160 138c0 -54.667 3.16699 -114.334 9.5 -179.001s15.5 -146.334 27.5 -245.001c0 -152 -24.667 -268.667 -74 -350zM811.004 682.003c0 27.333 2.5 52.166 7.5 74.499s13.333 52 25 89s19.167 62.5 22.5 76.5l-202 -258
c0 -49.333 1.16699 -91.5 3.5 -126.5s7.16602 -66.833 14.499 -95.5c39.333 0 72 8.16699 98 24.5s57.5 41.333 94.5 75s64.833 55.834 83.5 66.501c-22 0 -38.5 3.16699 -49.5 9.5s-26.167 17.333 -45.5 33s-36.666 26.167 -51.999 31.5zM1585 608.003v73.999
c-16.667 0 -27.5 -3.66699 -32.5 -11s-8.66699 -21.5 -11 -42.5s-5 -36.667 -8 -47s-10.5 -19.833 -22.5 -28.5c6.66699 6.66699 14 14.834 22 24.501s16 17.167 24 22.5s17.333 8 28 8zM295.004 590.002l37 -184h37l-56 184h-18zM1456 406.002l19 -37l-56 -37l-18 18
l239 240c0 -32 -16.833 -61.833 -50.5 -89.5s-78.167 -59.167 -133.5 -94.5zM258.004 369.002c0 3.33301 -5.5 13.5 -16.5 30.5s-20.167 35.5 -27.5 55.5s-11 46.667 -11 80zM1161 350.002c0 26.667 7 46.333 21 59s39.5 32.167 76.5 58.5s59.833 48.833 68.5 67.5
c0 -34 -8.66699 -62 -26 -84s-38.833 -40.667 -64.5 -56zM719.004 111.001h313v18h-313v-18z" />
    <glyph glyph-name="A" unicode="A" horiz-adv-x="2918" 
d="M2304 1567l398.995 -62.001v-153c-20.667 -10 -52.5 -22.833 -95.5 -38.5s-82.833 -23.5 -119.5 -23.5c0 -40 7.83301 -78.333 23.5 -115s38.667 -77.167 69 -121.5s53.333 -80.5 69 -108.5s23.5 -56.333 23.5 -85c0 -102 9.83301 -202.833 29.5 -302.5
s48 -192.334 85 -278.001s80.5 -158.5 130.5 -218.5c-40.667 0 -73.5 11.333 -98.5 34s-54.5 58.667 -88.5 108s-65.833 87.833 -95.5 115.5s-68.5 44.5 -116.5 50.5c-90 98 -194.167 181.833 -312.5 251.5s-218.666 120 -300.999 151l-431.5 155
c-205.333 72.333 -358.666 132.166 -459.999 179.499c-46.667 -33.333 -78.334 -77.666 -95.001 -132.999s-31.5 -133.666 -44.5 -234.999s-30.5 -181.333 -52.5 -240s-60.333 -101.667 -115 -129c0 88 -7.66699 166.333 -23 235s-38.666 133.667 -69.999 195
c-27.333 -41.333 -48.166 -85.166 -62.499 -131.499s-24.166 -86.333 -29.499 -120s-13.833 -92.667 -25.5 -177s-23.5 -146.5 -35.5 -186.5c-27.333 40.667 -44.5 77.834 -51.5 111.501s-10.5 78.5 -10.5 134.5c0 54.667 9.83301 111 29.5 169s44.834 117.667 75.501 179
l99.5 202c35.667 73.333 59.834 135.666 72.501 186.999l-676 93l707 122l768 2335c76.667 -166 151.667 -338.833 225 -518.5s139.166 -347.834 197.499 -504.5l202 -555zM1106 2365c14 68.667 38.332 132.668 72.999 192.001s86.334 139.166 155.001 239.499
s119.5 185 152.5 254s49.5 137.5 49.5 205.5c0 28 -6.5 63.333 -19.5 106s-26.833 79 -41.5 109zM1873.99 1567c-12.667 71.333 -26.667 162 -42 272s-29 196.833 -41 260.5s-31 132.834 -57 207.5c-26 74.667 -61.333 145.334 -106 212
c-64 -56.667 -117 -124.667 -159 -204s-81.167 -176.5 -117.5 -291.5l-97.5 -312.5c-28.667 -93.333 -57.667 -172 -87 -236zM1197.99 2089l-215 -399l31 -31l215 399zM1873.99 1290h-461h461zM1934.99 1167l-552.999 -92.001c-40.667 20.667 -112.334 31 -215.001 31
c51.333 -15.333 131 -37.666 239 -66.999s194.833 -54.5 260.5 -75.5s136 -47.833 211 -80.5s145.5 -71 211.5 -115zM2580 552.999c-61.333 39.333 -107.667 70.333 -139 93s-62 55.167 -92 97.5s-45 91.5 -45 147.5v-215c80.667 -82 172.667 -123 276 -123z" />
    <glyph glyph-name="B" unicode="B" horiz-adv-x="2734" 
d="M2642 1966c0 -63.333 -10.5 -110.169 -31.5 -140.502s-53.333 -63.666 -97 -99.999s-72.5 -68.833 -86.5 -97.5c13.333 -12.667 21.833 -31.167 25.5 -55.5s5.5 -56.833 5.5 -97.5l-123 -62c14 -46.667 45 -96 93 -148l131 -137.5
c39.333 -39.667 73.166 -83.5 101.499 -131.5s42.5 -103.667 42.5 -167l-487 -232.5l-471 -204.5l-457.5 -183.5l-550.5 -208.5c-33.333 0 -54.166 5.83301 -62.499 17.5s-15.166 30.667 -20.499 57s-16.333 46.166 -33 59.499s-49.667 20 -99 20v1628
c-8.66699 4 -24.834 12.833 -48.501 26.5s-42.167 22.834 -55.5 27.501s-29.666 7 -48.999 7c-28 0 -54.5 -6 -79.5 -18s-58.667 -30.667 -101 -56s-74.5 -41.666 -96.5 -48.999c-9.33301 0 -24.333 5.16699 -45 15.5s-36.334 15.5 -47.001 15.5l522 369v92
c14 -14 25.333 -24.833 34 -32.5s18 -14.5 28 -20.5s20 -9 30 -9c24.667 0 59 10.667 103 32s78 36.833 102 46.5s58.333 14.5 103 14.5c74.667 0 146.167 2.16699 214.5 6.5s162 12.166 281 23.5c119 11.333 209.667 19.333 272 24s123.833 7 184.5 7
c100 0 194.667 -9.5 284 -28.5s175.666 -53.833 259 -104.5c83.333 -50.667 158.333 -119 225 -205zM2212 1843c-47.333 12.667 -133.501 42.668 -258.501 90.001l-260.5 97c-48.667 17.333 -119.667 36.666 -213 57.999s-187.333 32 -282 32
c141.333 0 267 -5.83301 377 -17.5s202.833 -28.667 278.5 -51s142.834 -50.833 201.501 -85.5s111 -75.667 157 -123zM2396 2028v30l-184 92zM1905 1782c-78.667 49.333 -159.666 87.332 -242.999 113.999s-168.166 45 -254.499 55s-186.833 15 -301.5 15
c-37.333 0 -65 -17.833 -83 -53.5s-29.167 -76.667 -33.5 -123s-6.5 -100.166 -6.5 -161.499c93.333 0 174.666 6.66699 243.999 20s145.166 32.5 227.499 57.5s155 44 218 57s140.5 19.5 232.5 19.5zM2335 1751h92l92 215zM1137 1444h368v31h-368v-31zM1137 1260
l-215 0.000976562v-93c40 0 80.5 10.167 121.5 30.5s72.167 41.166 93.5 62.499zM2212 1137c-128 0 -333.002 20.334 -615.002 61.001c-137.333 0 -256 -12.667 -356 -38s-186 -74 -258 -146l369 30c0 -25.333 -5.33301 -47.333 -16 -66s-26 -37.334 -46 -56.001
c-114.667 0 -198.667 -27.833 -252 -83.5s-86 -124.167 -98 -205.5s-18 -190 -18 -326c136.667 46 261.334 96.5 374.001 151.5s217 115 313 180s191.833 137.667 287.5 218s200.834 173.833 315.501 280.5zM2304 736.999l276 123l-122 246c0 -98.667 -11 -177.5 -33 -236.5
s-62.333 -103.167 -121 -132.5zM2304 951.999l-369 -276h31l369 246z" />
    <glyph glyph-name="C" unicode="C" horiz-adv-x="3226" 
d="M2888 2765l-184.996 -62c0 -35.333 15.5 -74.833 46.5 -118.5l92.5 -131c30.667 -43.667 46 -83.167 46 -118.5c0 -31.333 -30.667 -62 -92 -92c-16 16 -38.333 47.667 -67 95s-52.667 83.666 -72 109c-19.333 25.333 -47.833 48.833 -85.5 70.5
s-85.834 32.5 -144.5 32.5c34.667 -43.333 56 -78.166 64 -104.499s18.833 -75.333 32.5 -147s32.5 -131.167 56.5 -178.5c-40.667 0 -70.834 14.833 -90.5 44.5c-19.667 29.667 -39.834 75.167 -60.501 136.5s-41.667 107.833 -63 139.5s-52.333 47.5 -93 47.5
c-61.333 0 -112.333 -20.333 -153 -61l-203 -177.5c-92 -81 -171.5 -163.5 -238.5 -247.5s-122.833 -180.833 -167.5 -290.5s-67 -229.5 -67 -359.5c74.667 -44.667 157.5 -76.334 248.5 -95.001s192.5 -28 304.5 -28l184 307c0 -96 -22.167 -171.5 -66.5 -226.5
s-110.333 -110.833 -198 -167.5s-152.5 -107.834 -194.5 -153.501s-63 -108.834 -63 -189.501c44.667 -30 96.834 -52.833 156.501 -68.5s120.167 -23.5 181.5 -23.5c55.333 8 132.166 25.333 230.5 52c98.333 26.667 168.166 45 209.5 55c41.333 10 89 15 143 15
c12.667 24.667 34.5 59 65.5 103s56.333 82 76 114s37 71.167 52 117.5s22.5 98.833 22.5 157.5c80 40.667 131 61 153 61c35.333 0 61.333 -12.5 78 -37.5s34.167 -64.833 52.5 -119.5s37.166 -98.334 56.499 -131.001s49.333 -59.334 90 -80.001
c-118 -81.333 -233.333 -155.333 -346 -222s-230 -127 -352 -181s-249 -97.667 -381 -131s-264 -50 -396 -50c-69.333 0 -127 15.167 -173 45.5s-95.667 77.5 -149 141.5s-96.666 112 -129.999 144s-77.333 54.667 -132 68c0 -139.333 29.5 -247.833 88.5 -325.5
s142.167 -143.167 249.5 -196.5h584c-44 -44 -88.833 -75.5 -134.5 -94.5s-93.167 -28.5 -142.5 -28.5c-39.333 0 -79.5 6 -120.5 18s-96 30.833 -165 56.5s-128.333 45.334 -178 59.001s-99.834 20.5 -150.501 20.5c-40.667 110.667 -77.334 231.834 -110.001 363.501
s-58.334 266.334 -77.001 404.001s-28 270.834 -28 399.501c0 150.667 17.5 296 52.5 436s89.167 261 162.5 363c47.333 41.333 100.833 98.833 160.5 172.5l184.5 226c63.333 77 128.666 144 195.999 201s143 102.833 227 137.5c82.667 0 161.834 -8 237.5 -24
c75.667 -16 147.334 -36 215 -60c67.667 -24 138.334 -51.667 212 -83zM61.0039 2765l-61 153h61v-153zM2396 2888c-138 0 -263.168 -20.5 -375.501 -61.5s-212 -95.167 -299 -162.5s-161.167 -137.833 -222.5 -211.5s-120.666 -153.834 -177.999 -240.5
c92 136.667 162 236.334 210 299c48 62.667 110.5 124.167 187.5 184.5s170.5 107.5 280.5 141.5s242.333 51 397 51zM1505 2089c65.333 16 126 57.833 182 125.5l163.5 190.5c53 59.333 122.167 97.333 207.5 114zM1198 1290v-307h62v307h-62zM1690 1137
c-18 17.333 -35.8311 28 -53.498 32s-44.834 7.83301 -81.501 11.5s-63.334 9.5 -80.001 17.5v-92zM3103 1106c0 -50 -8.83301 -85.833 -26.5 -107.5s-40.167 -36.167 -67.5 -43.5l-86 -22.5c-30 -7.66699 -52 -21.5 -66 -41.5l123.5 128.5
c45 45.667 85.833 74.5 122.5 86.5z" />
    <glyph glyph-name="D" unicode="D" horiz-adv-x="2550" 
d="M2181 2089c72.667 -62 128.832 -133.669 168.499 -215.002s67.667 -182.666 84 -303.999s24.5 -276 24.5 -464c-100.667 -130 -201.5 -244.167 -302.5 -342.5s-197.5 -182.333 -289.5 -252s-190.333 -138.834 -295 -207.501l-373 -243c18.667 0 55.334 18.333 110.001 55
s127.834 88.667 219.501 156s166.167 120 223.5 158c-136 0 -259.5 -8.66699 -370.5 -26s-215.833 -39.333 -314.5 -66l-280.5 -76.5c-88.333 -24.333 -165.833 -39.833 -232.5 -46.5l92 -92l-184 -123c-10.667 16 -23 45.333 -37 88s-27.167 75.334 -39.5 98.001
s-34.333 43.334 -66 62.001s-76.5 28 -134.5 28c0 26 5.16699 50.5 15.5 73.5l31 69c10.333 23 15.5 47.5 15.5 73.5c0 90.667 -5.16699 200.334 -15.5 329.001l-31 385.5c-10.333 128.333 -15.5 238.166 -15.5 329.499c0 86.667 4.83301 169.667 14.5 249
s24.667 153 45 221s48.5 134.833 84.5 200.5s80.333 128.834 133 189.5c112.667 99.333 237.334 165.166 374.001 197.5c136.667 32.333 309 48.5 517 48.5c77.333 -6.66699 152.666 -30.5 225.999 -71.5s150.166 -97.167 230.499 -168.5l210 -186.5
c59.667 -53 113.834 -95.167 162.5 -126.5zM1290 2396c-98.667 0 -177.502 6.66699 -236.502 20s-100.833 33.5 -125.5 60.5s-37 61.5 -37 103.5l-119 -103c-35.333 -30.667 -65.333 -69.167 -90 -115.5s-37 -106.5 -37 -180.5l92 123c80.667 0 142.834 4.66699 186.501 14
s105.334 24.666 185.001 46c79.667 21.333 140.167 32 181.5 32zM1382 2519l400 -184l30 61l-399 184zM1690 2120l-491.999 61c143.333 0 244.166 -1 302.499 -3s102 -7 131 -15s48.5 -22.333 58.5 -43zM1997 1597c-14 92 -49.166 163.668 -105.499 215.001
s-121.833 86.833 -196.5 106.5s-170.334 35.5 -287.001 47.5s-197 22.333 -241 31l-101.5 -40c-28.333 -11.333 -50 -22.833 -65 -34.5s-26.833 -28.667 -35.5 -51s-13 -52.166 -13 -89.499c-28 28.667 -62.5 51.167 -103.5 67.5s-78.167 24.5 -111.5 24.5
c-6.66699 -33.333 -11.667 -84.333 -15 -153s-7.5 -120.167 -12.5 -154.5s-16.167 -64.833 -33.5 -91.5c0 -26.667 -2.5 -57.334 -7.5 -92.001s-13.333 -87 -25 -157s-19.5 -119.333 -23.5 -148s-6 -60.334 -6 -95.001c0 -68.667 13 -121.667 39 -159s74.667 -56 146 -56
l-31 -61c82.667 47.333 216.5 98 401.5 152s329.5 102.167 433.5 144.5s195.667 110.833 275 205.5s119 224 119 388zM275.998 1874l-30 -492h30l31 461zM2458 1290c0 72 -1.33301 131.835 -4 179.502s-9.33398 92.667 -20 135c-10.667 42.333 -29.334 82.166 -56 119.499
c-26.667 37.333 -61.667 66.666 -105 87.999c0 -68.667 15.5 -129.167 46.5 -181.5l92.5 -157.5c30.667 -52.667 46 -113.667 46 -183zM2273 1475l-61 -461h61l31 461h-31z" />
    <glyph glyph-name="E" unicode="E" horiz-adv-x="2918" 
d="M1106 3594c-34.667 -13.333 -64.8389 -36.8311 -90.5059 -70.498s-50.5 -77.334 -74.5 -131l-70.5 -157.5c-23 -51.333 -46.833 -95.333 -71.5 -132l92 -215l463 71.5l478 72l423.5 65l417.5 67.5c-13.333 -27.333 -34.666 -44.333 -64 -51
c-29.333 -6.66699 -71.5 -11.334 -126.5 -14c-55 -2.66699 -96.667 -9.16699 -125 -19.5s-46.166 -33.166 -53.499 -68.5c-56 -15.333 -146.833 -36.666 -272.5 -64c-125.667 -27.333 -222 -49.333 -289 -66s-141.833 -40 -224.5 -70s-158.667 -66 -228 -108
c82.667 0 171.834 6.16699 267.501 18.5s189.834 27.833 282.501 46.5l326.5 66c125 25.333 222.167 43.333 291.5 54l-402.5 -130c-70.333 -22 -164.333 -48.833 -282 -80.5s-236 -59 -355 -82s-233.5 -38.167 -343.5 -45.5c-50 -28.667 -90.167 -64.334 -120.5 -107.001
s-53.333 -87 -69 -133s-32.167 -108.5 -49.5 -187.5s-29.666 -131.167 -36.999 -156.5c82 0 153.667 2.16699 215 6.5s154.166 12.166 278.499 23.499s220.166 19.5 287.499 24.5s134.666 7.5 201.999 7.5c210.667 0 384.667 -41 522.001 -123
c-42.667 -26 -83.834 -43.167 -123.5 -51.5c-39.667 -8.33301 -104.167 -18.5 -193.5 -30.5s-157.666 -25.667 -204.999 -41c-68.667 -56 -169.5 -95.833 -302.5 -119.5l-413.5 -74c-142.667 -25.667 -253.667 -73.667 -333 -144s-119 -183.166 -119 -338.499
c66.667 0 135.834 6.83301 207.501 20.5s154.334 32.667 248.001 57s173.5 43.166 239.5 56.499s131.333 20 196 20c122.667 0 245.667 -31 369 -93l-184 -153c14.667 -16 38 -30.167 70 -42.5s54.5 -22 67.5 -29s28.5 -24.167 46.5 -51.5c80 8 192.333 34.333 337 79
s265 78.5 361 101.5s211.333 34.5 346 34.5c-168 -80 -335 -146.833 -501 -200.5s-351.167 -104.334 -555.5 -152.001l-583.5 -134c-184.667 -41.667 -354.667 -84.167 -510 -127.5c0 53.333 -11.667 97.333 -35 132s-63 52 -119 52c-27.333 0 -55 -15.833 -83 -47.5
s-61.333 -77.167 -100 -136.5s-72.167 -105 -100.5 -137s-56.5 -48 -84.5 -48c-14 0 -28.167 11.5 -42.5 34.5s-41.166 73.167 -80.499 150.5c0 46 -1.83301 85 -5.5 117s-12.167 54.333 -25.5 67h-92v123c69.333 0 117.833 20.167 145.5 60.5s49.5 104 65.5 191
s32.833 155.667 50.5 206s53.5 92.166 107.5 125.499c-16 10.667 -49 26.334 -99 47.001s-87 42.334 -111 65.001s-36 57 -36 103c83.333 0 154.666 11.167 213.999 33.5s111 62.5 155 120.5c0 51.333 10.167 110.333 30.5 177l61 199.5
c20.333 66.333 30.5 125.166 30.5 176.5c0 42.667 -20.333 104 -61 184h-154c74.667 67.333 132.334 145.666 173.001 235c40.667 89.333 81 203.333 121 342s79.5 253 118.5 343s96.167 172.667 171.5 248zM1505 1905h154l61 61zM1198 1874h184v31h-184v-31zM1659 952.002
c-30 -23.333 -63.168 -41 -99.501 -53s-85.333 -20.833 -147 -26.5s-136.167 -9.16699 -223.5 -10.5s-227.666 -2 -420.999 -2c39.333 0 113.666 9.33301 222.999 28s213.833 34 313.5 46s217.834 18 354.501 18zM398.994 645.002h-123v-184
c16.667 32 37.5 66.833 62.5 104.5s45.167 64.167 60.5 79.5z" />
    <glyph glyph-name="F" unicode="F" horiz-adv-x="3195" 
d="M768 3348c-107.333 -49.333 -189.332 -117.998 -245.999 -205.998s-94.834 -178.5 -114.501 -271.5s-37.167 -216.833 -52.5 -371.5s-31.333 -271 -48 -349c88.667 0 141.834 18 159.501 54s34.5 102.667 50.5 200s48.333 166.333 97 207c-20 20.667 -30 92.334 -30 215
c75.333 14 133.666 38.833 174.999 74.5s84.666 84.167 129.999 145.5s89.166 106.666 131.499 136c42.333 29.333 101.5 44 177.5 44v30h92l31 -338c101.333 0 197 -5.5 287 -16.5s192.833 -27.333 308.5 -49s200 -36.5 253 -44.5s108.167 -12 165.5 -12
c118 0 212.667 6.83301 284 20.5s140.333 47.5 207 101.5h277l-92 -92c18 -18 36.333 -31.667 55 -41s41.334 -18.5 68.001 -27.5s47 -16.833 61 -23.5c-54.667 -16.667 -142 -47.667 -262 -93s-221.333 -81.833 -304 -109.5s-174.5 -52 -275.5 -73
s-199.5 -31.5 -295.5 -31.5c-54 -20 -116.5 -35.333 -187.5 -46s-151.833 -18.167 -242.5 -22.5s-173.167 -8 -247.5 -11s-135.166 -7.16699 -182.499 -12.5c6 -5.33301 17.833 -14.166 35.5 -26.5c17.667 -12.333 26.5 -24.166 26.5 -35.5
c0 -15.333 -16.333 -43.5 -49 -84.5s-58.334 -77.333 -77.001 -109s-28 -69.5 -28 -113.5c111.333 0 227.833 5.33301 349.5 16s260.334 25.667 416.001 45s290 34.5 403 45.5s214.833 16.5 305.5 16.5c-16.667 -8 -41.667 -13.667 -75 -17s-57.666 -7.16602 -73 -11.5
c-15.333 -4.33301 -27.333 -15.166 -36 -32.499c17.333 -17.333 39.666 -29.5 67 -36.5l82.5 -21c27.667 -7 49.5 -18.833 65.5 -35.5l-215 -184l92 -123c-44.667 -29.333 -96.834 -52 -156.501 -68s-120.167 -24 -181.5 -24c-42 0 -97.5 3.5 -166.5 10.5
s-134.5 14.667 -196.5 23s-121 15 -177 20s-111.333 7.5 -166 7.5c-124 0 -247 -30.667 -369 -92c-26 -62.667 -60.5 -175.834 -103.5 -339.501s-79 -289 -108 -376s-71.667 -166.833 -128 -239.5s-127.5 -112.667 -213.5 -120c28 28 45.333 59.333 52 94s10 75 10 121
c0 61.333 -3.33301 109 -10 143s-24 58 -52 72c-45.333 -52 -80 -129.333 -104 -232s-45 -196.334 -63 -281.001s-48.5 -158.334 -91.5 -221.001s-110.5 -104.667 -202.5 -126c30.667 199.333 58.334 525 83.001 977s44 769 58 951s51 409 111 681s150.333 518.333 271 739
h184zM2089 2734c-90.667 0 -170.002 5.83301 -238.002 17.5s-144.833 27 -230.5 46s-144.5 28.5 -176.5 28.5c-75.333 0 -126.666 -41 -153.999 -123c92.667 0 167.5 0.166992 224.5 0.5s119.333 1.5 187 3.5s134.334 5.33301 200.001 10s128.167 10.334 187.5 17z
M491.999 1413c0 40.667 5.49902 93.168 16.499 157.501s25.833 134.833 44.5 211.5c0 70 -19.667 128.5 -59 175.5s-101.666 70.5 -186.999 70.5c-21.333 -129.333 -39.833 -271.833 -55.5 -427.5s-28.5 -321.167 -38.5 -496.5s-17.333 -341 -22 -497s-7 -297 -7 -423
c64 77.333 110.167 164.166 138.5 260.499s47.833 196.5 58.5 300.5s23.5 219.5 38.5 346.5s39.167 234.167 72.5 321.5zM2181 1966h184v62h-184v-62zM1782 1905l307 30h-184zM675.998 1843v-215h31v215h-31zM1690 1843c-56.667 -18.667 -112.5 -32.332 -167.5 -40.999
s-127.333 -17.834 -217 -27.501s-156.167 -17.5 -199.5 -23.5c185.333 61.333 380 92 584 92zM1905 1751h184v61h-184v-61z" />
    <glyph glyph-name="G" unicode="G" horiz-adv-x="2734" 
d="M2396 2826c-42.667 -28 -73.998 -70.999 -93.998 -128.999s-34 -129.167 -42 -213.5s-15 -162.5 -21 -234.5s-15 -125.333 -27 -160c85.333 0 154 -11.833 206 -35.5s91.833 -59.5 119.5 -107.5s46.834 -109.833 57.5 -185.5c10.667 -75.667 16 -170.834 16 -285.501
c-68.667 -83.333 -118 -175.666 -148 -276.999s-49.5 -206.5 -58.5 -315.5s-19.833 -231.667 -32.5 -368s-35.334 -246.5 -68 -330.5c4 -4 11.167 -12.667 21.5 -26s19.833 -22.5 28.5 -27.5s22.667 -7.5 42 -7.5c8.66699 18 13.334 40.5 14.001 67.5s1.5 56.667 2.5 89
s5.83301 62.166 14.5 89.499l-31 -369h-184c0 72 -4.33301 141.833 -13 209.5s-21 143.5 -37 227.5s-27 149.167 -33 195.5s-9 101.833 -9 166.5c-76.667 -60.667 -158.334 -106.667 -245.001 -138s-169 -47 -247 -47c-80 0 -163.167 7.83301 -249.5 23.5
s-189.666 38.5 -309.999 68.5s-222 53 -305 69s-163.5 24 -241.5 24c-45.333 65.333 -80 156.333 -104 273l-67 338.5c-20.667 109 -54.5 211.5 -101.5 307.5s-119.833 178.667 -218.5 248c37.333 162 101.166 318.833 191.499 470.5s197.166 291.167 320.499 418.5
s255 240.833 395 340.5s278 181.5 414 245.5c134.667 0 253.5 -21.333 356.5 -64s186.667 -91.667 251 -147s140.666 -128 228.999 -218s157.5 -152 207.5 -186zM1905 3195c-124 61.333 -247 92.001 -369 92.001c-126 0 -251.167 -29.167 -375.5 -87.5
s-239.833 -135.833 -346.5 -232.5s-204 -205 -292 -325c-16 -32 -46.167 -85 -90.5 -159s-80.833 -137.333 -109.5 -190s-53.667 -108.167 -75 -166.5s-32 -111.833 -32 -160.5s9.5 -95.834 28.5 -141.501s50.5 -90.5 94.5 -134.5c15.333 55.333 58.333 135.333 129 240
s118 177.667 142 219s36 93 36 155c0 102 -41 194 -123 276c81.333 88.667 179.333 170.167 294 244.5s235.167 137.5 361.5 189.5s253 93.5 380 124.5s242.833 49.833 347.5 56.5zM2028 3011c-131.333 0 -251.167 -9 -359.5 -27s-211.666 -43.667 -309.999 -77
s-197.333 -74.166 -297 -122.5c-99.667 -48.333 -207.834 -106.166 -324.501 -173.5c0 -123.333 20.667 -225.666 62 -307c29.333 94 74.5 174 135.5 240s127.333 120.333 199 163s165.834 92 282.501 148s197.667 97.667 243 125c48.667 0 94.167 -11.167 136.5 -33.5
s81.166 -48.5 116.499 -78.5s72.5 -59.833 111.5 -89.5s71.167 -44.5 96.5 -44.5c29.333 0 53.333 7.66699 72 23s35.667 38.333 51 69c-12.667 26 -24.834 46.667 -36.5 62c-11.667 15.333 -20.167 25.333 -25.5 30c-9.33301 0 -16.666 -3 -22 -9
c-5.33301 -6 -11.166 -17 -17.5 -33c-6.33301 -16 -13.5 -32.667 -21.5 -50c-5.33301 12 -17.333 29.667 -36 53s-32.667 44.333 -42 63s-14 41.667 -14 69zM1597 2703l215 62h-215v-62zM1905 2488l-491.999 0.00195312c-36 -43.333 -103 -98.666 -201 -165.999
s-170.833 -125.5 -218.5 -174.5s-71.5 -109.5 -71.5 -181.5c0 -42.667 20.333 -104 61 -184c120 0 240.5 11 361.5 33s227.833 47.167 320.5 75.5s234 74.166 424 137.499l-154 92c14 27.333 33 44.333 57 51s56.333 10 97 10v123h-154
c-26 -16.667 -40.167 -43.834 -42.5 -81.501l-7 -113c-2.33301 -37.667 -16.5 -64.834 -42.5 -81.501l-123 153c13.333 19.333 30 54 50 104s38.667 89.667 56 119s43.666 57.333 78.999 84zM1628 1720l799 246h-277zM1444 1659c-42 -8 -101.832 -13.668 -179.499 -17.001
s-135.334 -7.16602 -173.001 -11.499s-73.834 -15.5 -108.501 -33.5c0 -26.667 4.5 -52 13.5 -76s18.5 -42.833 28.5 -56.5s29.333 -38.167 58 -73.5s46.667 -58.666 54 -69.999c108.667 0 204.334 5.83301 287.001 17.5s150.667 26.167 204 43.5h-31
c-44 23.333 -80.5 55.166 -109.5 95.499s-43.5 100.833 -43.5 181.5zM2028 1475c-106.667 0 -181.168 0.333008 -223.501 1s-74.5 3 -96.5 7s-38.333 11.333 -49 22l184 -184l-430 -215c-74 12 -149.667 31.833 -227 59.5s-149 67.334 -215 119.001
s-113.333 115.167 -142 190.5l-92 -93c55.333 -62.667 105.666 -115 150.999 -157s94.333 -78.833 147 -110.5s111 -56.334 175 -74.001s131.667 -26.5 203 -26.5c23.333 17.333 54.833 33.833 94.5 49.5l134 53.5c49.667 20 88.834 43.333 117.501 70s46.334 61 53.001 103
c13.333 13.333 39.833 21.833 79.5 25.5s85.167 5.5 136.5 5.5v154z" />
    <glyph glyph-name="H" unicode="H" horiz-adv-x="2304" 
d="M2273 3256c0 -208 -6.83691 -401.663 -20.5039 -580.996s-33.334 -379.333 -59 -600c-25.667 -220.667 -44.334 -398 -56 -532c-11.667 -134 -17.5 -269.333 -17.5 -406c0 -112 4 -221.667 12 -329s21 -216 39 -326s42 -219.333 72 -328
c-56.667 0 -103.834 13.333 -141.5 40c-37.667 26.667 -66.167 55.334 -85.5 86.001s-43.5 74.334 -72.5 131.001s-52.167 93.667 -69.5 111c32 47.333 55.333 95.666 70 144.999s22 103.333 22 162c0 46 -5.66699 97.167 -17 153.5s-26.5 122.666 -45.5 198.999
s-33.833 145 -44.5 206s-16 120.833 -16 179.5c-59.333 -59.333 -165.666 -110 -318.999 -152l-412.5 -109c-121.667 -30.667 -224.667 -72.834 -309 -126.501s-126.5 -129.5 -126.5 -227.5c0 -61.333 3.16699 -112 9.5 -152s23.5 -81.333 51.5 -124l-276 184
c-12.667 -12.667 -26.334 -35.334 -41.001 -68.001s-26.167 -57.5 -34.5 -74.5s-21.666 -33.333 -39.999 -49s-41.5 -23.5 -69.5 -23.5c-28.667 15.333 -51.167 36.833 -67.5 64.5s-24.5 57.5 -24.5 89.5c0 35.333 7.66699 77.5 23 126.5l46 146.5
c15.333 48.667 23 90.667 23 126c0 82 -51 123 -153 123c0 35.333 7.33301 61.166 22 77.499s35.334 27.333 62.001 33l76.5 17c24.333 5.66699 42.5 14.5 54.5 26.5c34.667 109.333 59 215.666 73 318.999s25.833 224.333 35.5 363s21.5 258 35.5 358
s37.667 203.667 71 311l-31 31l-399 -338c20 72 55.667 141.667 107 209s113 126.166 185 176.499s148.667 85.833 230 106.5l62 -338c19.333 0 35.833 4.16699 49.5 12.5s27.334 20.5 41.001 36.5s24.5 27.167 32.5 33.5s18 9.5 30 9.5v61h92
c-4 -56 -14.333 -161.167 -31 -315.5l-35 -318c-6.66699 -57.667 -16.5 -149.5 -29.5 -275.5s-22.167 -222.333 -27.5 -289c74 0 152.5 3.83301 235.5 11.5s167.667 18.334 254 32.001s172.333 30 258 49s164.167 39.5 235.5 61.5c9.33301 65.333 16.333 133.833 21 205.5
s7.5 136.667 8.5 195s1.5 129.5 1.5 213.5c0 95.333 -1.5 174.333 -4.5 237s-11.333 127.667 -25 195s-34.5 128.333 -62.5 183h123c0 -28 7.33301 -51.333 22 -70s36.834 -39 66.501 -61s51.5 -40 65.5 -54l30 553c28 0 53.333 -3.5 76 -10.5s40.167 -15.167 52.5 -24.5
s26.166 -22.333 41.5 -39zM1935 2243l93 430l-93 92v-522zM552.996 1567h92v553zM521.996 1044l31 62l31 307zM2150 246.004l-30 307c0 -20 -20.667 -71.333 -62 -154c0 -31.333 8.16699 -61 24.5 -89s38.833 -49.333 67.5 -64z" />
    <glyph glyph-name="I" unicode="I" horiz-adv-x="707" 
d="M645 3256c0 -251.333 -2.49902 -465.666 -7.49902 -643c-5 -177.333 -18.5 -360.666 -40.5 -549.999s-57 -365 -105 -527c0 -106 -5.83301 -212.333 -17.5 -319s-28.334 -225 -50.001 -355s-36.334 -223.667 -44.001 -281s-11.5 -118 -11.5 -182
c0 -65.333 1 -118.333 3 -159s7.33301 -80.834 16 -120.501s22.667 -79.5 42 -119.5h-92v737l-154 -215c-30.667 156 -53.667 305 -69 447s-23 279.667 -23 413c6.66699 117.333 15 231.333 25 342s25.333 261.5 46 452.5s38.334 364.667 53.001 521s24.667 291.5 30 405.5
l123 245zM492.001 3256l-31 -215h31l61 215h-61zM246.001 1905c0 85.333 5.33301 173.167 16 263.5s25.667 192.5 45 306.5s34.5 214 45.5 300s16.5 164.667 16.5 236zM338.001 1444l31 399l-31 -276v-123zM184.001 1812v-184h62v184h-62z" />
    <glyph glyph-name="J" unicode="J" horiz-adv-x="3011" 
d="M2365 1905c52 84 91.1689 197.665 117.502 340.998l67.5 378.5c18.667 109 50 210.333 94 304s115 172.167 213 235.5c0 -91.333 -11.333 -179.5 -34 -264.5s-52.834 -170.667 -90.501 -257l-109 -249c-35 -79.667 -59.5 -150.5 -73.5 -212.5
c-5.33301 -85.333 -21.5 -191.166 -48.5 -317.499l-78 -358c-25 -112.333 -46 -233 -63 -362s-25.5 -264.5 -25.5 -406.5c-72.667 -72.667 -145 -118.667 -217 -138s-194.833 -44.166 -368.5 -74.499s-303.667 -70.166 -390 -119.499s-150.5 -133 -192.5 -251
c-54.667 0 -101.334 10.5 -140.001 31.5s-74.334 50.333 -107.001 88l-93.5 109c-29.667 35 -59.5 61.167 -89.5 78.5c0 104 -15.5 197.5 -46.5 280.5s-73.167 155 -126.5 216s-118.666 117 -195.999 168s-159 95.833 -245 134.5c-27.333 27.333 -48.166 58.5 -62.499 93.5
s-27.333 81.333 -39 139s-18.834 92.5 -21.501 104.5c38.667 0 71.834 -2.33301 99.501 -7s51.667 -9.66699 72 -15s34.833 -8 43.5 -8c84.667 -58.667 168.5 -149.667 251.5 -273l231.5 -346.5c71.333 -107.667 151.333 -195.167 240 -262.5s196 -101 322 -101
c-64 63.333 -112 187.833 -144 373.5s-52 360.5 -60 524.5s-12 284.333 -12 361c86.667 -66 144.667 -141.167 174 -225.5s63 -208.333 101 -372s86.5 -282.334 145.5 -356.001s154.5 -114.167 286.5 -121.5c90.667 160.667 156.167 327.667 196.5 501
s67.166 357.833 80.499 553.5l42 605c14.667 207.667 41.334 391.834 80 552.5v92h-122c0 60.667 16.5 105.167 49.5 133.5s83.167 55.833 150.5 82.5s117.333 53.834 150 81.5c32.667 27.667 49 71.834 49 132.5c0 -87.333 -2.33301 -185.666 -7 -295
c-4.66699 -109.333 -13.167 -279 -25.5 -509s-20.333 -390.333 -24 -481s-5.5 -194.667 -5.5 -312zM2335 3195l-62 -184h62l30 184h-30zM2212 2703l-62 -553h62l31 553h-31zM2335 1905l-62 -215h62l30 215h-30zM1260 368.998l-399.998 215c14 -14 36.167 -54.333 66.5 -121
s58.666 -119.5 84.999 -158.5s57.833 -58.5 94.5 -58.5c20.667 0 38.5 3.83301 53.5 11.5s29.667 19.667 44 36s33.166 41.5 56.499 75.5z" />
    <glyph glyph-name="K" unicode="K" horiz-adv-x="3318" 
d="M2089 3840c-36.667 -66.667 -97.8311 -159.834 -183.498 -279.5c-85.667 -119.667 -154 -220.667 -205 -303s-96.333 -182 -136 -299s-59.5 -243.167 -59.5 -378.5c83.333 68 209.5 181 378.5 339s314.5 287 436.5 387s261.167 191.833 417.5 275.5
s319.166 139.167 488.5 166.5l-369 -307c17.333 -16 38.666 -30.333 64 -43c25.333 -12.667 45 -19 59 -19c24.667 0 63.334 10.833 116 32.5c52.667 21.667 91.834 37 117.5 46c25.667 9 60.5 13.5 104.5 13.5v-123c-82 0 -156.5 -10 -223.5 -30s-127.333 -45.5 -181 -76.5
s-110.834 -69.5 -171.5 -115.5l-192 -146c8 -8 17.333 -20.333 28 -37s21.667 -25 33 -25c8.66699 0 24.167 9.83301 46.5 29.5s41.333 35.167 57 46.5s32.5 17 50.5 17c9.33301 0 16.5 -2.5 21.5 -7.5s10.833 -13.333 17.5 -25s14 -21.5 22 -29.5
c-26.667 -62 -68 -115.167 -124 -159.5s-137.333 -95.833 -244 -154.5s-191.167 -107.834 -253.5 -147.501s-121.166 -90.5 -176.5 -152.5c20.667 -110 63 -206.667 127 -290s153 -175.333 267 -276s203.333 -187.167 268 -259.5s110 -155.5 136 -249.5l-92 -93
c35.333 -35.333 83.333 -93.166 144 -173.499s113 -144.333 157 -192s97.333 -89.5 160 -125.5l123 61l-31 -123c-34.667 0 -76.5 12.833 -125.5 38.5l-147.5 77c-49.333 25.667 -91.333 38.5 -126 38.5c-28 0 -51.667 -6.33301 -71 -19s-47 -37 -83 -73
c58.667 -50 103.834 -98.833 135.5 -146.5c31.667 -47.667 54 -92 67 -133s26.5 -98 40.5 -171s25.333 -127.833 34 -164.5l92 -61c-125.333 62.667 -236.5 139 -333.5 229s-190.167 193.333 -279.5 310l-278.5 367c-96.333 128 -188.5 235.667 -276.5 323
c-61.333 -30.667 -112.833 -55.5 -154.5 -74.5s-87.5 -37.333 -137.5 -55s-101.833 -31.334 -155.5 -41.001s-109.167 -14.5 -166.5 -14.5l-246 277c-41.333 -13.333 -67 -32 -77 -56s-15 -56.667 -15 -98c0 -20.667 1.83301 -43.667 5.5 -69s7.66699 -50.333 12 -75
s7.66602 -44.167 9.99902 -58.5s3.5 -28.5 3.5 -42.5c0 -75.333 -41 -126.666 -123 -153.999c-3.33301 -24 -7.5 -64.167 -12.5 -120.5s-10 -98.833 -15 -127.5s-14.833 -60.167 -29.5 -94.5s-36.667 -73.833 -66 -118.5c0 94.667 1.5 204 4.5 328s6.83301 272.5 11.5 445.5
s8.33398 329.5 11.001 469.5s4 278.667 4 416h92c41.333 265.333 72.166 482.5 92.499 651.5s30.5 351.167 30.5 546.5c-38.667 0 -78.167 -4.33301 -118.5 -13s-76 -18.167 -107 -28.5s-66.333 -21.333 -106 -33s-72.5 -17.5 -98.5 -17.5c-16 0 -38.5 8.33301 -67.5 25
s-57.833 39 -86.5 67l338 307c-57.333 0 -114.333 -12.167 -171 -36.5s-117 -59 -181 -104l-165 -117c-46 -33 -88.667 -59.833 -128 -80.5l-123 31l532.5 321c176.333 106 346.5 200 510.5 282s338.167 152.167 522.5 210.5s369.166 94.5 554.499 108.5zM1720 3625
c28 28 56.333 64.333 85 109s52.5 88.667 71.5 132s28.5 75.666 28.5 97c-77.333 -21.333 -158 -48 -242 -80s-175 -70 -273 -114l-252.5 -113.5c-70.333 -31.667 -142.166 -62.167 -215.499 -91.5l60.5 -54c21 -19.333 31.5 -42.333 31.5 -69
c48.667 0 92.667 11.5 132 34.5s86.666 57.167 141.999 102.5s103.833 79.833 145.5 103.5s86.167 35.5 133.5 35.5c61.333 0 112.333 -20.333 153 -61v-31zM768.003 3256l154 123h-93zM1751 2642c18.667 13.333 78.501 60.833 179.501 142.5s188.167 148.834 261.5 201.5
c73.333 52.667 157.666 104 253 154c95.333 50 191.666 88.667 288.999 116c-98 -111.333 -193.5 -210.333 -286.5 -297s-199.667 -161.167 -320 -223.5s-245.833 -93.5 -376.5 -93.5zM1198 2365c4.66699 22 13.334 58 26.001 108l30 115.5l35.5 135.5
c16.333 63.333 26.833 107.666 31.5 133c-6 -33.333 -17.833 -65.166 -35.5 -95.5c-17.667 -30.333 -40.167 -64 -67.5 -101s-47.666 -68.333 -60.999 -94s-20 -51.834 -20 -78.5c0 -9.33301 2.66699 -19.166 8 -29.5c5.33301 -10.333 13.666 -24.666 24.999 -43
c11.333 -18.333 20.666 -35.166 27.999 -50.5zM2703 2857l-522 -307v-31l553 307zM1935 2427l-61 -154h31l92 123zM1812 1475l-306.999 490.999c-69.333 0 -118.833 -17.333 -148.5 -52s-49.167 -79.5 -58.5 -134.5l-32.5 -184.5c-12.333 -68 -34.833 -118.333 -67.5 -151
c20.667 -49.333 40.834 -90 60.501 -122s45.667 -62.5 78 -91.5s73.166 -51.833 122.499 -68.5s105.666 -25 168.999 -25c0 14 6.33301 35.5 19 64.5s23 58.333 31 88s12 70.834 12 123.501c7.33301 0 20.333 7.33301 39 22s33 25 43 31s23.333 9 40 9zM1874 1874l307 -430
l31 31l-307 430zM2304 1536l307 -399l31 30l-307 400zM2335 859.999l153 -123l31 31l-154 123z" />
    <glyph glyph-name="L" unicode="L" horiz-adv-x="2673" 
d="M860 3103c0 -189.333 -9.33398 -384.162 -28.001 -584.496c-18.667 -200.333 -44.667 -399.333 -78 -597s-75.666 -400.334 -126.999 -608.001s-106.666 -399.834 -165.999 -576.501c100 9.33301 274.833 23.333 524.5 42s424.834 31.5 525.501 38.5l397 28.5
c164 12 357.333 27 580 45h185c-44.667 -10.667 -112 -25.834 -202 -45.501s-163.333 -37.5 -220 -53.5s-116.5 -39.167 -179.5 -69.5s-118.5 -66.5 -166.5 -108.5l61 -122c-90 -22 -226.667 -63.333 -410 -124l-402 -131.5c-84.667 -27 -185 -52.667 -301 -77
s-226.333 -36.5 -331 -36.5c-52.667 0 -106.834 5.16699 -162.501 15.5s-124.167 25.5 -205.5 45.5c117.333 18.667 224.833 37 322.5 55l294.5 57l297.5 63l313.5 71c-53.333 18.667 -102.833 33.667 -148.5 45s-88.167 17 -127.5 17c-60.667 0 -122 -3.83301 -184 -11.5
s-144.833 -20.167 -248.5 -37.5s-181.334 -29 -233.001 -35s-106.5 -9 -164.5 -9c-28 28.667 -50.333 57.5 -67 86.5s-25 51.5 -25 67.5c0 35.333 7.66699 75 23 119l46 131.5c15.333 43.667 23 83.167 23 118.5c0 61.333 -30.667 122.666 -92 183.999l215 1720
c39.333 0 75.5 -8.66699 108.5 -26s59 -40.333 78 -69s28.5 -58.334 28.5 -89c18.667 30 33.167 69 43.5 117l35 156c13 56 31.833 99.667 56.5 131s61.667 50.333 111 57zM1044 1290c-6.66699 -12.667 -11.667 -32.667 -15 -60s-7.5 -47.5 -12.5 -60.5
s-16.167 -23.833 -33.5 -32.5c-13.333 0 -25.333 3.83301 -36 11.5s-29.334 24.167 -56.001 49.5c0 10 7.5 19.667 22.5 29s38.333 21 70 35s51.834 23.333 60.501 28z" />
    <glyph glyph-name="M" unicode="M" horiz-adv-x="2980" 
d="M2642 3011c-29.333 -44 -52 -88.1631 -68 -132.496s-24 -82.166 -24 -113.5c0 -52.667 7.66699 -105.5 23 -158.5s38.166 -117.333 68.5 -193c30.333 -75.667 53.333 -139.667 69 -192s23.5 -106.833 23.5 -163.5c0 -147.333 1.83301 -271.5 5.5 -372.5
s13.167 -206.833 28.5 -317.5s40 -215 74 -313s80 -183.333 138 -256c-17.333 -34 -35.333 -80.5 -54 -139.5l-65 -201c-24.667 -75 -51.5 -137.333 -80.5 -187s-64.833 -88.834 -107.5 -117.501v245c-18 0 -34.667 5.5 -50 16.5s-37.833 29.667 -67.5 56
s-52.167 43.166 -67.5 50.499c0 -12.667 -10.167 -20.834 -30.5 -24.501s-51.166 -5.5 -92.5 -5.5c0 152.667 -2.16699 301 -6.5 445s-10.833 274.5 -19.5 391.5s-21.334 241.5 -38.001 373.5s-36 261 -58 387c-63.333 -90.667 -118.5 -181.834 -165.5 -273.501
s-100.833 -206.334 -161.5 -344.001l-149 -328c-38.667 -81 -85 -165.167 -139 -252.5v-215c-14 28.667 -33.5 51.167 -58.5 67.5s-46.5 24.5 -64.5 24.5c-28 0 -56.5 -10.667 -85.5 -32s-52.667 -46.833 -71 -76.5s-27.5 -54.834 -27.5 -75.501l-61 -215
c-47.333 74 -86.5 152.5 -117.5 235.5s-68.167 194.833 -111.5 335.5s-84 259.667 -122 357s-85 187.333 -141 270c0 -86 -7.16699 -174.667 -21.5 -266s-36.166 -203.833 -65.499 -337.5s-51.166 -239.5 -65.499 -317.5s-24.833 -160.333 -31.5 -247h-123
c0 98.667 -16.167 187.834 -48.5 267.501s-77.833 133.834 -136.5 162.501c0 161.333 2.33301 307 7 437s13 260 25 390s27.833 256.5 47.5 379.5s44.5 253.5 74.5 391.5c0 43.333 -7 76.5 -21 99.5s-34.833 45.833 -62.5 68.5s-46.334 40 -56.001 52s-14.5 30.667 -14.5 56
c-10.667 -50 -27 -119 -49 -207s-40.167 -171.667 -54.5 -251s-26.166 -170.666 -35.499 -273.999s-14 -217.666 -14 -342.999c12 -90 21 -202.833 27 -338.5s14.333 -290.5 25 -464.5s28 -326 52 -456s61 -253 111 -369c-52.667 115.333 -95 233.5 -127 354.5
s-56.5 245.833 -73.5 374.5s-28.833 262.167 -35.5 400.5s-10 284.166 -10 437.499c9.33301 103.333 16.333 214.333 21 333s7.5 228.834 8.5 330.501s1.5 228.5 1.5 380.5c0 123.333 10.333 195 31 215c102 0 235 -82 399 -246l123 154c52 -89.333 105 -195.333 159 -318
s116.167 -273.334 186.5 -452.001l162.5 -405.5c38 -91.667 83.667 -191.167 137 -298.5h61c85.333 131.333 166.666 302.166 243.999 512.499l216.5 595.5c67 186.667 146 358.334 237 515c91 156.667 206.833 291.334 347.5 404c50 0 83.333 -7.5 100 -22.5
s27.5 -42.167 32.5 -81.5s11.5 -70.833 19.5 -94.5s29 -49.5 63 -77.5zM2427 3103c-20 -53.333 -58.501 -114.333 -115.501 -183l-156 -184c-47 -54 -88.5 -111.833 -124.5 -173.5s-57.667 -127.5 -65 -197.5c8 68.667 25.833 137.834 53.5 207.5
c27.667 69.667 62.834 137.5 105.501 203.5s90.167 127.333 142.5 184s105.5 104.334 159.5 143zM1751 1475l143.999 303l161.5 330.5l168.5 333l202 384.5c-87.333 -72 -166.166 -159.5 -236.499 -262.5s-133.333 -213 -189 -330s-109 -240.5 -160 -370.5l-151.5 -388h61z
M1475 1260v-277h61v277h-61zM2488 707.004l62 -123h30l-30 153z" />
    <glyph glyph-name="N" unicode="N" horiz-adv-x="2642" 
d="M2519 3379c0 20.667 -20.3311 51.332 -60.998 91.998c-15.333 -71.333 -27.166 -146 -35.5 -224c-8.33301 -78 -14.333 -165.333 -18 -262s-6 -205.834 -7 -327.5c-1 -121.667 -1.5 -300.834 -1.5 -537.5l246 1044c-12.667 -140 -44.167 -314.833 -94.5 -524.5
l-154.5 -634c-52.667 -213 -96 -431.333 -130 -655s-51 -458.834 -51 -705.501l-277 31c-6.66699 14.667 -10.834 29.667 -12.501 45s-2.5 34.5 -2.5 57.5s-1 41 -3 54s-6 22.167 -12 27.5c-26 0 -46.5 7.5 -61.5 22.5s-35.167 41.5 -60.5 79.5s-48.5 66.333 -69.5 85
s-49.5 28 -85.5 28l-768 983c-41.333 -186.667 -76.333 -357.834 -105 -513.501s-53.334 -307.667 -74.001 -456s-43 -326.833 -67 -535.5h-92l-30 307c-75.333 -20.667 -126.333 -61.334 -153 -122.001s-47.5 -149.167 -62.5 -265.5s-35.833 -212.166 -62.5 -287.499
s-77.667 -137 -153 -185h-61l184 215c21.333 114.667 40.5 242.5 57.5 383.5s29.667 270.333 38 388s15 247.334 20 389.001s7.5 266.834 7.5 375.501l-276 -430c72.667 102 132.5 219.333 179.5 352s82.333 254.167 106 364.5s57.167 275.833 100.5 496.5
s78.333 379.667 105 477h92v-123l246 92c38.667 -175.333 88 -338.166 148 -488.5c60 -150.333 130.833 -293.166 212.5 -428.5c81.667 -135.333 172.667 -264.666 273 -387.999s216.833 -251.666 349.5 -384.999c0 242 1.33301 440.5 4 595.5s9.83398 323 21.501 504
s30 364.333 55 550s59.833 383.5 104.5 593.5c40.667 -84 61 -166 61 -246c0 -38 -4.16699 -81.5 -12.5 -130.5s-20.333 -109.333 -36 -181s-26.834 -128.667 -33.501 -171s-10 -86.166 -10 -131.5c0 -30 2.5 -56.333 7.5 -79s15 -55.667 30 -99l23.5 -68
c82 68 138.667 152.667 170 254s56 231.5 74 390.5s40.167 282.667 66.5 371s76.5 159.5 150.5 213.5v-277zM1106 2089c-42 14.667 -76.167 33.834 -102.5 57.5c-26.333 23.667 -46 48.667 -59 75s-28.167 63.166 -45.5 110.5c-17.333 47.333 -30.333 79 -39 95z" />
    <glyph glyph-name="O" unicode="O" horiz-adv-x="3441" 
d="M2703 3041c82 -46.667 152.167 -104.665 210.5 -173.998s121.333 -157 189 -263s124.5 -188 170.5 -246s102 -106.667 168 -146c-55.333 7.33301 -104.166 28.166 -146.499 62.5c-42.333 34.333 -92.5 89 -150.5 164s-100.167 127.833 -126.5 158.5s-59.5 56 -99.5 76
c0 -38 8.5 -80.333 25.5 -127s39.667 -95.334 68 -146.001l91.5 -157c0 -182.667 -4.83301 -354 -14.5 -514s-30.5 -321.5 -62.5 -484.5s-82 -316.167 -150 -459.5s-156.333 -261.666 -265 -354.999c-42 -16 -107 -43.333 -195 -82s-165.667 -71.5 -233 -98.5
s-138.833 -49.667 -214.5 -68s-148.167 -27.5 -217.5 -27.5c-46.667 0 -99.334 7.66699 -158.001 23s-118.667 38.333 -180 69c-75.333 82 -176 162.667 -302 242l-418 269.5c-152.667 100.333 -272 206.166 -358 317.499s-136.333 244.666 -151 399.999
c0 236 43.333 444.5 130 625.5s192.5 335 317.5 462s288 270.833 489 431.5s339.5 278.667 415.5 354c87.333 -18.667 189.5 -48.5 306.5 -89.5l311.5 -109.5c90.667 -32 181 -58 271 -78s182.667 -30 278 -30zM1505 3133l215 93h-184zM1935 3072
c-56 0 -109.164 -7.16699 -159.497 -21.5s-109.333 -36 -177 -65s-122.834 -50.833 -165.501 -65.5s-90.334 -25.334 -143.001 -32c-68 -136 -122.5 -251.5 -163.5 -346.5s-75.167 -196.333 -102.5 -304s-41 -218.5 -41 -332.5l123 460c44 88.667 95.667 171.334 155 248
c59.333 76.667 123 143.167 191 199.5s143.167 106.333 225.5 150s168.166 80.167 257.499 109.5zM2028 2857h184v31h-184v-31zM1044 614.002c-39.333 130.667 -72.168 245.668 -98.501 345.001s-50.5 202 -72.5 308s-39.833 217.167 -53.5 333.5s-20.5 227.833 -20.5 334.5
c0 102 7.5 205 22.5 309s38.333 204.5 70 301.5s72.5 190.5 122.5 280.5l-584 -461c-11.333 -46.667 -27.5 -102 -48.5 -166l-64.5 -198.5c-22 -68.333 -39.333 -133.833 -52 -196.5s-19 -121.334 -19 -176.001c22 -118 56.833 -224.667 104.5 -320
s104.834 -181.333 171.501 -258s139.167 -146.5 217.5 -209.5s179.833 -138.5 304.5 -226.5zM2703 1905c0 47.333 -1.16699 122.332 -3.5 224.999s-8 209.5 -17 320.5s-22.5 185.167 -40.5 222.5c-28.667 -14 -51.167 -39.667 -67.5 -77s-24.5 -73.333 -24.5 -108
c0 -52 6.83301 -101.667 20.5 -149s37 -118.666 70 -214c33 -95.333 53.833 -168.666 62.5 -219.999zM2519 2243c0 68 -16.3359 130.169 -49.0029 186.502s-73.5 100.666 -122.5 133c-49 32.333 -94.167 48.5 -135.5 48.5c-33.333 0 -58.5 -5.83301 -75.5 -17.5
s-29.167 -34.667 -36.5 -69s-11 -87.5 -11 -159.5c-20.667 0 -37.334 2.33301 -50 7c-12.667 4.66699 -29.5 12.667 -50.5 24s-36.833 19.333 -47.5 24s-22.667 7 -36 7c-41.333 -26.667 -77.166 -60.667 -107.499 -102s-54.666 -83.333 -72.999 -126
s-39.833 -101.5 -64.5 -176.5s-45.667 -134.833 -63 -179.5c-17.333 8.66699 -28.166 20.667 -32.499 36s-8 39.666 -11 72.999s-8.83301 58.666 -17.5 75.999c-30 -15.333 -53.667 -35 -71 -59s-29.5 -57 -36.5 -99s-11.333 -94 -13 -156s-2.5 -162.333 -2.5 -301
c34 -76 71.167 -146.5 111.5 -211.5s87 -123 140 -174s114.833 -91.667 185.5 -122s150.334 -45.5 239.001 -45.5c74 60 139 126 195 198s102.833 148.5 140.5 229.5s69 167.5 94 259.5s45.5 190.667 61.5 296c-41.333 84 -96 147.333 -164 190s-156.667 81.667 -266 117
l-61 -307c-102.667 52 -154 185.333 -154 400c15.333 44 42 75.333 80 94s83 28 135 28c6 -6 15.167 -13.5 27.5 -22.5s21.166 -18 26.5 -27c5.33301 -9 8 -23.167 8 -42.5c50.667 0 91.167 -7.33301 121.5 -22s51.666 -29.5 63.999 -44.5s31.333 -40.5 57 -76.5
s47.167 -60 64.5 -72v185zM1198 2120l-61 -277h61l31 246zM3041 2058v-215h62v215h-62zM2949 1782v-215h62v215h-62zM1106 1751v-123h31v123h-31zM2427 922.004c12 37.333 45 111.665 99 222.998s97 215.333 129 312s48 194.667 48 294c0 -106 -1.83301 -195.5 -5.5 -268.5
s-14 -147.667 -31 -224s-44.833 -144.166 -83.5 -203.499s-90.667 -103.666 -156 -132.999zM1505 952.003l92 -123l31 31l-92 123zM1413 737.003l123 -123l31 31l-123 123zM2120 430.003h184v31h-184v-31z" />
    <glyph glyph-name="P" unicode="P" horiz-adv-x="2642" 
d="M2580 3441c0 -54 -5.83301 -93.6699 -17.5 -119.003s-30.167 -55.5 -55.5 -90.5s-41.666 -67.833 -49 -98.5c-9.33301 -55.333 -28.166 -194.833 -56.5 -418.5c-28.333 -223.667 -57.333 -407.667 -87 -552s-75.334 -283.833 -137 -418.5
c-61.667 -134.667 -142.5 -245 -242.5 -331c-43.333 15.333 -82.5 33.5 -117.5 54.5s-68.333 45.333 -100 73s-64.5 59.334 -98.5 95.001l-83 84.5l338 -276c88 43.333 159.167 103.666 213.5 180.999s96.5 163.333 126.5 258s54.667 204.667 74 330l47 306
c-66.667 -12.667 -157.167 -42.667 -271.5 -90s-228.833 -99.333 -343.5 -156l-891 -123c0 -197.333 2.16699 -364.833 6.5 -502.5s15.333 -271.667 33 -402s45.5 -238.166 83.5 -323.499l-30 -62l-185 184v-1044c-75.333 38.667 -137.166 82.667 -185.499 132
s-85.5 102.833 -111.5 160.5s-44.333 120.834 -55 189.501s-16 143.667 -16 225c0 54.667 3.66699 129.334 11 224.001s15 182.167 23 262.5s14.5 155.833 19.5 226.5s7.5 140 7.5 208c0 87.333 -3.33301 162.5 -10 225.5s-23.667 121.167 -51 174.5
c-5.33301 68 -13.666 150.167 -24.999 246.5s-22.5 201.166 -33.5 314.5c-11 113.333 -19.5 215.333 -25.5 306s-9 180.334 -9 269c0 93.333 4.16699 186.333 12.5 279s20.166 181.834 35.499 267.5c15.333 85.667 34.666 168.167 57.999 247.5s49.666 152.666 78.999 220
c76.667 20 144.5 35.166 203.5 45.5s124.167 15.5 195.5 15.5c150.667 0 301.334 -27.666 452.001 -83s285.5 -117.834 404.5 -187.5c119 -69.667 268.833 -162.834 449.5 -279.5c180.667 -116.667 318.667 -199.334 414 -248zM1843 3840
c-58 15.333 -125.835 40.999 -203.502 76.999l-232.5 107.5c-77.333 35.667 -151.166 65 -221.499 88s-137.833 34.5 -202.5 34.5c-153.333 0 -276.333 -61.333 -369 -184c343.333 0 611.333 -9.16699 804 -27.5s334.334 -50.166 425.001 -95.499zM1382 3441
c-33.333 27.333 -69.0029 47.333 -107.003 60s-86.667 25.334 -146 38c-59.333 12.667 -108.666 26.834 -147.999 42.5c-39.333 15.667 -79.666 40.5 -120.999 74.5v-123c46 0 93.333 -4.33301 142 -13s92.834 -18.5 132.501 -29.5s83.167 -22 130.5 -33
s86.333 -16.5 117 -16.5zM1352 3656l215 -31l30 31l-245 30v-30zM1935 3533c-20.667 10 -48.167 26.333 -82.5 49s-57.833 47.334 -70.5 74zM2273 3256c-4.66699 15.333 -14.667 36.5 -30 63.5s-36 46.833 -62 59.5zM2150 2980c-86 22 -194.503 52.667 -325.503 92l-381 115
c-123 37.333 -243.167 70 -360.5 98s-232.666 49 -345.999 63c73.333 -28.667 127.5 -64.334 162.5 -107c35 -42.667 52.5 -88.667 52.5 -138c0 -20.667 -2.33301 -41.667 -7 -63s-13 -55.166 -25 -101.5c-12 -46.333 -19.833 -80.5 -23.5 -102.5s-5.5 -45.667 -5.5 -71
c0 -46 3.33301 -86.333 10 -121s23.667 -66 51 -94c121.333 0 236.5 7 345.5 21s214.833 37.333 317.5 70s199.334 77.334 290.001 134c90.667 56.667 172.334 125 245.001 205zM1658.99 3318l369 -154v31l-369 153v-30zM1842.99 2519c-62 -30 -125.5 -52.833 -190.5 -68.5
s-134.5 -23.5 -208.5 -23.5c39.333 0 74.333 3.83301 105 11.5s64.667 18.834 102 33.5c37.333 14.667 70.833 26.167 100.5 34.5s60.167 12.5 91.5 12.5zM552.992 1106l61 31l-122 583zM1259.99 1720c-59.333 -59.333 -105 -131.165 -137 -215.498s-48 -165.833 -48 -244.5
c0 -112.667 30.667 -215.334 92 -308.001l31 31l92 -92l-30 -31c-64 18.667 -112 84.5 -144 197.5s-52 223.333 -60 331s-12 187.5 -12 239.5c0 27.333 9.33301 45.5 28 54.5s50.5 16.167 95.5 21.5s75.833 10.666 92.5 15.999zM613.992 644.997
c-6.66699 20.667 -11.8311 52.833 -15.498 96.5s-7.83398 78 -12.501 103s-15.667 50.833 -33 77.5c-28 -46 -48.833 -99.5 -62.5 -160.5s-22 -120.667 -25 -179s-4.5 -129.5 -4.5 -213.5c0 54.667 2.5 98.667 7.5 132s18.667 63.333 41 90s57.166 44.667 104.499 54z" />
    <glyph glyph-name="Q" unicode="Q" horiz-adv-x="3594" 
d="M1812 3471c0 -31.333 -4.00195 -63.002 -12.002 -95.002s-19.833 -68.667 -35.5 -110s-27 -76 -34 -104s-10.5 -58 -10.5 -90l389 -262.5c108.667 -76.333 211.334 -155.833 308 -238.5c96.667 -82.667 186.667 -174.667 270 -276s150.333 -211 201 -329
c32 -47.333 55.333 -95.666 70 -144.999s22 -103.333 22 -162c0 -68.667 -11.667 -137.5 -35 -206.5s-59 -155.5 -107 -259.5s-82.5 -185.5 -103.5 -244.5s-31.5 -119.167 -31.5 -180.5c0 -45.333 9 -86.166 27 -122.499s50 -77.5 96 -123.5c0 -50 17.5 -96.167 52.5 -138.5
s80.667 -80 137 -113s112.5 -60.333 168.5 -82s121 -43.5 195 -65.5v31h215v-31c-72 0 -128.5 4.16699 -169.5 12.5s-109.667 23.666 -206 45.999s-165.5 33.5 -207.5 33.5c-62 0 -103 -20.333 -123 -61c-62 0 -117.333 13.167 -166 39.5s-103.834 65 -165.5 116
c-61.667 51 -112.334 89 -152 114c-39.667 25 -83.5 37.5 -131.5 37.5c-61.333 0 -122.666 -30.667 -184 -92c44.667 0 84 7.33301 118 22s66.333 38 97 70c-46.667 63.333 -100 115 -160 155s-119.333 60 -178 60c-35.333 0 -62.5 -3 -81.5 -9s-43.167 -23.667 -72.5 -53
c-168 8.66699 -328.333 25.834 -481 51.501s-299.5 64.334 -440.5 116.001s-271.167 119.5 -390.5 203.5s-224.666 185.667 -315.999 305c0 131.333 16.667 246.166 50 344.499s84.833 203.5 154.5 315.5s118.167 194.833 145.5 248.5s44 119.5 50 197.5l303.5 407.5
c61.667 79.667 139.334 166.334 233.001 260c93.667 93.667 197.5 175.834 311.5 246.5c114 70.667 240.667 124.334 380 161zM1321 3133h307l62 215zM982.998 2765c0 -54 -10.8359 -89 -32.5029 -105s-58.667 -35.667 -111 -59s-86.5 -50.666 -102.5 -82
c22.667 14.667 47.334 44.834 74.001 90.5c26.667 45.667 50.834 80.834 72.501 105.5c21.667 24.667 54.834 41.334 99.501 50zM1690 2765l-277.003 0.000976562v-246l-246 -61c0 -67.333 6 -128 18 -182s29.167 -105.333 51.5 -154s50.5 -100.667 84.5 -156
c79.333 0 133 -15.333 161 -46s70.667 -90.834 128 -180.501s114.666 -147.167 171.999 -172.5c-24 22.667 -42.167 41.834 -54.5 57.501s-21.666 33.167 -27.999 52.5s-9.5 44 -9.5 74c39.333 40.667 70 61 92 61c28.667 0 54.334 -6.66699 77.001 -20
s48.834 -32.5 78.501 -57.5s55.834 -43.833 78.501 -56.5s47 -19 73 -19c34 50 57.833 92.667 71.5 128s20.5 74.666 20.5 117.999c0 72 -16.833 140.167 -50.5 204.5s-84 145 -151 242s-112.5 173.167 -136.5 228.5c-12.667 20 -29.667 33.833 -51 41.5l-53.5 19.5
c-14.333 5.33301 -26 17 -35 35s-13.5 47.667 -13.5 89zM1904.99 2673l215 -308l30 31l-215 307zM2487.99 1567l-92 -122.998c28.667 57.333 46.167 114 52.5 170s9.5 132.333 9.5 229c0 69.333 -8.5 139.166 -25.5 209.499s-41.167 156.166 -72.5 257.499s-50 171 -56 209
c44 -50.667 79 -114.5 105 -191.5s44.333 -155.333 55 -235s17.334 -160.167 20 -241.5c2.66699 -81.333 4 -176 4 -284zM2795.99 1290l-308 -306.999c-28.667 15.333 -51.167 36.833 -67.5 64.5s-24.5 57.5 -24.5 89.5c0 40.667 11.333 82 34 124s63.834 111.5 123.5 208.5
c59.667 97 104.667 181.5 135 253.5s45.5 142.667 45.5 212c0 32 -7.83301 69.833 -23.5 113.5s-38.5 87.834 -68.5 132.5l-123 184c62 -62 113.333 -139.333 154 -232s71.334 -207.834 92 -345.501c20.667 -137.667 31 -303.5 31 -497.5zM1689.99 1167
c-40 70.667 -94.668 154.831 -164.001 252.498l-207 294.5c-68.667 98.667 -127.667 192 -177 280s-92 181 -128 279c-52 -45.333 -92.5 -99.666 -121.5 -163c-29 -63.333 -50.167 -132.833 -63.5 -208.5s-21.666 -149.667 -24.999 -222s-5 -161.166 -5 -266.499
c9.33301 -87.333 33.666 -161.166 72.999 -221.499s87.833 -105 145.5 -134s117.834 -43.5 180.501 -43.5c58.667 0 118.5 6.33301 179.5 19s118.167 30.5 171.5 53.5s100.333 49.833 141 80.5zM2303.99 2243v-615h31v615h-31zM583.991 1966l-92 -0.000976562v-215
c0 56.667 4.83301 99.834 14.5 129.501s35.5 58.167 77.5 85.5zM583.991 1044c0 64 -9.33301 124.666 -28 181.999s-46.667 127.833 -84 211.5s-63.833 148.667 -79.5 195s-23.5 96.166 -23.5 149.499c-27.333 -40 -44.5 -80.833 -51.5 -122.5s-10.5 -93.167 -10.5 -154.5
c0 -63.333 10.5 -126.666 31.5 -189.999s52.167 -119.166 93.5 -167.499s92 -82.833 152 -103.5zM1535.99 736.997h461l-154 123zM2487.99 460.997l154 -123l31 31l-154 123z" />
    <glyph glyph-name="R" unicode="R" horiz-adv-x="3656" 
d="M2519 2949c95.333 -59.333 180.168 -115.831 254.502 -169.498c74.333 -53.667 140.833 -109.667 199.5 -168s110 -125.833 154 -202.5s77 -163 99 -259c0 -88 -21.833 -161.167 -65.5 -219.5s-109 -123.333 -196 -195s-152.333 -136.5 -196 -194.5
s-65.5 -131.333 -65.5 -220c59.333 -58.667 139.333 -113.834 240 -165.501l305.5 -157c103 -53 189.833 -114.333 260.5 -184s119.667 -156.834 147 -261.501c-20.667 84.667 -57.667 150.334 -111 197.001s-115.833 85 -187.5 115l-238 102.5
c-87 38.333 -154.167 84.5 -201.5 138.5c0 -96 11.833 -185.167 35.5 -267.5s47.5 -146.666 71.5 -192.999s63.833 -117.166 119.5 -212.499s92.834 -168 111.5 -218c-104.667 0 -190.167 29.333 -256.5 88s-123.5 136.167 -171.5 232.5l-146.5 293.5
c-49.667 99.333 -103.834 171 -162.5 215c-54.667 -20.667 -93.334 -47 -116 -79c-22.667 -32 -49.5 -79.333 -80.5 -142s-62.167 -108 -93.5 -136s-78 -42 -140 -42c57.333 34.667 114.166 79.667 170.499 135s103.5 117 141.5 185s57 135.333 57 202
c0 21.333 -20.667 72.666 -62 153.999c-30 40 -68.333 68.5 -115 85.5s-104.667 27.5 -174 31.5s-177.666 6 -324.999 6l-67 -560.5c-15.333 -130.333 -28.5 -270.333 -39.5 -420s-16.5 -293.834 -16.5 -432.501c-41.333 124.667 -72 258.334 -92 401.001
s-40.667 336.667 -62 582c-27.333 20.667 -49.833 49.5 -67.5 86.5s-31.5 76.5 -41.5 118.5s-22.333 97.667 -37 167s-27.334 119.333 -38.001 150c-10.667 -33.333 -20.667 -67.333 -30 -102s-16.833 -69.5 -22.5 -104.5s-8.5 -68.5 -8.5 -100.5
c0 -50.667 2.66699 -96.167 8 -136.5s16.333 -107.333 33 -201s29.334 -174.334 38.001 -242.001s13 -130.5 13 -188.5c-90 0 -148.5 20.833 -175.5 62.5s-51.5 109.167 -73.5 202.5s-51.667 158.666 -89 195.999l92 92c-42 35.333 -72.833 82.666 -92.5 141.999
s-40.167 146.833 -61.5 262.5s-42 210.5 -62 284.5s-50.333 141.333 -91 202l-92 -123c18.667 -101.333 38.334 -228 59.001 -380l60 -441c19.333 -142 41.333 -274.333 66 -397s55 -239 91 -349c-50 21.333 -88.333 55.5 -115 102.5s-48.834 102.833 -66.501 167.5
l-56.5 207c-20 73.333 -43 129.333 -69 168c-23.333 96.667 -60.833 214.834 -112.5 354.501l-153 415c-50.333 137 -90.333 265.5 -120 385.5s-44.5 236.667 -44.5 350c0 78 4.33301 149.167 13 213.5s24.5 127.833 47.5 190.5s53.833 122.667 92.5 180
c66 30 137.333 69.167 214 117.5l240 152c83.333 53 159.166 93 227.499 120s138.166 40.5 209.499 40.5c50.667 0 105.334 -9.66699 164.001 -29s116.667 -50.666 174 -94c42 -18 112.167 -51.333 210.5 -100s179.166 -86 242.499 -112s132.833 -48.333 208.5 -67
s152.167 -28 229.5 -28zM1413 3133v31c-28 -14 -91.833 -33 -191.5 -57s-184.667 -51.833 -255 -83.5s-131.166 -83.334 -182.499 -155c-51.333 -71.667 -77 -167.834 -77 -288.5h-93c0 69.333 10.667 133.666 32 193c21.333 59.333 46.5 109.666 75.5 151
c29 41.333 66.5 87.5 112.5 138.5s75.333 84.833 88 101.5c164 0 296.833 -3.33301 398.5 -10s187.667 -16.667 258 -30s138.166 -30.666 203.499 -52zM2519 2642l-215 92l-768 31zM737.002 860.002c-16.667 83.333 -48.166 211.002 -94.499 383.002
s-82.833 314.833 -109.5 428.5s-50.5 247.167 -71.5 400.5s-31.5 312.666 -31.5 478c0 -114.667 11.167 -219.334 33.5 -314.001s59.666 -230.834 111.999 -408.501s92.333 -340 120 -487s41.5 -307.167 41.5 -480.5zM1198 2550l31 -215h61l-61 215h-31zM2519 2458
c-140.667 0 -254.5 0.666992 -341.5 2s-180.167 5 -279.5 11s-193.5 15.333 -282.5 28s-176.833 29.667 -263.5 51c0 -66.667 6.5 -124.834 19.5 -174.5c13 -49.667 32 -101.334 57 -155c25 -53.667 44 -100.5 57 -140.5s19.5 -88.333 19.5 -145l-61 31l61 -184
c0 46 1.83301 84.833 5.5 116.5s12.167 54.167 25.5 67.5c15.333 -28.667 36.833 -51.167 64.5 -67.5s57.5 -24.5 89.5 -24.5c26 0 54.833 7.33301 86.5 22s75.167 37.667 130.5 69s100.833 54.666 136.5 69.999s71.167 23 106.5 23c30.667 0 56.5 -8.66699 77.5 -26
s46.5 -49.666 76.5 -96.999c76.667 30.667 131.667 86.667 165 168s50 199.666 50 355zM1106 2335v123h-62v-123h62zM2826 2058c0 106 -7.16699 185.833 -21.5 239.5s-37.833 96.834 -70.5 129.5v-215c-20 -25.333 -48.333 -69 -85 -131s-67 -111 -91 -147
s-54.833 -68.5 -92.5 -97.5s-81.167 -47.167 -130.5 -54.5zM737.003 1905l62 153l-92 215zM1106 1782v153l-62 277zM1290 2028l31 -123h31l-31 123h-31zM2611 1536l31 -92l61 123zM3011 369.004v61l-123 215z" />
    <glyph glyph-name="S" unicode="S" horiz-adv-x="2857" 
d="M2673 3041c27.333 0 44.333 10.3389 51 31.0059s10 51.334 10 92c41.333 -41.333 62 -72 62 -92c0 -18.667 -6.33301 -36.334 -19 -53c-12.667 -16.667 -31.167 -38.5 -55.5 -65.5s-40.5 -48.833 -48.5 -65.5c-36.667 24.667 -76.167 63 -118.5 115l-143.5 178
c-53.333 66.667 -108 119.834 -164 159.5c-56 39.667 -119 62.834 -189 69.5c-178 -8 -353 -24.167 -525 -48.5s-342.5 -62.166 -511.5 -113.5c-169 -51.333 -328.667 -122.166 -479 -212.5c-150.333 -90.333 -279.833 -201.166 -388.5 -332.5
c0 -77.333 20.167 -148.166 60.5 -212.5c40.333 -64.333 86.833 -117.833 139.5 -160.5s121.834 -92 207.501 -148s144.167 -97.333 175.5 -124c34.667 0 62.834 -6.5 84.501 -19.5s50 -33.5 85 -61.5s60.5 -42 76.5 -42c0.666992 0 21 20.667 61 62
c-106.667 64 -190.667 129.333 -252 196s-106.333 145.834 -135 237.5c-28.667 91.667 -43 203.167 -43 334.5c24.667 19.333 79 64.166 163 134.5c84 70.333 152 123 204 158s114 65 186 90s154 40.833 246 47.5c126 0 238 -23.167 336 -69.5s209.333 -116.666 334 -211
c124.667 -94.333 227.167 -165 307.5 -212s174.5 -77.5 282.5 -91.5c27.333 -26.667 44.333 -58.834 51 -96.5c6.66699 -37.667 10 -87.5 10 -149.5l-276 -122l23.5 -69c15 -44 25 -77 30 -99s7.5 -48 7.5 -78c-12.667 -26 -29.834 -42.833 -51.5 -50.5
c-21.667 -7.66699 -45.5 -11.5 -71.5 -11.5s-53.5 8 -82.5 24s-61.333 38.667 -97 68s-65.667 52.166 -90 68.499s-47.166 24.5 -68.499 24.5c-16.667 0 -37.5 -14.667 -62.5 -44s-45.167 -66 -60.5 -110c118.667 -50.667 227.5 -105 326.5 -163
s187.167 -124.833 264.5 -200.5s140 -164.667 188 -267s75.333 -219.833 82 -352.5c-6.66699 -78 -25.167 -150.5 -55.5 -217.5s-68 -127.833 -113 -182.5s-100 -110.834 -165 -168.501l-158.5 -138.5c-154.667 -61.333 -298 -92 -430 -92
c-129.333 0 -253.5 20.667 -372.5 62s-229.167 94.166 -330.5 158.499s-202.333 137.833 -303 220.5l-284 235c-26.667 26.667 -43.667 48.667 -51 66s-11 36.333 -11 57c0 20 6.66699 39.333 20 58s34 42 62 70s50.667 53.333 68 76s29 47 35 73
c-16 8.66699 -28 19.667 -36 33s-13.833 31.5 -17.5 54.5s-6 51.833 -7 86.5s-1.5 89 -1.5 163c87.333 -6.66699 167.5 -23.667 240.5 -51s137 -59.333 192 -96s125.167 -89.334 210.5 -158.001l156 -125c354.667 0 580 71.667 676 215c-142 72 -350.5 159.167 -625.5 261.5
s-480.667 182.666 -617 240.999s-282.833 142.666 -439.5 252.999s-292.334 247.833 -407.001 412.5c0 79.333 18.5 149 55.5 209s80.5 110.167 130.5 150.5s120.167 90.5 210.5 150.5s152.5 105 186.5 135c65.333 12 181.333 41.167 348 87.5l353.5 97
c69 18.333 162.167 38.166 279.5 59.5c117.333 21.333 230.666 32 339.999 32c73.333 0 143.666 -6.66699 210.999 -20s132 -35.833 194 -67.5s122 -76.334 180 -134c58 -57.667 109 -127.167 153 -208.5zM891 2580.01l61 93v123zM1935 2365.01
c-25.333 16 -62.334 48 -111.001 96s-88.5 84.5 -119.5 109.5s-75.833 48.333 -134.5 70s-131.334 32.5 -218.001 32.5c-23.333 -10.667 -41.5 -18.667 -54.5 -24s-22.5 -10.666 -28.5 -16c-6 -5.33301 -9 -12.666 -9 -22c0 -16 9.66699 -43.833 29 -83.5
s34.666 -75.667 45.999 -108s17 -70.833 17 -115.5c-8.66699 0 -18.5 -3.66699 -29.5 -11s-19.5 -12.5 -25.5 -15.5s-18.333 -4.5 -37 -4.5c63.333 0 120.333 -11 171 -33s109.834 -55.833 177.501 -101.5s120.334 -78.834 158.001 -99.5
c37.667 -20.667 83.834 -34.667 138.501 -42zM2365 2089.01c-112 0 -183.667 30.667 -215 92c18 -34 40.833 -57.833 68.5 -71.5s76.5 -20.5 146.5 -20.5zM1044 1966.01l277 -154v62l-246 123zM1444 1812.01l461 -122v61l-430 123zM2335 1475.01v30l-215 154zM2335 1198.01
l-123 154.001l-369 -308c51.333 0 99 3.66699 143 11s84.5 17.5 121.5 30.5s74.667 29.167 113 48.5s76.5 40.666 114.5 63.999zM1321 983.007l-123 154l-307 153zM2458 1137.01l-154 -154v-31l184 123zM2335 492.007c-94.667 -23.333 -164.833 -39.5 -210.5 -48.5
s-88.167 -13.5 -127.5 -13.5c-108.667 0 -214.667 14.333 -318 43s-199 65.334 -287 110.001s-180.5 98.5 -277.5 161.5l-223.5 146.5l338 -399c86.667 -32.667 164.834 -60.334 234.501 -83.001s136.167 -40.167 199.5 -52.5s123.333 -18.5 180 -18.5
c73.333 0 147.666 12.667 222.999 38s165 64 269 116zM1567 891.007l184 -31l31 31l-185 61zM2212 676.007v92.001c-67.333 -22.667 -139 -53.334 -215 -92.001h215zM1444 707.008h123v61h-123v-61z" />
    <glyph glyph-name="T" unicode="T" horiz-adv-x="3133" 
d="M1751 2611l91.999 -92c161.333 40.667 284.333 61 368.999 61c54.667 0 116.334 -5 185 -15c68.667 -10 126.834 -20.333 174.5 -31l222 -51.5c100.333 -23.667 182.833 -42.167 247.5 -55.5l-307 -154c34 -16.667 76.5 -33.834 127.5 -51.5l148.5 -51.5
c48 -16.667 89 -33.334 123 -50l-184 -123v92c-174 0 -315.333 -3.33301 -424 -10s-211 -25.167 -307 -55.5s-172.167 -79.833 -228.5 -148.5s-84.5 -161.334 -84.5 -278.001c0 -50.667 3.5 -94 10.5 -130s23.833 -54 50.5 -54h92c0 -80 10.667 -155.333 32 -226
s53.833 -153.834 97.5 -249.501s77.667 -176.334 102 -242.001s39.5 -133.5 45.5 -203.5l30 30l-30 -522c0 389.333 -61.667 655.666 -185 798.999c-16.667 -16.667 -30.5 -36.667 -41.5 -60s-20.167 -59.5 -27.5 -108.5s-13 -118.333 -17 -208s-6 -210.167 -6 -361.5
c-156 70.667 -274.667 172.834 -356 306.501s-144.666 306.5 -189.999 518.5s-84.833 404.167 -118.5 576.5s-78.167 319.833 -133.5 442.5c-31.333 -7.33301 -100.5 -13.166 -207.5 -17.499s-191.333 -11.166 -253 -20.499s-92.5 -27.666 -92.5 -54.999l-277 93
c14 54 52.167 88 114.5 102s147.166 21 254.499 21c138 0 239 3.16699 303 9.5s96 23.5 96 51.5c0 38 -12 74.833 -36 110.5s-63.333 60.167 -118 73.5c-39.333 -25.333 -81.666 -49 -126.999 -71s-95 -41.167 -149 -57.5s-105.333 -24.5 -154 -24.5
c-65.333 0 -120.166 10.833 -164.499 32.5s-81.5 61.834 -111.5 120.5h-338v62l1167 184c0 142.667 1.5 264.5 4.5 365.5s11.167 202.167 24.5 303.5s34.666 185.666 63.999 253v61h153v-61c-42.667 0 -72.5 -11.333 -89.5 -34s-28.5 -53.167 -34.5 -91.5l-19.5 -120
c-7 -41.667 -20.5 -72.5 -40.5 -92.5c0 -95.333 1.5 -174.333 4.5 -237s11.333 -127.667 25 -195s34.5 -128.333 62.5 -183c74.667 22 131.334 63.5 170.001 124.5s66 160 82 297s24 334.5 24 592.5c47.333 -66 82.333 -145.167 105 -237.5s36.5 -187 41.5 -284
s7.5 -220.167 7.5 -369.5zM1659 3072l-31 -492h31l61 461zM1720 614c-40.667 88.667 -76.167 185.669 -106.5 291.002s-53.166 198 -68.499 278s-37.333 202.5 -66 367.5s-50.667 283.167 -66 354.5l105.5 -302c36.333 -104 69.166 -207.333 98.499 -310
s53.833 -211.834 73.5 -327.501s29.5 -232.834 29.5 -351.501z" />
    <glyph glyph-name="U" unicode="U" horiz-adv-x="1720" 
d="M1413 2642c13.333 -50 21.8311 -107.329 25.498 -171.996s5.5 -140.334 5.5 -227.001c-5.33301 30.667 -15.5 69 -30.5 115s-35.5 69 -61.5 69c0 -67.333 6.5 -125.5 19.5 -174.5s32.333 -100 58 -153s44.667 -96.833 57 -131.5s18.5 -76.334 18.5 -125.001v-921h62
c14 99.333 23.833 211.166 29.5 335.499s9.5 256.666 11.5 396.999s4.33301 280.166 7 419.499s7 257 13 353h31l61 -1905l-184 92c-46.667 -34 -76.167 -75.5 -88.5 -124.5s-18.5 -113.167 -18.5 -192.5s-6 -141.833 -18 -187.5s-42 -82.167 -90 -109.5
c-45.333 0 -89.833 5.66699 -133.5 17s-104.167 30 -181.5 56s-145.833 46 -205.5 60s-121.834 21 -186.501 21c-26.667 74.667 -65.5 136 -116.5 184s-119.5 99.333 -205.5 154s-151 102.334 -195 143.001s-76.333 95.334 -97 164.001v1474h246l22 -109
c9.33301 -47.333 16 -82.5 20 -105.5s8.16699 -56.167 12.5 -99.5s6.5 -82 6.5 -116c0 -47.333 -1.33301 -95.5 -4 -144.5s-6.16699 -103.5 -10.5 -163.5s-8.16602 -115.833 -11.499 -167.5s-5 -97.834 -5 -138.501c0 -81.333 5.33301 -158.333 16 -231
s28.167 -140.834 52.5 -204.501s59.166 -124.167 104.499 -181.5s100.333 -107.666 165 -150.999l400 645l92 -92c19.333 70 36 144.167 50 222.5s24.5 157 31.5 236s10.5 161.5 10.5 247.5c-40.667 363.333 -61 640 -61 830c18.667 0 40.834 5.83301 66.501 17.5
s48.334 22.834 68.001 33.5c19.667 10.667 41.834 20.167 66.501 28.5s49.667 12.5 75 12.5zM921.998 553.004l92 276l-62 -215zM1014 461.004l123 61l61 154zM1229 61.0039c27.333 18.667 45.5 43.5 54.5 74.5s15.5 71.667 19.5 122s10 87.5 18 111.5l-307 -154z" />
    <glyph glyph-name="V" unicode="V" horiz-adv-x="2765" 
d="M2519 2796c-12.667 -58 -32.334 -111.833 -59 -161.5c-26.667 -49.667 -63.5 -110.834 -110.5 -183.5c-47 -72.667 -81.667 -135.667 -104 -189s-33.5 -111 -33.5 -173c26 8.66699 52.167 21 78.5 37s51.166 24 74.5 24c5.33301 0 13.833 -3.66699 25.5 -11
s23.834 -24 36.5 -50l184 399c0 -84 -12.5 -163.333 -37.5 -238s-65 -165.667 -120 -273s-92 -182.333 -111 -225s-31.833 -94.334 -38.5 -155.001c-6.66699 -126.667 -26.167 -251.5 -58.5 -374.5s-64.333 -224.833 -96 -305.5l-154 -375
c-71 -169.333 -121.833 -298.666 -152.5 -387.999c-54.667 -41.333 -136.167 -67.166 -244.5 -77.499s-241.833 -15.5 -400.5 -15.5l-225.5 445.5c-65 125 -134.333 250 -208 375s-154.5 251.167 -242.5 378.5c-18 165.333 -52.667 319.5 -104 462.5
s-123.333 314.167 -216 513.5s-160 355 -202 467c75.333 0 137.166 -21.333 185.499 -64s98.5 -105.5 150.5 -188.5s96.167 -143.5 132.5 -181.5s84.833 -57 145.5 -57l93 -123c15.333 8 28.833 25.333 40.5 52s21.334 45.167 29.001 55.5s25.167 15.5 52.5 15.5
c0 -94 11.333 -192.5 34 -295.5s53.834 -206.833 93.501 -311.5s82.667 -203.834 129 -297.501s94.166 -181.5 143.499 -263.5c160 97.333 292.5 214.333 397.5 351s216.833 319.667 335.5 549s211.5 400.666 278.5 514c67 113.333 159.833 226 278.5 338zM2150 2089
c-66 -93.333 -113.999 -183.834 -143.999 -271.501s-72.5 -229.667 -127.5 -426s-108.333 -347.333 -160 -453s-122.834 -193.167 -213.501 -262.5c0 124.667 24.167 243.834 72.5 357.501s128.833 256.667 241.5 429s189.667 293.833 231 364.5s74.666 158 100 262z
M1751 552.999c0 54 7.83203 100.001 23.499 138.001s38.834 80 69.501 126s53.5 86.667 68.5 122s22.5 80.666 22.5 135.999zM1229 246v61l-123 92z" />
    <glyph glyph-name="W" unicode="W" horiz-adv-x="3871" 
d="M3809 3011c0 -159.333 -16.1709 -311.178 -48.5039 -455.512c-32.333 -144.333 -74.166 -278.666 -125.5 -402.999c-51.333 -124.333 -109.5 -249.833 -174.5 -376.5l-234.5 -455l61 -31c27.333 27.333 67.166 76.833 119.5 148.5c52.333 71.667 92.333 124 120 157
s65.834 65.5 114.5 97.5c48.667 32 104.667 51.333 168 58c0 -34.667 -3.66699 -65.667 -11 -93s-17.5 -60.833 -30.5 -100.5s-19.5 -67.167 -19.5 -82.5c0 -16.667 8.5 -31.167 25.5 -43.5s39.167 -18.5 66.5 -18.5l-430 -799c20 -6 37.333 -15.333 52 -28
s25.334 -25.834 32 -39.501c6.66699 -13.667 13.5 -32 20.5 -55l18.5 -61.5h-92c0 36 -1.66699 60.333 -5 73s-12 19 -26 19c-34 -6 -55.333 -18.333 -64 -37s-14 -44.667 -16 -78s-9.66699 -58.333 -23 -75s-40.333 -25 -81 -25c0 54.667 5.33301 98.834 16 132.501
s26 75.334 46 125.001s30 86.834 30 111.501c0 29.333 -7.33301 53.333 -22 72s-38 35.667 -70 51c-34 -41.333 -63 -90.833 -87 -148.5s-52.167 -140 -84.5 -247s-56.5 -184.167 -72.5 -231.5s-37.333 -94.333 -64 -141l-92 184
c-13.333 -13.333 -21.666 -28.166 -24.999 -44.499s-5 -42.5 -5 -78.5h-93c-58.667 66 -118 159 -178 279l-155 317.5c-43.333 91.667 -91.833 177.334 -145.5 257.001s-119.167 143.5 -196.5 191.5c-18.667 -56 -47.5 -116 -86.5 -180l-109 -179.5
c-33.667 -55.667 -60.834 -113.667 -81.501 -174s-31 -128.5 -31 -204.5c-60 -26 -102.333 -69.833 -127 -131.5s-48.667 -117.5 -72 -167.5s-69.666 -83.333 -138.999 -100c-15.333 0 -39 15.5 -71 46.5s-63.5 70.833 -94.5 119.5s-57.167 104.334 -78.5 167.001
s-32 125.667 -32 189c0 117.333 -23 217 -69 299s-119.833 170.833 -221.5 266.5s-174.167 167.334 -217.5 215.001s-78.666 115.167 -105.999 202.5c-70 91.333 -129.167 187.333 -177.5 288s-85.833 194.334 -112.5 281.001s-60.5 208.167 -101.5 364.5
s-74.5 275.5 -100.5 357.5c34.667 -6 57.667 -25.333 69 -58s19.333 -80.5 24 -143.5s12.5 -115 23.5 -156s33.5 -75.5 67.5 -103.5c41.333 -121.333 86.166 -236.833 134.499 -346.5s104.333 -219 168 -328s131.834 -210 204.501 -303s149.667 -176.833 231 -251.5
c-10 128.667 -35.167 267.334 -75.5 416.001s-91.166 297.334 -152.499 446.001s-128.666 291.334 -201.999 428l30 31l154 -123l246 246c0 -14.667 6.33301 -28.667 19 -42s26.667 -20 42 -20c20.667 0 35 6.5 43 19.5s15.5 32 22.5 57s16.5 44.167 28.5 57.5s32 20 60 20
c10.667 -52 23.167 -135.667 37.5 -251s26.833 -211.166 37.5 -287.499s24.667 -150.333 42 -222s39.666 -135.5 66.999 -191.5c20.667 98.667 51.167 202.167 91.5 310.5s85 213.833 134 316.5s94.5 191.5 136.5 266.5l191 334.5l-31 -211.5
c-10.667 -73.667 -20.667 -153.5 -30 -239.5s-16.833 -178.5 -22.5 -277.5s-8.5 -204.167 -8.5 -315.5c82 164 123 389.333 123 676c16 -32.667 33.333 -56.167 52 -70.5s42.334 -21.5 71.001 -21.5c42 0 83.833 27 125.5 81s71.5 108.667 89.5 164
c0 -232.667 21.5 -463.5 64.5 -692.5s113.5 -428.167 211.5 -597.5c159.333 28 277.166 96.833 353.5 206.5c76.333 109.667 142.833 273.334 199.5 491.001s105.5 380 146.5 487s115.167 193.5 222.5 259.5l92 -61c43.333 64 86.666 115.833 130 155.5
c43.333 39.667 92 59.5 146 59.5zM3594 2395.99l123 338h-92zM1075 1289.99l-61 400l-307 614zM3226 2242.99l-123 -431h30l154 431h-61zM1413 1289.99c20 61.333 33.501 129.168 40.501 203.501l19.5 214c6 68.333 17.5 132.833 34.5 193.5s46.833 123.334 89.5 188.001
c0 -157.333 -2.5 -284.5 -7.5 -381.5s-13.833 -172.333 -26.5 -226s-30.834 -94.834 -54.501 -123.501s-55.5 -51.334 -95.5 -68.001zM2181 1689.99l123 -369l31 31l-123 338h-31zM3717 1596.99c-14.667 -68 -33.501 -134.666 -56.501 -199.999s-49.5 -129 -79.5 -191
s-65 -125.333 -105 -190s-82.667 -127 -128 -187c0 86 19 178.167 57 276.5s85.333 190.666 142 276.999s113.334 157.833 170.001 214.5zM2796 890.991c34 27.333 61.167 60.9971 81.5 100.997s36.166 83.667 47.5 131l38 153c14 54.667 30 100.334 48 137.001
c-6 -40.667 -23.167 -76.667 -51.5 -108s-67.833 -65.666 -118.5 -102.999s-86.334 -66 -107 -86c-20.667 -20 -31 -44 -31 -72c0 -27.333 6.5 -50.666 19.5 -69.999s37.5 -47 73.5 -83zM1597 828.988c0 43.333 6.83105 77.166 20.498 101.499s39.334 63.666 77.001 117.999
s56.5 93.833 56.5 118.5c0 26.667 -5.16699 48.834 -15.5 66.501s-25.5 36.5 -45.5 56.5c0 -27.333 -7.66699 -52.166 -23 -74.499s-38.166 -49.666 -68.499 -81.999s-53.5 -62.333 -69.5 -90s-24 -58.167 -24 -91.5c0 -12.667 5.66699 -26.334 17 -41.001
s36.333 -42 75 -82zM2672.99 521.988l-246 676h-92zM1381.99 706.988c-44.667 0 -71 5 -79 15s-16.167 28.333 -24.5 55s-24.833 44 -49.5 52c36.667 0 62 -5 76 -15s27.167 -27.167 39.5 -51.5s24.833 -42.833 37.5 -55.5zM2979.99 706.988l-62 -277h62l31 277h-31z" />
    <glyph glyph-name="X" unicode="X" horiz-adv-x="2396" 
d="M2396 2980c-27.333 -98 -67.833 -192.835 -121.5 -284.502s-115.5 -181.167 -185.5 -268.5c-24 0 -44 15.333 -60 46s-26.667 56.334 -32 77c-18 -18 -32 -36.667 -42 -56s-18.833 -50.666 -26.5 -93.999s-13.5 -101.5 -17.5 -174.5s-6 -169.833 -6 -290.5
c-119.333 -102.667 -215.833 -213.667 -289.5 -333s-110.5 -243.666 -110.5 -372.999c0 -163.333 71.667 -317 215 -461c39.333 -9.33301 75.5 -31.166 108.5 -65.499s59 -75.666 78 -123.999s28.5 -97.833 28.5 -148.5l-98 102.5
c-34.667 36.333 -69.167 67.166 -103.5 92.499s-69.5 42.333 -105.5 51c0 -66 18.833 -138.833 56.5 -218.5s84 -155.5 139 -227.5s112.833 -138.333 173.5 -199c-104.667 0 -189.167 2 -253.5 6s-131.666 14.833 -201.999 32.5s-143.833 45.834 -220.5 84.501l-399 460
c-22 -27.333 -63.5 -86.833 -124.5 -178.5s-119.333 -168 -175 -229s-119.834 -109.5 -192.501 -145.5l-31 246c-30 -61.333 -60.667 -92 -92 -92c-27.333 0 -51.833 6.33301 -73.5 19s-47.5 31.667 -77.5 57s-51.333 41 -64 47l615 829
c-49.333 81.333 -101.333 174.666 -156 279.999l-172 332.5c-60 116.333 -121.167 221.166 -183.5 314.499s-127.5 173.666 -195.5 241l31 30c34.667 0 61.667 -6.5 81 -19.5s40.333 -32.167 63 -57.5s45.667 -44.333 69 -57s54.666 -19 93.999 -19v246l92 -93
c18 8.66699 29.167 20.667 33.5 36s8 39.666 11 73c3 33.333 8.83301 58.666 17.5 76h184l461 -830c84 84 173.5 179.333 268.5 286l326.5 364c122.667 136 234.834 251.5 336.501 346.5s210.834 182.833 327.5 263.5zM2212 2826l-92 -246h30l93 216zM707 2273l276 -522
l31 31l-277 522zM829 1352c-19.333 34.667 -52.5 99.835 -99.5 195.502s-84.167 167.167 -111.5 214.5s-64.5 97.666 -111.5 150.999s-103.167 101.666 -168.5 144.999l399 -737c13.333 13.333 27 21.833 41 25.5s31 5.5 51 5.5zM1628 153.999l-491.001 675
c-37.333 0 -62.833 -7.33301 -76.5 -22s-23.834 -38.167 -30.501 -70.5s-12 -52.5 -16 -60.5c86.667 -104 160.334 -189.167 221.001 -255.5s127.334 -127.333 200.001 -183s137 -83.5 193 -83.5z" />
    <glyph glyph-name="Y" unicode="Y" horiz-adv-x="2396" 
d="M2273 2365c-28 -85.333 -69.832 -172.001 -125.499 -260.001s-111.667 -166.333 -168 -235l-217 -254.5c-88.333 -101 -153.5 -178.833 -195.5 -233.5l-62 -1321c-37.333 0 -62.666 7 -75.999 21s-22.833 32.833 -28.5 56.5s-11.834 38.834 -18.501 45.501
c-32.667 0 -59 -3.83301 -79 -11.5s-41.167 -19.167 -63.5 -34.5s-45.333 -26.833 -69 -34.5s-55.5 -11.5 -95.5 -11.5c0 351.333 -8.33301 618 -25 800s-62.167 349.167 -136.5 501.5s-194.5 291.833 -360.5 418.5c-14 92 -43.667 173.667 -89 245s-109 151.833 -191 241.5
s-143 161 -183 214s-70 116.5 -90 190.5c118 0 200.333 -2 247 -6s81.167 -14.167 103.5 -30.5s38.5 -45.166 48.5 -86.5c0 27.333 10.667 49.666 32 67c21.333 17.333 41.666 26 60.999 26c34 -16.667 69.667 -31.167 107 -43.5s63 -18.5 77 -18.5
c81.333 -54 137.166 -123.5 167.499 -208.5s58.833 -202.833 85.5 -353.5s59.167 -270 97.5 -358s105.833 -160 202.5 -216c15.333 15.333 38.666 28.5 69.999 39.5s53 20.667 65 29s18 26.166 18 53.499l-30 62c98 83.333 186.333 169.333 265 258
s150.834 182.167 216.501 280.501c65.667 98.333 126.334 201.166 182.001 308.5c55.667 107.333 110.834 224.333 165.5 351c6 -23.333 14 -45 24 -65s28.333 -52.667 55 -98s45.834 -80.666 57.5 -106c11.667 -25.333 17.5 -48.333 17.5 -69
c0 -19.333 -2.66699 -36 -8 -50s-15.333 -34.167 -30 -60.5s-22.667 -40.833 -24 -43.5zM891.001 1997c-8 12 -39.168 62.334 -93.501 151.001l-123.5 196.5c-28 42.333 -61.333 86.666 -100 133c-38.667 46.333 -76.334 80.5 -113.001 102.5
c76.667 -6 133.834 -29.167 171.501 -69.5s65.834 -89.833 84.501 -148.5s41 -124.334 67 -197.001s61.667 -128.667 107 -168zM983 1444c-57.333 29.333 -101.833 64.833 -133.5 106.5s-63.834 99.667 -96.501 174s-58.667 129.833 -78 166.5s-49.666 72 -90.999 106z
M1352 983l-62 -491h62l30 491h-30z" />
    <glyph glyph-name="Z" unicode="Z" horiz-adv-x="3564" 
d="M2550 2980l27.998 -107.501c13.333 -51 22.166 -87 26.5 -108c4.33301 -21 6.5 -41.5 6.5 -61.5c0 -164.667 -51 -304.667 -153 -420s-255.667 -243.666 -461 -384.999s-362.5 -264.5 -471.5 -369.5s-177.167 -235.5 -204.5 -391.5c165.333 0 315.833 -8.5 451.5 -25.5
s267.167 -38.833 394.5 -65.5l372.5 -77c121 -24.667 226.833 -40.334 317.5 -47.001l-307 -400c65.333 -58 139.666 -112.167 223 -162.5c83.333 -50.333 167.166 -95.166 251.499 -134.499s169 -76.166 254 -110.499l285.5 -114.5c-113.333 20 -217 52.167 -311 96.5
s-229 114.5 -405 210.5s-322.5 166.167 -439.5 210.5s-233.833 66.5 -350.5 66.5c-76.667 0 -137.667 -3.16699 -183 -9.5s-97 -23.833 -155 -52.5c-74.667 -60 -172.5 -110.833 -293.5 -152.5s-227.833 -62.5 -320.5 -62.5l-645 277c0 33.333 7.33301 62.833 22 88.5
s37.5 58 68.5 97s54.333 73.833 70 104.5s23.5 67 23.5 109c102.667 58.667 208.334 136.167 317.001 232.5s214.5 201.666 317.5 315.999s201.333 231.5 295 351.5l268.5 360c-88 0 -170.167 2.16699 -246.5 6.5s-173.166 12.166 -290.499 23.5
c-117.333 11.333 -205.666 19.333 -264.999 24s-119.666 7 -180.999 7c-79.333 0 -143.5 -1.5 -192.5 -4.5s-99.333 -11.333 -151 -25s-100.834 -34.5 -147.501 -62.5c-18.667 8.66699 -38.5 13.5 -59.5 14.5s-39.833 1.83301 -56.5 2.5s-29.334 5.33398 -38.001 14v122
c58.667 0 108.834 2.66699 150.501 8s78.167 19.166 109.5 41.5c31.333 22.333 47 57.166 47 104.5c-8.66699 17.333 -21.334 28.5 -38.001 33.5s-41.834 9.16699 -75.501 12.5s-57.167 8.33301 -70.5 15l-92 -92l-92 92c104 37.333 222.5 70.333 355.5 99
s274.833 51.334 425.5 68c150.667 16.667 328.167 29 532.5 37s431.833 12 682.5 12c0 5.33301 -5.5 11.666 -16.5 19c-11 7.33301 -36.167 11 -75.5 11c-20 -20 -30 -61 -30 -123c26.667 0 52.667 -2.5 78 -7.5s51 -11.5 77 -19.5s53.167 -15.667 81.5 -23
s51.833 -11 70.5 -11c17.333 0 38.833 8.66699 64.5 26s45.167 39.333 58.5 66c0 64.667 -14.833 112.334 -44.5 143c-29.667 30.667 -71 51.834 -124 63.5l-142 30.5c-41.667 8.66699 -71.5 22 -89.5 40c-285.333 0 -510.166 0.833008 -674.499 2.5
s-328.166 6.16699 -491.499 13.5s-318.5 19.5 -465.5 36.5s-289.167 40.167 -426.5 69.5l31 62c202 -6 405.5 -17.333 610.5 -34s409.333 -35.667 613 -57l658 -67.5c235 -23.667 447.5 -42.5 637.5 -56.5zM1720 2703c-66 0 -131.002 -2.50098 -195.002 -7.50098l-192.5 -15
c-64.333 -5 -129.5 -7.5 -195.5 -7.5c30.667 6 67.834 10 111.501 12s100.167 3 169.5 3s126.333 0.833008 171 2.5s88.334 5.83398 131.001 12.501zM1352 982.998l491 31h-430zM1536 798.998h369l-246 30zM2243 767.998l337 61h-245v-122c0 10 -3.16699 17.333 -9.5 22
s-19 11 -38 19s-33.833 14.667 -44.5 20zM1106 767.998v31h-154zM1536 521.998c-54 0 -105.001 2.33203 -153.001 6.99902s-116.833 13.167 -206.5 25.5l-263 35c-85.667 11 -164.834 19.167 -237.501 24.5c38.667 -7.33301 100.334 -26.666 185.001 -57.999
s154.167 -55 208.5 -71s107.5 -24 159.5 -24s93.667 1 125 3s61.833 7.16699 91.5 15.5s59.834 22.5 90.501 42.5z" />
    <glyph glyph-name="bracketleft" unicode="[" horiz-adv-x="1327" 
d="M977 1972c-38 4.66699 -79.333 11.168 -124 19.501l-141.5 26.5c-49.667 9.33301 -91.5 16.333 -125.5 21s-69.667 7 -107 7c-74 0 -132 -9.5 -174 -28.5s-76 -58.833 -102 -119.5c0 -61.333 18.333 -110.333 55 -147c34 39.333 76.333 70.166 127 92.499
s104.5 37 161.5 44s120.5 10.5 190.5 10.5h590c-24.667 -58.667 -54.5 -97.834 -89.5 -117.501s-78.833 -29.5 -131.5 -29.5c-110.667 0 -190.667 -12.333 -240 -37l-424 -37v-1401c154 0 278.5 3 373.5 9s191.833 21.667 290.5 47l111 -56
c-30 -55.333 -73.833 -100 -131.5 -134s-121.167 -58.167 -190.5 -72.5s-139.833 -23.333 -211.5 -27s-158.167 -5.5 -259.5 -5.5c-19.333 24.667 -59.333 55.667 -120 93s-102 64.333 -124 81s-33 38.334 -33 65.001c0 36.667 18.667 73.667 56 111l-56 1641
c82 48.667 186.667 73 314 73c59.333 0 146.5 -12.167 261.5 -36.5s199.833 -36.5 254.5 -36.5v-56zM313 1677v-129h19v129h-19zM295 295.001l-37 1124c0 -76 -1.5 -161 -4.5 -255l-9 -282c-3 -94 -4.5 -179 -4.5 -255c0 -111.333 18.333 -222 55 -332zM1143 240.001
c-24.667 -8 -54.666 -13.166 -89.999 -15.499s-79 -3.5 -131 -3.5c0 -21.333 1.66699 -37.5 5 -48.5s13.666 -25.5 30.999 -43.5c10.667 6.66699 32 17.167 64 31.5s57.667 27.166 77 38.499s34 25 44 41zM442.001 92.002l332 19l-221 18z" />
    <glyph glyph-name="backslash" unicode="\" horiz-adv-x="958" 
d="M166 1825l17.998 109.998c40.667 -110 97 -247.667 169 -413l202 -460c62.667 -141.333 121.167 -280.166 175.5 -416.499s99.5 -265.5 135.5 -387.5l-147 277c-36.667 -36.667 -55 -79.667 -55 -129c0 -40.667 11.333 -80.667 34 -120s54.334 -85.666 95.001 -138.999
c10 -4.66699 29.833 -23 59.5 -55s50.334 -53.833 62.001 -65.5s26.167 -20.5 43.5 -26.5l-129 55c-88.667 133.333 -171.5 276.333 -248.5 429s-147.5 307 -211.5 463s-114.333 284.667 -151 386l-218 621c9.33301 -20 23.5 -35.333 42.5 -46l65.5 -35.5
c24.667 -13 44 -28.833 58 -47.5zM423.998 1198c-72.667 90 -128.333 186.332 -167 288.999s-63 215.334 -73 338.001z" />
    <glyph glyph-name="bracketright" unicode="]" 
d="M977 2175c23.333 -109.333 43.5029 -226.999 60.5029 -352.999s29.5 -250.667 37.5 -374s12 -243.666 12 -360.999c0 -73.333 -0.333008 -135.166 -1 -185.499s-2.33398 -100.833 -5.00098 -151.5s-6.66699 -98 -12 -142c-33.333 -33.333 -57.666 -62.833 -72.999 -88.5
s-37.5 -65.667 -66.5 -120s-55.5 -97.333 -79.5 -129s-55.333 -60.5 -94 -86.5c-16 16.667 -32.333 27 -49 31s-37.334 6 -62.001 6c-101.333 -24.667 -181 -37 -239 -37c-33.333 0 -61 9 -83 27s-37.667 52 -47 102c-86 0 -141 6.33301 -165 19l129 110l-56 56
c76.667 24.667 126 37 148 37c44.667 0 86 -3.83301 124 -11.5s84.5 -18.834 139.5 -33.501s96.167 -24.334 123.5 -29.001c0 140 -5 250.833 -15 332.5s-25.333 192.167 -46 331.5s-31 243.666 -31 312.999c0 98.667 18.333 203 55 313c-12.667 0 -35.667 16.667 -69 50
s-64 70.5 -92 111.5s-42 73.167 -42 96.5c0 10.667 0.833008 18.5 2.5 23.5s4.5 11.333 8.5 19s10.333 17.834 19 30.5l26 38c-29.333 25.333 -63 42.666 -101 52c-38 9.33301 -76.667 15 -116 17s-85 5.5 -137 10.5s-94 15.167 -126 30.5v74
c21.333 -10 42.666 -16.333 63.999 -19s59 -5.33398 113 -8c54 -2.66699 93.333 -6 118 -10c-8.66699 43.333 -39 78.833 -91 106.5s-107.667 41.5 -167 41.5h-92c20.667 33.333 58.334 58.333 113.001 75s125 27.834 211 33.5l240.5 15.5
c74.333 4.66699 138.166 12.334 191.499 23c52 0 92 -13 120 -39s46.833 -56.5 56.5 -91.5s18.667 -83.167 27 -144.5s14.166 -98.666 17.499 -112zM829.003 2415v92l-110 -19c10 -29.333 22.333 -48.833 37 -58.5s39 -14.5 73 -14.5zM608.003 2064l148 56h-92z
M719.003 1843v111h-55zM903.003 553.001c41.333 47.333 72.667 96.335 94 147.002s35.666 102.667 42.999 156s11 112 11 176c0 75.333 -4 143.166 -12 203.499s-22.5 161.666 -43.5 303.999s-33.5 243.5 -37.5 303.5c-11.333 -94.667 -18.666 -195.834 -21.999 -303.501
s-5 -245.167 -5 -412.5s-1.66699 -304.166 -5 -410.499s-11 -203.833 -23 -292.5h37v129h-37zM793.004 1401c0 95.333 1.66797 160.5 5.00098 195.5s13.666 92.5 30.999 172.5zM829.005 756.003c-10 31.333 -15.499 72.667 -16.499 124s-2 98 -3 140s-6.5 70.667 -16.5 86
c17.333 -17.333 27.666 -44 30.999 -80s5 -126 5 -270zM590.006 313.004c-36.667 0 -70.498 2.16602 -101.498 6.49902s-58.333 10 -82 17s-54.834 17.833 -93.501 32.5c32 0 60.667 -2 86 -6s45.166 -7.83301 59.499 -11.5s36.833 -10.167 67.5 -19.5
s52 -15.666 64 -18.999z" />
    <glyph glyph-name="asciicircum" unicode="^" horiz-adv-x="1180" 
d="M1180 350l-36.999 -36.9961l-166 166c0 -45.333 1.33301 -81.5 4 -108.5s7.5 -65.333 14.5 -115s11.833 -85.5 14.5 -107.5s4 -46.667 4 -74l-424 553c-19.333 -26.667 -46 -72.5 -80 -137.5l-74.5 -140c-15.667 -28.333 -37.334 -60.5 -65.001 -96.5
s-59.167 -65 -94.5 -87l-55 92l-184 -258c0 37.333 6.83301 80.666 20.5 129.999s31.5 99.666 53.5 150.999s49.667 105.166 83 161.499s67 105.5 101 147.5c34.667 88 70 163.167 106 225.5s78.333 120.5 127 174.5s106 105 172 153
c4.66699 -77.333 22.667 -152.833 54 -226.5s69.5 -141.834 114.5 -204.501s97 -126.5 156 -191.5zM774.001 700.004l166 -258l18 19l-165 239h-19z" />
    <glyph glyph-name="underscore" unicode="_" horiz-adv-x="1917" 
d="M1806 313l42 -38.999c14.667 -14 26.667 -28.167 36 -42.5s14 -30.166 14 -47.499l-36 -37l-19 111c-28 -24 -61.333 -47.167 -100 -69.5s-82.667 -42 -132 -59s-104 -30.5 -164 -40.5s-124.667 -15 -194 -15c71.333 0 120.833 1.16699 148.5 3.5s48.334 8.5 62.001 18.5
s23.5 27 29.5 51l-74 56h-1087l-48 -48c-18 -17.333 -33.5 -29.833 -46.5 -37.5s-29 -13.834 -48 -18.501s-45.167 -7 -78.5 -7l-19 92c61.333 0 98.333 6.33301 111 19c-17.333 16.667 -36.333 29.167 -57 37.5s-42.334 14.666 -65.001 18.999s-49.667 9.83301 -81 16.5v74
l166 -74l-55 148c103.333 -34.667 209.833 -58.667 319.5 -72s224.167 -20 343.5 -20c454.667 0 798.667 -6.33301 1032 -19zM1714 258.001c-16 16.667 -32.333 27 -49 31s-37 6 -61 6l-72 -18c-26.667 -6.66699 -53 -11.5 -79 -14.5s-55.667 -4.5 -89 -4.5
c33.333 0 79.333 -12.333 138 -37s98.667 -37 120 -37c45.333 0 76 24.667 92 74z" />
    <glyph glyph-name="grave" unicode="`" horiz-adv-x="848" 
d="M479 516c35.333 -4 72.499 -14.8311 111.499 -32.498s74.667 -39.334 107 -65.001s62.333 -56 90 -91s47.834 -70.5 60.501 -106.5l-111 -74c27.333 -8.66699 49.5 -25.167 66.5 -49.5s25.5 -50.833 25.5 -79.5c-91.333 0 -171.666 19.5 -240.999 58.5
s-133.833 89.833 -193.5 152.5l-194 202.5c-69.667 72.333 -136.5 125.166 -200.5 158.499c32.667 0 59 -3.83301 79 -11.5s48.167 -20 84.5 -37s61.833 -25.5 76.5 -25.5c19.333 0 37.666 24.667 54.999 74zM644.999 129.002l-258 240l-74 18z" />
    <glyph glyph-name="a" unicode="a" horiz-adv-x="1106" 
d="M1032 1567l-0.00585938 -1567c-11.333 40.667 -18.666 83.167 -21.999 127.5s-5 100.333 -5 168s-1.66699 123.667 -5 168s-11 86.5 -23 126.5c-11.333 -44 -18.666 -86.5 -21.999 -127.5s-5 -90.667 -5 -149s-1.66699 -107.833 -5 -148.5s-11 -83.334 -23 -128.001
c-20 12.667 -32.833 27.167 -38.5 43.5s-12.667 45 -21 86s-19.833 71.833 -34.5 92.5s-38.667 32.667 -72 36c-23.333 16.667 -37.833 34.334 -43.5 53.001s-10.5 48.334 -14.5 89.001s-11.5 71.167 -22.5 91.5s-33.5 34.5 -67.5 42.5c-56 -36.667 -117.333 -55 -184 -55
c-28 0 -58.667 4.66699 -92 14s-64 23 -92 41c-11.333 4 -23.166 13.167 -35.499 27.5s-23 27.833 -32 40.5s-18.333 23 -28 31s-20.834 12 -33.501 12s-31.334 -12.333 -56.001 -37c0 120.667 29.167 224 87.5 310s133.833 154.667 226.5 206
c192 -23.333 339.333 -48 442 -74c10 16 16.333 30.667 19 44s5.33398 37.166 8.00098 71.499s6 57.5 10 69.5c-8 16.667 -17 27 -27 31s-25.667 6 -47 6c-14.667 0 -49.667 -9.33301 -105 -28s-100 -28 -134 -28c-36.667 0 -73.667 18.667 -111 56l-111 -56
c-24.667 26 -37 44.667 -37 56c0 27.333 11.833 52.5 35.5 75.5s48.834 34.5 75.501 34.5h37c0 81.333 26.167 132.5 78.5 153.5s124.5 31.5 216.5 31.5c53.333 -10.667 103.5 -35.667 150.5 -75s70.5 -88.333 70.5 -147c10 21.333 18.667 45.333 26 72s11 52 11 76
c0 100.667 -43 168.334 -129 203.001c-48 0 -92.667 -2.83301 -134 -8.5s-80.5 -15.334 -117.5 -29.001s-69.833 -32.167 -98.5 -55.5c0 28 10.833 50.667 32.5 68s49.334 31.833 83.001 43.5l105.5 36.5c68.667 0 127.834 -19 177.501 -57s94.834 -92.667 135.501 -164z
M810.994 1456l-18 37h-111zM755.994 958c-37.333 37.333 -80.333 55.999 -129 55.999c-36 0 -71.5 -8.66699 -106.5 -26s-66 -40.666 -93 -69.999s-46.5 -59 -58.5 -89c26 -50.667 65.667 -88.167 119 -112.5s118 -41.833 194 -52.5c34 42 54.833 84 62.5 126
s11.5 98 11.5 168zM939.994 1014l-18 -406h18l37 406h-37z" />
    <glyph glyph-name="b" unicode="b" horiz-adv-x="1143" 
d="M129 1935c15.333 -26 23.832 -58.501 25.499 -97.501s3.16699 -78.167 4.5 -117.5s9.66602 -72 24.999 -98c11.333 11.333 18.333 25.333 21 42s4.83398 41 6.50098 73s4.83398 55 9.50098 69h55c0 -82.667 6 -155.667 18 -219s30.333 -137.333 55 -222
s43.334 -155.167 56.001 -211.5s19 -115.166 19 -176.499c50.667 66.667 118.834 111 204.501 133s189.5 33 311.5 33c37.333 -19.333 68.166 -44.833 92.499 -76.5s42.666 -66.5 54.999 -104.5s18.5 -76 18.5 -114c0 -102.667 -18.333 -182.667 -55 -240
c-8 -8 -22 -15.833 -42 -23.5s-33.5 -13.834 -40.5 -18.501s-10.5 -15 -10.5 -31l129 -37c-62.667 -3.33301 -113.834 -24.833 -153.501 -64.5s-82.834 -101 -129.501 -184s-83.167 -142.333 -109.5 -178s-61.166 -59.5 -104.499 -71.5c4.66699 14 20.167 36.833 46.5 68.5
s46.666 59.834 60.999 84.501s21.5 53.667 21.5 87c-19.333 0 -39.166 -4.16699 -59.499 -12.5s-50.166 -22.5 -89.499 -42.5s-70.5 -34.333 -93.5 -43s-46.5 -13 -70.5 -13v-74l-185 129c5.33301 5.33301 12 15.166 20 29.499s13.667 23.166 17 26.499
c0 64.667 -12.333 144.334 -37 239.001v424c0 61.333 -2 114.666 -6 159.999s-13.667 91.833 -29 139.5s-38.166 91.334 -68.499 131.001s-69.5 74.5 -117.5 104.5c30.667 0 55.667 -10.333 75 -31s37.333 -41 54 -61l17.5 51c5 14 9.5 28.833 13.5 44.5s6 32.834 6 51.501
c0 35.333 -3.33301 70 -10 104s-15.834 72.833 -27.501 116.5s-20.667 82.5 -27 116.5s-9.5 69 -9.5 105h37zM718.999 478.999c22.667 31.333 41.501 61.6631 56.501 90.9961s27.667 60.5 38 93.5s15.5 63.833 15.5 92.5c0 36.667 -9.33301 72.834 -28 108.501
s-46 66.834 -82 93.501l-129 -92c-3.33301 -25.333 -9.33301 -50.166 -18 -74.499s-22.334 -58.666 -41.001 -102.999s-32 -79.833 -40 -106.5s-12 -54.667 -12 -84c0 -35.333 12.333 -78.333 37 -129z" />
    <glyph glyph-name="c" unicode="c" horiz-adv-x="1438" 
d="M1124 1143l0.00390625 -240.001c-16 54 -39 96 -69 126s-71.833 62.5 -125.5 97.5s-93.167 65.167 -118.5 90.5c-38 0 -80.833 -13 -128.5 -39s-92.334 -60.667 -134.001 -104s-70.834 -88 -87.501 -134c0 -56 1.83301 -100.5 5.5 -133.5s13.5 -64 29.5 -93
s41 -51.833 75 -68.5c44.667 -22.667 72.5 -40.834 83.5 -54.501s23.5 -38.5 37.5 -74.5s35.333 -72.667 64 -110c50 0 90 13.833 120 41.5s58.667 67.834 86 120.501s50.166 91 68.499 115s43.5 36 75.5 36c0 -8 6.16699 -13.167 18.5 -15.5s30.833 -3.5 55.5 -3.5
l-424 -294l166 -74c-66 0 -128.667 4.33301 -188 13s-119.333 21.167 -180 37.5l-168.5 46.5c-51.667 14.667 -94.167 25.334 -127.5 32.001c0 41.333 -4.5 90 -13.5 146l-27.5 169c-9.33301 56.667 -14 105.334 -14 146.001c0 45.333 5.33301 88 16 128
s29.667 83.333 57 130c41.333 4.66699 78 17.5 110 38.5s72.833 52.667 122.5 95s94 73.666 133 93.999s83.167 30.5 132.5 30.5c-93.333 0 -171 -3.5 -233 -10.5s-110.667 -15 -146 -24s-75 -22.167 -119 -39.5c-40.667 -31.333 -73.334 -70 -98.001 -116
s-43.167 -101.667 -55.5 -167s-20.5 -138.333 -24.5 -219s-6 -189.667 -6 -327c8 -12 33.667 -54.167 77 -126.5s81.666 -129.166 114.999 -170.499s73 -77.666 119 -108.999s102 -56 168 -74c137.333 12 265.333 48.833 384 110.5s219.5 143.167 302.5 244.5
s143.167 216.666 180.5 345.999c-26.667 -174 -101.334 -322.333 -224.001 -445s-269.334 -214 -440.001 -274c-96 0 -183.167 12.167 -261.5 36.5s-157.166 61.166 -236.499 110.499c-134.667 135.333 -202 338.333 -202 609c0 201.333 24.333 367 73 497
c45.333 72 105.833 126.833 181.5 164.5s156.5 56.5 242.5 56.5c80.667 0 157.334 -14.167 230.001 -42.5s136.834 -69.833 192.501 -124.5s99.167 -121.667 130.5 -201zM406.004 718.999v239c-37.333 -24 -56 -54.667 -56 -92c7.33301 -26 18.5 -55.5 33.5 -88.5
s22.5 -52.5 22.5 -58.5z" />
    <glyph glyph-name="d" unicode="d" 
d="M885 1898c0 -24.667 3.99902 -46.668 11.999 -66.001s18.667 -34.666 32 -45.999s29.333 -17 48 -17c0 -94 0.833008 -167.833 2.5 -221.5s6.66699 -102.834 15 -147.501s20.833 -81.334 37.5 -110.001c12.667 12.667 19 55.667 19 129h55
c-17.333 -43.333 -27.833 -87.166 -31.5 -131.499s-5.5 -98.833 -5.5 -163.5c0 -70.667 5.16699 -143.167 15.5 -217.5s27.833 -167.666 52.5 -279.999l53.5 -248c11 -53 19.833 -105.5 26.5 -157.5l-158.5 -78.5c-41 -19.667 -82.333 -36 -124 -49
s-82.834 -19.5 -123.501 -19.5c-36.667 0 -67.667 1.83301 -93 5.5s-55.666 14.167 -90.999 31.5c-48 -24.667 -91 -37 -129 -37c-40 0 -77 10.667 -111 32s-67.667 49 -101 83l-102 106c-24.667 36.667 -37 85.667 -37 147c0 46 8.83301 88.667 26.5 128
s45.834 90.666 84.501 153.999s66.834 114 84.501 152s26.5 77.667 26.5 119c0 18 -2 35.333 -6 52s-9.16699 33.667 -15.5 51s-11.5 32.333 -15.5 45c58 0 109.667 -9.83301 155 -29.5s97.666 -52.334 156.999 -98.001s101 -76.667 125 -93s56.333 -28.833 97 -37.5
l-73 848h-129c24.667 4.66699 43.667 13.834 57 27.501s28.333 33.334 45 59.001s33.5 45.167 50.5 58.5s39.833 20 68.5 20zM681.999 921.999c-37.333 37.333 -81.502 68.835 -132.502 94.502s-105.167 43.167 -162.5 52.5c0 -46.667 2.83301 -85 8.5 -115
s14.834 -53.667 27.501 -71s31.334 -29 56.001 -35c10 21.333 23.167 34.666 39.5 39.999s43 10.166 80 14.499s64.833 10.833 83.5 19.5zM884.997 406.001l-36.999 313.003h-55v-19l-240 -36c0 -44.667 8.83301 -86.834 26.5 -126.501s46.167 -89.334 85.5 -149.001
s63.333 -97.167 72 -112.5c29.333 0 48.333 5.83301 57 17.5s13.667 29.667 15 54s5.16602 44.166 11.499 59.499s21.5 27 45.5 35c7.33301 0 12.333 -4.5 15 -13.5s4 -16.5 4 -22.5zM626.998 221.004l-129.001 350.001c-27.333 -27.333 -52.666 -62 -75.999 -104
s-35 -87 -35 -135c8.66699 -48.667 34 -79.334 76 -92.001s96.667 -19 164 -19z" />
    <glyph glyph-name="e" unicode="e" horiz-adv-x="1364" 
d="M1198 848c0 -61.333 -3.16602 -109.336 -9.49902 -144.003s-21.5 -60.334 -45.5 -77.001l-37 55c0 -110.667 -55.333 -166 -166 -166c-27.333 0 -57 2.33301 -89 7s-61.167 9.33398 -87.5 14.001s-49.833 8.5 -70.5 11.5s-42.667 4.5 -66 4.5
c-38 0 -71.667 -4.66699 -101 -14s-57.333 -23 -84 -41c0 -28.667 5 -54.667 15 -78s20.333 -40.666 31 -51.999s27.834 -26.666 51.501 -45.999s40.5 -34.666 50.5 -45.999c58.667 0 110.334 6.66699 155.001 20s95.334 33 152.001 59s105.167 46.167 145.5 60.5
s86.166 23.166 137.499 26.499c-22 -34.667 -48.333 -63.667 -79 -87s-64.167 -43.5 -100.5 -60.5s-80 -34.167 -131 -51.5s-88.833 -30.666 -113.5 -39.999c48 -24.667 84.667 -37 110 -37c23.333 0 44.833 3 64.5 9s48 17 85 33s70 28.333 99 37s56.833 13 83.5 13v-55
h166c-98.667 -39.333 -197.834 -70.666 -297.501 -93.999s-197.167 -35 -292.5 -35c-217.333 0 -414 61.333 -590 184c-36.667 24.667 -64 54.5 -82 89.5s-30.333 80.833 -37 137.5s-10 134.667 -10 234c43.333 48 80 101.5 110 160.5l84 166.5
c26 52 59.167 98.333 99.5 139s96.166 75.667 167.499 105c78 -16.667 147.167 -39.334 207.5 -68.001s112.166 -59.667 155.499 -93s100.333 -82.5 171 -147.5zM645.001 1198l-203.001 -37c15.333 6 40.833 13.667 76.5 23s77.834 14 126.501 14zM829 1087
c-36.667 0 -61 6.33301 -73 19v-55h73v36zM166 626.997c38 85.333 81.832 160.834 131.499 226.501s110.167 125.167 181.5 178.5c-20.667 -24 -50.167 -53.833 -88.5 -89.5s-71.666 -68.167 -99.999 -97.5s-53.833 -62.333 -76.5 -99s-38.667 -76.334 -48 -119.001z
M847.999 792.998c-19.333 0 -36.499 7.66602 -51.499 22.999s-32.5 38.333 -52.5 69s-38.333 53.667 -55 69s-37.334 23 -62.001 23c-65.333 -44 -118.5 -92.5 -159.5 -145.5s-61.5 -108.833 -61.5 -167.5c134 0 231 3 291 9s100.167 17.833 120.5 35.5
s30.5 45.834 30.5 84.501zM221 423.997h74l-74 74v-74z" />
    <glyph glyph-name="f" unicode="f" horiz-adv-x="2212" 
d="M1382 2470c2.66699 -18 9.99609 -52.833 21.9961 -104.5s20.667 -92.834 26 -123.5c5.33301 -30.667 8 -65.334 8 -104l-129 295c-16.667 -34.667 -27 -67.167 -31 -97.5s-6 -65.5 -6 -105.5c0 -55.333 7.5 -108.5 22.5 -159.5s30.333 -93.333 46 -127
s42.834 -88.5 81.501 -164.5s68.334 -140.667 89.001 -194l74 -74l-74 -55c62.667 -17.333 121 -31.166 175 -41.499s108.333 -19 163 -26s114.667 -13.833 180 -20.5s126.333 -14 183 -22c-12 -2.66699 -73.167 -18.667 -183.5 -48s-215 -54.166 -314 -74.499
s-199.667 -35.833 -302 -46.5s-216.833 -16 -343.5 -16c6.66699 -9.33301 19.667 -38.666 39 -87.999s44.333 -86.833 75 -112.5s78.667 -38.5 144 -38.5h74c-78 0 -139.167 -11.667 -183.5 -35s-77 -59 -98 -107s-34.667 -106.833 -41 -176.5s-9.5 -166.5 -9.5 -290.5
c0 -82.667 -2.83301 -143 -8.5 -181s-21.167 -82 -46.5 -132l-111 147l-55 -73c-10 52.667 -18.667 132.5 -26 239.5s-14.5 191.5 -21.5 253.5s-21 124.167 -42 186.5s-52.5 112.166 -94.5 149.499c-29.333 -20 -71 -36 -125 -48l-147 -34
c-44 -10.667 -76.333 -26.334 -97 -47.001c0 30.667 13.333 56.167 40 76.5s57.834 35.833 93.501 46.5s86.5 22.667 152.5 36s105.667 21.666 119 24.999c-12.667 58.667 -29.834 103.5 -51.501 134.5s-55.5 53.333 -101.5 67s-111.667 20.5 -197 20.5
c-8 17.333 -16.833 27.833 -26.5 31.5s-25.5 5.5 -47.5 5.5c-10 0 -35 -9.33301 -75 -28s-70 -28 -90 -28c-42.667 0 -79.667 30.667 -111 92c48.667 8.66699 117.334 25 206.001 49s158.334 42 209.001 54s109 20.667 175 26c-25.333 16 -57.833 24.667 -97.5 26
s-81 2.83301 -124 4.5s-79.833 10.167 -110.5 25.5l332 37c0 115.333 -3.16699 249.5 -9.5 402.5s-9.5 246.167 -9.5 279.5c0 163.333 20.333 303.666 61 421c40.667 117.333 112.667 210.333 216 279c73.333 -12 144.333 -34.667 213 -68s130 -76.333 184 -129
s99.667 -116 137 -190zM1124 2710c-21.333 0 -41.334 2.83203 -60.001 8.49902s-40.5 14.5 -65.5 26.5s-48.667 21.333 -71 28s-48.833 10 -79.5 10c-57.333 -74.667 -100.833 -158.167 -130.5 -250.5s-49.167 -188.333 -58.5 -288s-14 -215.167 -14 -346.5v-423h55
c0 72 -2.33301 133.333 -7 184s-12.167 118.834 -22.5 204.501s-17.166 148 -20.499 187s-5 86.5 -5 142.5c23.333 61.333 51 120.666 83 178c32 57.333 67.167 108.5 105.5 153.5s81.833 83.667 130.5 116s102 55.5 160 69.5zM1217 2415c-18.667 110 -55.667 165 -111 165
c-29.333 0 -62.833 -11.333 -100.5 -34s-71.834 -50 -102.501 -82s-49 -60.667 -55 -86c40 0 104.833 6.16699 194.5 18.5s147.834 18.5 174.501 18.5zM1180 1954c-18.667 48 -32.832 82.667 -42.499 104s-24.167 40 -43.5 56s-46 24 -80 24
c-17.333 -26 -27.833 -51.667 -31.5 -77s-5.5 -61 -5.5 -107c0 -12.667 3 -61 9 -145s9 -164.667 9 -242c128 0 225 -2.66699 291 -8s115.167 -14.333 147.5 -27s58.166 -31.667 77.499 -57c0 28 -11.167 56.333 -33.5 85s-35.5 49.334 -39.5 62.001
c-53.333 0 -90.166 15.833 -110.499 47.5s-42.833 82.167 -67.5 151.5s-51.334 113.666 -80.001 132.999zM1843 1327c-36 14.667 -80.165 22.999 -132.498 24.999s-103.166 3.66699 -152.499 5s-89.333 9.66602 -120 24.999c-23.333 -20 -52.333 -32.667 -87 -38
s-76.834 -8.66602 -126.501 -9.99902s-86.834 -5.66602 -111.501 -12.999s-39.334 -23.666 -44.001 -48.999l88.5 -18.5c30.333 -6.33301 57.833 -11 82.5 -14s47.667 -4.5 69 -4.5c32.667 0 72.5 3 119.5 9s93.5 13.833 139.5 23.5l137.5 30
c45.667 10.333 91.5 20.166 137.5 29.499zM773.999 976.998v184h-55zM884.999 441.998l73 -258h19l-74 277z" />
    <glyph glyph-name="g" unicode="g" horiz-adv-x="1419" 
d="M1106 221c-46.667 -37.333 -101.665 -69.0029 -164.998 -95.0029s-131.333 -43.333 -204 -52c-68 0 -129.333 18.333 -184 55c-68.667 32.667 -126.5 66.334 -173.5 101.001s-89.167 71.667 -126.5 111s-86 96.333 -146 171l-107 133c0 11.333 5 18.333 15 21
s26.167 4.83398 48.5 6.50098s38.166 4.83398 47.499 9.50098c33.333 -98.667 80.5 -190.334 141.5 -275.001s137.333 -155.5 229 -212.5s195.5 -91.167 311.5 -102.5c46 0 87.5 11.167 124.5 33.5s68.333 50.333 94 84s53.5 76 83.5 127s52 86.167 66 105.5
c0 48 12.333 97.333 37 148c0 12 -1.83301 22.167 -5.5 30.5s-14.167 16.5 -31.5 24.5c-43.333 -30 -94.166 -52.333 -152.499 -67s-126.833 -25 -205.5 -31s-149.834 -11 -213.501 -15s-112.834 -9.33301 -147.501 -16c-4 8 -13.5 19.333 -28.5 34s-26.167 27 -33.5 37
s-11 23.333 -11 40l37 18c-60.667 61.333 -112.834 132.166 -156.501 212.499s-65.5 150.833 -65.5 211.5c-17.333 44 -27.833 82.667 -31.5 116s-5.5 74.666 -5.5 123.999c0 98.667 16.333 191.334 49 278.001s81.334 191.834 146.001 315.501s110.334 220.5 137.001 290.5
c37.333 37.333 86.666 56 147.999 56c34 0 80.833 -6.16699 140.5 -18.5s104.834 -18.5 135.501 -18.5c20.667 0 42.167 5 64.5 15s37.833 23.333 46.5 40c11.333 -88 30 -196 56 -324l77.5 -373.5c25.667 -121 46.667 -240.167 63 -357.5s24.5 -232.666 24.5 -345.999
c0 -76.667 -4.5 -151.167 -13.5 -223.5s-23.333 -145 -43 -218s-43.834 -140.833 -72.501 -203.5zM608.002 2138c-54 -18 -109.332 -54.667 -165.999 -110c49.333 73.333 104.666 110 165.999 110zM903.003 2064c-48 24.667 -90.999 37.002 -128.999 37.002
c-41.333 0 -83.833 -11.833 -127.5 -35.5s-83.667 -53.834 -120 -90.501s-64.5 -74.334 -84.5 -113.001c35.333 16.667 84.166 33 146.499 49s136.5 24 222.5 24v74c0 16.667 9.83301 30 29.5 40s40.5 15 62.5 15zM627.004 1825h258v18h-258v-18zM295.004 1309
c-24.667 48 -36.999 90.9971 -36.999 128.997c0 30 4.66699 65.167 14 105.5l27.5 120.5c9 40 13.5 75 13.5 105c-8 -21.333 -16 -58.166 -24 -110.499s-15.833 -92.166 -23.5 -119.499s-22.5 -48.666 -44.5 -63.999c0 -94 0.166992 -158.833 0.5 -194.5
s1.66602 -68.667 3.99902 -99s6 -50.5 11 -60.5s12.167 -15 21.5 -15l37 18c26 -16.667 44.833 -35.5 56.5 -56.5s17.5 -45.167 17.5 -72.5c114 0 187.667 24.667 221 74zM553.005 1714l-74 -74l19 -36l73 92zM903.005 1640c-48 24.667 -78.667 37.002 -92 37.002
c-35.333 0 -70 -8.16699 -104 -24.5s-64.833 -37.833 -92.5 -64.5s-51.5 -56.334 -71.5 -89.001s-35 -65.334 -45 -98.001c36.667 -61.333 135 -92 295 -92c73.333 146.667 110 257 110 331zM977.005 1346c0 86 -6.33301 129.001 -19 129.001l-73 -166
c6 12 14.5 27.167 25.5 45.5s20.833 27.5 29.5 27.5c9.33301 0 17.833 -3.83301 25.5 -11.5s11.5 -15.834 11.5 -24.501zM793.005 755.999c51.333 16.667 94.332 41.001 128.999 73.001s62.334 67 83.001 105s42 83 64 135c-101.333 -7.33301 -184.5 -16 -249.5 -26
s-128.167 -27.167 -189.5 -51.5s-124 -59.833 -188 -106.5c28 -38.667 60.667 -67.834 98 -87.501s74.5 -31.5 111.5 -35.5s84.167 -6 141.5 -6zM295.004 940l74 -129l18 18l-74 129z" />
    <glyph glyph-name="h" unicode="h" horiz-adv-x="1382" 
d="M276 2175c0 -221.333 6.33203 -380.998 18.999 -478.998l55 110l92 -479c28 31.333 62.833 83.166 104.5 155.499s78.334 128.833 110.001 169.5s76.667 76.5 135 107.5s132.5 46.5 222.5 46.5c49.333 -80.667 85.166 -174.667 107.499 -282s41.333 -243.5 57 -408.5
s31.167 -293.833 46.5 -386.5s43.333 -182 84 -268l73 -221c-27.333 0 -53.833 8.16699 -79.5 24.5s-48.167 38.833 -67.5 67.5l-24.5 -46.5c-8.33301 -15.667 -12.5 -30.834 -12.5 -45.501c0 -20 4.66699 -41.833 14 -65.5l27.5 -71c9 -23.667 13.5 -45.834 13.5 -66.501
c-12 -24.667 -36.333 -37 -73 -37c-7.33301 29.333 -12.5 70.333 -15.5 123s-5.5 104.5 -7.5 155.5s-6.83301 99.667 -14.5 146s-19.834 83.166 -36.501 110.499l-37 -314h-37c-16.667 60 -29.167 123.667 -37.5 191s-15.666 159.833 -21.999 277.5
s-11.666 210.834 -15.999 279.501s-9.83301 126.667 -16.5 174c-91.333 61.333 -195.666 92 -312.999 92l-37 -37l129 -129c-50.667 24.667 -81.334 37 -92.001 37c-36.667 0 -69 -9.16699 -97 -27.5s-49.667 -42.833 -65 -73.5s-23 -64.667 -23 -102l129 -424h-202
l-37 -313h-56c-4 161.333 -15.667 329.166 -35 503.499s-41.333 336.833 -66 487.5s-56.5 333.334 -95.5 548.001s-65.5 365.334 -79.5 452.001c5.33301 -48.667 13.5 -96.5 24.5 -143.5s27.167 -107.667 48.5 -182s34 -119.5 38 -135.5h73l37 479h55zM1069 1604
c-10 11.333 -23.166 28.998 -39.499 52.998s-30.5 43.167 -42.5 57.5s-29.667 27 -53 38s-52 16.5 -86 16.5c-33.333 -16 -63.833 -41 -91.5 -75s-60.334 -82.333 -98.001 -145s-60.5 -99.667 -68.5 -111c37.333 0 70 2 98 6s65.5 10.833 112.5 20.5
s84.167 16.834 111.5 21.501s61.333 7 102 7c33.333 -8 57 -35.667 71 -83s21 -99.666 21 -156.999c0 38 -3 76.833 -9 116.5l-18.5 118.5c-6.33301 39.333 -9.5 78 -9.5 116z" />
    <glyph glyph-name="i" unicode="i" horiz-adv-x="756" 
d="M627 1640c0 -113.333 -25 -200.834 -75 -262.501s-129.667 -96.834 -239 -105.501c-32 15.333 -60.833 40.333 -86.5 75s-51.5 77.834 -77.5 129.501s-45 87.834 -57 108.501c14.667 8 32 26.833 52 56.5l69.5 105.5c26.333 40.667 53.5 73 81.5 97s58.667 36 92 36
c37.333 0 80.333 -24.667 129 -74zM442 1401h56.001l18 295c0 -24.667 -3.16699 -47 -9.5 -67s-15.333 -42.333 -27 -67s-20.834 -49.667 -27.501 -75s-10 -54 -10 -86zM313.001 810.999c6.66699 30.667 10 79.832 10 147.499s3 116.834 9 147.501h74
c0 -123.333 9 -235 27 -335s41 -195.167 69 -285.5l88 -282.5c-40 0 -83.833 -7.83301 -131.5 -23.5s-71.5 -50.834 -71.5 -105.501l19 -37l-56 -37c-14 77.333 -30.833 151.333 -50.5 222s-46.334 136.334 -80.001 197.001s-76.167 111.334 -127.5 152.001
c0 120 2.83301 210.167 8.5 270.5s16.334 104.166 32.001 131.499s39.167 47 70.5 59l-37 74c37.333 -5.33301 63 -21.5 77 -48.5s26.333 -68.833 37 -125.5s21.667 -97 33 -121zM166.001 792.997l37 -222l18 19l-18 203h-37zM682.001 294.997h18l56 -111h-37z" />
    <glyph glyph-name="j" unicode="j" 
d="M1143 1548c0 -119.333 -0.998047 -197.331 -2.99805 -233.998s-7.33301 -63 -16 -79c-90 -90 -189.333 -161.667 -298 -215s-224.334 -80 -347.001 -80c-48.667 81.333 -73 173.666 -73 276.999c4.66699 42 18 118.833 40 230.5s33 194.5 33 248.5
c-56 0 -106.333 -17.5 -151 -52.5s-85.5 -77.333 -122.5 -127l-113.5 -152.5c0 -133.333 17.167 -239.166 51.5 -317.499s84.833 -132.166 151.5 -161.499c-50.667 32 -89.834 60.5 -117.501 85.5s-50.5 51.667 -68.5 80s-42 71.5 -72 129.5
c0 125.333 26.833 229.166 80.5 311.499s121.5 147.666 203.5 195.999s190 100.166 324 155.499c98.667 -19.333 195.167 -55.5 289.5 -108.5s163.833 -115.167 208.5 -186.5zM664.002 1640l-18.998 93l-129 -258l37 73c65.333 49.333 151.333 74 258 74
s192.667 -24.667 258 -74c-4 8 -11.833 17.667 -23.5 29s-19.834 20.833 -24.501 28.5s-7 19.167 -7 34.5c-16 0 -36.5 6.83301 -61.5 20.5s-48.667 27.5 -71 41.5s-43.833 25.667 -64.5 35s-41 14 -61 14c-19.333 0 -37.333 -9.5 -54 -28.5s-29.334 -46.5 -38.001 -82.5z
M1124 1419c0 -26.667 -3.83301 -44.334 -11.5 -53.001s-22 -20.167 -43 -34.5s-33.5 -28.166 -37.5 -41.499c0 28 -2.16699 66.167 -6.5 114.5s-14.5 83.833 -30.5 106.5l-55 19zM756.004 1051c-50.667 0 -86.5 0.330078 -107.5 0.99707s-36 2.16699 -45 4.5
s-13.5 6.5 -13.5 12.5c0 114.667 0.833008 195.334 2.5 242.001s6.5 82.834 14.5 108.501s20.667 44.167 38 55.5c0 -10.667 -4.5 -37.167 -13.5 -79.5s-15.167 -72.666 -18.5 -90.999s-5 -41.5 -5 -69.5c0 -52.667 12 -96.5 36 -131.5s61.333 -52.5 112 -52.5z
M516.004 1032c-17.333 6 -30 18.334 -38 37.001s-12.833 47.667 -14.5 87s-2.5 108.666 -2.5 207.999c0 -62.667 0.833008 -112 2.5 -148s6.66699 -69.833 15 -101.5s20.833 -59.167 37.5 -82.5zM848.004 1235l55 74h-55v-74zM848.004 571l55 55.999
c29.333 -57.333 53.666 -120.166 72.999 -188.499s33.5 -139.5 42.5 -213.5s13.5 -155 13.5 -243c0 -139.333 -4.33301 -250.5 -13 -333.5s-27.834 -149.833 -57.501 -200.5s-73.834 -81.667 -132.501 -93c-36 18 -101.5 35 -196.5 51s-170 33.167 -225 51.5
s-98.833 51.833 -131.5 100.5h277c-49.333 0 -95.5 21.833 -138.5 65.5s-70.5 83.167 -82.5 118.5v37c20.667 0 38.834 -5.83301 54.501 -17.5s32 -27.834 49 -48.501s32.833 -36.334 47.5 -47.001s32 -16 52 -16c111.333 0 187.333 1.16699 228 3.5s69.667 8.33301 87 18
s29 27.167 35 52.5c-5.33301 106 -15.666 219.5 -30.999 340.5s-34.166 236.667 -56.499 347s-48.5 218.833 -78.5 325.5c37.333 0 60 -7.66699 68 -23s15.333 -40.666 22 -75.999s19.667 -57.666 39 -66.999zM940.004 275.999l55 -165l19 18l-56 166z" />
    <glyph glyph-name="k" unicode="k" horiz-adv-x="1530" 
d="M276 1419c37.333 74.667 56.0029 154.659 56.0029 239.992c0 41.333 -4.66699 90 -14 146l-28 169c-9.33301 56.667 -14 105.334 -14 146.001c62 0 99 -12.333 111 -37l55 184c38.667 -44 67.667 -98.167 87 -162.5s31.166 -128.5 35.499 -192.5s6.5 -142.333 6.5 -235
c57.333 16.667 108.833 45 154.5 85s111.5 103.667 197.5 191s160.167 153.333 222.5 197.999c62.333 44.667 129.166 71 200.499 79c-9.33301 -19.333 -37.833 -47.166 -85.5 -83.5c-47.667 -36.333 -82.334 -64.666 -104.001 -84.999s-32.5 -43.833 -32.5 -70.5
c0 -18 5.5 -37 16.5 -57s30.167 -44 57.5 -72h74l-516 -590c47.333 -46.667 119.5 -107.5 216.5 -182.5s167.333 -131.167 211 -168.5s87.834 -87 132.501 -149s73 -129 85 -201c37.333 -18 65 -44.333 83 -79s27 -75.667 27 -123c0 -49.333 -12 -98.666 -36 -147.999
c-32 15.333 -61.167 37 -87.5 65s-70.166 77.167 -131.499 147.5s-111.333 122.5 -150 156.5c-48.667 8 -134.167 25.833 -256.5 53.5s-211.333 47.167 -267 58.5s-102.5 17 -140.5 17c-8 17.333 -16 43.333 -24 78s-17.667 63.334 -29 86.001s-30.333 41.667 -57 57
c0 -36.667 2.83301 -79.334 8.5 -128.001s12.667 -92.667 21 -132s18.666 -84.833 30.999 -136.5s22.833 -97.5 31.5 -137.5c12 36.667 18 104 18 202v-276c-38.667 18 -67 45.333 -85 82s-30.5 84.834 -37.5 144.501s-13.167 116.5 -18.5 170.5s-13.666 99.667 -24.999 137
c0 -147.333 2.16699 -265.166 6.5 -353.499s12 -164.166 23 -227.499s27.167 -117 48.5 -161s50.666 -85.333 87.999 -124c-72 60 -123.333 134.667 -154 224s-49.167 200.333 -55.5 333s-11.333 252.334 -15 359.001s-14.834 200.667 -33.501 282l-129 37l92 92l-147 866
l55 37c0 -36.667 6.33301 -61 19 -73l18 110c32.667 -52.667 56.667 -112.5 72 -179.5s27.5 -151.167 36.5 -252.5s17.833 -181.666 26.5 -240.999s25 -117.666 49 -174.999zM608.003 1455.99l129 111l203 239zM332.003 1381.99l-19 -73h19l37 73h-37zM1161 828.992
c-42 10 -74.333 24.834 -97 44.501s-67.667 62.167 -135 127.5s-125 112.666 -173 141.999c54 -16.667 94 -36.5 120 -59.5s69 -65 129 -126s112 -103.833 156 -128.5zM995.003 699.993c-98 17.333 -173.667 34 -227 50s-99.5 47.333 -138.5 94s-58.5 115.667 -58.5 207
c91.333 -36.667 171 -83.5 239 -140.5s129.667 -127.167 185 -210.5zM1290 607.993c-30.667 6 -69 21.667 -115 47s-69 65 -69 119z" />
    <glyph glyph-name="l" unicode="l" horiz-adv-x="479" 
d="M203 2267c0 -64 6.5 -115.167 19.5 -153.5s34.5 -91.833 64.5 -160.5s45 -117.667 45 -147c0 -52.667 -24.667 -95.667 -74 -129c0 -120 4 -236.667 12 -350s22 -277.666 42 -492.999s34.5 -382.5 43.5 -501.5s13.5 -229.833 13.5 -332.5l-185 461l-37 -37
c-28.667 145.333 -53.5 292.5 -74.5 441.5s-38.333 304.167 -52 465.5s-20.5 313.666 -20.5 456.999c27.333 22 51.833 57.5 73.5 106.5s47.167 119.5 76.5 211.5s47 145.667 53 161zM184 1935v-663h19v663h-19zM369 1733h37v-885h-37v885z" />
    <glyph glyph-name="m" unicode="m" horiz-adv-x="1530" 
d="M313 885c34.667 51.333 76.168 93.832 124.501 127.499s100.5 61.167 156.5 82.5s122.333 43.333 199 66c30 -61.333 66.667 -92 110 -92c24 0 65.167 9.83301 123.5 29.5s108 35 149 46s91.5 16.5 151.5 16.5c8 -13.333 20.833 -40.5 38.5 -81.5s35.334 -72 53.001 -93
s42.5 -36.5 74.5 -46.5l18 -922h-18c-4.66699 0 -8.33398 13.333 -11.001 40s-7 50.667 -13 72s-16.333 39.333 -31 54c-24.667 -23.333 -37 -41.666 -37 -54.999h-55c0 66 1.83301 121.333 5.5 166s9.66699 106 18 184s12.5 133.333 12.5 166c0 194 -79.667 323 -239 387
c-49.333 -68 -89.833 -139 -121.5 -213s-57.834 -149.167 -78.501 -225.5s-43.167 -174.5 -67.5 -294.5s-39.833 -195 -46.5 -225c0 75.333 -6.5 144.333 -19.5 207s-31.333 134.667 -55 216s-41.667 152.833 -54 214.5s-18.5 131.834 -18.5 210.501
c-32 -8 -59.833 -25.333 -83.5 -52s-53.5 -66.334 -89.5 -119.001s-68.5 -93.667 -97.5 -123s-61.833 -48.333 -98.5 -57l-18 -479c-62 38 -104.5 88.833 -127.5 152.5s-38.167 150.834 -45.5 261.501s-16.333 197.667 -27 261s-36.334 121 -77.001 173v111h56
c0 -12.667 12.333 -31.334 37 -56.001l18 406c54.667 -49.333 88.834 -93.166 102.501 -131.499s25 -96.333 34 -174s24.833 -147.834 47.5 -210.501zM793.001 976.999v74c-24.667 0 -56.5 -3.16699 -95.5 -9.5s-68.833 -9.5 -89.5 -9.5c22 0 41.333 -2.33301 58 -7
s39.5 -13 68.5 -25s48.5 -19.667 58.5 -23zM866.001 865.999h37l74 111zM350.001 699.999l129 148c-13.333 -8.66699 -26.333 -28.5 -39 -59.5s-24.167 -53.5 -34.5 -67.5s-28.833 -21 -55.5 -21z" />
    <glyph glyph-name="n" unicode="n" horiz-adv-x="1124" 
d="M1124 700l-0.00195312 -699.994c-38.667 39.333 -67 87.5 -85 144.5s-30.5 126.667 -37.5 209s-13.167 160.166 -18.5 233.499s-13.666 135.666 -24.999 186.999c-15.333 0 -26.5 2.83301 -33.5 8.5s-14 14.667 -21 27s-15.667 21.833 -26 28.5s-26.5 10 -48.5 10
c0 -19.333 2.5 -38.333 7.5 -57s12.167 -38.834 21.5 -60.501l20.5 -48.5c4.33301 -10.667 6.5 -23 6.5 -37c-25.333 9.33301 -44.833 25.166 -58.5 47.499s-25 50.166 -34 83.499s-17.667 67.5 -26 102.5s-18.166 61.5 -29.499 79.5
c-52 -38.667 -96.167 -86.834 -132.5 -144.501s-66.666 -121.334 -90.999 -191.001s-43.166 -135.5 -56.499 -197.5s-30.333 -148.333 -51 -259h-74c0 30.667 -7.66699 53.667 -23 69s-44.666 23 -87.999 23c-34 69.333 -61.333 142.5 -82 219.5
s-38.334 161.833 -53.001 254.5l-42 277.5c-13.333 92.333 -28 173.5 -44 243.5c33.333 0 54.666 7 63.999 21s15 35.5 17 64.5s6.33301 49.667 13 62s24.334 18.5 53.001 18.5l19 -276l55 110c36 -10 55.667 -34.333 59 -73l11 -124.5c4 -44.333 23.667 -76.833 59 -97.5
c17.333 38 38.166 91.667 62.499 161s47.833 128.5 70.5 177.5s51.667 92.833 87 131.5s78.666 66.334 129.999 83.001c46.667 -54 86.667 -112 120 -174s64.833 -127.833 94.5 -197.5l100 -229c37 -83 73.5 -153.167 109.5 -210.5zM773.998 1253.01
c-8 16.667 -14.8311 43.3311 -20.498 79.998s-13.834 63.334 -24.501 80.001s-32.334 25 -65.001 25c-46 -38 -87.5 -92.833 -124.5 -164.5s-63.167 -127.5 -78.5 -167.5l48 44.5c14 13 26.333 25.833 37 38.5s19 28 25 46c10 8.66699 26.5 13.834 49.5 15.501
s74.167 2.5 153.5 2.5zM885 940.003c-8.66699 23.333 -36.333 48.5029 -83 75.5029s-81.334 50.333 -104.001 70s-34 51.167 -34 94.5c25.333 -12.667 54.833 -32.834 88.5 -60.501s62.834 -57.834 87.501 -90.501s39.667 -62.334 45 -89.001zM276.001 995.006v-221h19v221
h-19zM627.001 995.006c-94 -94 -149.332 -192.333 -165.999 -295c9.33301 65.333 28.166 124.333 56.499 177s64.833 92 109.5 118z" />
    <glyph glyph-name="o" unicode="o" horiz-adv-x="1511" 
d="M793 1493l0.00195312 -55.001c-21.333 30 -47.5 52.667 -78.5 68s-58.333 24.833 -82 28.5s-61.667 8.5 -114 14.5s-89.833 12 -112.5 18c-48.667 -40 -91.334 -87.833 -128.001 -143.5s-65.667 -115.334 -87 -179.001s-37 -130.167 -47 -199.5s-15 -141.333 -15 -216
c0 -142 18.333 -277 55 -405c26 -57.333 62.333 -109.5 109 -156.5s100.5 -84.833 161.5 -113.5s124.5 -43 190.5 -43c74.667 0 148.334 18.333 221.001 55l56 55c-43.333 0 -79.833 2.83301 -109.5 8.5s-65.5 14.667 -107.5 27s-82.333 21.833 -121 28.5s-86 10 -142 10
l-100 133c-30.667 41.333 -59.334 83.666 -86.001 126.999s-48.334 88.333 -65.001 135s-25 93 -25 139c0 22 3.16699 48.833 9.5 80.5s15.5 66.5 27.5 104.5c19.333 51.333 41.166 94 65.499 128s50 62.5 77 85.5s59.833 47.167 98.5 72.5l127 82
c122.667 0 232.834 -7.5 330.501 -22.5s186.167 -45.667 265.5 -92s139 -112.5 179 -198.5c0 -63.333 -7.16699 -121.166 -21.5 -173.499s-32.166 -102.833 -53.499 -151.5l-61.5 -146.5c-19.667 -49 -29.5 -88.5 -29.5 -118.5c0 -25.333 12.333 -62 37 -110v-37
c-48 0 -88.333 -9.66699 -121 -29s-88.5 -57.5 -167.5 -114.5s-142.833 -95.167 -191.5 -114.5c-74 0 -138.167 7.66699 -192.5 23s-102.5 36.333 -144.5 63s-80.5 57 -115.5 91l-100.5 99c-33.333 68.667 -57 143 -71 223s-21 165.333 -21 256
c0 142.667 24.5 280.334 73.5 413.001s122.833 253.334 221.5 362.001c49.333 0 96.166 -5.66699 140.499 -17s98 -29.333 161 -54s97.833 -38 104.5 -40zM1124 994.999c-24.667 38 -60.4971 75.667 -107.497 113s-98.333 67.833 -154 91.5s-109.834 35.5 -162.501 35.5
c-61.333 0 -114.333 -17.667 -159 -53s-71.334 -91.333 -80.001 -168c-2.66699 -12 -7.33398 -29.167 -14.001 -51.5s-13.5 -47 -20.5 -74s-12.167 -50 -15.5 -69s-5 -40.167 -5 -63.5c0 -44.667 9.16699 -86.667 27.5 -126s45.833 -77.333 82.5 -114v221
c4.66699 60 27.667 107.333 69 142s93.5 59.5 156.5 74.5s129 24.667 198 29s130.5 8.5 184.5 12.5zM1032 1217l185 -203l18 18l-184 221zM258.005 884.999v-185h18v185h-18zM1161 847.999c-50.667 24.667 -93.6689 37.0029 -129.002 37.0029
c-27.333 0 -53.166 -2.33301 -77.499 -7s-56.333 -11.834 -96 -21.501s-71.5 -16.667 -95.5 -21s-45 -6.5 -63 -6.5c0 -12 -3.5 -37.667 -10.5 -77s-13 -80.166 -18 -122.499s-7.5 -92.5 -7.5 -150.5c22 18 45.833 33 71.5 45s51.5 22.167 77.5 30.5s58.333 17.833 97 28.5
s67 19 85 25c44.667 17.333 74.834 37.666 90.501 60.999s29.167 54.666 40.5 93.999s23 67.666 35 84.999zM1401 774.002l55 55l55 -92zM737.003 295.002h129l203 221z" />
    <glyph glyph-name="p" unicode="p" horiz-adv-x="1733" 
d="M1530 1143c20.667 -25.333 32.6758 -55.8291 36.0088 -91.4961s7 -65.5 11 -89.5s19 -43.667 45 -59l55 55c0 -23.333 -4.33301 -44 -13 -62s-22.834 -40.5 -42.501 -67.5s-33.667 -49.167 -42 -66.5s-12.5 -38 -12.5 -62c-8.66699 -116 -42.5 -215.833 -101.5 -299.5
s-128.667 -152.667 -209 -207s-187 -116.5 -320 -186.5s-223.833 -121.333 -272.5 -154c-0.666992 0.666992 -4.33398 9 -11.001 25s-16.834 28 -30.501 36s-36.834 12 -69.501 12l-18 19c0 -38.667 6 -93.334 18 -164.001s18 -120.667 18 -150
c0 -33.333 -2 -58.833 -6 -76.5s-14 -35.167 -30 -52.5l-56 56c-8.66699 -8.66699 -16.5 -19.334 -23.5 -32.001l-23.5 -42.5c-8.66699 -15.667 -17.334 -27.834 -26.001 -36.501c-15.333 7.33301 -26.5 17.333 -33.5 30s-12.5 39.334 -16.5 80.001s-6 102.334 -6 185.001
c-68 68.667 -115.667 149.167 -143 241.5s-41 196.166 -41 311.499c0 64.667 1.16699 115.5 3.5 152.5s7 104.833 14 203.5s12 171 15 217s4.5 94.667 4.5 146l73 55c-4.66699 -20 -7.83398 -45.167 -9.50098 -75.5s-3.83398 -53.333 -6.50098 -69
s-9.33398 -28.834 -20.001 -39.501l36 -37c69.333 76 150.5 146.5 243.5 211.5s191.667 118.167 296 159.5s207.166 65 308.499 71c78 0 149.833 -11.333 215.5 -34s129.167 -60.334 190.5 -113.001zM1530.01 1014c-42.667 77.333 -98 133.496 -166 168.496
s-141.667 52.5 -221 52.5c-97.333 -5.33301 -201.333 -34.666 -312 -87.999s-212 -119.166 -304 -197.499s-163.333 -155.166 -214 -230.499h56c205.333 122.667 371 239.334 497 350.001c33.333 25.333 68 44 104 56s69 18 99 18c60.667 0 112.667 -20.667 156 -62
s80 -92.5 110 -153.5s59.833 -131.333 89.5 -211s52.5 -134.167 68.5 -163.5zM1217.01 940c-33.333 49.333 -70.332 73.999 -110.999 73.999c-20.667 0 -42 -4.16699 -64 -12.5s-47.5 -20.666 -76.5 -36.999s-53.833 -29.5 -74.5 -39.5s-41.334 -17.333 -62.001 -22z
M1087.01 718.999l-18.001 92.001c-31.333 -8.66699 -79.666 -18 -144.999 -28s-118 -20 -158 -30s-76 -27.667 -108 -53s-54.667 -62 -68 -110l129 -55c0 -24.667 -2.16699 -57.667 -6.5 -99s-14.5 -70 -30.5 -86l-92 56l-19 -37l424 -203l19 18c10 26 25.5 41 46.5 45
s45.667 8 74 12s49.5 15.667 63.5 35c-22 0 -39.667 4 -53 12s-27.333 19.333 -42 34s-26 24 -34 28c0 78 0.833008 132 2.5 162s6.33398 52 14.001 66s20.5 24 38.5 30c25.333 0 42.833 -5.83301 52.5 -17.5s15.667 -32.167 18 -61.5s3.5 -82.666 3.5 -159.999
c19.333 14 34 29.167 44 45.5s17 36.666 21 60.999s6.5 54.666 7.5 90.999s1.5 93.166 1.5 170.499c-7.33301 4 -21 7.33301 -41 10s-34.167 5.33398 -42.5 8.00098s-17.5 9 -27.5 19c0 -49.333 -6 -74 -18 -74c-24.667 0 -43.334 6.33301 -56.001 19zM295.009 37
c-30 50.667 -52.833 113.667 -68.5 189s-23.5 178.333 -23.5 309zM645.009 147l-55 37l-92 37zM866.009 55c-12.667 0 -24.832 -1.33301 -36.499 -4l-62.5 -14.5c-30 -7 -52 -11.833 -66 -14.5s-32.667 -4 -56 -4c-36.667 0 -65.834 1.83301 -87.501 5.5
s-41.5 14.167 -59.5 31.5l55 -73c69.333 0 132.333 5.66699 189 17s98 30 124 56z" />
    <glyph glyph-name="q" unicode="q" horiz-adv-x="1327" 
d="M1087 1309c-102.667 0 -195.171 -14.3301 -277.504 -42.9971s-145.166 -56.667 -188.499 -84l-223 -148c-105.333 -71.333 -189 -121 -251 -149c-36.667 -57.333 -55 -119 -55 -185c0 -88.667 23.833 -177.167 71.5 -265.5s109.834 -184.166 186.501 -287.499
c14 -27.333 32.333 -48.333 55 -63s53.167 -25.334 91.5 -32.001s86.333 -10.834 144 -12.501s145.167 -2.5 262.5 -2.5l55 -682h56c21.333 -16.667 39.666 -38.834 54.999 -66.501s26 -51.5 32 -71.5s15.833 -55 29.5 -105s23.834 -85.667 30.501 -107c61.333 0 92 6 92 18
c-40 34.667 -72.5 82.334 -97.5 143.001s-43.833 124.834 -56.5 192.501s-22.667 140.167 -30 217.5c49.333 49.333 74 123 74 221c0 36 -4.66699 80.333 -14 133l-28 158c-9.33301 52.667 -14 97 -14 133c135.333 169.333 203 384.333 203 645
c0 -94.667 -14.833 -184.334 -44.5 -269.001s-70.167 -167 -121.5 -247v516c0 32 3.33301 65.333 10 100s15.667 75 27 121h-74c0 -24 -2 -43.167 -6 -57.5s-14 -25.833 -30 -34.5c-4.66699 25.333 -11.5 43.166 -20.5 53.499s-24.167 24.166 -45.5 41.499
s-36.333 35 -45 53c16.667 40.667 42.334 66.167 77.001 76.5s82.667 15.5 144 15.5c42 -52.667 74 -104.167 96 -154.5s33 -109.5 33 -177.5c0 33.333 -2.5 63.333 -7.5 90s-13.333 63 -25 109s-19.167 78 -22.5 96c-83.333 33.333 -163.333 58 -240 74
c12.667 24.667 43.334 37 92.001 37zM902.996 1253c-20.667 0 -41.167 -6 -61.5 -18l-61 -36.5c-20.333 -12.333 -40.833 -18.5 -61.5 -18.5c12.667 -6 31.5 -13.667 56.5 -23s49.167 -14 72.5 -14c19.333 0 33.333 7.16699 42 21.5s13 43.833 13 88.5zM681.996 1051
c-66.667 -42.667 -127 -93.5 -181 -152.5s-102.333 -123.167 -145 -192.5s-81.334 -145 -116.001 -227c16.667 52 45.334 116.833 86.001 194.5s92.167 153 154.5 226s129.5 123.5 201.5 151.5zM202.996 608.003c0 61.333 9.16797 128.168 27.501 200.501
s58.166 116.166 119.499 131.499zM718.997 350.005c44.667 44.667 77.334 87.3359 98.001 128.003s31 84 31 130c0 41.333 -6 85.666 -18 132.999s-30.667 113.666 -56 198.999l-147 -111c-59.333 -59.333 -101.833 -124.333 -127.5 -195s-38.5 -171.334 -38.5 -302.001
c26 -24.667 43.833 -40.167 53.5 -46.5s22.5 -9.5 38.5 -9.5c16.667 0 41.667 12.333 75 37s63.666 37 90.999 37zM957.997 608.007v-129h37v129h-37zM865.997 111.007c-4.66699 14 -7.83203 33.668 -9.49902 59.001s-3.83398 43.333 -6.50098 54s-9.66699 16 -21 16
c-21.333 -4 -55.833 -18.5 -103.5 -43.5s-83.5 -42.5 -107.5 -52.5s-51.667 -15 -83 -15c-26 0 -63 12.333 -111 37c24.667 -18 52 -30.833 82 -38.5s69 -12.334 117 -14.001s129 -2.5 243 -2.5z" />
    <glyph glyph-name="r" unicode="r" horiz-adv-x="1382" 
d="M885 1217c16.667 -24.667 36.1689 -40.1699 58.502 -46.5029s51.833 -9.5 88.5 -9.5c13.333 0 39.833 3.16699 79.5 9.5s68.5 9.5 86.5 9.5c74 0 111 -37 111 -111h-19c0 -31.333 4 -53.333 12 -66s23.333 -33.667 46 -63s34 -54 34 -74l-18 -18
c-30.667 42.667 -70.334 77.5 -119.001 104.5s-103.5 47 -164.5 60s-126.167 19.5 -195.5 19.5c-46 -8 -81 -25.167 -105 -51.5s-42 -60.166 -54 -101.499l-35 -121c-11.333 -39.333 -26.666 -70.666 -45.999 -93.999c0 -87.333 1.16699 -156.5 3.5 -207.5
s8.83301 -98.833 19.5 -143.5s27.667 -81.334 51 -110.001c-8.66699 -26 -18.667 -44.833 -30 -56.5s-26 -17.5 -44 -17.5c-8.66699 0 -30.334 9.16699 -65.001 27.5s-62 27.5 -82 27.5c-7.33301 0 -13.833 -4.5 -19.5 -13.5s-11.5 -16.833 -17.5 -23.5
c-45.333 67.333 -88.333 141.833 -129 223.5s-77.834 164.667 -111.501 249l-111.5 293c-40.667 111 -77 206.167 -109 285.5c28.667 -20 50 -41.167 64 -63.5s37.333 -61.666 70 -117.999s63.167 -100.166 91.5 -131.499s63.833 -56 106.5 -74c0 50 -2.5 94.167 -7.5 132.5
s-12.333 82.5 -22 132.5s-16.5 89 -20.5 117s-6 54.333 -6 79c17.333 -13.333 41.833 -27.833 73.5 -43.5s55.667 -29.334 72 -41.001s30 -29.667 41 -54s16.5 -58.166 16.5 -101.499c46.667 12.667 91.167 32.834 133.5 60.501s82.5 58 120.5 91l139 117.5
c54.667 45.333 102 78.666 142 99.999l37 -19zM406.002 441.997c-11.333 30 -21.167 77.833 -29.5 143.5s-15 111.5 -20 137.5s-18.167 52.5 -39.5 79.5s-53.333 42.167 -96 45.5l185 -479v73z" />
    <glyph glyph-name="s" unicode="s" horiz-adv-x="958" 
d="M627 1364h-314c-18.667 0 -40 -15.333 -64 -46s-45.667 -46 -65 -46c-13.333 0 -31.666 12.333 -54.999 37c26.667 43.333 57.167 72.5 91.5 87.5s77.5 22.5 129.5 22.5c93.333 0 185.666 -18.333 276.999 -55zM903 774l-73.999 -55.002
c26.667 -22 45.834 -46.667 57.501 -74s20.667 -60.833 27 -100.5l18.5 -114.5c6 -36.667 14.667 -69.334 26 -98.001c-24 -49.333 -58 -85.166 -102 -107.499s-100.667 -42 -170 -59s-120 -33.5 -152 -49.5s-50.333 -42.333 -55 -79c-96 0 -175 20.833 -237 62.5
s-108.333 89 -139 142s-65 126.167 -103 219.5c12 12 36.667 18 74 18c0 -27.333 7.16699 -48 21.5 -62s38.166 -28.833 71.499 -44.5s57.666 -29.167 72.999 -40.5l89 -18.5c30.667 -6.33301 58 -11 82 -14s46.667 -4.5 68 -4.5c70 0 132.5 12.167 187.5 36.5
s109.167 67.5 162.5 129.5c-22 48.667 -55.5 89.834 -100.5 123.501s-98 62.167 -159 85.5s-119.167 41.833 -174.5 55.5s-125.666 29.834 -210.999 48.501c-20.667 0 -35 -1.83301 -43 -5.5s-18.833 -9.83398 -32.5 -18.501s-25.167 -13 -34.5 -13
c-12.667 0 -22.834 1.83301 -30.501 5.5s-16.167 14.167 -25.5 31.5c48 28.667 78.5 64.334 91.5 107.001s22.5 98 28.5 166s20 118.5 42 151.5s66.333 51.167 133 54.5c46.667 -34 119.834 -66.833 219.501 -98.5s168.167 -55 205.5 -70s74.166 -47 110.499 -96
s54.5 -120.5 54.5 -214.5zM240.001 1069l147 55l-74 19zM553.001 994.998c-42.667 0 -89.167 -7.33301 -139.5 -22s-83.833 -38 -100.5 -70h240v92zM829.001 755.998c-34.667 0 -63.333 4.83203 -86 14.499s-39.667 24.834 -51 45.501s-18.833 46 -22.5 76
s-5.5 70.667 -5.5 122c4.66699 -28.667 13 -49.334 25 -62.001s31.833 -29 59.5 -49s48 -40.167 61 -60.5s19.5 -49.166 19.5 -86.499zM498.002 828.997h110l-37 37zM737.002 275.997l92 56v55z" />
    <glyph glyph-name="t" unicode="t" horiz-adv-x="1253" 
d="M590 1714c0 -40 3.33398 -76.3301 10.001 -108.997s15.667 -67.334 27 -104.001s20.333 -69.334 27 -98.001s10 -60 10 -94c71.333 -24.667 132.666 -37 183.999 -37c30 0 59 2 87 6s68.833 11 122.5 21l117.5 21.5c24.667 4.33301 50.667 6.5 78 6.5
c-17.333 -6.66699 -48.833 -13.5 -94.5 -20.5s-79.834 -17.333 -102.501 -31s-36.667 -39.5 -42 -77.5c14.667 -6.66699 35.167 -11.334 61.5 -14.001s54.833 -4 85.5 -4c-12 -25.333 -33.5 -43.166 -64.5 -53.499s-81.5 -18.166 -151.5 -23.499l-154.5 -12
c-33 -2.66699 -69.167 -10 -108.5 -22c0 -126 1.83301 -224.333 5.5 -295s10.5 -127.334 20.5 -170.001s24.167 -74.5 42.5 -95.5s44.5 -36.833 78.5 -47.5h258c0 -36.667 -2 -66.334 -6 -89.001s-14 -42.334 -30 -59.001c-22 22 -49 37.167 -81 45.5
s-74.833 14.5 -128.5 18.5s-88.5 7.33301 -104.5 10c-21.333 -38 -36.166 -77.167 -44.499 -117.5s-14.5 -90.833 -18.5 -151.5s-7.33301 -100 -10 -118c-37.333 37.333 -64.833 95.166 -82.5 173.499l-54.5 247.5c-18.667 86.667 -52 154.834 -100 204.501
s-122.667 74.5 -224 74.5c0 12.667 -2.5 22.334 -7.5 29.001s-13.333 13.167 -25 19.5s-20.5 12.5 -26.5 18.5s-11 14.667 -15 26c17.333 29.333 37.5 51.833 60.5 67.5s54.667 33.167 95 52.5s74.666 38.833 102.999 58.5s52.833 46.167 73.5 79.5
c-58.667 0 -120.834 -6.16699 -186.501 -18.5s-108.167 -18.5 -127.5 -18.5c-61.333 0 -110.333 18.333 -147 55c4.66699 46 23.334 75.333 56.001 88s80.5 22 143.5 28s110 17.833 141 35.5s46.5 53.167 46.5 106.5h74c12.667 38.667 22.334 89.667 29.001 153
s15.5 111.333 26.5 144s35.5 62.667 73.5 90zM793.001 1235h110v18h-110v-18zM498.001 645.003l-37 258c-20 -14.667 -56.333 -32.667 -109 -54s-90 -46.333 -112 -75c23.333 -24 48.5 -46.167 75.5 -66.5s55.167 -35.833 84.5 -46.5s62 -16 98 -16z" />
    <glyph glyph-name="u" unicode="u" horiz-adv-x="1401" 
d="M1161 700c3.33301 -48 11.334 -121.164 24.001 -219.497s21.167 -171.833 25.5 -220.5s6.5 -110.667 6.5 -186l-93 184l-37 -37l-92 148c-220 -123.333 -410.333 -185 -571 -185c-85.333 0 -165.333 18.667 -240 56c-61.333 92.667 -92 240 -92 442
c0 48 1.83301 95.167 5.5 141.5s10.667 115.5 21 207.5s17.666 159 21.999 201s6.5 86 6.5 132c18.667 0 30.667 1 36 3s12 7 20 15l37 -239l36 110c52.667 -24 87.167 -73.5 103.5 -148.5s28.666 -181 36.999 -318s21.833 -237.833 40.5 -302.5s56.667 -97 114 -97
c38 0 78.167 11.333 120.5 34s94.5 60.667 156.5 114c33.333 33.333 54 74.666 62 123.999s12 112.333 12 189c0 82.667 0.333008 153 1 211s2.33398 115.5 5.00098 172.5s6.66699 107.167 12 150.5h55c3.33301 -10.667 6.33301 -28.834 9 -54.501s5.5 -43.167 8.5 -52.5
s9.5 -16.666 19.5 -21.999l129 148c-24.667 -50.667 -37 -87.667 -37 -111c0 -26.667 7 -61.334 21 -104.001s27.333 -80.834 40 -114.501s24.167 -68.334 34.5 -104.001s15.5 -69.5 15.5 -101.5c0 -61.333 -24.667 -116.666 -74 -165.999zM424.001 258.003
c-92.667 42 -155.833 106.333 -189.5 193s-50.5 194.334 -50.5 323.001c0 36 3.16699 99.667 9.5 191s9.5 150.666 9.5 177.999l-56 -737c28 -98.667 120.333 -148 277 -148zM313.002 1032l19 -332h37l-37 332h-19z" />
    <glyph glyph-name="v" unicode="v" horiz-adv-x="1696" 
d="M1696 1290c-44 -88.667 -94.9971 -178.999 -152.997 -270.999s-138.667 -213.667 -242 -365l-228.5 -337c-49 -73.333 -99.167 -154.333 -150.5 -243c-44 0 -86.333 8.33301 -127 25s-81.167 40 -121.5 70s-74.833 56.667 -103.5 80s-52.667 38.666 -72 45.999
c-37.333 62.667 -98.5 152.5 -183.5 269.5s-151.667 215.833 -200 296.5s-86.5 168.334 -114.5 263.001c17.333 4 47.333 7.5 90 10.5s75.667 7.16699 99 12.5s40.333 16.333 51 33c32 0 63.667 -6.33301 95 -19s57 -31.667 77 -57s30 -55.333 30 -90
c47.333 0 83.666 -13.167 108.999 -39.5s45.5 -60.166 60.5 -101.499l47.5 -130c16.667 -45.333 36.667 -78 60 -98l129 -166c57.333 41.333 105.5 89.833 144.5 145.5s82.667 127.667 131 216s92.333 158.666 132 210.999s88.167 95.166 145.5 128.499l-55 -222
c37.333 0 68.333 12.667 93 38s52.167 64 82.5 116s57.666 92.667 81.999 122s55.166 48 92.499 56zM313.003 995.001v74l-18 37zM387.003 553.001c-8.66699 18 -26.667 48.832 -54 92.499s-55.833 91.834 -85.5 144.501s-54.5 101.667 -74.5 147s-34.667 89.333 -44 132
c47.333 -12 82.833 -37.5 106.5 -76.5s41.667 -84.833 54 -137.5l40 -165.5c14.333 -57.667 33.5 -103.167 57.5 -136.5zM369.003 811l110 -240l19 19l-111 221h-18zM1235 700l-74 -110h19l92 92z" />
    <glyph glyph-name="w" unicode="w" horiz-adv-x="2009" 
d="M1862 1640c-17.333 -30.667 -31.1602 -63.0039 -41.4932 -97.0039s-18 -64.5 -23 -91.5l-20.5 -116c-8.66699 -50.333 -17.334 -89.833 -26.001 -118.5l111 55l55 -111c24.667 32.667 43.5 67.334 56.5 104.001s24.833 82 35.5 136c-16.667 -84 -43 -170.833 -79 -260.5
s-76.5 -180 -121.5 -271l-142.5 -288.5c-50 -101.333 -89.333 -190.666 -118 -267.999c-63.333 0 -130.666 -12.333 -201.999 -37c-38.667 212 -100.334 402.667 -185.001 572c-20 -30.667 -41.667 -66.5 -65 -107.5s-47.333 -86.333 -72 -136l-63.5 -127l-57.5 -108.5
c-10.667 -16.667 -26.334 -27.667 -47.001 -33s-50.667 -9.5 -90 -12.5s-67.333 -6.5 -84 -10.5v-258l147 37c0 -17.333 -2 -31.166 -6 -41.499s-9 -18.166 -15 -23.499s-13.667 -10 -23 -14l-29 -13c-132.667 86.667 -247.834 197.5 -345.501 332.5
s-178.334 282 -242.001 441s-119.834 331.167 -168.501 516.5c26.667 -44.667 51.167 -92.5 73.5 -143.5s49.5 -117.167 81.5 -198.5s59.833 -147.833 83.5 -199.5s48.5 -98.5 74.5 -140.5c11.333 46.667 19.833 96.5 25.5 149.5s9 113.833 10 182.5
s1.5 179.334 1.5 332.001c36 -17.333 66.5 -36.333 91.5 -57s37.5 -51 37.5 -91c0 -36.667 6.33301 -61 19 -73h37l18 239c7.33301 -22.667 28.166 -62.834 62.499 -120.501s60.166 -105.5 77.499 -143.5s26 -79 26 -123c44.667 10.667 92 28.334 142 53.001
s98.5 55.5 145.5 92.5s89.5 79.333 127.5 127s65.667 98.167 83 151.5c42 -29.333 71 -63.5 87 -102.5s28.667 -90.667 38 -155s19.5 -115.333 30.5 -153s32.833 -72.834 65.5 -105.501c46 41.333 85.667 95 119 161s68.833 149.833 106.5 251.5s70.5 184 98.5 247
s61.333 119.5 100 169.5zM1880.01 1161l-55 -129l37 -18l55 147h-37zM608.006 939.996l56 -203h18l-37 221zM1788.01 939.996l-148 -258h37l129 258h-18zM774.006 736.996h55l111 185zM461.006 331.996l-92 221l-19 18zM498.006 552.996l110 -350h37l-110 350h-37z" />
    <glyph glyph-name="x" unicode="x" horiz-adv-x="1309" 
d="M1235 1272c0 -38 -5.66895 -70.001 -17.002 -96.001s-26.666 -55.667 -45.999 -89s-29 -57.666 -29 -72.999c0 -18.667 18.333 -37.334 55 -56.001c-19.333 -30.667 -46.166 -87.167 -80.499 -169.5s-66.166 -147.5 -95.499 -195.5s-69 -86 -119 -114l203 -239
l-22.5 -22.5l-14.5 -14.5c0 -16 7.66699 -30.833 23 -44.5l46 -41c15.333 -13.667 23 -28.167 23 -43.5c-36.667 0 -64.167 -5.66699 -82.5 -17s-27.5 -30.333 -27.5 -57l-222 313c-36 -26 -77.667 -68.333 -125 -127s-83.333 -100.667 -108 -126
s-57.334 -45.333 -98.001 -60c0 17.333 2.66699 31 8 41s13 19.5 23 28.5s18 16.5 24 22.5l-111 148c-18 -19.333 -37.667 -37.833 -59 -55.5s-43.333 -31.334 -66 -41.001s-48.334 -14.5 -77.001 -14.5l-74 74c53.333 20.667 97.666 49.667 132.999 87
s75 86.166 119 146.499s83 105.166 117 134.499c-34 38.667 -74 100.834 -120 186.501s-81.833 149.334 -107.5 191.001s-64 82.334 -115 122.001s-115.167 63.834 -192.5 72.501v55c22 -5.33301 58.833 -13.333 110.5 -24s90.834 -20.167 117.501 -28.5
s54.334 -21.5 83.001 -39.5s54 -42.667 76 -74l37 129l295 -424c36 48.667 75.167 92.667 117.5 132s93 84 152 134s107.833 95.333 146.5 136s72 85 100 133zM386.998 902.999l148 -166l18 19l-129 166zM865.998 534.999c0 37.333 8.33105 64.833 24.998 82.5
s43.834 39.167 81.501 64.5s63.834 50 78.501 74zM644.996 478.999l-203 -184l19 -19l184 185v18z" />
    <glyph glyph-name="y" unicode="y" horiz-adv-x="1438" 
d="M1198 1659c0 4.66699 3.16699 13.6689 9.5 27.002s9.5 22.666 9.5 27.999c45.333 0 89 -12.333 131 -37s72 -55.334 90 -92.001c-39.333 -97.333 -85.666 -187.833 -138.999 -271.5s-111.666 -152.834 -174.999 -207.501h-110
c-31.333 -66.667 -60.833 -123.334 -88.5 -170.001l-149 -250.5c-71.667 -120.333 -124.5 -213.5 -158.5 -279.5s-61.667 -133.667 -83 -203c-40.667 0 -76.5 -1.5 -107.5 -4.5s-62.5 -7 -94.5 -12l-90.5 -14c-28.333 -4.33301 -53.833 -6.5 -76.5 -6.5
c-36.667 0 -67.167 5 -91.5 15s-49.166 35.667 -74.499 77c81.333 0 153.833 15.333 217.5 46s118 68.334 163 113.001s93.667 102.334 146 173.001l81.5 110l-442 848c28 0 54.167 -4.83301 78.5 -14.5s46.666 -21.334 66.999 -35.001s42.166 -27.167 65.499 -40.5
s45 -20 65 -20c14 0 45 12.333 93 37c28 -23.333 48.333 -51.333 61 -84s22.167 -73.5 28.5 -122.5s12.666 -87.5 18.999 -115.5s19.166 -56 38.499 -84c36.667 32.667 69.834 70.334 99.501 113.001s55.667 86.5 78 131.5l74.5 154.5c27.333 58 54 109.333 80 154
c14.667 20 32.667 32 54 36s37.833 7.83301 49.5 11.5s20.167 18.5 25.5 44.5zM1217 1475l92 73l-37 37zM553 1180c-15.333 24.667 -34.5 61 -57.5 109s-34.5 91.333 -34.5 130z" />
    <glyph glyph-name="z" unicode="z" horiz-adv-x="1475" 
d="M1475 1327l-774.999 166c43.333 -38 99.166 -66.333 167.499 -85s144.333 -31.334 228 -38.001l229.5 -18c69.333 -5.33301 119.333 -13.666 150 -24.999zM793.001 1161l479.002 -0.00683594c0 -21.333 -6.33301 -37.5 -19 -48.5s-28 -20 -46 -27s-27 -12.5 -27 -16.5
c0 -13.333 12.333 -31.666 37 -54.999c-118 0 -224.167 -37.167 -318.5 -111.5s-171.833 -159.166 -232.5 -254.499s-123 -207 -187 -335c66.667 9.33301 147.667 22.5 243 39.5l220.5 38.5c51.667 8.66699 111.167 16.334 178.5 23.001s142.333 10 225 10
c-74.667 -74 -173 -111 -295 -111c-24 0 -70.333 3.16699 -139 9.5s-114.667 9.5 -138 9.5c-42.667 0 -80.167 -4.16699 -112.5 -12.5s-68.5 -22.833 -108.5 -43.5c49.333 -14 98.166 -26.5 146.499 -37.5s94.833 -19.667 139.5 -26s90.667 -9.5 138 -9.5
c67.333 0 135.833 6.83301 205.5 20.5s142.5 31.167 218.5 52.5c-28 -28 -54.5 -47.167 -79.5 -57.5s-61.167 -20 -108.5 -29s-83 -16.833 -107 -23.5l166 -55l-461 -19l37 -37c-114.667 0 -215.667 -1 -303 -3s-177.833 -7.16699 -271.5 -15.5s-172.5 -20.5 -236.5 -36.5
c0 20.667 7.16699 36.167 21.5 46.5s34.333 19.166 60 26.499s45.334 14.333 59.001 21s22.167 18.334 25.5 35.001c-16 10 -30.833 16.333 -44.5 19s-37.334 5.33398 -71.001 8.00098s-56.834 6 -69.501 10c0 7.33301 -3 17.5 -9 30.5s-9 21.167 -9 24.5h37
c32.667 70 72.5 131.333 119.5 184s112 115.834 195 189.501s146.667 133.5 191 179.5s84.833 101.333 121.5 166c-39.333 4.66699 -91.666 7.33398 -156.999 8.00098s-126 1.33398 -182 2.00098s-96.667 3.33398 -122 8.00098c6.66699 6.66699 19.5 17.334 38.5 32.001
s32.667 27.167 41 37.5s12.5 24.166 12.5 41.499c0 6 -5.5 18.5 -16.5 37.5s-17.833 31.167 -20.5 36.5c-18 12.667 -45.333 23.667 -82 33s-62.834 19.5 -78.501 30.5s-23.5 32.833 -23.5 65.5c65.333 -49.333 126.666 -74 183.999 -74c31.333 0 65.333 6.16699 102 18.5
l110 37c36.667 12.333 70.334 18.5 101.001 18.5c41.333 0 80 -7.83301 116 -23.5s71.333 -44.834 106 -87.501z" />
    <glyph glyph-name="braceleft" unicode="{" horiz-adv-x="1253" 
d="M1253 2728c-11.333 -7.33301 -80.999 -46.502 -208.999 -117.502s-229.833 -137.5 -305.5 -199.5s-137.834 -139.5 -186.501 -232.5s-73 -204.833 -73 -335.5c34 -58.667 54.833 -111.667 62.5 -159s11.5 -111 11.5 -191l-74 -37
c21.333 -36.667 34.666 -74.334 39.999 -113.001s10.166 -99.167 14.499 -181.5s10.833 -143.833 19.5 -184.5c23.333 -46 39.666 -101.167 48.999 -165.5s17 -119.666 23 -165.999s19.833 -91.5 41.5 -135.5s57.5 -85 107.5 -123c14.667 6.66699 36.5 21.834 65.5 45.501
s52.5 40.5 70.5 50.5s40.333 15 67 15c-5.33301 -44.667 -19.666 -81.334 -42.999 -110.001s-52.5 -51 -87.5 -67s-77.5 -31 -127.5 -45h-19c-24 -24 -36 -42.333 -36 -55c0 -17.333 3.5 -32.833 10.5 -46.5s17.833 -31.167 32.5 -52.5s24.667 -37.333 30 -48
c48.667 0 121 3 217 9s146.667 9 152 9c-26.667 -15.333 -59.167 -26 -97.5 -32s-89 -10.333 -152 -13s-108.833 -6 -137.5 -10c-64 112.667 -115.5 208.334 -154.5 287.001s-75.167 164.5 -108.5 257.5s-59.333 190.5 -78 292.5s-28 204 -28 306l-110 55l18 37l-258 313
c90.667 0 167.167 17.833 229.5 53.5s102.5 85.5 120.5 149.5c-4.66699 34 -14.5 82.333 -29.5 145s-26.167 113.834 -33.5 153.501s-11 81.5 -11 125.5c0 62 9 115.167 27 159.5s52.333 83.166 103 116.5c45.333 53.333 100.5 88.333 165.5 105s150.833 26.834 257.5 30.5
c106.667 3.66699 190.834 10.834 252.501 21.5c61.667 10.667 118.834 38.334 171.501 83zM369.001 1548h110l-55 166zM442.001 1475l-73 -0.000976562l55 -56c12 12.667 18 31.334 18 56.001zM535.001 626.997c-24.667 25.333 -40 54.833 -46 88.5s-9 78.834 -9 135.501
s-3.16699 103 -9.5 139s-21.833 68.333 -46.5 97l45 -118.5c11.333 -31 22 -63.833 32 -98.5s18.167 -71.834 24.5 -111.501s9.5 -83.5 9.5 -131.5z" />
    <glyph glyph-name="bar" unicode="|" horiz-adv-x="406" 
d="M313 1382c11.333 18 18.333 37.5 21 58.5s4.83398 51.5 6.50098 91.5s4.83398 70 9.50098 90h56c-8.66699 -128.667 -14.5 -251.667 -17.5 -369s-5.33301 -243.833 -7 -379.5s-3.16699 -287.167 -4.5 -454.5s-4 -307 -8 -419c-3.33301 24 -10.5 41.167 -21.5 51.5
s-26.833 21.166 -47.5 32.499s-35.834 23.666 -45.501 36.999s-14.5 34.333 -14.5 63c-12.667 -12 -19 -48.667 -19 -110h-92c0 145.333 5.33301 263 16 353s26 200.667 46 332s30 228.666 30 291.999c0 75.333 -7.66699 143.833 -23 205.5s-44.333 122.167 -87 181.5
c30 4.66699 51.667 14.667 65 30s22.333 37 27 65l13.5 79c4.33301 24.667 12.166 46.334 23.499 65.001l-19 129c21.333 -14 38.333 -33.167 51 -57.5s22.667 -64.666 30 -120.999s11 -138.166 11 -245.499z" />
    <glyph glyph-name="braceright" unicode="}" horiz-adv-x="819" 
d="M633 2879c16 -47.333 29 -95.502 39 -144.502s17.5 -100.167 22.5 -153.5s7.5 -104.666 7.5 -154c0 -88 -11.333 -179 -34 -273l-129 -362c36.667 -30.667 65.167 -63 85.5 -97s41.5 -79.167 63.5 -135.5s41.5 -102.166 58.5 -137.499s41.167 -71 72.5 -107
c-34 -27.333 -69.833 -66.666 -107.5 -117.999s-73.334 -108.5 -107.001 -171.5s-67.167 -134.333 -100.5 -214s-60.666 -153.5 -81.999 -221.5c14 -28 23.333 -48.5 28 -61.5s7 -30.167 7 -51.5c0 -30.667 -4.5 -65.5 -13.5 -104.5s-20.333 -78.167 -34 -117.5l-44 -122.5
c-15.667 -42.333 -28.167 -78.833 -37.5 -109.5l-91 13.5c-24.667 3.66699 -46.834 10.167 -66.501 19.5s-37.167 26 -52.5 50s-27.333 57 -36 99c31.333 30 57 57.667 77 83s37.333 57.666 52 96.999l-94 205c16.667 30 28.334 45 35.001 45
c12.667 0 29.834 -12 51.501 -36s41 -42.833 58 -56.5s39.167 -20.5 66.5 -20.5l116 793c6.66699 8 19.5 19.5 38.5 34.5s33.167 31.167 42.5 48.5s14 43 14 77c-50.667 0 -84.834 18.667 -102.501 56s-26.5 86 -26.5 146c0 33.333 3.66699 86.333 11 159
s11 126.334 11 161.001l47 520c-25.333 6.66699 -57.833 19 -97.5 37s-72.5 31.667 -98.5 41s-54 14 -84 14c0 -40 -7.66699 -91.667 -23 -155s-31 -95 -47 -95c-9.33301 24 -15.666 62.333 -18.999 115s-7.5 94.5 -12.5 125.5s-17.833 56.833 -38.5 77.5h-59
c8 35.333 20.333 64.166 37 86.5c16.667 22.333 42.167 47.833 76.5 76.5s59.166 50.5 74.499 65.5s30.333 37.167 45 66.5c80 60 154.667 90 224 90c38 0 72.667 -14.333 104 -43s55.333 -75.334 72 -140zM633 2654c-10.667 196.667 -65.332 295 -163.999 295
c-21.333 0 -42.833 -3.66699 -64.5 -11s-47.834 -18.166 -78.501 -32.5c-30.667 -14.333 -50 -23.166 -58 -26.5h201c38.667 -30.667 65.667 -72.167 81 -124.5s23 -116.5 23 -192.5c0 -53.333 -5.66699 -146.5 -17 -279.5s-17 -236.5 -17 -310.5
c42 62 68.167 149.5 78.5 262.5s15.5 252.833 15.5 419.5zM737.002 1270c0 36.667 -4 64.499 -12 83.499s-17 31.167 -27 36.5s-23.5 11 -40.5 17s-29.167 13.667 -36.5 23c0 -60 -4.5 -104.333 -13.5 -133s-22.167 -57 -39.5 -85s-30.666 -58.167 -39.999 -90.5
s-14 -81.166 -14 -146.499c15.333 58 34.166 103.667 56.499 137s48.833 62.5 79.5 87.5zM211.002 226.997h117v135z" />
    <glyph glyph-name="asciitilde" unicode="~" horiz-adv-x="1493" 
d="M1475 424c-24 -24 -61.5 -70.3311 -112.5 -138.998s-89.667 -118.334 -116 -149.001s-60.666 -59.834 -102.999 -87.501s-91.833 -43.834 -148.5 -48.501c-44.667 4.66699 -86.167 17.5 -124.5 38.5s-86.833 52.833 -145.5 95.5s-107 74 -145 94s-77.667 30 -119 30
c-26.667 0 -51 -4.5 -73 -13.5s-47 -22.833 -75 -41.5c-4.66699 -9.33301 -7.33398 -19.333 -8.00098 -30l-2 -31.5c-0.666992 -10.333 -3.33398 -20.5 -8.00098 -30.5c-9.33301 -6 -25.166 -11.333 -47.499 -16s-40 -9 -53 -13s-24.167 -12.167 -33.5 -24.5
s-14 -31.5 -14 -57.5h-73c0 60 7.66699 110.667 23 152s34 74 56 98s51.333 50 88 78s60.667 47.667 72 59c36.667 36.667 73.667 55 111 55c25.333 0 53.166 -4.5 83.499 -13.5l91 -27.5c30.333 -9.33301 58.166 -14 83.499 -14c33.333 -65.333 72.833 -115.5 118.5 -150.5
s110.5 -52.5 194.5 -52.5c44 16.667 72.667 40.667 86 72s23.5 73.833 30.5 127.5s17.5 91.834 31.5 114.501c4.66699 0 13.334 3 26.001 9s22.334 9 29.001 9l19 -258l184 369c33.333 -16.667 54 -40 62 -70s12 -74.333 12 -133z" />
    <glyph glyph-name="quotedblleft" unicode="&#x201c;" horiz-adv-x="0" 
 />
    <glyph glyph-name="quotedblright" unicode="&#x201d;" horiz-adv-x="0" 
 />
    <glyph glyph-name=".null" horiz-adv-x="0" 
 />
    <glyph glyph-name="nonmarkingreturn" horiz-adv-x="0" 
 />
  </font>
</defs>
</svg>
